  0
SECTION
  2
HEADER
  9
$ACADVER
  1
AC1032
  9
$ACADMAINTVER
 90
       55
  9
$DWGCODEPAGE
  3
ANSI_1251
  9
$LASTSAVEDBY
  1
aveic
  9
$REQUIREDVERSIONS
160
                 0
  9
$INSBASE
 10
0.0
 20
0.0
 30
0.0
  9
$EXTMIN
 10
-6.90637
 20
-8.08973
 30
0.0
  9
$EXTMAX
 10
8.68853
 20
7.27767
 30
0.0
  9
$LIMMIN
 10
0.0
 20
0.0
  9
$LIMMAX
 10
12.0
 20
9.0
  9
$ORTHOMODE
 70
     0
  9
$REGENMODE
 70
     1
  9
$FILLMODE
 70
     1
  9
$QTEXTMODE
 70
     0
  9
$MIRRTEXT
 70
     1
  9
$LTSCALE
 40
1.0
  9
$ATTMODE
 70
     1
  9
$TEXTSIZE
 40
0.2
  9
$TRACEWID
 40
0.05
  9
$TEXTSTYLE
  7
Standard
  9
$CLAYER
  8
0
  9
$CELTYPE
  6
ByLayer
  9
$CECOLOR
 62
   256
  9
$CELTSCALE
 40
1.0
  9
$DISPSILH
 70
     0
  9
$DIMSCALE
 40
1.0
  9
$DIMASZ
 40
0.18
  9
$DIMEXO
 40
0.0625
  9
$DIMDLI
 40
0.38
  9
$DIMRND
 40
0.0
  9
$DIMDLE
 40
0.0
  9
$DIMEXE
 40
0.18
  9
$DIMTP
 40
0.0
  9
$DIMTM
 40
0.0
  9
$DIMTXT
 40
0.18
  9
$DIMCEN
 40
0.09
  9
$DIMTSZ
 40
0.0
  9
$DIMTOL
 70
     0
  9
$DIMLIM
 70
     0
  9
$DIMTIH
 70
     1
  9
$DIMTOH
 70
     1
  9
$DIMSE1
 70
     0
  9
$DIMSE2
 70
     0
  9
$DIMTAD
 70
     0
  9
$DIMZIN
 70
     0
  9
$DIMBLK
  1

  9
$DIMASO
 70
     1
  9
$DIMSHO
 70
     1
  9
$DIMPOST
  1

  9
$DIMAPOST
  1

  9
$DIMALT
 70
     0
  9
$DIMALTD
 70
     2
  9
$DIMALTF
 40
25.4
  9
$DIMLFAC
 40
1.0
  9
$DIMTOFL
 70
     0
  9
$DIMTVP
 40
0.0
  9
$DIMTIX
 70
     0
  9
$DIMSOXD
 70
     0
  9
$DIMSAH
 70
     0
  9
$DIMBLK1
  1

  9
$DIMBLK2
  1

  9
$DIMSTYLE
  2
Standard
  9
$DIMCLRD
 70
     0
  9
$DIMCLRE
 70
     0
  9
$DIMCLRT
 70
     0
  9
$DIMTFAC
 40
1.0
  9
$DIMGAP
 40
0.09
  9
$DIMJUST
 70
     0
  9
$DIMSD1
 70
     0
  9
$DIMSD2
 70
     0
  9
$DIMTOLJ
 70
     1
  9
$DIMTZIN
 70
     0
  9
$DIMALTZ
 70
     0
  9
$DIMALTTZ
 70
     0
  9
$DIMUPT
 70
     0
  9
$DIMDEC
 70
     4
  9
$DIMTDEC
 70
     4
  9
$DIMALTU
 70
     2
  9
$DIMALTTD
 70
     2
  9
$DIMTXSTY
  7
Standard
  9
$DIMAUNIT
 70
     0
  9
$DIMADEC
 70
     0
  9
$DIMALTRND
 40
0.0
  9
$DIMAZIN
 70
     0
  9
$DIMDSEP
 70
    46
  9
$DIMATFIT
 70
     3
  9
$DIMFRAC
 70
     0
  9
$DIMLDRBLK
  1

  9
$DIMLUNIT
 70
     2
  9
$DIMLWD
 70
    -2
  9
$DIMLWE
 70
    -2
  9
$DIMTMOVE
 70
     0
  9
$DIMFXL
 40
1.0
  9
$DIMFXLON
 70
     0
  9
$DIMJOGANG
 40
0.7853981633974483
  9
$DIMTFILL
 70
     0
  9
$DIMTFILLCLR
 70
     0
  9
$DIMARCSYM
 70
     0
  9
$DIMLTYPE
  6

  9
$DIMLTEX1
  6

  9
$DIMLTEX2
  6

  9
$DIMTXTDIRECTION
 70
     0
  9
$LUNITS
 70
     2
  9
$LUPREC
 70
     4
  9
$SKETCHINC
 40
0.1
  9
$FILLETRAD
 40
0.0
  9
$AUNITS
 70
     0
  9
$AUPREC
 70
     0
  9
$MENU
  1
.
  9
$ELEVATION
 40
0.0
  9
$PELEVATION
 40
0.0
  9
$THICKNESS
 40
0.0
  9
$LIMCHECK
 70
     0
  9
$CHAMFERA
 40
0.0
  9
$CHAMFERB
 40
0.0
  9
$CHAMFERC
 40
0.0
  9
$CHAMFERD
 40
0.0
  9
$SKPOLY
 70
     0
  9
$TDCREATE
 40
2461205.106638449
  9
$TDUCREATE
 40
2461204.981638449
  9
$TDUPDATE
 40
2461205.106638519
  9
$TDUUPDATE
 40
2461204.981638519
  9
$TDINDWG
 40
0.0000000116
  9
$TDUSRTIMER
 40
0.0000000116
  9
$USRTIMER
 70
     1
  9
$ANGBASE
 50
0.0
  9
$ANGDIR
 70
     0
  9
$PDMODE
 70
     0
  9
$PDSIZE
 40
0.0
  9
$PLINEWID
 40
0.0
  9
$SPLFRAME
 70
     0
  9
$SPLINETYPE
 70
     6
  9
$SPLINESEGS
 70
     8
  9
$HANDSEED
  5
6E
  9
$SURFTAB1
 70
     6
  9
$SURFTAB2
 70
     6
  9
$SURFTYPE
 70
     6
  9
$SURFU
 70
     6
  9
$SURFV
 70
     6
  9
$UCSBASE
  2

  9
$UCSNAME
  2

  9
$UCSORG
 10
0.0
 20
0.0
 30
0.0
  9
$UCSXDIR
 10
1.0
 20
0.0
 30
0.0
  9
$UCSYDIR
 10
0.0
 20
1.0
 30
0.0
  9
$UCSORTHOREF
  2

  9
$UCSORTHOVIEW
 70
     0
  9
$UCSORGTOP
 10
0.0
 20
0.0
 30
0.0
  9
$UCSORGBOTTOM
 10
0.0
 20
0.0
 30
0.0
  9
$UCSORGLEFT
 10
0.0
 20
0.0
 30
0.0
  9
$UCSORGRIGHT
 10
0.0
 20
0.0
 30
0.0
  9
$UCSORGFRONT
 10
0.0
 20
0.0
 30
0.0
  9
$UCSORGBACK
 10
0.0
 20
0.0
 30
0.0
  9
$PUCSBASE
  2

  9
$PUCSNAME
  2

  9
$PUCSORG
 10
0.0
 20
0.0
 30
0.0
  9
$PUCSXDIR
 10
1.0
 20
0.0
 30
0.0
  9
$PUCSYDIR
 10
0.0
 20
1.0
 30
0.0
  9
$PUCSORTHOREF
  2

  9
$PUCSORTHOVIEW
 70
     0
  9
$PUCSORGTOP
 10
0.0
 20
0.0
 30
0.0
  9
$PUCSORGBOTTOM
 10
0.0
 20
0.0
 30
0.0
  9
$PUCSORGLEFT
 10
0.0
 20
0.0
 30
0.0
  9
$PUCSORGRIGHT
 10
0.0
 20
0.0
 30
0.0
  9
$PUCSORGFRONT
 10
0.0
 20
0.0
 30
0.0
  9
$PUCSORGBACK
 10
0.0
 20
0.0
 30
0.0
  9
$USERI1
 70
     0
  9
$USERI2
 70
     0
  9
$USERI3
 70
     0
  9
$USERI4
 70
     0
  9
$USERI5
 70
     0
  9
$USERR1
 40
0.0
  9
$USERR2
 40
0.0
  9
$USERR3
 40
0.0
  9
$USERR4
 40
0.0
  9
$USERR5
 40
0.0
  9
$WORLDVIEW
 70
     1
  9
$SHADEDGE
 70
     3
  9
$SHADEDIF
 70
    70
  9
$TILEMODE
 70
     1
  9
$MAXACTVP
 70
    64
  9
$PINSBASE
 10
0.0
 20
0.0
 30
0.0
  9
$PLIMCHECK
 70
     0
  9
$PEXTMIN
 10
1.000000000000000E+20
 20
1.000000000000000E+20
 30
1.000000000000000E+20
  9
$PEXTMAX
 10
-1.000000000000000E+20
 20
-1.000000000000000E+20
 30
-1.000000000000000E+20
  9
$PLIMMIN
 10
0.0
 20
0.0
  9
$PLIMMAX
 10
12.0
 20
9.0
  9
$UNITMODE
 70
     0
  9
$VISRETAIN
 70
     1
  9
$PLINEGEN
 70
     0
  9
$PSLTSCALE
 70
     1
  9
$TREEDEPTH
 70
  3020
  9
$CMLSTYLE
  2
Standard
  9
$CMLJUST
 70
     0
  9
$CMLSCALE
 40
1.0
  9
$PROXYGRAPHICS
 70
     1
  9
$MEASUREMENT
 70
     0
  9
$CELWEIGHT
370
    -1
  9
$ENDCAPS
280
     0
  9
$JOINSTYLE
280
     0
  9
$LWDISPLAY
290
     0
  9
$INSUNITS
 70
     5
  9
$HYPERLINKBASE
  1

  9
$STYLESHEET
  1

  9
$XEDIT
290
     1
  9
$CEPSNTYPE
380
     0
  9
$PSTYLEMODE
290
     1
  9
$FINGERPRINTGUID
  2
{c5588319-29f1-4343-a589-bb53dabc20ec}
  9
$VERSIONGUID
  2
{FAEB1C32-E019-11D5-929B-00C0DF256EC4}
  9
$EXTNAMES
290
     1
  9
$PSVPSCALE
 40
0.0
  9
$OLESTARTUP
290
     0
  9
$SORTENTS
280
   127
  9
$INDEXCTL
280
     0
  9
$HIDETEXT
280
     1
  9
$XCLIPFRAME
280
     2
  9
$HALOGAP
280
     0
  9
$OBSCOLOR
 70
   257
  9
$OBSLTYPE
280
     0
  9
$INTERSECTIONDISPLAY
280
     0
  9
$INTERSECTIONCOLOR
 70
   257
  9
$DIMASSOC
280
     2
  9
$PROJECTNAME
  1

  9
$CAMERADISPLAY
290
     0
  9
$LENSLENGTH
 40
50.0
  9
$CAMERAHEIGHT
 40
0.0
  9
$STEPSPERSEC
 40
2.0
  9
$STEPSIZE
 40
6.0
  9
$3DDWFPREC
 40
2.0
  9
$PSOLWIDTH
 40
0.25
  9
$PSOLHEIGHT
 40
4.0
  9
$LOFTANG1
 40
1.570796326794897
  9
$LOFTANG2
 40
1.570796326794897
  9
$LOFTMAG1
 40
0.0
  9
$LOFTMAG2
 40
0.0
  9
$LOFTPARAM
 70
     7
  9
$LOFTNORMALS
280
     1
  9
$LATITUDE
 40
37.795
  9
$LONGITUDE
 40
-122.394
  9
$NORTHDIRECTION
 40
0.0
  9
$TIMEZONE
 70
 -8000
  9
$LIGHTGLYPHDISPLAY
280
     1
  9
$TILEMODELIGHTSYNCH
280
     1
  9
$CMATERIAL
347
44
  9
$SOLIDHIST
280
     0
  9
$SHOWHIST
280
     1
  9
$DWFFRAME
280
     2
  9
$DGNFRAME
280
     2
  9
$REALWORLDSCALE
290
     1
  9
$INTERFERECOLOR
 62
   256
  9
$CSHADOW
280
     0
  9
$SHADOWPLANELOCATION
 40
0.0
  0
ENDSEC
  0
SECTION
  2
CLASSES
  0
CLASS
  1
ACDBDICTIONARYWDFLT
  2
AcDbDictionaryWithDefault
  3
ObjectDBX Classes
 90
        0
 91
        3
280
     0
281
     0
  0
CLASS
  1
VISUALSTYLE
  2
AcDbVisualStyle
  3
ObjectDBX Classes
 90
     4095
 91
        3
280
     0
281
     0
  0
CLASS
  1
MATERIAL
  2
AcDbMaterial
  3
ObjectDBX Classes
 90
     1153
 91
        3
280
     0
281
     0
  0
CLASS
  1
SCALE
  2
AcDbScale
  3
ObjectDBX Classes
 90
     1153
 91
        3
280
     0
281
     0
  0
CLASS
  1
TABLESTYLE
  2
AcDbTableStyle
  3
ObjectDBX Classes
 90
     4095
 91
        3
280
     0
281
     0
  0
CLASS
  1
MLEADERSTYLE
  2
AcDbMLeaderStyle
  3
ACDB_MLEADERSTYLE_CLASS
 90
     4095
 91
        3
280
     0
281
     0
  0
CLASS
  1
SUN
  2
AcDbSun
  3
SCENEOE
 90
     1153
 91
        3
280
     0
281
     0
  0
CLASS
  1
DICTIONARYVAR
  2
AcDbDictionaryVar
  3
ObjectDBX Classes
 90
        0
 91
        3
280
     0
281
     0
  0
CLASS
  1
CELLSTYLEMAP
  2
AcDbCellStyleMap
  3
ObjectDBX Classes
 90
     1152
 91
        3
280
     0
281
     0
  0
ENDSEC
  0
SECTION
  2
TABLES
  0
TABLE
  2
VPORT
  5
8
330
0
100
AcDbSymbolTable
 70
     1
  0
VPORT
  5
29
330
8
100
AcDbSymbolTableRecord
100
AcDbViewportTableRecord
  2
*Active
 70
     0
 10
0.0
 20
0.0
 11
1.0
 21
1.0
 12
10.42990654205607
 22
4.5
 13
0.0
 23
0.0
 14
0.5
 24
0.5
 15
0.5
 25
0.5
 16
0.0
 26
0.0
 36
1.0
 17
0.0
 27
0.0
 37
0.0
 40
9.0
 41
1.972972972850329
 42
50.0
 43
0.0
 44
0.0
 50
0.0
 51
0.0
 71
     0
 72
   100
 73
     1
 74
     3
 75
     0
 76
     0
 77
     0
 78
     0
281
     0
 65
     1
110
0.0
120
0.0
130
0.0
111
1.0
121
0.0
131
0.0
112
0.0
122
1.0
132
0.0
 79
     0
146
0.0
348
2F
 60
     3
 61
     5
292
     1
282
     1
141
0.0
142
0.0
 63
   250
361
5D
  0
ENDTAB
  0
TABLE
  2
LTYPE
  5
5
330
0
100
AcDbSymbolTable
 70
     1
  0
LTYPE
  5
14
330
5
100
AcDbSymbolTableRecord
100
AcDbLinetypeTableRecord
  2
ByBlock
 70
     0
  3

 72
    65
 73
     0
 40
0.0
  0
LTYPE
  5
15
330
5
100
AcDbSymbolTableRecord
100
AcDbLinetypeTableRecord
  2
ByLayer
 70
     0
  3

 72
    65
 73
     0
 40
0.0
  0
LTYPE
  5
16
330
5
100
AcDbSymbolTableRecord
100
AcDbLinetypeTableRecord
  2
Continuous
 70
     0
  3
Solid line
 72
    65
 73
     0
 40
0.0
  0
ENDTAB
  0
TABLE
  2
LAYER
  5
2
330
0
100
AcDbSymbolTable
 70
     2
  0
LAYER
  5
10
330
2
100
AcDbSymbolTableRecord
100
AcDbLayerTableRecord
  2
0
 70
     0
 62
     7
  6
Continuous
370
    -3
390
F
347
46
348
0
  0
LAYER
  5
5F
330
2
100
AcDbSymbolTableRecord
100
AcDbLayerTableRecord
  2
layer 1
 70
     0
 62
     7
  6
Continuous
370
    -3
390
F
347
46
348
0
  0
ENDTAB
  0
TABLE
  2
STYLE
  5
3
330
0
100
AcDbSymbolTable
 70
     1
  0
STYLE
  5
11
330
3
100
AcDbSymbolTableRecord
100
AcDbTextStyleTableRecord
  2
Standard
 70
     0
 40
0.0
 41
1.0
 50
0.0
 71
     0
 42
0.2
  3
txt
  4

  0
ENDTAB
  0
TABLE
  2
VIEW
  5
6
330
0
100
AcDbSymbolTable
 70
     0
  0
ENDTAB
  0
TABLE
  2
UCS
  5
7
330
0
100
AcDbSymbolTable
 70
     0
  0
ENDTAB
  0
TABLE
  2
APPID
  5
9
330
0
100
AcDbSymbolTable
 70
     2
  0
APPID
  5
12
330
9
100
AcDbSymbolTableRecord
100
AcDbRegAppTableRecord
  2
ACAD
 70
     0
  0
APPID
  5
5E
330
9
100
AcDbSymbolTableRecord
100
AcDbRegAppTableRecord
  2
ODA
 70
     0
  0
ENDTAB
  0
TABLE
  2
DIMSTYLE
  5
A
330
0
100
AcDbSymbolTable
 70
     1
100
AcDbDimStyleTable
  0
DIMSTYLE
105
27
330
A
100
AcDbSymbolTableRecord
100
AcDbDimStyleTableRecord
  2
Standard
 70
     0
178
     0
340
11
  0
ENDTAB
  0
TABLE
  2
BLOCK_RECORD
  5
1
330
0
100
AcDbSymbolTable
 70
     1
  0
BLOCK_RECORD
  5
1F
330
1
100
AcDbSymbolTableRecord
100
AcDbBlockTableRecord
  2
*Model_Space
340
22
 70
     0
280
     1
281
     0
  0
BLOCK_RECORD
  5
1B
330
1
100
AcDbSymbolTableRecord
100
AcDbBlockTableRecord
  2
*Paper_Space
340
1E
 70
     0
280
     1
281
     0
  0
BLOCK_RECORD
  5
23
330
1
100
AcDbSymbolTableRecord
100
AcDbBlockTableRecord
  2
*Paper_Space0
340
26
 70
     0
280
     1
281
     0
  0
ENDTAB
  0
ENDSEC
  0
SECTION
  2
BLOCKS
  0
BLOCK
  5
20
330
1F
100
AcDbEntity
  8
0
100
AcDbBlockBegin
  2
*Model_Space
 70
     0
 10
0.0
 20
0.0
 30
0.0
  3
*Model_Space
  1

  0
ENDBLK
  5
21
330
1F
100
AcDbEntity
  8
0
100
AcDbBlockEnd
  0
BLOCK
  5
1C
330
1B
100
AcDbEntity
 67
     1
  8
0
100
AcDbBlockBegin
  2
*Paper_Space
 70
     0
 10
0.0
 20
0.0
 30
0.0
  3
*Paper_Space
  1

  0
ENDBLK
  5
1D
330
1B
100
AcDbEntity
 67
     1
  8
0
100
AcDbBlockEnd
  0
BLOCK
  5
24
330
23
100
AcDbEntity
  8
0
100
AcDbBlockBegin
  2
*Paper_Space0
 70
     0
 10
0.0
 20
0.0
 30
0.0
  3
*Paper_Space0
  1

  0
ENDBLK
  5
25
330
23
100
AcDbEntity
  8
0
100
AcDbBlockEnd
  0
ENDSEC
  0
SECTION
  2
ENTITIES
  0
SPLINE
  5
60
330
1F
100
AcDbEntity
  8
layer 1
100
AcDbSpline
210
0.0
220
0.0
230
1.0
 70
    11
 71
     3
 72
   578
 73
   574
 74
     0
 42
0.0000000001
 43
0.0000000001
 40
0.0
 40
0.0
 40
0.0
 40
0.0
 40
0.0052356020942408
 40
0.0052356020942408
 40
0.0052356020942408
 40
0.0104712041884817
 40
0.0104712041884817
 40
0.0104712041884817
 40
0.0157068062827225
 40
0.0157068062827225
 40
0.0157068062827225
 40
0.0209424083769634
 40
0.0209424083769634
 40
0.0209424083769634
 40
0.0261780104712042
 40
0.0261780104712042
 40
0.0261780104712042
 40
0.031413612565445
 40
0.031413612565445
 40
0.031413612565445
 40
0.0366492146596859
 40
0.0366492146596859
 40
0.0366492146596859
 40
0.0418848167539267
 40
0.0418848167539267
 40
0.0418848167539267
 40
0.0471204188481675
 40
0.0471204188481675
 40
0.0471204188481675
 40
0.0523560209424084
 40
0.0523560209424084
 40
0.0523560209424084
 40
0.0575916230366492
 40
0.0575916230366492
 40
0.0575916230366492
 40
0.0628272251308901
 40
0.0628272251308901
 40
0.0628272251308901
 40
0.0680628272251309
 40
0.0680628272251309
 40
0.0680628272251309
 40
0.0732984293193717
 40
0.0732984293193717
 40
0.0732984293193717
 40
0.0785340314136126
 40
0.0785340314136126
 40
0.0785340314136126
 40
0.0837696335078534
 40
0.0837696335078534
 40
0.0837696335078534
 40
0.0890052356020943
 40
0.0890052356020943
 40
0.0890052356020943
 40
0.0942408376963351
 40
0.0942408376963351
 40
0.0942408376963351
 40
0.0994764397905759
 40
0.0994764397905759
 40
0.0994764397905759
 40
0.1047120418848168
 40
0.1047120418848168
 40
0.1047120418848168
 40
0.1099476439790576
 40
0.1099476439790576
 40
0.1099476439790576
 40
0.1151832460732984
 40
0.1151832460732984
 40
0.1151832460732984
 40
0.1204188481675393
 40
0.1204188481675393
 40
0.1204188481675393
 40
0.1256544502617801
 40
0.1256544502617801
 40
0.1256544502617801
 40
0.1308900523560209
 40
0.1308900523560209
 40
0.1308900523560209
 40
0.1361256544502618
 40
0.1361256544502618
 40
0.1361256544502618
 40
0.1413612565445026
 40
0.1413612565445026
 40
0.1413612565445026
 40
0.1465968586387435
 40
0.1465968586387435
 40
0.1465968586387435
 40
0.1518324607329843
 40
0.1518324607329843
 40
0.1518324607329843
 40
0.1570680628272251
 40
0.1570680628272251
 40
0.1570680628272251
 40
0.162303664921466
 40
0.162303664921466
 40
0.162303664921466
 40
0.1675392670157068
 40
0.1675392670157068
 40
0.1675392670157068
 40
0.1727748691099477
 40
0.1727748691099477
 40
0.1727748691099477
 40
0.1780104712041885
 40
0.1780104712041885
 40
0.1780104712041885
 40
0.1832460732984293
 40
0.1832460732984293
 40
0.1832460732984293
 40
0.1884816753926702
 40
0.1884816753926702
 40
0.1884816753926702
 40
0.193717277486911
 40
0.193717277486911
 40
0.193717277486911
 40
0.1989528795811518
 40
0.1989528795811518
 40
0.1989528795811518
 40
0.2041884816753927
 40
0.2041884816753927
 40
0.2041884816753927
 40
0.2094240837696335
 40
0.2094240837696335
 40
0.2094240837696335
 40
0.2146596858638743
 40
0.2146596858638743
 40
0.2146596858638743
 40
0.2198952879581152
 40
0.2198952879581152
 40
0.2198952879581152
 40
0.225130890052356
 40
0.225130890052356
 40
0.225130890052356
 40
0.2303664921465969
 40
0.2303664921465969
 40
0.2303664921465969
 40
0.2356020942408377
 40
0.2356020942408377
 40
0.2356020942408377
 40
0.2408376963350785
 40
0.2408376963350785
 40
0.2408376963350785
 40
0.2460732984293194
 40
0.2460732984293194
 40
0.2460732984293194
 40
0.2513089005235603
 40
0.2513089005235603
 40
0.2513089005235603
 40
0.256544502617801
 40
0.256544502617801
 40
0.256544502617801
 40
0.2617801047120419
 40
0.2617801047120419
 40
0.2617801047120419
 40
0.2670157068062827
 40
0.2670157068062827
 40
0.2670157068062827
 40
0.2722513089005236
 40
0.2722513089005236
 40
0.2722513089005236
 40
0.2774869109947644
 40
0.2774869109947644
 40
0.2774869109947644
 40
0.2827225130890053
 40
0.2827225130890053
 40
0.2827225130890053
 40
0.2879581151832461
 40
0.2879581151832461
 40
0.2879581151832461
 40
0.2931937172774869
 40
0.2931937172774869
 40
0.2931937172774869
 40
0.2984293193717278
 40
0.2984293193717278
 40
0.2984293193717278
 40
0.3036649214659686
 40
0.3036649214659686
 40
0.3036649214659686
 40
0.3089005235602094
 40
0.3089005235602094
 40
0.3089005235602094
 40
0.3141361256544503
 40
0.3141361256544503
 40
0.3141361256544503
 40
0.3193717277486911
 40
0.3193717277486911
 40
0.3193717277486911
 40
0.3246073298429319
 40
0.3246073298429319
 40
0.3246073298429319
 40
0.3298429319371728
 40
0.3298429319371728
 40
0.3298429319371728
 40
0.3350785340314136
 40
0.3350785340314136
 40
0.3350785340314136
 40
0.3403141361256545
 40
0.3403141361256545
 40
0.3403141361256545
 40
0.3455497382198953
 40
0.3455497382198953
 40
0.3455497382198953
 40
0.3507853403141362
 40
0.3507853403141362
 40
0.3507853403141362
 40
0.356020942408377
 40
0.356020942408377
 40
0.356020942408377
 40
0.3612565445026178
 40
0.3612565445026178
 40
0.3612565445026178
 40
0.3664921465968586
 40
0.3664921465968586
 40
0.3664921465968586
 40
0.3717277486910995
 40
0.3717277486910995
 40
0.3717277486910995
 40
0.3769633507853403
 40
0.3769633507853403
 40
0.3769633507853403
 40
0.3821989528795812
 40
0.3821989528795812
 40
0.3821989528795812
 40
0.387434554973822
 40
0.387434554973822
 40
0.387434554973822
 40
0.3926701570680629
 40
0.3926701570680629
 40
0.3926701570680629
 40
0.3979057591623037
 40
0.3979057591623037
 40
0.3979057591623037
 40
0.4031413612565445
 40
0.4031413612565445
 40
0.4031413612565445
 40
0.4083769633507854
 40
0.4083769633507854
 40
0.4083769633507854
 40
0.4136125654450262
 40
0.4136125654450262
 40
0.4136125654450262
 40
0.418848167539267
 40
0.418848167539267
 40
0.418848167539267
 40
0.4240837696335079
 40
0.4240837696335079
 40
0.4240837696335079
 40
0.4293193717277487
 40
0.4293193717277487
 40
0.4293193717277487
 40
0.4345549738219895
 40
0.4345549738219895
 40
0.4345549738219895
 40
0.4397905759162304
 40
0.4397905759162304
 40
0.4397905759162304
 40
0.4450261780104712
 40
0.4450261780104712
 40
0.4450261780104712
 40
0.4502617801047121
 40
0.4502617801047121
 40
0.4502617801047121
 40
0.4554973821989529
 40
0.4554973821989529
 40
0.4554973821989529
 40
0.4607329842931938
 40
0.4607329842931938
 40
0.4607329842931938
 40
0.4659685863874346
 40
0.4659685863874346
 40
0.4659685863874346
 40
0.4712041884816754
 40
0.4712041884816754
 40
0.4712041884816754
 40
0.4764397905759162
 40
0.4764397905759162
 40
0.4764397905759162
 40
0.4816753926701571
 40
0.4816753926701571
 40
0.4816753926701571
 40
0.4869109947643979
 40
0.4869109947643979
 40
0.4869109947643979
 40
0.4921465968586388
 40
0.4921465968586388
 40
0.4921465968586388
 40
0.4973821989528796
 40
0.4973821989528796
 40
0.4973821989528796
 40
0.5026178010471205
 40
0.5026178010471205
 40
0.5026178010471205
 40
0.5078534031413613
 40
0.5078534031413613
 40
0.5078534031413613
 40
0.5130890052356021
 40
0.5130890052356021
 40
0.5130890052356021
 40
0.518324607329843
 40
0.518324607329843
 40
0.518324607329843
 40
0.5235602094240838
 40
0.5235602094240838
 40
0.5235602094240838
 40
0.5287958115183247
 40
0.5287958115183247
 40
0.5287958115183247
 40
0.5340314136125655
 40
0.5340314136125655
 40
0.5340314136125655
 40
0.5392670157068064
 40
0.5392670157068064
 40
0.5392670157068064
 40
0.5445026178010471
 40
0.5445026178010471
 40
0.5445026178010471
 40
0.549738219895288
 40
0.549738219895288
 40
0.549738219895288
 40
0.5549738219895288
 40
0.5549738219895288
 40
0.5549738219895288
 40
0.5602094240837696
 40
0.5602094240837696
 40
0.5602094240837696
 40
0.5654450261780105
 40
0.5654450261780105
 40
0.5654450261780105
 40
0.5706806282722513
 40
0.5706806282722513
 40
0.5706806282722513
 40
0.5759162303664922
 40
0.5759162303664922
 40
0.5759162303664922
 40
0.581151832460733
 40
0.581151832460733
 40
0.581151832460733
 40
0.5863874345549739
 40
0.5863874345549739
 40
0.5863874345549739
 40
0.5916230366492147
 40
0.5916230366492147
 40
0.5916230366492147
 40
0.5968586387434556
 40
0.5968586387434556
 40
0.5968586387434556
 40
0.6020942408376964
 40
0.6020942408376964
 40
0.6020942408376964
 40
0.6073298429319373
 40
0.6073298429319373
 40
0.6073298429319373
 40
0.612565445026178
 40
0.612565445026178
 40
0.612565445026178
 40
0.6178010471204188
 40
0.6178010471204188
 40
0.6178010471204188
 40
0.6230366492146597
 40
0.6230366492146597
 40
0.6230366492146597
 40
0.6282722513089005
 40
0.6282722513089005
 40
0.6282722513089005
 40
0.6335078534031414
 40
0.6335078534031414
 40
0.6335078534031414
 40
0.6387434554973822
 40
0.6387434554973822
 40
0.6387434554973822
 40
0.6439790575916231
 40
0.6439790575916231
 40
0.6439790575916231
 40
0.6492146596858639
 40
0.6492146596858639
 40
0.6492146596858639
 40
0.6544502617801048
 40
0.6544502617801048
 40
0.6544502617801048
 40
0.6596858638743456
 40
0.6596858638743456
 40
0.6596858638743456
 40
0.6649214659685865
 40
0.6649214659685865
 40
0.6649214659685865
 40
0.6701570680628273
 40
0.6701570680628273
 40
0.6701570680628273
 40
0.675392670157068
 40
0.675392670157068
 40
0.675392670157068
 40
0.680628272251309
 40
0.680628272251309
 40
0.680628272251309
 40
0.6858638743455497
 40
0.6858638743455497
 40
0.6858638743455497
 40
0.6910994764397906
 40
0.6910994764397906
 40
0.6910994764397906
 40
0.6963350785340314
 40
0.6963350785340314
 40
0.6963350785340314
 40
0.7015706806282723
 40
0.7015706806282723
 40
0.7015706806282723
 40
0.7068062827225131
 40
0.7068062827225131
 40
0.7068062827225131
 40
0.712041884816754
 40
0.712041884816754
 40
0.712041884816754
 40
0.7172774869109948
 40
0.7172774869109948
 40
0.7172774869109948
 40
0.7225130890052357
 40
0.7225130890052357
 40
0.7225130890052357
 40
0.7277486910994765
 40
0.7277486910994765
 40
0.7277486910994765
 40
0.7329842931937173
 40
0.7329842931937173
 40
0.7329842931937173
 40
0.7382198952879582
 40
0.7382198952879582
 40
0.7382198952879582
 40
0.743455497382199
 40
0.743455497382199
 40
0.743455497382199
 40
0.7486910994764399
 40
0.7486910994764399
 40
0.7486910994764399
 40
0.7539267015706806
 40
0.7539267015706806
 40
0.7539267015706806
 40
0.7591623036649215
 40
0.7591623036649215
 40
0.7591623036649215
 40
0.7643979057591623
 40
0.7643979057591623
 40
0.7643979057591623
 40
0.7696335078534032
 40
0.7696335078534032
 40
0.7696335078534032
 40
0.774869109947644
 40
0.774869109947644
 40
0.774869109947644
 40
0.7801047120418849
 40
0.7801047120418849
 40
0.7801047120418849
 40
0.7853403141361257
 40
0.7853403141361257
 40
0.7853403141361257
 40
0.7905759162303665
 40
0.7905759162303665
 40
0.7905759162303665
 40
0.7958115183246074
 40
0.7958115183246074
 40
0.7958115183246074
 40
0.8010471204188482
 40
0.8010471204188482
 40
0.8010471204188482
 40
0.8062827225130891
 40
0.8062827225130891
 40
0.8062827225130891
 40
0.8115183246073299
 40
0.8115183246073299
 40
0.8115183246073299
 40
0.8167539267015708
 40
0.8167539267015708
 40
0.8167539267015708
 40
0.8219895287958116
 40
0.8219895287958116
 40
0.8219895287958116
 40
0.8272251308900525
 40
0.8272251308900525
 40
0.8272251308900525
 40
0.8324607329842932
 40
0.8324607329842932
 40
0.8324607329842932
 40
0.837696335078534
 40
0.837696335078534
 40
0.837696335078534
 40
0.8429319371727749
 40
0.8429319371727749
 40
0.8429319371727749
 40
0.8481675392670157
 40
0.8481675392670157
 40
0.8481675392670157
 40
0.8534031413612566
 40
0.8534031413612566
 40
0.8534031413612566
 40
0.8586387434554974
 40
0.8586387434554974
 40
0.8586387434554974
 40
0.8638743455497383
 40
0.8638743455497383
 40
0.8638743455497383
 40
0.8691099476439791
 40
0.8691099476439791
 40
0.8691099476439791
 40
0.87434554973822
 40
0.87434554973822
 40
0.87434554973822
 40
0.8795811518324608
 40
0.8795811518324608
 40
0.8795811518324608
 40
0.8848167539267017
 40
0.8848167539267017
 40
0.8848167539267017
 40
0.8900523560209425
 40
0.8900523560209425
 40
0.8900523560209425
 40
0.8952879581151832
 40
0.8952879581151832
 40
0.8952879581151832
 40
0.9005235602094241
 40
0.9005235602094241
 40
0.9005235602094241
 40
0.9057591623036649
 40
0.9057591623036649
 40
0.9057591623036649
 40
0.9109947643979058
 40
0.9109947643979058
 40
0.9109947643979058
 40
0.9162303664921466
 40
0.9162303664921466
 40
0.9162303664921466
 40
0.9214659685863875
 40
0.9214659685863875
 40
0.9214659685863875
 40
0.9267015706806283
 40
0.9267015706806283
 40
0.9267015706806283
 40
0.9319371727748692
 40
0.9319371727748692
 40
0.9319371727748692
 40
0.93717277486911
 40
0.93717277486911
 40
0.93717277486911
 40
0.9424083769633509
 40
0.9424083769633509
 40
0.9424083769633509
 40
0.9476439790575917
 40
0.9476439790575917
 40
0.9476439790575917
 40
0.9528795811518325
 40
0.9528795811518325
 40
0.9528795811518325
 40
0.9581151832460734
 40
0.9581151832460734
 40
0.9581151832460734
 40
0.9633507853403142
 40
0.9633507853403142
 40
0.9633507853403142
 40
0.968586387434555
 40
0.968586387434555
 40
0.968586387434555
 40
0.9738219895287958
 40
0.9738219895287958
 40
0.9738219895287958
 40
0.9790575916230367
 40
0.9790575916230367
 40
0.9790575916230367
 40
0.9842931937172775
 40
0.9842931937172775
 40
0.9842931937172775
 40
0.9895287958115184
 40
0.9895287958115184
 40
0.9895287958115184
 40
0.9947643979057592
 40
0.9947643979057592
 40
0.9947643979057592
 40
1.0
 40
1.0
 40
1.0
 40
1.0
 10
8.68853
 20
-7.18926
 30
0.0
 10
8.68853
 20
-7.18926
 30
0.0
 10
8.68853
 20
-8.01689
 30
0.0
 10
8.68853
 20
-8.01689
 30
0.0
 10
8.68853
 20
-8.01689
 30
0.0
 10
8.68853
 20
-8.01857
 30
0.0
 10
8.68853
 20
-8.01857
 30
0.0
 10
8.61192
 20
-8.00072
 30
0.0
 10
8.54291
 20
-8.00373
 30
0.0
 10
8.45456
 20
-7.9913
 30
0.0
 10
8.22191
 20
-7.95854
 30
0.0
 10
8.02646
 20
-7.98994
 30
0.0
 10
7.83513
 20
-7.86182
 30
0.0
 10
7.84984
 20
-7.7987
 30
0.0
 10
7.85853
 20
-7.76147
 30
0.0
 10
7.89957
 20
-7.71726
 30
0.0
 10
7.98546
 20
-7.62478
 30
0.0
 10
8.09847
 20
-7.6442
 30
0.0
 10
8.00494
 20
-7.36128
 30
0.0
 10
7.98383
 20
-7.29742
 30
0.0
 10
7.96894
 20
-7.27243
 30
0.0
 10
7.92622
 20
-7.23073
 30
0.0
 10
7.82375
 20
-7.13072
 30
0.0
 10
7.92189
 20
-7.10072
 30
0.0
 10
7.82855
 20
-6.98041
 30
0.0
 10
7.7995
 20
-6.94297
 30
0.0
 10
7.76802
 20
-6.9115
 30
0.0
 10
7.73324
 20
-6.88391
 30
0.0
 10
7.73324
 20
-6.88391
 30
0.0
 10
6.98648
 20
-6.27221
 30
0.0
 10
6.98648
 20
-6.27221
 30
0.0
 10
6.94418
 20
-6.23098
 30
0.0
 10
6.92294
 20
-6.22046
 30
0.0
 10
6.87724
 20
-6.18987
 30
0.0
 10
6.88766
 20
-6.31507
 30
0.0
 10
6.93803
 20
-6.29211
 30
0.0
 10
6.94691
 20
-6.39886
 30
0.0
 10
6.79611
 20
-6.3955
 30
0.0
 10
6.76528
 20
-6.17398
 30
0.0
 10
6.52892
 20
-6.01571
 30
0.0
 10
6.40792
 20
-6.19639
 30
0.0
 10
6.1736
 20
-6.20578
 30
0.0
 10
6.05314
 20
-6.00384
 30
0.0
 10
5.90836
 20
-5.76115
 30
0.0
 10
5.70773
 20
-5.90692
 30
0.0
 10
5.51079
 20
-5.77988
 30
0.0
 10
5.37956
 20
-5.69523
 30
0.0
 10
5.27116
 20
-5.4675
 30
0.0
 10
5.19119
 20
-5.33316
 30
0.0
 10
5.11733
 20
-5.20906
 30
0.0
 10
4.90686
 20
-5.00528
 30
0.0
 10
4.87438
 20
-4.88365
 30
0.0
 10
4.66972
 20
-4.88365
 30
0.0
 10
4.55169
 20
-4.97073
 30
0.0
 10
4.33448
 20
-4.97073
 30
0.0
 10
4.29027
 20
-4.90471
 30
0.0
 10
4.29355
 20
-4.93724
 30
0.0
 10
4.26784
 20
-4.8458
 30
0.0
 10
4.25187
 20
-4.78903
 30
0.0
 10
4.23458
 20
-4.74733
 30
0.0
 10
4.22998
 20
-4.69208
 30
0.0
 10
4.15139
 20
-4.69383
 30
0.0
 10
4.11941
 20
-4.71729
 30
0.0
 10
4.06312
 20
-4.75162
 30
0.0
 10
3.88208
 20
-4.86203
 30
0.0
 10
3.64267
 20
-4.9311
 30
0.0
 10
3.47799
 20
-5.05472
 30
0.0
 10
3.43397
 20
-5.08776
 30
0.0
 10
3.40571
 20
-5.13934
 30
0.0
 10
3.3596
 20
-5.16297
 30
0.0
 10
3.25256
 20
-5.21784
 30
0.0
 10
3.11158
 20
-5.13011
 30
0.0
 10
2.99344
 20
-5.12748
 30
0.0
 10
2.98665
 20
-5.43219
 30
0.0
 10
2.87797
 20
-5.47581
 30
0.0
 10
2.59286
 20
-5.47581
 30
0.0
 10
2.61832
 20
-5.57115
 30
0.0
 10
2.72007
 20
-5.70275
 30
0.0
 10
2.64511
 20
-5.85896
 30
0.0
 10
2.55826
 20
-5.84946
 30
0.0
 10
2.6019
 20
-5.84395
 30
0.0
 10
2.5468
 20
-5.76569
 30
0.0
 10
2.52621
 20
-5.73646
 30
0.0
 10
2.53593
 20
-5.75169
 30
0.0
 10
2.5232
 20
-5.73705
 30
0.0
 10
2.50444
 20
-5.81756
 30
0.0
 10
2.51491
 20
-5.90721
 30
0.0
 10
2.4838
 20
-5.97631
 30
0.0
 10
2.45092
 20
-6.04933
 30
0.0
 10
2.41374
 20
-6.08268
 30
0.0
 10
2.37553
 20
-6.1467
 30
0.0
 10
2.26251
 20
-6.33607
 30
0.0
 10
2.10075
 20
-6.69319
 30
0.0
 10
2.03289
 20
-6.90083
 30
0.0
 10
2.01347
 20
-6.96026
 30
0.0
 10
2.0381
 20
-6.9302
 30
0.0
 10
2.04609
 20
-6.99435
 30
0.0
 10
2.05668
 20
-7.07921
 30
0.0
 10
2.02659
 20
-7.00974
 30
0.0
 10
2.0426
 20
-7.10616
 30
0.0
 10
2.0426
 20
-7.10616
 30
0.0
 10
2.08779
 20
-7.28709
 30
0.0
 10
2.08779
 20
-7.28709
 30
0.0
 10
1.99314
 20
-7.28709
 30
0.0
 10
2.01896
 20
-7.27216
 30
0.0
 10
1.94846
 20
-7.28709
 30
0.0
 10
1.96633
 20
-7.35402
 30
0.0
 10
2.00261
 20
-7.35432
 30
0.0
 10
2.03344
 20
-7.41111
 30
0.0
 10
2.0721
 20
-7.48235
 30
0.0
 10
2.04329
 20
-7.51065
 30
0.0
 10
2.05484
 20
-7.5987
 30
0.0
 10
2.0789
 20
-7.78222
 30
0.0
 10
2.29094
 20
-8.02001
 30
0.0
 10
1.8092
 20
-8.01873
 30
0.0
 10
1.3556
 20
-8.01754
 30
0.0
 10
1.16043
 20
-8.0335
 30
0.0
 10
0.70932
 20
-8.08574
 30
0.0
 10
0.51272
 20
-8.10851
 30
0.0
 10
0.15098
 20
-8.02891
 30
0.0
 10
0.03268
 20
-7.96632
 30
0.0
 10
0.03497
 20
-7.86377
 30
0.0
 10
0.10682
 20
-7.7564
 30
0.0
 10
0.18214
 20
-7.69779
 30
0.0
 10
0.26146
 20
-7.63608
 30
0.0
 10
0.42295
 20
-7.66684
 30
0.0
 10
0.58683
 20
-7.58
 30
0.0
 10
0.69605
 20
-7.52212
 30
0.0
 10
1.01402
 20
-7.44137
 30
0.0
 10
1.02541
 20
-7.3045
 30
0.0
 10
0.97294
 20
-7.2905
 30
0.0
 10
0.98716
 20
-7.30472
 30
0.0
 10
0.97316
 20
-7.25226
 30
0.0
 10
1.03769
 20
-7.20904
 30
0.0
 10
1.10378
 20
-7.2029
 30
0.0
 10
1.14284
 20
-7.12575
 30
0.0
 10
1.20426
 20
-7.00442
 30
0.0
 10
1.16473
 20
-7.01693
 30
0.0
 10
1.16473
 20
-6.88652
 30
0.0
 10
1.21089
 20
-6.86209
 30
0.0
 10
1.21537
 20
-6.85327
 30
0.0
 10
1.28665
 20
-6.85168
 30
0.0
 10
1.28665
 20
-6.60655
 30
0.0
 10
1.32242
 20
-6.4516
 30
0.0
 10
1.29884
 20
-6.18719
 30
0.0
 10
1.28309
 20
-6.01049
 30
0.0
 10
1.26923
 20
-5.77382
 30
0.0
 10
1.26923
 20
-5.52805
 30
0.0
 10
1.1601
 20
-5.50263
 30
0.0
 10
1.13729
 20
-5.4193
 30
0.0
 10
1.25182
 20
-5.38872
 30
0.0
 10
1.25182
 20
-5.38872
 30
0.0
 10
1.19957
 20
-5.35389
 30
0.0
 10
1.19957
 20
-5.35389
 30
0.0
 10
1.20496
 20
-5.28901
 30
0.0
 10
1.22686
 20
-5.26173
 30
0.0
 10
1.25182
 20
-5.21456
 30
0.0
 10
1.21712
 20
-5.17465
 30
0.0
 10
1.1905
 20
-5.14564
 30
0.0
 10
1.14501
 20
-5.11237
 30
0.0
 10
1.10201
 20
-5.08093
 30
0.0
 10
1.06739
 20
-5.05719
 30
0.0
 10
1.02898
 20
-5.0194
 30
0.0
 10
0.82364
 20
-4.81734
 30
0.0
 10
0.99515
 20
-4.76124
 30
0.0
 10
1.03146
 20
-4.59353
 30
0.0
 10
1.06177
 20
-4.45352
 30
0.0
 10
1.00466
 20
-4.19338
 30
0.0
 10
1.03752
 20
-4.02496
 30
0.0
 10
1.0999
 20
-3.70523
 30
0.0
 10
1.4202
 20
-3.59349
 30
0.0
 10
1.66294
 20
-3.43125
 30
0.0
 10
1.73309
 20
-3.38436
 30
0.0
 10
1.85568
 20
-3.33311
 30
0.0
 10
1.8788
 20
-3.24653
 30
0.0
 10
1.82114
 20
-3.2331
 30
0.0
 10
1.76904
 20
-3.19981
 30
0.0
 10
1.73947
 20
-3.15945
 30
0.0
 10
1.77877
 20
-3.08517
 30
0.0
 10
1.87596
 20
-3.04771
 30
0.0
 10
1.94943
 20
-3.00367
 30
0.0
 10
1.94943
 20
-3.00367
 30
0.0
 10
2.6749
 20
-2.63193
 30
0.0
 10
2.6749
 20
-2.63193
 30
0.0
 10
2.94331
 20
-2.51706
 30
0.0
 10
2.88687
 20
-2.52597
 30
0.0
 10
3.20548
 20
-2.43102
 30
0.0
 10
3.36704
 20
-2.38288
 30
0.0
 10
3.21234
 20
-2.38126
 30
0.0
 10
3.43817
 20
-2.29797
 30
0.0
 10
3.54128
 20
-2.25995
 30
0.0
 10
3.5968
 20
-2.16492
 30
0.0
 10
3.65525
 20
-2.14931
 30
0.0
 10
3.65525
 20
-2.14931
 30
0.0
 10
3.65525
 20
-2.09707
 30
0.0
 10
3.65525
 20
-2.09707
 30
0.0
 10
3.65525
 20
-2.09707
 30
0.0
 10
2.69427
 20
-1.76925
 30
0.0
 10
2.69427
 20
-1.76925
 30
0.0
 10
2.6773
 20
-1.76275
 30
0.0
 10
2.64683
 20
-1.75291
 30
0.0
 10
2.63275
 20
-1.74369
 30
0.0
 10
2.52682
 20
-1.67434
 30
0.0
 10
2.5697
 20
-1.39413
 30
0.0
 10
2.74181
 20
-1.42365
 30
0.0
 10
2.85918
 20
-1.44377
 30
0.0
 10
3.29551
 20
-1.63851
 30
0.0
 10
3.42149
 20
-1.68643
 30
0.0
 10
3.54218
 20
-1.73233
 30
0.0
 10
3.6392
 20
-1.80099
 30
0.0
 10
3.77716
 20
-1.80099
 30
0.0
 10
3.80586
 20
-1.72171
 30
0.0
 10
3.77714
 20
-1.79918
 30
0.0
 10
3.81308
 20
-1.74983
 30
0.0
 10
3.82896
 20
-1.72803
 30
0.0
 10
3.83338
 20
-1.72192
 30
0.0
 10
3.84683
 20
-1.69649
 30
0.0
 10
3.78498
 20
-1.67998
 30
0.0
 10
3.62652
 20
-1.56668
 30
0.0
 10
3.5952
 20
-1.51189
 30
0.0
 10
3.53283
 20
-1.40279
 30
0.0
 10
3.63014
 20
-1.28547
 30
0.0
 10
3.65525
 20
-1.19142
 30
0.0
 10
3.48969
 20
-0.94419
 30
0.0
 10
3.54536
 20
-1.01628
 30
0.0
 10
3.42884
 20
-0.77344
 30
0.0
 10
3.36809
 20
-0.80258
 30
0.0
 10
3.37
 20
-0.78346
 30
0.0
 10
3.30664
 20
-0.8255
 30
0.0
 10
3.27177
 20
-0.84863
 30
0.0
 10
3.25347
 20
-0.87235
 30
0.0
 10
3.20285
 20
-0.87326
 30
0.0
 10
3.12508
 20
-0.87467
 30
0.0
 10
3.16239
 20
-0.82903
 30
0.0
 10
3.07497
 20
-0.8886
 30
0.0
 10
2.62659
 20
-1.19413
 30
0.0
 10
2.69829
 20
-0.84875
 30
0.0
 10
2.52957
 20
-0.84058
 30
0.0
 10
2.46335
 20
-0.83737
 30
0.0
 10
2.39285
 20
-0.79962
 30
0.0
 10
2.35443
 20
-0.80199
 30
0.0
 10
2.26792
 20
-0.80735
 30
0.0
 10
2.36273
 20
-0.83693
 30
0.0
 10
2.26417
 20
-0.80742
 30
0.0
 10
2.16786
 20
-0.77858
 30
0.0
 10
2.06917
 20
-0.67414
 30
0.0
 10
1.99991
 20
-0.6349
 30
0.0
 10
1.88038
 20
-0.56719
 30
0.0
 10
1.7544
 20
-0.50386
 30
0.0
 10
1.66945
 20
-0.39064
 30
0.0
 10
1.51973
 20
-0.1911
 30
0.0
 10
1.56286
 20
-0.22994
 30
0.0
 10
1.34531
 20
-0.14004
 30
0.0
 10
1.22487
 20
-0.09027
 30
0.0
 10
1.27814
 20
-0.06345
 30
0.0
 10
1.2344
 20
0.02771
 30
0.0
 10
1.12008
 20
0.05434
 30
0.0
 10
1.10438
 20
0.01423
 30
0.0
 10
1.05963
 20
-0.07618
 30
0.0
 10
0.93502
 20
-0.32797
 30
0.0
 10
0.95167
 20
-0.307
 30
0.0
 10
0.71191
 20
-0.14645
 30
0.0
 10
0.71191
 20
-0.02853
 30
0.0
 10
0.72027
 20
-0.01968
 30
0.0
 10
0.77121
 20
0.0555
 30
0.0
 10
0.93593
 20
0.29863
 30
0.0
 10
0.70256
 20
0.28221
 30
0.0
 10
0.73624
 20
0.45494
 30
0.0
 10
0.7828
 20
0.69364
 30
0.0
 10
0.84426
 20
0.66193
 30
0.0
 10
0.89873
 20
0.78137
 30
0.0
 10
0.94281
 20
0.87802
 30
0.0
 10
0.99177
 20
0.89733
 30
0.0
 10
1.06415
 20
0.9817
 30
0.0
 10
1.11499
 20
1.04097
 30
0.0
 10
1.11042
 20
1.07031
 30
0.0
 10
1.221
 20
1.0767
 30
0.0
 10
1.221
 20
1.0767
 30
0.0
 10
1.32148
 20
0.96818
 30
0.0
 10
1.32148
 20
0.96818
 30
0.0
 10
1.63093
 20
1.1754
 30
0.0
 10
1.23133
 20
1.30378
 30
0.0
 10
1.46634
 20
1.53739
 30
0.0
 10
1.51382
 20
1.58459
 30
0.0
 10
1.48356
 20
1.54007
 30
0.0
 10
1.51262
 20
1.59561
 30
0.0
 10
1.59006
 20
1.74358
 30
0.0
 10
1.62365
 20
1.7277
 30
0.0
 10
1.73515
 20
1.84331
 30
0.0
 10
1.91126
 20
2.0259
 30
0.0
 10
1.90058
 20
1.85311
 30
0.0
 10
2.03554
 20
1.94349
 30
0.0
 10
2.00946
 20
2.04117
 30
0.0
 10
1.85636
 20
2.06179
 30
0.0
 10
1.88036
 20
2.16551
 30
0.0
 10
1.9092
 20
2.29014
 30
0.0
 10
2.0468
 20
2.17015
 30
0.0
 10
2.12263
 20
2.15249
 30
0.0
 10
2.16254
 20
2.2121
 30
0.0
 10
2.35425
 20
2.44031
 30
0.0
 10
2.36203
 20
2.48787
 30
0.0
 10
2.3707
 20
2.54084
 30
0.0
 10
2.23222
 20
2.79521
 30
0.0
 10
2.22679
 20
2.91847
 30
0.0
 10
2.21947
 20
3.08481
 30
0.0
 10
2.23466
 20
3.53774
 30
0.0
 10
2.14059
 20
3.66824
 30
0.0
 10
2.07963
 20
3.75279
 30
0.0
 10
2.02131
 20
3.68148
 30
0.0
 10
2.01813
 20
3.82444
 30
0.0
 10
2.08586
 20
3.84022
 30
0.0
 10
2.07503
 20
3.86175
 30
0.0
 10
2.15656
 20
3.85978
 30
0.0
 10
2.25565
 20
3.85739
 30
0.0
 10
2.44304
 20
3.7562
 30
0.0
 10
2.5232
 20
3.70253
 30
0.0
 10
2.47027
 20
3.6025
 30
0.0
 10
2.45909
 20
3.61628
 30
0.0
 10
2.43565
 20
3.47658
 30
0.0
 10
2.40556
 20
3.29728
 30
0.0
 10
2.42225
 20
3.09632
 30
0.0
 10
2.4365
 20
2.90176
 30
0.0
 10
2.44219
 20
2.82395
 30
0.0
 10
2.47413
 20
2.72834
 30
0.0
 10
2.5232
 20
2.69239
 30
0.0
 10
2.5696
 20
2.72639
 30
0.0
 10
2.58594
 20
2.76996
 30
0.0
 10
2.61377
 20
2.82823
 30
0.0
 10
2.67048
 20
2.94692
 30
0.0
 10
2.82487
 20
3.12906
 30
0.0
 10
2.78251
 20
3.24618
 30
0.0
 10
2.76139
 20
3.3046
 30
0.0
 10
2.72911
 20
3.33888
 30
0.0
 10
2.7603
 20
3.42967
 30
0.0
 10
2.80988
 20
3.57397
 30
0.0
 10
2.9562
 20
3.63963
 30
0.0
 10
3.10052
 20
3.61693
 30
0.0
 10
3.27497
 20
3.5895
 30
0.0
 10
3.20156
 20
3.77958
 30
0.0
 10
3.15018
 20
3.87669
 30
0.0
 10
3.24357
 20
4.01615
 30
0.0
 10
3.54384
 20
4.27961
 30
0.0
 10
3.72491
 20
4.29467
 30
0.0
 10
3.70423
 20
4.20589
 30
0.0
 10
3.45539
 20
3.86485
 30
0.0
 10
3.42884
 20
3.54578
 30
0.0
 10
3.48784
 20
3.58901
 30
0.0
 10
3.59408
 20
3.73361
 30
0.0
 10
3.64518
 20
3.79967
 30
0.0
 10
3.75107
 20
3.93658
 30
0.0
 10
3.95988
 20
4.13776
 30
0.0
 10
4.08643
 20
4.28148
 30
0.0
 10
4.08643
 20
4.28148
 30
0.0
 10
5.69726
 20
5.87523
 30
0.0
 10
5.69726
 20
5.87523
 30
0.0
 10
5.7469
 20
5.92532
 30
0.0
 10
5.76353
 20
5.93844
 30
0.0
 10
5.81745
 20
5.98145
 30
0.0
 10
5.81745
 20
5.98145
 30
0.0
 10
6.41928
 20
6.52909
 30
0.0
 10
6.41928
 20
6.52909
 30
0.0
 10
6.73828
 20
6.79618
 30
0.0
 10
6.85287
 20
7.02901
 30
0.0
 10
7.27782
 20
7.02901
 30
0.0
 10
7.23293
 20
6.96198
 30
0.0
 10
7.12108
 20
6.86043
 30
0.0
 10
7.05611
 20
6.7979
 30
0.0
 10
7.00881
 20
6.75237
 30
0.0
 10
6.98108
 20
6.74117
 30
0.0
 10
6.9335
 20
6.6941
 30
0.0
 10
6.9335
 20
6.6941
 30
0.0
 10
5.20097
 20
5.04789
 30
0.0
 10
5.20097
 20
5.04789
 30
0.0
 10
5.15133
 20
4.9978
 30
0.0
 10
5.1347
 20
4.98468
 30
0.0
 10
5.08078
 20
4.94167
 30
0.0
 10
4.915
 20
4.80941
 30
0.0
 10
4.78082
 20
4.63278
 30
0.0
 10
4.63526
 20
4.48155
 30
0.0
 10
4.46758
 20
4.30734
 30
0.0
 10
4.22605
 20
4.08632
 30
0.0
 10
4.0833
 20
3.90145
 30
0.0
 10
4.04406
 20
3.85063
 30
0.0
 10
4.01427
 20
3.83014
 30
0.0
 10
3.97288
 20
3.78547
 30
0.0
 10
3.92628
 20
3.73517
 30
0.0
 10
3.68441
 20
3.46786
 30
0.0
 10
3.67267
 20
3.42387
 30
0.0
 10
3.75491
 20
3.41702
 30
0.0
 10
3.87652
 20
3.36201
 30
0.0
 10
3.94002
 20
3.32548
 30
0.0
 10
4.18948
 20
3.18197
 30
0.0
 10
4.18837
 20
2.8541
 30
0.0
 10
4.40152
 20
2.68976
 30
0.0
 10
4.65764
 20
2.49227
 30
0.0
 10
4.40017
 20
2.56952
 30
0.0
 10
4.62261
 20
2.44062
 30
0.0
 10
4.79061
 20
2.34326
 30
0.0
 10
4.7927
 20
2.26544
 30
0.0
 10
4.86164
 20
2.22682
 30
0.0
 10
4.86164
 20
2.22682
 30
0.0
 10
5.20529
 20
2.03057
 30
0.0
 10
5.20529
 20
2.03057
 30
0.0
 10
5.20342
 20
1.94651
 30
0.0
 10
5.19012
 20
1.94387
 30
0.0
 10
5.13134
 20
1.91295
 30
0.0
 10
5.08277
 20
1.8874
 30
0.0
 10
5.06424
 20
1.87534
 30
0.0
 10
4.99629
 20
1.87382
 30
0.0
 10
4.99629
 20
1.87382
 30
0.0
 10
4.99629
 20
1.83899
 30
0.0
 10
4.99629
 20
1.83899
 30
0.0
 10
5.07198
 20
1.83731
 30
0.0
 10
5.05782
 20
1.82558
 30
0.0
 10
5.13553
 20
1.82148
 30
0.0
 10
5.27418
 20
1.81419
 30
0.0
 10
5.44216
 20
1.84022
 30
0.0
 10
5.55361
 20
1.78674
 30
0.0
 10
5.55094
 20
1.66677
 30
0.0
 10
5.52745
 20
1.75157
 30
0.0
 10
5.51878
 20
1.64741
 30
0.0
 10
5.65466
 20
1.61576
 30
0.0
 10
5.60378
 20
1.58956
 30
0.0
 10
5.67878
 20
1.51134
 30
0.0
 10
5.76154
 20
1.42504
 30
0.0
 10
5.91945
 20
1.47156
 30
0.0
 10
5.91559
 20
1.32506
 30
0.0
 10
5.91388
 20
1.25981
 30
0.0
 10
5.90085
 20
1.27529
 30
0.0
 10
5.88401
 20
1.22932
 30
0.0
 10
5.85655
 20
1.15437
 30
0.0
 10
5.91622
 20
1.11482
 30
0.0
 10
5.93677
 20
1.03785
 30
0.0
 10
5.89554
 20
0.95992
 30
0.0
 10
5.87913
 20
0.93595
 30
0.0
 10
5.76261
 20
0.93335
 30
0.0
 10
5.76967
 20
0.84845
 30
0.0
 10
5.81779
 20
0.75643
 30
0.0
 10
5.84382
 20
0.66625
 30
0.0
 10
5.88722
 20
0.51593
 30
0.0
 10
5.97614
 20
0.27107
 30
0.0
 10
5.9883
 20
0.11407
 30
0.0
 10
5.99336
 20
0.04874
 30
0.0
 10
5.99257
 20
-0.00304
 30
0.0
 10
6.00142
 20
-0.04707
 30
0.0
 10
6.03901
 20
-0.23402
 30
0.0
 10
6.02258
 20
-0.13125
 30
0.0
 10
6.00699
 20
-0.30328
 30
0.0
 10
6.00699
 20
-0.30328
 30
0.0
 10
6.0054
 20
-0.65256
 30
0.0
 10
6.0054
 20
-0.65256
 30
0.0
 10
6.01392
 20
-0.79974
 30
0.0
 10
6.18986
 20
-0.85525
 30
0.0
 10
6.16988
 20
-0.98719
 30
0.0
 10
6.15567
 20
-1.08109
 30
0.0
 10
6.101
 20
-1.15341
 30
0.0
 10
6.02385
 20
-1.17401
 30
0.0
 10
6.0422
 20
-1.24271
 30
0.0
 10
6.08056
 20
-1.23537
 30
0.0
 10
6.06993
 20
-1.30683
 30
0.0
 10
6.05969
 20
-1.37568
 30
0.0
 10
6.01528
 20
-1.38229
 30
0.0
 10
6.0141
 20
-1.43533
 30
0.0
 10
6.01295
 20
-1.4873
 30
0.0
 10
6.0741
 20
-1.54549
 30
0.0
 10
6.08294
 20
-1.58244
 30
0.0
 10
6.08358
 20
-1.58507
 30
0.0
 10
6.08385
 20
-1.59039
 30
0.0
 10
6.08451
 20
-1.5931
 30
0.0
 10
6.0852
 20
-1.59592
 30
0.0
 10
6.0856
 20
-1.60131
 30
0.0
 10
6.08643
 20
-1.60417
 30
0.0
 10
6.10687
 20
-1.67474
 30
0.0
 10
6.17233
 20
-1.69496
 30
0.0
 10
6.23201
 20
-1.73216
 30
0.0
 10
6.47454
 20
-1.88332
 30
0.0
 10
6.37802
 20
-2.00996
 30
0.0
 10
6.35476
 20
-2.09707
 30
0.0
 10
6.66419
 20
-2.30427
 30
0.0
 10
6.50094
 20
-2.39233
 30
0.0
 10
6.72001
 20
-2.44588
 30
0.0
 10
6.72001
 20
-2.44588
 30
0.0
 10
7.85053
 20
-2.74348
 30
0.0
 10
7.85053
 20
-2.74348
 30
0.0
 10
8.17529
 20
-2.83904
 30
0.0
 10
8.56705
 20
-2.82951
 30
0.0
 10
8.32279
 20
-3.19429
 30
0.0
 10
8.05965
 20
-3.19429
 30
0.0
 10
7.13467
 20
-2.85431
 30
0.0
 10
6.825
 20
-2.82855
 30
0.0
 10
6.8868
 20
-2.92083
 30
0.0
 10
6.98467
 20
-3.04606
 30
0.0
 10
7.03124
 20
-3.14479
 30
0.0
 10
7.11602
 20
-3.32451
 30
0.0
 10
6.98944
 20
-3.24815
 30
0.0
 10
7.32581
 20
-3.54687
 30
0.0
 10
7.32581
 20
-3.54687
 30
0.0
 10
7.49508
 20
-3.73284
 30
0.0
 10
7.49508
 20
-3.73284
 30
0.0
 10
7.46516
 20
-3.73883
 30
0.0
 10
7.48726
 20
-3.69772
 30
0.0
 10
7.4694
 20
-3.7516
 30
0.0
 10
7.57955
 20
-3.78102
 30
0.0
 10
7.93623
 20
-4.0573
 30
0.0
 10
8.07917
 20
-4.13455
 30
0.0
 10
8.14648
 20
-4.17093
 30
0.0
 10
8.16442
 20
-4.19497
 30
0.0
 10
8.24163
 20
-4.23334
 30
0.0
 10
8.51953
 20
-4.37142
 30
0.0
 10
8.44232
 20
-4.60728
 30
0.0
 10
8.29455
 20
-4.64629
 30
0.0
 10
8.21614
 20
-4.66698
 30
0.0
 10
8.03907
 20
-4.52296
 30
0.0
 10
7.97364
 20
-4.4839
 30
0.0
 10
7.97364
 20
-4.4839
 30
0.0
 10
7.06882
 20
-3.92576
 30
0.0
 10
7.06882
 20
-3.92576
 30
0.0
 10
7.08746
 20
-3.99554
 30
0.0
 10
7.30011
 20
-4.24847
 30
0.0
 10
7.29523
 20
-4.2915
 30
0.0
 10
7.24948
 20
-4.37797
 30
0.0
 10
7.27469
 20
-4.36737
 30
0.0
 10
7.17332
 20
-4.34375
 30
0.0
 10
7.17922
 20
-4.41471
 30
0.0
 10
7.20778
 20
-4.41857
 30
0.0
 10
7.23556
 20
-4.49051
 30
0.0
 10
7.27216
 20
-4.58531
 30
0.0
 10
7.23526
 20
-4.56919
 30
0.0
 10
7.3228
 20
-4.61226
 30
0.0
 10
7.43415
 20
-4.66705
 30
0.0
 10
7.51066
 20
-4.67734
 30
0.0
 10
7.59273
 20
-4.76032
 30
0.0
 10
7.70709
 20
-4.87592
 30
0.0
 10
7.65434
 20
-4.93232
 30
0.0
 10
7.67303
 20
-5.03228
 30
0.0
 10
7.70948
 20
-5.22723
 30
0.0
 10
7.69877
 20
-5.202
 30
0.0
 10
7.60872
 20
-5.33647
 30
0.0
 10
7.74412
 20
-5.33647
 30
0.0
 10
7.78933
 20
-5.29875
 30
0.0
 10
7.85598
 20
-5.40269
 30
0.0
 10
7.85598
 20
-5.40269
 30
0.0
 10
7.86967
 20
-5.42385
 30
0.0
 10
7.86967
 20
-5.42385
 30
0.0
 10
7.92792
 20
-5.49531
 30
0.0
 10
8.03258
 20
-5.51006
 30
0.0
 10
8.07896
 20
-5.59772
 30
0.0
 10
8.00243
 20
-5.59942
 30
0.0
 10
8.02471
 20
-5.6095
 30
0.0
 10
7.95705
 20
-5.61513
 30
0.0
 10
7.97484
 20
-5.68177
 30
0.0
 10
8.06198
 20
-5.80479
 30
0.0
 10
8.09676
 20
-5.87599
 30
0.0
 10
8.13909
 20
-5.96262
 30
0.0
 10
8.1799
 20
-6.06882
 30
0.0
 10
8.21562
 20
-6.1577
 30
0.0
 10
8.21562
 20
-6.1577
 30
0.0
 10
8.33374
 20
-6.44016
 30
0.0
 10
8.33374
 20
-6.44016
 30
0.0
 10
8.41836
 20
-6.61679
 30
0.0
 10
8.45027
 20
-6.48456
 30
0.0
 10
8.45731
 20
-6.68504
 30
0.0
 10
8.4592
 20
-6.73871
 30
0.0
 10
8.43252
 20
-6.68132
 30
0.0
 10
8.48259
 20
-6.743
 30
0.0
 10
8.53432
 20
-6.80674
 30
0.0
 10
8.52538
 20
-6.87409
 30
0.0
 10
8.57845
 20
-6.94435
 30
0.0
 10
8.57845
 20
-6.94435
 30
0.0
 10
8.66728
 20
-7.06451
 30
0.0
 10
8.66728
 20
-7.06451
 30
0.0
 10
8.67732
 20
-7.08122
 30
0.0
 10
8.68409
 20
-7.12668
 30
0.0
 10
8.68853
 20
-7.18926
 30
0.0
  0
SPLINE
  5
61
330
1F
100
AcDbEntity
  8
layer 1
100
AcDbSpline
210
0.0
220
0.0
230
1.0
 70
    11
 71
     3
 72
    35
 73
    31
 74
     0
 42
0.0000000001
 43
0.0000000001
 40
0.0
 40
0.0
 40
0.0
 40
0.0
 40
0.1
 40
0.1
 40
0.1
 40
0.2
 40
0.2
 40
0.2
 40
0.3
 40
0.3
 40
0.3
 40
0.4
 40
0.4
 40
0.4
 40
0.5
 40
0.5
 40
0.5
 40
0.6000000000000001
 40
0.6000000000000001
 40
0.6000000000000001
 40
0.7000000000000001
 40
0.7000000000000001
 40
0.7000000000000001
 40
0.8
 40
0.8
 40
0.8
 40
0.9
 40
0.9
 40
0.9
 40
1.0
 40
1.0
 40
1.0
 40
1.0
 10
1.58272
 20
0.7766
 30
0.0
 10
1.58272
 20
0.8688
 30
0.0
 10
1.63176
 20
0.91363
 30
0.0
 10
1.68722
 20
0.95077
 30
0.0
 10
1.83446
 20
0.85217
 30
0.0
 10
1.86148
 20
0.86026
 30
0.0
 10
1.91331
 20
0.65314
 30
0.0
 10
1.92944
 20
0.58869
 30
0.0
 10
1.92724
 20
0.5738
 30
0.0
 10
1.91363
 20
0.51536
 30
0.0
 10
2.04306
 20
0.52613
 30
0.0
 10
1.92862
 20
0.56925
 30
0.0
 10
2.05296
 20
0.60245
 30
0.0
 10
2.07156
 20
0.5226
 30
0.0
 10
2.1521
 20
0.42144
 30
0.0
 10
2.18328
 20
0.36639
 30
0.0
 10
2.21677
 20
0.30729
 30
0.0
 10
2.2099
 20
0.37209
 30
0.0
 10
2.19229
 20
0.28895
 30
0.0
 10
2.13111
 20
0.29032
 30
0.0
 10
2.08081
 20
0.30198
 30
0.0
 10
2.03295
 20
0.3212
 30
0.0
 10
2.03295
 20
0.3212
 30
0.0
 10
1.8783
 20
0.37554
 30
0.0
 10
1.8783
 20
0.37554
 30
0.0
 10
1.75062
 20
0.42948
 30
0.0
 10
1.83374
 20
0.45482
 30
0.0
 10
1.63497
 20
0.55019
 30
0.0
 10
1.63497
 20
0.80696
 30
0.0
 10
1.58272
 20
0.7295
 30
0.0
 10
1.58272
 20
0.7766
 30
0.0
  0
SPLINE
  5
62
330
1F
100
AcDbEntity
  8
layer 1
100
AcDbSpline
210
0.0
220
0.0
230
1.0
 70
    11
 71
     3
 72
    68
 73
    64
 74
     0
 42
0.0000000001
 43
0.0000000001
 40
0.0
 40
0.0
 40
0.0
 40
0.0
 40
0.0476190476190476
 40
0.0476190476190476
 40
0.0476190476190476
 40
0.0952380952380952
 40
0.0952380952380952
 40
0.0952380952380952
 40
0.1428571428571428
 40
0.1428571428571428
 40
0.1428571428571428
 40
0.1904761904761905
 40
0.1904761904761905
 40
0.1904761904761905
 40
0.2380952380952381
 40
0.2380952380952381
 40
0.2380952380952381
 40
0.2857142857142857
 40
0.2857142857142857
 40
0.2857142857142857
 40
0.3333333333333333
 40
0.3333333333333333
 40
0.3333333333333333
 40
0.3809523809523809
 40
0.3809523809523809
 40
0.3809523809523809
 40
0.4285714285714285
 40
0.4285714285714285
 40
0.4285714285714285
 40
0.4761904761904762
 40
0.4761904761904762
 40
0.4761904761904762
 40
0.5238095238095237
 40
0.5238095238095237
 40
0.5238095238095237
 40
0.5714285714285714
 40
0.5714285714285714
 40
0.5714285714285714
 40
0.6190476190476191
 40
0.6190476190476191
 40
0.6190476190476191
 40
0.6666666666666666
 40
0.6666666666666666
 40
0.6666666666666666
 40
0.7142857142857142
 40
0.7142857142857142
 40
0.7142857142857142
 40
0.7619047619047619
 40
0.7619047619047619
 40
0.7619047619047619
 40
0.8095238095238095
 40
0.8095238095238095
 40
0.8095238095238095
 40
0.8571428571428571
 40
0.8571428571428571
 40
0.8571428571428571
 40
0.9047619047619047
 40
0.9047619047619047
 40
0.9047619047619047
 40
0.9523809523809523
 40
0.9523809523809523
 40
0.9523809523809523
 40
1.0
 40
1.0
 40
1.0
 40
1.0
 10
2.48836
 20
2.13507
 30
0.0
 10
2.53048
 20
2.10421
 30
0.0
 10
2.52062
 20
2.09323
 30
0.0
 10
2.56923
 20
2.05919
 30
0.0
 10
2.64656
 20
2.00504
 30
0.0
 10
2.65704
 20
2.05402
 30
0.0
 10
2.69908
 20
2.01349
 30
0.0
 10
2.73111
 20
1.98262
 30
0.0
 10
2.68579
 20
1.78121
 30
0.0
 10
2.68568
 20
1.73076
 30
0.0
 10
2.68542
 20
1.61247
 30
0.0
 10
2.796
 20
1.63662
 30
0.0
 10
2.84713
 20
1.57061
 30
0.0
 10
2.89808
 20
1.50483
 30
0.0
 10
2.81206
 20
1.42437
 30
0.0
 10
2.97602
 20
1.38617
 30
0.0
 10
2.80233
 20
1.0242
 30
0.0
 10
3.10431
 20
1.17336
 30
0.0
 10
3.15018
 20
1.17718
 30
0.0
 10
3.01441
 20
1.05917
 30
0.0
 10
3.04935
 20
1.1387
 30
0.0
 10
2.967
 20
0.94236
 30
0.0
 10
2.93861
 20
0.87467
 30
0.0
 10
2.95569
 20
0.88101
 30
0.0
 10
2.8869
 20
0.86515
 30
0.0
 10
2.86804
 20
0.86081
 30
0.0
 10
2.84995
 20
0.86083
 30
0.0
 10
2.82502
 20
0.8555
 30
0.0
 10
2.82061
 20
0.85456
 30
0.0
 10
2.81584
 20
0.8529
 30
0.0
 10
2.81176
 20
0.85198
 30
0.0
 10
2.76539
 20
0.84146
 30
0.0
 10
2.76268
 20
0.8303
 30
0.0
 10
2.68265
 20
0.88324
 30
0.0
 10
2.67945
 20
0.88536
 30
0.0
 10
2.67538
 20
0.88839
 30
0.0
 10
2.6723
 20
0.8906
 30
0.0
 10
2.6723
 20
0.8906
 30
0.0
 10
2.64336
 20
0.91417
 30
0.0
 10
2.64336
 20
0.91417
 30
0.0
 10
2.5772
 20
0.96593
 30
0.0
 10
2.54355
 20
0.96326
 30
0.0
 10
2.51232
 20
1.00955
 30
0.0
 10
2.44532
 20
1.10884
 30
0.0
 10
2.54752
 20
1.04747
 30
0.0
 10
2.38836
 20
1.18178
 30
0.0
 10
2.26007
 20
1.29004
 30
0.0
 10
2.42219
 20
1.40403
 30
0.0
 10
2.3229
 20
1.63873
 30
0.0
 10
2.25065
 20
1.80952
 30
0.0
 10
2.21621
 20
1.72812
 30
0.0
 10
2.17487
 20
1.71708
 30
0.0
 10
2.17487
 20
1.71708
 30
0.0
 10
2.24777
 20
1.80113
 30
0.0
 10
2.24777
 20
1.80113
 30
0.0
 10
2.39797
 20
1.70803
 30
0.0
 10
2.50578
 20
1.64467
 30
0.0
 10
2.50578
 20
1.76933
 30
0.0
 10
2.50578
 20
1.81381
 30
0.0
 10
2.36953
 20
1.91595
 30
0.0
 10
2.33162
 20
1.92608
 30
0.0
 10
2.37674
 20
2.01136
 30
0.0
 10
2.43872
 20
2.06094
 30
0.0
 10
2.48836
 20
2.13507
 30
0.0
  0
SPLINE
  5
63
330
1F
100
AcDbEntity
  8
layer 1
100
AcDbSpline
210
0.0
220
0.0
230
1.0
 70
    11
 71
     3
 72
    59
 73
    55
 74
     0
 42
0.0000000001
 43
0.0000000001
 40
0.0
 40
0.0
 40
0.0
 40
0.0
 40
0.0555555555555556
 40
0.0555555555555556
 40
0.0555555555555556
 40
0.1111111111111111
 40
0.1111111111111111
 40
0.1111111111111111
 40
0.1666666666666667
 40
0.1666666666666667
 40
0.1666666666666667
 40
0.2222222222222222
 40
0.2222222222222222
 40
0.2222222222222222
 40
0.2777777777777778
 40
0.2777777777777778
 40
0.2777777777777778
 40
0.3333333333333333
 40
0.3333333333333333
 40
0.3333333333333333
 40
0.3888888888888888
 40
0.3888888888888888
 40
0.3888888888888888
 40
0.4444444444444444
 40
0.4444444444444444
 40
0.4444444444444444
 40
0.5
 40
0.5
 40
0.5
 40
0.5555555555555556
 40
0.5555555555555556
 40
0.5555555555555556
 40
0.611111111111111
 40
0.611111111111111
 40
0.611111111111111
 40
0.6666666666666666
 40
0.6666666666666666
 40
0.6666666666666666
 40
0.7222222222222222
 40
0.7222222222222222
 40
0.7222222222222222
 40
0.7777777777777777
 40
0.7777777777777777
 40
0.7777777777777777
 40
0.8333333333333333
 40
0.8333333333333333
 40
0.8333333333333333
 40
0.8888888888888888
 40
0.8888888888888888
 40
0.8888888888888888
 40
0.9444444444444444
 40
0.9444444444444444
 40
0.9444444444444444
 40
1.0
 40
1.0
 40
1.0
 40
1.0
 10
-4.95575
 20
5.90801
 30
0.0
 10
-4.84651
 20
5.96042
 30
0.0
 10
-4.81637
 20
5.99628
 30
0.0
 10
-4.74676
 20
6.0125
 30
0.0
 10
-4.70822
 20
5.98669
 30
0.0
 10
-4.69836
 20
5.96985
 30
0.0
 10
-4.66215
 20
5.94036
 30
0.0
 10
-4.66215
 20
5.94036
 30
0.0
 10
-4.22854
 20
5.57283
 30
0.0
 10
-4.22854
 20
5.57283
 30
0.0
 10
-4.1765
 20
5.52108
 30
0.0
 10
-4.10566
 20
5.46323
 30
0.0
 10
-4.05007
 20
5.42039
 30
0.0
 10
-4.05007
 20
5.42039
 30
0.0
 10
-3.70435
 20
5.12172
 30
0.0
 10
-3.70435
 20
5.12172
 30
0.0
 10
-3.64777
 20
5.07601
 30
0.0
 10
-3.5852
 20
5.03002
 30
0.0
 10
-3.53202
 20
4.98056
 30
0.0
 10
-3.49346
 20
4.9447
 30
0.0
 10
-3.49246
 20
4.94203
 30
0.0
 10
-3.44809
 20
4.90774
 30
0.0
 10
-3.41
 20
4.87831
 30
0.0
 10
-3.38526
 20
4.85584
 30
0.0
 10
-3.35346
 20
4.8282
 30
0.0
 10
-3.55876
 20
4.84529
 30
0.0
 10
-3.51025
 20
4.85748
 30
0.0
 10
-3.60733
 20
4.95749
 30
0.0
 10
-3.60733
 20
4.95749
 30
0.0
 10
-3.63414
 20
4.98293
 30
0.0
 10
-3.63414
 20
4.98293
 30
0.0
 10
-3.64363
 20
4.99117
 30
0.0
 10
-3.6616
 20
5.00585
 30
0.0
 10
-3.6737
 20
5.01304
 30
0.0
 10
-3.80235
 20
5.08948
 30
0.0
 10
-4.03563
 20
5.08148
 30
0.0
 10
-4.10108
 20
5.09073
 30
0.0
 10
-4.19118
 20
5.10346
 30
0.0
 10
-4.16215
 20
5.13918
 30
0.0
 10
-4.27537
 20
5.16026
 30
0.0
 10
-4.33279
 20
5.17096
 30
0.0
 10
-4.46613
 20
5.16969
 30
0.0
 10
-4.51348
 20
5.18339
 30
0.0
 10
-4.59228
 20
5.20619
 30
0.0
 10
-4.59691
 20
5.28342
 30
0.0
 10
-4.73542
 20
5.32857
 30
0.0
 10
-4.82046
 20
5.35629
 30
0.0
 10
-4.75998
 20
5.33327
 30
0.0
 10
-4.88609
 20
5.33327
 30
0.0
 10
-4.88609
 20
5.5683
 30
0.0
 10
-5.01251
 20
5.54537
 30
0.0
 10
-4.96787
 20
5.77766
 30
0.0
 10
-4.96787
 20
5.77766
 30
0.0
 10
-4.95575
 20
5.90801
 30
0.0
 10
-4.95575
 20
5.90801
 30
0.0
  0
SPLINE
  5
64
330
1F
100
AcDbEntity
  8
layer 1
100
AcDbSpline
210
0.0
220
0.0
230
1.0
 70
    11
 71
     3
 72
   455
 73
   451
 74
     0
 42
0.0000000001
 43
0.0000000001
 40
0.0
 40
0.0
 40
0.0
 40
0.0
 40
0.0066666666666667
 40
0.0066666666666667
 40
0.0066666666666667
 40
0.0133333333333333
 40
0.0133333333333333
 40
0.0133333333333333
 40
0.02
 40
0.02
 40
0.02
 40
0.0266666666666667
 40
0.0266666666666667
 40
0.0266666666666667
 40
0.0333333333333333
 40
0.0333333333333333
 40
0.0333333333333333
 40
0.04
 40
0.04
 40
0.04
 40
0.0466666666666667
 40
0.0466666666666667
 40
0.0466666666666667
 40
0.0533333333333333
 40
0.0533333333333333
 40
0.0533333333333333
 40
0.06
 40
0.06
 40
0.06
 40
0.0666666666666667
 40
0.0666666666666667
 40
0.0666666666666667
 40
0.0733333333333333
 40
0.0733333333333333
 40
0.0733333333333333
 40
0.08
 40
0.08
 40
0.08
 40
0.0866666666666667
 40
0.0866666666666667
 40
0.0866666666666667
 40
0.0933333333333333
 40
0.0933333333333333
 40
0.0933333333333333
 40
0.1
 40
0.1
 40
0.1
 40
0.1066666666666667
 40
0.1066666666666667
 40
0.1066666666666667
 40
0.1133333333333333
 40
0.1133333333333333
 40
0.1133333333333333
 40
0.12
 40
0.12
 40
0.12
 40
0.1266666666666667
 40
0.1266666666666667
 40
0.1266666666666667
 40
0.1333333333333333
 40
0.1333333333333333
 40
0.1333333333333333
 40
0.14
 40
0.14
 40
0.14
 40
0.1466666666666667
 40
0.1466666666666667
 40
0.1466666666666667
 40
0.1533333333333333
 40
0.1533333333333333
 40
0.1533333333333333
 40
0.16
 40
0.16
 40
0.16
 40
0.1666666666666667
 40
0.1666666666666667
 40
0.1666666666666667
 40
0.1733333333333333
 40
0.1733333333333333
 40
0.1733333333333333
 40
0.18
 40
0.18
 40
0.18
 40
0.1866666666666667
 40
0.1866666666666667
 40
0.1866666666666667
 40
0.1933333333333334
 40
0.1933333333333334
 40
0.1933333333333334
 40
0.2
 40
0.2
 40
0.2
 40
0.2066666666666667
 40
0.2066666666666667
 40
0.2066666666666667
 40
0.2133333333333333
 40
0.2133333333333333
 40
0.2133333333333333
 40
0.22
 40
0.22
 40
0.22
 40
0.2266666666666667
 40
0.2266666666666667
 40
0.2266666666666667
 40
0.2333333333333333
 40
0.2333333333333333
 40
0.2333333333333333
 40
0.24
 40
0.24
 40
0.24
 40
0.2466666666666667
 40
0.2466666666666667
 40
0.2466666666666667
 40
0.2533333333333334
 40
0.2533333333333334
 40
0.2533333333333334
 40
0.26
 40
0.26
 40
0.26
 40
0.2666666666666667
 40
0.2666666666666667
 40
0.2666666666666667
 40
0.2733333333333334
 40
0.2733333333333334
 40
0.2733333333333334
 40
0.28
 40
0.28
 40
0.28
 40
0.2866666666666667
 40
0.2866666666666667
 40
0.2866666666666667
 40
0.2933333333333333
 40
0.2933333333333333
 40
0.2933333333333333
 40
0.3
 40
0.3
 40
0.3
 40
0.3066666666666667
 40
0.3066666666666667
 40
0.3066666666666667
 40
0.3133333333333334
 40
0.3133333333333334
 40
0.3133333333333334
 40
0.32
 40
0.32
 40
0.32
 40
0.3266666666666667
 40
0.3266666666666667
 40
0.3266666666666667
 40
0.3333333333333334
 40
0.3333333333333334
 40
0.3333333333333334
 40
0.34
 40
0.34
 40
0.34
 40
0.3466666666666667
 40
0.3466666666666667
 40
0.3466666666666667
 40
0.3533333333333333
 40
0.3533333333333333
 40
0.3533333333333333
 40
0.36
 40
0.36
 40
0.36
 40
0.3666666666666667
 40
0.3666666666666667
 40
0.3666666666666667
 40
0.3733333333333334
 40
0.3733333333333334
 40
0.3733333333333334
 40
0.38
 40
0.38
 40
0.38
 40
0.3866666666666667
 40
0.3866666666666667
 40
0.3866666666666667
 40
0.3933333333333334
 40
0.3933333333333334
 40
0.3933333333333334
 40
0.4
 40
0.4
 40
0.4
 40
0.4066666666666667
 40
0.4066666666666667
 40
0.4066666666666667
 40
0.4133333333333334
 40
0.4133333333333334
 40
0.4133333333333334
 40
0.42
 40
0.42
 40
0.42
 40
0.4266666666666667
 40
0.4266666666666667
 40
0.4266666666666667
 40
0.4333333333333333
 40
0.4333333333333333
 40
0.4333333333333333
 40
0.44
 40
0.44
 40
0.44
 40
0.4466666666666667
 40
0.4466666666666667
 40
0.4466666666666667
 40
0.4533333333333334
 40
0.4533333333333334
 40
0.4533333333333334
 40
0.46
 40
0.46
 40
0.46
 40
0.4666666666666667
 40
0.4666666666666667
 40
0.4666666666666667
 40
0.4733333333333334
 40
0.4733333333333334
 40
0.4733333333333334
 40
0.48
 40
0.48
 40
0.48
 40
0.4866666666666667
 40
0.4866666666666667
 40
0.4866666666666667
 40
0.4933333333333333
 40
0.4933333333333333
 40
0.4933333333333333
 40
0.5
 40
0.5
 40
0.5
 40
0.5066666666666667
 40
0.5066666666666667
 40
0.5066666666666667
 40
0.5133333333333334
 40
0.5133333333333334
 40
0.5133333333333334
 40
0.52
 40
0.52
 40
0.52
 40
0.5266666666666667
 40
0.5266666666666667
 40
0.5266666666666667
 40
0.5333333333333333
 40
0.5333333333333333
 40
0.5333333333333333
 40
0.54
 40
0.54
 40
0.54
 40
0.5466666666666667
 40
0.5466666666666667
 40
0.5466666666666667
 40
0.5533333333333333
 40
0.5533333333333333
 40
0.5533333333333333
 40
0.56
 40
0.56
 40
0.56
 40
0.5666666666666667
 40
0.5666666666666667
 40
0.5666666666666667
 40
0.5733333333333334
 40
0.5733333333333334
 40
0.5733333333333334
 40
0.5800000000000001
 40
0.5800000000000001
 40
0.5800000000000001
 40
0.5866666666666667
 40
0.5866666666666667
 40
0.5866666666666667
 40
0.5933333333333334
 40
0.5933333333333334
 40
0.5933333333333334
 40
0.6000000000000001
 40
0.6000000000000001
 40
0.6000000000000001
 40
0.6066666666666667
 40
0.6066666666666667
 40
0.6066666666666667
 40
0.6133333333333334
 40
0.6133333333333334
 40
0.6133333333333334
 40
0.62
 40
0.62
 40
0.62
 40
0.6266666666666667
 40
0.6266666666666667
 40
0.6266666666666667
 40
0.6333333333333334
 40
0.6333333333333334
 40
0.6333333333333334
 40
0.64
 40
0.64
 40
0.64
 40
0.6466666666666667
 40
0.6466666666666667
 40
0.6466666666666667
 40
0.6533333333333333
 40
0.6533333333333333
 40
0.6533333333333333
 40
0.66
 40
0.66
 40
0.66
 40
0.6666666666666667
 40
0.6666666666666667
 40
0.6666666666666667
 40
0.6733333333333333
 40
0.6733333333333333
 40
0.6733333333333333
 40
0.68
 40
0.68
 40
0.68
 40
0.6866666666666668
 40
0.6866666666666668
 40
0.6866666666666668
 40
0.6933333333333334
 40
0.6933333333333334
 40
0.6933333333333334
 40
0.7000000000000001
 40
0.7000000000000001
 40
0.7000000000000001
 40
0.7066666666666667
 40
0.7066666666666667
 40
0.7066666666666667
 40
0.7133333333333334
 40
0.7133333333333334
 40
0.7133333333333334
 40
0.7200000000000001
 40
0.7200000000000001
 40
0.7200000000000001
 40
0.7266666666666667
 40
0.7266666666666667
 40
0.7266666666666667
 40
0.7333333333333334
 40
0.7333333333333334
 40
0.7333333333333334
 40
0.7400000000000001
 40
0.7400000000000001
 40
0.7400000000000001
 40
0.7466666666666667
 40
0.7466666666666667
 40
0.7466666666666667
 40
0.7533333333333334
 40
0.7533333333333334
 40
0.7533333333333334
 40
0.76
 40
0.76
 40
0.76
 40
0.7666666666666667
 40
0.7666666666666667
 40
0.7666666666666667
 40
0.7733333333333334
 40
0.7733333333333334
 40
0.7733333333333334
 40
0.78
 40
0.78
 40
0.78
 40
0.7866666666666667
 40
0.7866666666666667
 40
0.7866666666666667
 40
0.7933333333333333
 40
0.7933333333333333
 40
0.7933333333333333
 40
0.8
 40
0.8
 40
0.8
 40
0.8066666666666668
 40
0.8066666666666668
 40
0.8066666666666668
 40
0.8133333333333334
 40
0.8133333333333334
 40
0.8133333333333334
 40
0.8200000000000001
 40
0.8200000000000001
 40
0.8200000000000001
 40
0.8266666666666668
 40
0.8266666666666668
 40
0.8266666666666668
 40
0.8333333333333334
 40
0.8333333333333334
 40
0.8333333333333334
 40
0.8400000000000001
 40
0.8400000000000001
 40
0.8400000000000001
 40
0.8466666666666667
 40
0.8466666666666667
 40
0.8466666666666667
 40
0.8533333333333334
 40
0.8533333333333334
 40
0.8533333333333334
 40
0.8600000000000001
 40
0.8600000000000001
 40
0.8600000000000001
 40
0.8666666666666667
 40
0.8666666666666667
 40
0.8666666666666667
 40
0.8733333333333334
 40
0.8733333333333334
 40
0.8733333333333334
 40
0.88
 40
0.88
 40
0.88
 40
0.8866666666666667
 40
0.8866666666666667
 40
0.8866666666666667
 40
0.8933333333333334
 40
0.8933333333333334
 40
0.8933333333333334
 40
0.9
 40
0.9
 40
0.9
 40
0.9066666666666667
 40
0.9066666666666667
 40
0.9066666666666667
 40
0.9133333333333334
 40
0.9133333333333334
 40
0.9133333333333334
 40
0.92
 40
0.92
 40
0.92
 40
0.9266666666666667
 40
0.9266666666666667
 40
0.9266666666666667
 40
0.9333333333333333
 40
0.9333333333333333
 40
0.9333333333333333
 40
0.9400000000000001
 40
0.9400000000000001
 40
0.9400000000000001
 40
0.9466666666666668
 40
0.9466666666666668
 40
0.9466666666666668
 40
0.9533333333333334
 40
0.9533333333333334
 40
0.9533333333333334
 40
0.9600000000000001
 40
0.9600000000000001
 40
0.9600000000000001
 40
0.9666666666666667
 40
0.9666666666666667
 40
0.9666666666666667
 40
0.9733333333333334
 40
0.9733333333333334
 40
0.9733333333333334
 40
0.9800000000000001
 40
0.9800000000000001
 40
0.9800000000000001
 40
0.9866666666666667
 40
0.9866666666666667
 40
0.9866666666666667
 40
0.9933333333333334
 40
0.9933333333333334
 40
0.9933333333333334
 40
1.0
 40
1.0
 40
1.0
 40
1.0
 10
-6.1923
 20
7.16197
 30
0.0
 10
-6.12471
 20
7.06102
 30
0.0
 10
-5.94239
 20
6.96154
 30
0.0
 10
-5.84147
 20
6.88582
 30
0.0
 10
-5.77813
 20
6.83831
 30
0.0
 10
-5.72531
 20
6.80337
 30
0.0
 10
-5.65965
 20
6.75415
 30
0.0
 10
-5.587
 20
6.69969
 30
0.0
 10
-5.54921
 20
6.66554
 30
0.0
 10
-5.46956
 20
6.61214
 30
0.0
 10
-5.39139
 20
6.55973
 30
0.0
 10
-5.42795
 20
6.59052
 30
0.0
 10
-5.41685
 20
6.53237
 30
0.0
 10
-5.40185
 20
6.45384
 30
0.0
 10
-5.40627
 20
6.34872
 30
0.0
 10
-5.60357
 20
6.29458
 30
0.0
 10
-5.69088
 20
6.27063
 30
0.0
 10
-5.76069
 20
6.25374
 30
0.0
 10
-5.85014
 20
6.22766
 30
0.0
 10
-5.85014
 20
6.22766
 30
0.0
 10
-6.10522
 20
6.15183
 30
0.0
 10
-6.10522
 20
6.15183
 30
0.0
 10
-6.10522
 20
5.70322
 30
0.0
 10
-5.87297
 20
6.06475
 30
0.0
 10
-5.53048
 20
6.06475
 30
0.0
 10
-5.53048
 20
5.90565
 30
0.0
 10
-5.61437
 20
5.87803
 30
0.0
 10
-5.62932
 20
5.67864
 30
0.0
 10
-5.63556
 20
5.59525
 30
0.0
 10
-5.67333
 20
5.59685
 30
0.0
 10
-5.72209
 20
5.5423
 30
0.0
 10
-5.87043
 20
5.37637
 30
0.0
 10
-5.77431
 20
5.33737
 30
0.0
 10
-5.77431
 20
5.17653
 30
0.0
 10
-5.77431
 20
5.02674
 30
0.0
 10
-5.8155
 20
4.90788
 30
0.0
 10
-5.67024
 20
4.79294
 30
0.0
 10
-5.60177
 20
4.73876
 30
0.0
 10
-5.52574
 20
4.66573
 30
0.0
 10
-5.43778
 20
4.64225
 30
0.0
 10
-5.37442
 20
4.62534
 30
0.0
 10
-5.37751
 20
4.6502
 30
0.0
 10
-5.34974
 20
4.59096
 30
0.0
 10
-5.27464
 20
4.43074
 30
0.0
 10
-5.37695
 20
4.39107
 30
0.0
 10
-5.14167
 20
4.27654
 30
0.0
 10
-5.14167
 20
4.27654
 30
0.0
 10
-4.82013
 20
4.07559
 30
0.0
 10
-4.82013
 20
4.07559
 30
0.0
 10
-4.79586
 20
4.05347
 30
0.0
 10
-4.7862
 20
4.03766
 30
0.0
 10
-4.75901
 20
4.01481
 30
0.0
 10
-4.48113
 20
3.78115
 30
0.0
 10
-4.6119
 20
3.679
 30
0.0
 10
-4.66232
 20
3.36788
 30
0.0
 10
-4.70308
 20
3.11628
 30
0.0
 10
-4.67702
 20
3.08396
 30
0.0
 10
-4.69444
 20
2.87752
 30
0.0
 10
-4.70999
 20
2.69327
 30
0.0
 10
-4.98526
 20
2.57046
 30
0.0
 10
-4.82177
 20
2.34976
 30
0.0
 10
-4.79027
 20
2.30723
 30
0.0
 10
-4.78705
 20
2.29383
 30
0.0
 10
-4.76417
 20
2.2506
 30
0.0
 10
-4.83945
 20
2.1382
 30
0.0
 10
-4.81694
 20
2.22818
 30
0.0
 10
-4.78159
 20
2.07645
 30
0.0
 10
-5.23851
 20
1.97967
 30
0.0
 10
-5.3228
 20
2.73011
 30
0.0
 10
-5.87368
 20
2.26289
 30
0.0
 10
-6.55498
 20
1.68505
 30
0.0
 10
-6.55121
 20
1.91536
 30
0.0
 10
-6.90637
 20
1.83262
 30
0.0
 10
-6.82565
 20
1.72245
 30
0.0
 10
-6.76704
 20
1.83685
 30
0.0
 10
-6.76704
 20
1.55396
 30
0.0
 10
-6.6791
 20
1.57445
 30
0.0
 10
-6.66006
 20
1.61438
 30
0.0
 10
-6.6135
 20
1.66167
 30
0.0
 10
-6.56265
 20
1.71329
 30
0.0
 10
-6.49323
 20
1.69236
 30
0.0
 10
-6.41871
 20
1.72812
 30
0.0
 10
-6.45223
 20
1.58424
 30
0.0
 10
-6.32079
 20
1.6307
 30
0.0
 10
-6.21999
 20
1.66871
 30
0.0
 10
-6.04787
 20
1.7336
 30
0.0
 10
-5.90008
 20
1.87918
 30
0.0
 10
-5.82757
 20
2.04262
 30
0.0
 10
-5.79307
 20
2.12038
 30
0.0
 10
-5.81842
 20
2.10239
 30
0.0
 10
-5.73494
 20
2.14157
 30
0.0
 10
-5.47634
 20
2.26294
 30
0.0
 10
-5.37711
 20
2.0335
 30
0.0
 10
-5.06718
 20
1.96502
 30
0.0
 10
-4.98657
 20
1.9472
 30
0.0
 10
-4.92922
 20
1.96115
 30
0.0
 10
-4.88609
 20
1.90228
 30
0.0
 10
-5.101
 20
1.8844
 30
0.0
 10
-5.105
 20
1.79892
 30
0.0
 10
-5.14733
 20
1.7107
 30
0.0
 10
-5.23368
 20
1.7107
 30
0.0
 10
-5.22445
 20
1.72718
 30
0.0
 10
-5.29889
 20
1.72493
 30
0.0
 10
-5.69722
 20
1.71289
 30
0.0
 10
-5.52819
 20
1.599
 30
0.0
 10
-5.56532
 20
1.53654
 30
0.0
 10
-5.60388
 20
1.48391
 30
0.0
 10
-5.68062
 20
1.46494
 30
0.0
 10
-5.73871
 20
1.43128
 30
0.0
 10
-5.7997
 20
1.39592
 30
0.0
 10
-5.85997
 20
1.36275
 30
0.0
 10
-5.924
 20
1.32049
 30
0.0
 10
-6.09633
 20
1.20676
 30
0.0
 10
-6.48822
 20
1.00304
 30
0.0
 10
-6.56957
 20
0.81659
 30
0.0
 10
-6.60517
 20
0.73498
 30
0.0
 10
-6.5845
 20
0.64931
 30
0.0
 10
-6.59519
 20
0.54614
 30
0.0
 10
-6.6181
 20
0.32518
 30
0.0
 10
-6.68947
 20
0.23048
 30
0.0
 10
-6.51052
 20
0.05144
 30
0.0
 10
-6.43872
 20
-0.02041
 30
0.0
 10
-6.31995
 20
-0.04676
 30
0.0
 10
-6.28451
 20
-0.10571
 30
0.0
 10
-6.25021
 20
-0.16274
 30
0.0
 10
-6.24283
 20
-0.20351
 30
0.0
 10
-6.18852
 20
-0.25354
 30
0.0
 10
-5.96216
 20
-0.46205
 30
0.0
 10
-5.84032
 20
-0.30957
 30
0.0
 10
-5.68723
 20
-0.30957
 30
0.0
 10
-5.63553
 20
-0.30957
 30
0.0
 10
-5.59058
 20
-0.33515
 30
0.0
 10
-5.53493
 20
-0.34885
 30
0.0
 10
-5.3448
 20
-0.39564
 30
0.0
 10
-5.18209
 20
-0.29341
 30
0.0
 10
-5.21714
 20
-0.60427
 30
0.0
 10
-5.22819
 20
-0.70226
 30
0.0
 10
-5.28792
 20
-0.80321
 30
0.0
 10
-5.32804
 20
-0.89518
 30
0.0
 10
-5.39713
 20
-1.05358
 30
0.0
 10
-5.5479
 20
-0.98018
 30
0.0
 10
-5.5479
 20
-1.12813
 30
0.0
 10
-5.5479
 20
-1.18588
 30
0.0
 10
-5.44683
 20
-1.22077
 30
0.0
 10
-5.39413
 20
-1.2356
 30
0.0
 10
-5.22769
 20
-1.28242
 30
0.0
 10
-4.99321
 20
-1.27607
 30
0.0
 10
-4.83877
 20
-1.19287
 30
0.0
 10
-4.72042
 20
-1.1291
 30
0.0
 10
-4.71749
 20
-1.10059
 30
0.0
 10
-4.71058
 20
-0.93676
 30
0.0
 10
-4.70248
 20
-0.74473
 30
0.0
 10
-4.65185
 20
-0.71843
 30
0.0
 10
-4.54949
 20
-0.57651
 30
0.0
 10
-4.51644
 20
-0.53067
 30
0.0
 10
-4.50293
 20
-0.50527
 30
0.0
 10
-4.50293
 20
-0.43148
 30
0.0
 10
-4.50293
 20
-0.20105
 30
0.0
 10
-4.64373
 20
-0.20631
 30
0.0
 10
-4.75873
 20
-0.07772
 30
0.0
 10
-4.75873
 20
-0.07772
 30
0.0
 10
-4.80191
 20
-0.03382
 30
0.0
 10
-4.80191
 20
-0.03382
 30
0.0
 10
-4.8618
 20
0.01434
 30
0.0
 10
-4.90177
 20
0.04363
 30
0.0
 10
-4.92092
 20
0.12583
 30
0.0
 10
-4.67496
 20
0.00782
 30
0.0
 10
-4.01124
 20
0.31741
 30
0.0
 10
-3.87595
 20
0.31741
 30
0.0
 10
-3.79607
 20
0.31741
 30
0.0
 10
-3.70869
 20
0.26516
 30
0.0
 10
-3.59729
 20
0.26516
 30
0.0
 10
-3.48453
 20
0.26516
 30
0.0
 10
-3.44576
 20
0.31022
 30
0.0
 10
-3.26632
 20
0.3001
 30
0.0
 10
-3.06663
 20
0.28884
 30
0.0
 10
-2.76026
 20
0.26083
 30
0.0
 10
-2.56973
 20
0.35224
 30
0.0
 10
-2.59825
 20
0.22985
 30
0.0
 10
-2.62275
 20
0.26456
 30
0.0
 10
-2.6579
 20
0.17917
 30
0.0
 10
-2.69143
 20
0.09771
 30
0.0
 10
-2.65811
 20
0.06262
 30
0.0
 10
-2.70812
 20
-0.03185
 30
0.0
 10
-2.74032
 20
-0.09268
 30
0.0
 10
-2.76863
 20
-0.1287
 30
0.0
 10
-2.80231
 20
-0.19891
 30
0.0
 10
-2.84207
 20
-0.28177
 30
0.0
 10
-2.84348
 20
-0.36662
 30
0.0
 10
-2.91996
 20
-0.39476
 30
0.0
 10
-2.94399
 20
-0.4036
 30
0.0
 10
-2.97674
 20
-0.40453
 30
0.0
 10
-3.01348
 20
-0.51023
 30
0.0
 10
-3.0507
 20
-0.6173
 30
0.0
 10
-3.04501
 20
-0.56442
 30
0.0
 10
-3.15173
 20
-0.63322
 30
0.0
 10
-3.5072
 20
-0.86236
 30
0.0
 10
-3.43389
 20
-1.12524
 30
0.0
 10
-3.08875
 20
-1.26399
 30
0.0
 10
-2.9231
 20
-1.33058
 30
0.0
 10
-3.07784
 20
-1.47687
 30
0.0
 10
-2.80024
 20
-1.56763
 30
0.0
 10
-2.68378
 20
-1.60571
 30
0.0
 10
-2.0995
 20
-1.93401
 30
0.0
 10
-2.0995
 20
-1.6332
 30
0.0
 10
-2.0995
 20
-1.56671
 30
0.0
 10
-2.19642
 20
-1.51557
 30
0.0
 10
-2.24587
 20
-1.4835
 30
0.0
 10
-2.24587
 20
-1.4835
 30
0.0
 10
-2.37216
 20
-1.38339
 30
0.0
 10
-2.37216
 20
-1.38339
 30
0.0
 10
-2.45065
 20
-1.29457
 30
0.0
 10
-2.45553
 20
-1.03745
 30
0.0
 10
-2.56973
 20
-0.86689
 30
0.0
 10
-2.51106
 20
-0.85122
 30
0.0
 10
-2.49665
 20
-0.83046
 30
0.0
 10
-2.47224
 20
-0.77281
 30
0.0
 10
-2.43219
 20
-0.67823
 30
0.0
 10
-2.44964
 20
-0.71289
 30
0.0
 10
-2.39352
 20
-0.64254
 30
0.0
 10
-2.39352
 20
-0.64254
 30
0.0
 10
-2.06396
 20
-0.34511
 30
0.0
 10
-2.06396
 20
-0.34511
 30
0.0
 10
-2.01754
 20
-0.3153
 30
0.0
 10
-1.98411
 20
-0.2959
 30
0.0
 10
-1.93999
 20
-0.26009
 30
0.0
 10
-1.87085
 20
-0.20396
 30
0.0
 10
-1.80322
 20
-0.08894
 30
0.0
 10
-1.71634
 20
-0.06575
 30
0.0
 10
-1.71892
 20
-0.1816
 30
0.0
 10
-1.76
 20
-0.15404
 30
0.0
 10
-1.76859
 20
-0.25733
 30
0.0
 10
-1.5855
 20
-0.21467
 30
0.0
 10
-1.64771
 20
-0.01453
 30
0.0
 10
-1.59443
 20
0.03875
 30
0.0
 10
-1.51932
 20
0.11386
 30
0.0
 10
-1.26962
 20
-0.06715
 30
0.0
 10
-1.11148
 20
0.42661
 30
0.0
 10
-1.08044
 20
0.52352
 30
0.0
 10
-1.09497
 20
0.49339
 30
0.0
 10
-1.01659
 20
0.54071
 30
0.0
 10
-0.78262
 20
0.68196
 30
0.0
 10
-0.7009
 20
0.89401
 30
0.0
 10
-0.77384
 20
1.15541
 30
0.0
 10
-0.8329
 20
1.36707
 30
0.0
 10
-0.81061
 20
1.53211
 30
0.0
 10
-1.00954
 20
1.66861
 30
0.0
 10
-1.16155
 20
1.77291
 30
0.0
 10
-1.62169
 20
1.85003
 30
0.0
 10
-1.87309
 20
1.85003
 30
0.0
 10
-2.04933
 20
1.85003
 30
0.0
 10
-2.1648
 20
1.8152
 30
0.0
 10
-2.32591
 20
1.8152
 30
0.0
 10
-2.37541
 20
2.0006
 30
0.0
 10
-2.7679
 20
1.774
 30
0.0
 10
-2.90064
 20
1.76295
 30
0.0
 10
-2.8711
 20
1.82453
 30
0.0
 10
-2.90085
 20
1.81772
 30
0.0
 10
-2.84199
 20
1.86105
 30
0.0
 10
-2.81008
 20
1.88453
 30
0.0
 10
-2.76906
 20
1.89102
 30
0.0
 10
-2.74018
 20
1.91603
 30
0.0
 10
-2.61682
 20
2.02285
 30
0.0
 10
-2.80936
 20
2.13599
 30
0.0
 10
-2.62487
 20
2.2709
 30
0.0
 10
-2.50703
 20
2.35707
 30
0.0
 10
-2.38599
 20
2.50054
 30
0.0
 10
-2.29108
 20
2.5641
 30
0.0
 10
-2.22121
 20
2.54782
 30
0.0
 10
-2.17858
 20
2.52565
 30
0.0
 10
-2.10327
 20
2.50808
 30
0.0
 10
-2.01981
 20
2.4886
 30
0.0
 10
-1.97839
 20
2.49342
 30
0.0
 10
-1.9125
 20
2.4376
 30
0.0
 10
-1.54608
 20
2.12721
 30
0.0
 10
-1.57742
 20
2.32627
 30
0.0
 10
-1.37741
 20
2.18896
 30
0.0
 10
-1.3198
 20
2.14941
 30
0.0
 10
-1.29692
 20
2.09196
 30
0.0
 10
-1.23865
 20
2.06648
 30
0.0
 10
-1.17798
 20
2.03996
 30
0.0
 10
-1.10147
 20
2.03357
 30
0.0
 10
-1.04002
 20
2.00387
 30
0.0
 10
-0.84755
 20
1.91082
 30
0.0
 10
-0.93824
 20
1.87472
 30
0.0
 10
-0.68375
 20
1.98432
 30
0.0
 10
-0.62691
 20
2.00881
 30
0.0
 10
-0.55901
 20
2.05903
 30
0.0
 10
-0.49721
 20
2.05903
 30
0.0
 10
-0.3908
 20
2.05903
 30
0.0
 10
-0.36416
 20
2.02419
 30
0.0
 10
-0.2708
 20
2.02419
 30
0.0
 10
-0.18375
 20
2.02419
 30
0.0
 10
-0.03362
 20
2.08921
 30
0.0
 10
0.13531
 20
2.08341
 30
0.0
 10
0.21657
 20
2.08061
 30
0.0
 10
0.14571
 20
2.06489
 30
0.0
 10
0.2123
 20
2.06901
 30
0.0
 10
0.26103
 20
2.07202
 30
0.0
 10
0.26591
 20
2.09119
 30
0.0
 10
0.29641
 20
2.09733
 30
0.0
 10
0.34857
 20
2.10785
 30
0.0
 10
0.37928
 20
2.05903
 30
0.0
 10
0.4781
 20
2.05903
 30
0.0
 10
0.56455
 20
2.05903
 30
0.0
 10
0.68673
 20
2.15901
 30
0.0
 10
0.77838
 20
2.17673
 30
0.0
 10
0.92981
 20
2.20602
 30
0.0
 10
1.08358
 20
2.11966
 30
0.0
 10
1.08766
 20
2.30286
 30
0.0
 10
1.08766
 20
2.30286
 30
0.0
 10
0.8817
 20
2.35814
 30
0.0
 10
0.8817
 20
2.35814
 30
0.0
 10
0.81731
 20
2.37987
 30
0.0
 10
0.84443
 20
2.3576
 30
0.0
 10
0.82642
 20
2.40735
 30
0.0
 10
0.79448
 20
2.48688
 30
0.0
 10
0.95348
 20
2.53153
 30
0.0
 10
0.99973
 20
2.54754
 30
0.0
 10
1.13911
 20
2.59578
 30
0.0
 10
1.23013
 20
2.49698
 30
0.0
 10
1.24441
 20
2.66859
 30
0.0
 10
1.1559
 20
2.66859
 30
0.0
 10
1.16498
 20
2.68601
 30
0.0
 10
1.08766
 20
2.68601
 30
0.0
 10
0.97552
 20
2.68601
 30
0.0
 10
0.9312
 20
2.65118
 30
0.0
 10
0.809
 20
2.65118
 30
0.0
 10
0.93823
 20
2.84414
 30
0.0
 10
1.28058
 20
2.80634
 30
0.0
 10
1.29666
 20
2.9995
 30
0.0
 10
1.23571
 20
3.02875
 30
0.0
 10
1.21505
 20
2.99674
 30
0.0
 10
1.19018
 20
3.04026
 30
0.0
 10
1.15151
 20
3.10794
 30
0.0
 10
1.26156
 20
3.19538
 30
0.0
 10
0.91325
 20
3.01717
 30
0.0
 10
0.80028
 20
2.95937
 30
0.0
 10
0.51134
 20
2.74813
 30
0.0
 10
0.43346
 20
2.64356
 30
0.0
 10
0.33331
 20
2.5091
 30
0.0
 10
0.26064
 20
2.56931
 30
0.0
 10
0.11612
 20
2.60086
 30
0.0
 10
0.06223
 20
2.61263
 30
0.0
 10
0.03128
 20
2.58287
 30
0.0
 10
-0.03436
 20
2.60776
 30
0.0
 10
-0.08582
 20
2.62728
 30
0.0
 10
-0.06389
 20
2.64493
 30
0.0
 10
-0.16228
 20
2.67262
 30
0.0
 10
-0.323
 20
2.71784
 30
0.0
 10
-0.37603
 20
2.82095
 30
0.0
 10
-0.5123
 20
2.89734
 30
0.0
 10
-0.6138
 20
2.95425
 30
0.0
 10
-0.72124
 20
2.91242
 30
0.0
 10
-0.86295
 20
2.91242
 30
0.0
 10
-0.88404
 20
3.16594
 30
0.0
 10
-1.07834
 20
3.05675
 30
0.0
 10
-1.17978
 20
3.17032
 30
0.0
 10
-1.24553
 20
3.24392
 30
0.0
 10
-1.2247
 20
3.27191
 30
0.0
 10
-1.33347
 20
3.31271
 30
0.0
 10
-1.46941
 20
3.36371
 30
0.0
 10
-1.39882
 20
3.34627
 30
0.0
 10
-1.47497
 20
3.46729
 30
0.0
 10
-1.52862
 20
3.55253
 30
0.0
 10
-1.65762
 20
3.71578
 30
0.0
 10
-1.74362
 20
3.77337
 30
0.0
 10
-1.83955
 20
3.83763
 30
0.0
 10
-1.83636
 20
3.81266
 30
0.0
 10
-1.90748
 20
3.90559
 30
0.0
 10
-1.97896
 20
3.99898
 30
0.0
 10
-2.03577
 20
3.96385
 30
0.0
 10
-2.08208
 20
4.02706
 30
0.0
 10
-2.00483
 20
4.04769
 30
0.0
 10
-1.96859
 20
4.12776
 30
0.0
 10
-1.92564
 20
4.18411
 30
0.0
 10
-1.88232
 20
4.24096
 30
0.0
 10
-1.81902
 20
4.28742
 30
0.0
 10
-1.79588
 20
4.36784
 30
0.0
 10
-1.76844
 20
4.4632
 30
0.0
 10
-1.80096
 20
4.56487
 30
0.0
 10
-1.75726
 20
4.64271
 30
0.0
 10
-1.66924
 20
4.79952
 30
0.0
 10
-1.64668
 20
4.58919
 30
0.0
 10
-1.64668
 20
5.14169
 30
0.0
 10
-1.64668
 20
5.54582
 30
0.0
 10
-2.33262
 20
6.10376
 30
0.0
 10
-2.83101
 20
5.71646
 30
0.0
 10
-2.90715
 20
5.65728
 30
0.0
 10
-3.14447
 20
5.58309
 30
0.0
 10
-3.14447
 20
5.49002
 30
0.0
 10
-3.14447
 20
5.32194
 30
0.0
 10
-3.05131
 20
5.38132
 30
0.0
 10
-3.09346
 20
5.23197
 30
0.0
 10
-3.1189
 20
5.14181
 30
0.0
 10
-3.10963
 20
5.0147
 30
0.0
 10
-3.10963
 20
4.89786
 30
0.0
 10
-3.23914
 20
4.96
 30
0.0
 10
-3.16983
 20
4.87859
 30
0.0
 10
-3.31403
 20
5.02438
 30
0.0
 10
-3.31403
 20
5.02438
 30
0.0
 10
-4.42789
 20
6.00046
 30
0.0
 10
-4.42789
 20
6.00046
 30
0.0
 10
-4.48833
 20
6.05154
 30
0.0
 10
-4.54966
 20
6.13176
 30
0.0
 10
-4.62484
 20
6.15183
 30
0.0
 10
-4.62484
 20
6.15183
 30
0.0
 10
-4.62484
 20
6.18666
 30
0.0
 10
-4.62484
 20
6.18666
 30
0.0
 10
-4.492
 20
6.22214
 30
0.0
 10
-4.5385
 20
6.28391
 30
0.0
 10
-4.59002
 20
6.36083
 30
0.0
 10
-4.44026
 20
6.40081
 30
0.0
 10
-4.48975
 20
6.586
 30
0.0
 10
-4.57913
 20
6.65036
 30
0.0
 10
-4.57913
 20
6.65036
 30
0.0
 10
-5.34278
 20
7.09927
 30
0.0
 10
-5.34278
 20
7.09927
 30
0.0
 10
-5.36788
 20
7.10324
 30
0.0
 10
-5.34435
 20
7.10532
 30
0.0
 10
-5.37863
 20
7.09768
 30
0.0
 10
-5.44908
 20
7.08198
 30
0.0
 10
-5.40472
 20
7.09141
 30
0.0
 10
-5.42586
 20
7.07622
 30
0.0
 10
-5.42693
 20
7.07545
 30
0.0
 10
-5.45739
 20
7.04282
 30
0.0
 10
-5.45964
 20
7.03898
 30
0.0
 10
-5.52937
 20
6.91975
 30
0.0
 10
-5.33542
 20
6.88185
 30
0.0
 10
-5.25772
 20
6.84259
 30
0.0
 10
-5.18277
 20
6.80472
 30
0.0
 10
-5.06749
 20
6.76658
 30
0.0
 10
-5.02542
 20
6.70915
 30
0.0
 10
-5.08232
 20
6.72241
 30
0.0
 10
-5.12653
 20
6.74268
 30
0.0
 10
-5.18772
 20
6.73727
 30
0.0
 10
-5.1925
 20
6.73685
 30
0.0
 10
-5.21589
 20
6.73233
 30
0.0
 10
-5.22013
 20
6.73133
 30
0.0
 10
-5.22267
 20
6.73073
 30
0.0
 10
-5.22761
 20
6.72898
 30
0.0
 10
-5.23008
 20
6.72835
 30
0.0
 10
-5.25228
 20
6.72275
 30
0.0
 10
-5.26613
 20
6.70789
 30
0.0
 10
-5.31108
 20
6.73461
 30
0.0
 10
-5.40963
 20
6.79318
 30
0.0
 10
-5.67827
 20
7.02323
 30
0.0
 10
-5.80908
 20
7.10979
 30
0.0
 10
-5.92129
 20
7.18403
 30
0.0
 10
-6.13322
 20
7.41558
 30
0.0
 10
-6.1923
 20
7.16197
 30
0.0
  0
ENDSEC
  0
SECTION
  2
OBJECTS
  0
DICTIONARY
  5
C
330
0
100
AcDbDictionary
281
     1
  3
ACAD_DETAILVIEWSTYLE
350
6C
  3
ACAD_GROUP
350
D
  3
ACAD_LAYOUT
350
1A
  3
ACAD_MATERIAL
350
43
  3
ACAD_MLEADERSTYLE
350
5B
  3
ACAD_MLINESTYLE
350
17
  3
ACAD_PLOTSETTINGS
350
19
  3
ACAD_PLOTSTYLENAME
350
E
  3
ACAD_SCALELIST
350
47
  3
ACAD_SECTIONVIEWSTYLE
350
6D
  3
ACAD_TABLESTYLE
350
59
  3
ACAD_VISUALSTYLE
350
2A
  3
ACDB_RECOMPOSE_DATA
350
69
  3
AcDbVariableDictionary
350
65
  0
SUN
  5
5D
330
29
100
AcDbSun
 90
        1
290
     0
 63
     7
421
 16777215
 40
1.0
291
     1
 91
  2455826
 92
 54000000
292
     0
 70
     2
 71
   256
280
     1
  0
DICTIONARY
  5
6C
102
{ACAD_REACTORS
330
C
102
}
330
C
100
AcDbDictionary
281
     1
  0
DICTIONARY
  5
D
102
{ACAD_REACTORS
330
C
102
}
330
C
100
AcDbDictionary
281
     1
  0
DICTIONARY
  5
1A
102
{ACAD_REACTORS
330
C
102
}
330
C
100
AcDbDictionary
281
     1
  3
Layout1
350
1E
  3
Layout2
350
26
  3
Model
350
22
  0
DICTIONARY
  5
43
102
{ACAD_REACTORS
330
C
102
}
330
C
100
AcDbDictionary
281
     1
  3
ByBlock
350
45
  3
ByLayer
350
44
  3
Global
350
46
  0
DICTIONARY
  5
5B
102
{ACAD_REACTORS
330
C
102
}
330
C
100
AcDbDictionary
281
     1
  3
Standard
350
5C
  0
DICTIONARY
  5
17
102
{ACAD_REACTORS
330
C
102
}
330
C
100
AcDbDictionary
281
     1
  3
Standard
350
18
  0
DICTIONARY
  5
19
102
{ACAD_REACTORS
330
C
102
}
330
C
100
AcDbDictionary
281
     1
  0
ACDBDICTIONARYWDFLT
  5
E
102
{ACAD_REACTORS
330
C
102
}
330
C
100
AcDbDictionary
281
     1
  3
Normal
350
F
100
AcDbDictionaryWithDefault
340
F
  0
DICTIONARY
  5
47
102
{ACAD_REACTORS
330
C
102
}
330
C
100
AcDbDictionary
281
     1
  3
A0
350
48
  3
A1
350
49
  3
A2
350
4A
  3
A3
350
4B
  3
A4
350
4C
  3
A5
350
4D
  3
A6
350
4E
  3
A7
350
4F
  3
A8
350
50
  3
A9
350
51
  3
B1
350
52
  3
B2
350
53
  3
B3
350
54
  3
B4
350
55
  3
B5
350
56
  3
B6
350
57
  3
B7
350
58
  0
DICTIONARY
  5
6D
102
{ACAD_REACTORS
330
C
102
}
330
C
100
AcDbDictionary
281
     1
  0
DICTIONARY
  5
59
102
{ACAD_REACTORS
330
C
102
}
330
C
100
AcDbDictionary
281
     1
  3
Standard
350
5A
  0
DICTIONARY
  5
2A
102
{ACAD_REACTORS
330
C
102
}
330
C
100
AcDbDictionary
281
     1
  3
2dWireframe
350
2F
  3
Basic
350
32
  3
Brighten
350
36
  3
ColorChange
350
3A
  3
Conceptual
350
34
  3
Dim
350
35
  3
EdgeColorOff
350
3D
  3
Facepattern
350
39
  3
Flat
350
2B
  3
FlatWithEdges
350
2C
  3
Gouraud
350
2D
  3
GouraudWithEdges
350
2E
  3
Hidden
350
31
  3
JitterOff
350
3B
  3
Linepattern
350
38
  3
OverhangOff
350
3C
  3
Realistic
350
33
  3
Shaded
350
42
  3
Shaded with edges
350
41
  3
Shades of Gray
350
3E
  3
Sketchy
350
3F
  3
Thicken
350
37
  3
Wireframe
350
30
  3
X-Ray
350
40
  0
XRECORD
  5
69
102
{ACAD_REACTORS
330
C
102
}
330
C
100
AcDbXrecord
280
     1
 90
        1
330
5A
  0
DICTIONARY
  5
65
102
{ACAD_REACTORS
330
C
102
}
330
C
100
AcDbDictionary
281
     1
  3
CANNOSCALE
350
66
  3
CMLEADERSTYLE
350
6B
  3
CTABLESTYLE
350
6A
  0
LAYOUT
  5
1E
102
{ACAD_REACTORS
330
1A
102
}
330
1A
100
AcDbPlotSettings
  1

  2
none_device
  4

  6

 40
0.0
 41
0.0
 42
0.0
 43
0.0
 44
0.0
 45
0.0
 46
0.0
 47
0.0
 48
0.0
 49
0.0
140
0.0
141
0.0
142
1.0
143
1.0
 70
   688
 72
     0
 73
     0
 74
     5
  7

 75
    16
 76
     0
 77
     2
 78
   300
147
1.0
148
0.0
149
0.0
100
AcDbLayout
  1
Layout1
 70
     1
 71
     1
 10
0.0
 20
0.0
 11
12.0
 21
9.0
 12
0.0
 22
0.0
 32
0.0
 14
1.000000000000000E+20
 24
1.000000000000000E+20
 34
1.000000000000000E+20
 15
-1.000000000000000E+20
 25
-1.000000000000000E+20
 35
-1.000000000000000E+20
146
0.0
 13
0.0
 23
0.0
 33
0.0
 16
1.0
 26
0.0
 36
0.0
 17
0.0
 27
1.0
 37
0.0
 76
     0
330
1B
  0
LAYOUT
  5
26
102
{ACAD_REACTORS
330
1A
102
}
330
1A
100
AcDbPlotSettings
  1

  2
none_device
  4

  6

 40
0.0
 41
0.0
 42
0.0
 43
0.0
 44
0.0
 45
0.0
 46
0.0
 47
0.0
 48
0.0
 49
0.0
140
0.0
141
0.0
142
1.0
143
1.0
 70
   688
 72
     0
 73
     0
 74
     5
  7

 75
    16
 76
     0
 77
     2
 78
   300
147
1.0
148
0.0
149
0.0
100
AcDbLayout
  1
Layout2
 70
     1
 71
     2
 10
0.0
 20
0.0
 11
0.0
 21
0.0
 12
0.0
 22
0.0
 32
0.0
 14
0.0
 24
0.0
 34
0.0
 15
0.0
 25
0.0
 35
0.0
146
0.0
 13
0.0
 23
0.0
 33
0.0
 16
1.0
 26
0.0
 36
0.0
 17
0.0
 27
1.0
 37
0.0
 76
     0
330
23
  0
LAYOUT
  5
22
102
{ACAD_REACTORS
330
1A
102
}
330
1A
100
AcDbPlotSettings
  1

  2
none_device
  4
Letter_(8.50_x_11.00_Inches)
  6

 40
6.35
 41
6.35
 42
6.35000508
 43
6.35000508
 44
215.9
 45
279.4
 46
0.0
 47
0.0
 48
0.0
 49
0.0
140
0.0
141
0.0
142
1.0
143
1.0
 70
  1712
 72
     0
 73
     0
 74
     0
  7

 75
     0
 76
     0
 77
     2
 78
   300
147
1.0
148
0.0
149
0.0
100
AcDbLayout
  1
Model
 70
     1
 71
     0
 10
0.0
 20
0.0
 11
12.0
 21
9.0
 12
0.0
 22
0.0
 32
0.0
 14
-6.90637
 24
-8.08973
 34
0.0
 15
8.68853
 25
7.27767
 35
0.0
146
0.0
 13
0.0
 23
0.0
 33
0.0
 16
1.0
 26
0.0
 36
0.0
 17
0.0
 27
1.0
 37
0.0
 76
     0
330
1F
331
29
  0
MATERIAL
  5
45
102
{ACAD_REACTORS
330
43
102
}
330
43
100
AcDbMaterial
  1
ByBlock
 72
     1
 94
      127
  0
MATERIAL
  5
44
102
{ACAD_REACTORS
330
43
102
}
330
43
100
AcDbMaterial
  1
ByLayer
 72
     1
 94
      127
  0
MATERIAL
  5
46
102
{ACAD_REACTORS
330
43
102
}
330
43
100
AcDbMaterial
  1
Global
 72
     1
 94
      127
  0
MLEADERSTYLE
  5
5C
102
{ACAD_REACTORS
330
5B
102
}
330
5B
100
AcDbMLeaderStyle
179
     2
170
     2
171
     1
172
     0
 90
        2
 40
0.0
 41
0.0
173
     1
 91
-1056964608
340
14
 92
       -2
290
     1
 42
0.09
291
     1
 43
0.36
  3
Standard
341
0
 44
0.18
300

342
11
174
     1
178
     6
175
     1
176
     0
 93
-1056964608
 45
0.18
292
     0
297
     0
 46
0.18
343
0
 94
-1056964608
 47
1.0
 49
1.0
140
1.0
293
     1
141
0.0
294
     1
177
     0
142
1.0
295
     0
296
     0
143
0.125
271
     0
272
     9
273
     9
298
     0
  0
MLINESTYLE
  5
18
102
{ACAD_REACTORS
330
17
102
}
330
17
100
AcDbMlineStyle
  2
Standard
 70
     0
  3

 62
   256
 51
90.0
 52
90.0
 71
     2
 49
0.5
 62
   256
  6
BYLAYER
 49
-0.5
 62
   256
  6
BYLAYER
  0
ACDBPLACEHOLDER
  5
F
102
{ACAD_REACTORS
330
E
102
}
330
E
  0
SCALE
  5
48
102
{ACAD_REACTORS
330
47
102
}
330
47
100
AcDbScale
 70
     0
300
1:1
140
1.0
141
1.0
290
     1
  0
SCALE
  5
49
102
{ACAD_REACTORS
330
47
102
}
330
47
100
AcDbScale
 70
     0
300
1/128" = 1'-0"
140
0.0078125
141
12.0
290
     0
  0
SCALE
  5
4A
102
{ACAD_REACTORS
330
47
102
}
330
47
100
AcDbScale
 70
     0
300
1/64" = 1'-0"
140
0.015625
141
12.0
290
     0
  0
SCALE
  5
4B
102
{ACAD_REACTORS
330
47
102
}
330
47
100
AcDbScale
 70
     0
300
1/32" = 1'-0"
140
0.03125
141
12.0
290
     0
  0
SCALE
  5
4C
102
{ACAD_REACTORS
330
47
102
}
330
47
100
AcDbScale
 70
     0
300
1/16" = 1'-0"
140
0.0625
141
12.0
290
     0
  0
SCALE
  5
4D
102
{ACAD_REACTORS
330
47
102
}
330
47
100
AcDbScale
 70
     0
300
3/32" = 1'-0"
140
0.09375
141
12.0
290
     0
  0
SCALE
  5
4E
102
{ACAD_REACTORS
330
47
102
}
330
47
100
AcDbScale
 70
     0
300
1/8" = 1'-0"
140
0.125
141
12.0
290
     0
  0
SCALE
  5
4F
102
{ACAD_REACTORS
330
47
102
}
330
47
100
AcDbScale
 70
     0
300
3/16" = 1'-0"
140
0.1875
141
12.0
290
     0
  0
SCALE
  5
50
102
{ACAD_REACTORS
330
47
102
}
330
47
100
AcDbScale
 70
     0
300
1/4" = 1'-0"
140
0.25
141
12.0
290
     0
  0
SCALE
  5
51
102
{ACAD_REACTORS
330
47
102
}
330
47
100
AcDbScale
 70
     0
300
3/8" = 1'-0"
140
0.375
141
12.0
290
     0
  0
SCALE
  5
52
102
{ACAD_REACTORS
330
47
102
}
330
47
100
AcDbScale
 70
     0
300
1/2" = 1'-0"
140
0.5
141
12.0
290
     0
  0
SCALE
  5
53
102
{ACAD_REACTORS
330
47
102
}
330
47
100
AcDbScale
 70
     0
300
3/4" = 1'-0"
140
0.75
141
12.0
290
     0
  0
SCALE
  5
54
102
{ACAD_REACTORS
330
47
102
}
330
47
100
AcDbScale
 70
     0
300
1" = 1'-0"
140
1.0
141
12.0
290
     0
  0
SCALE
  5
55
102
{ACAD_REACTORS
330
47
102
}
330
47
100
AcDbScale
 70
     0
300
1-1/2" = 1'-0"
140
1.5
141
12.0
290
     0
  0
SCALE
  5
56
102
{ACAD_REACTORS
330
47
102
}
330
47
100
AcDbScale
 70
     0
300
3" = 1'-0"
140
3.0
141
12.0
290
     0
  0
SCALE
  5
57
102
{ACAD_REACTORS
330
47
102
}
330
47
100
AcDbScale
 70
     0
300
6" = 1'-0"
140
6.0
141
12.0
290
     0
  0
SCALE
  5
58
102
{ACAD_REACTORS
330
47
102
}
330
47
100
AcDbScale
 70
     0
300
1'-0" = 1'-0"
140
12.0
141
12.0
290
     0
  0
TABLESTYLE
  5
5A
102
{ACAD_REACTORS
330
59
102
}
102
{ACAD_XDICTIONARY
360
67
102
}
330
59
100
AcDbTableStyle
  3
Standard
 70
     0
 71
     0
 40
0.06
 41
0.06
280
     0
281
     0
  7
Standard
140
0.18
170
     2
 62
     0
 63
   257
283
     0
 90
        4
 91
        0
  1

274
    -2
284
     1
 64
     0
275
    -2
285
     1
 65
     0
276
    -2
286
     1
 66
     0
277
    -2
287
     1
 67
     0
278
    -2
288
     1
 68
     0
279
    -2
289
     1
 69
     0
  7
Standard
140
0.25
170
     5
 62
     0
 63
   257
283
     0
 90
        4
 91
        0
  1

274
    -2
284
     1
 64
     0
275
    -2
285
     1
 65
     0
276
    -2
286
     1
 66
     0
277
    -2
287
     1
 67
     0
278
    -2
288
     1
 68
     0
279
    -2
289
     1
 69
     0
  7
Standard
140
0.18
170
     5
 62
     0
 63
   257
283
     0
 90
        4
 91
        0
  1

274
    -2
284
     1
 64
     0
275
    -2
285
     1
 65
     0
276
    -2
286
     1
 66
     0
277
    -2
287
     1
 67
     0
278
    -2
288
     1
 68
     0
279
    -2
289
     1
 69
     0
  0
VISUALSTYLE
  5
2F
102
{ACAD_REACTORS
330
2A
102
}
330
2A
100
AcDbVisualStyle
  2
2dWireframe
 70
     4
177
     3
291
     0
 70
    58
 90
        0
176
     1
 90
        2
176
     1
 90
        0
176
     1
 90
        0
176
     1
 40
0.6
176
     1
 40
30.0
176
     1
 62
     7
420
 16777215
176
     1
 90
        1
176
     1
 90
        4
176
     1
 62
     7
176
     1
 62
   257
176
     1
 90
        1
176
     1
 90
        1
176
     1
 40
1.0
176
     1
 90
        0
176
     1
 62
   257
176
     1
 40
1.0
176
     1
 90
        1
176
     1
 90
        6
176
     1
 90
        2
176
     1
 62
     7
176
     1
 90
        5
176
     1
 90
        0
176
     1
 90
        0
176
     1
290
     0
176
     1
 90
        1
176
     1
 40
0.0
176
     1
 90
        0
176
     1
290
     1
176
     1
290
     1
176
     1
290
     0
176
     1
290
     0
176
     1
290
     0
176
     1
290
     0
176
     1
290
     0
176
     1
290
     0
176
     1
290
     0
176
     1
 90
       50
176
     1
 40
0.0
176
     1
 40
1.0
176
     1
 90
        0
176
     1
 62
    18
420
        0
176
     1
 90
       50
176
     1
 90
        3
176
     1
 62
     5
420
      255
176
     1
290
     0
176
     1
 90
       50
176
     1
 90
       50
176
     1
 90
       50
176
     1
290
     0
176
     1
 90
       50
176
     1
 62
   256
176
     0
 40
1.0
176
     0
 90
        2
176
     1
  1
strokes_ogs.tif
176
     1
290
     0
176
     1
 40
1.0
176
     1
 40
1.0
176
     1
  0
VISUALSTYLE
  5
32
102
{ACAD_REACTORS
330
2A
102
}
330
2A
100
AcDbVisualStyle
  2
Basic
 70
     7
177
     3
291
     1
 70
    58
 90
        1
176
     1
 90
        0
176
     1
 90
        1
176
     1
 90
        0
176
     1
 40
0.6
176
     1
 40
30.0
176
     1
 62
     7
420
 16777215
176
     1
 90
        0
176
     1
 90
        4
176
     1
 62
     7
176
     1
 62
   257
176
     1
 90
        1
176
     1
 90
        1
176
     1
 40
1.0
176
     1
 90
        8
176
     1
 62
     7
176
     1
 40
1.0
176
     1
 90
        1
176
     1
 90
        6
176
     1
 90
        2
176
     1
 62
     7
176
     1
 90
        5
176
     1
 90
        0
176
     1
 90
        0
176
     1
290
     0
176
     1
 90
        1
176
     1
 40
0.0
176
     1
 90
        0
176
     1
290
     0
176
     1
290
     1
176
     1
290
     1
176
     1
290
     0
176
     1
290
     0
176
     1
290
     0
176
     1
290
     0
176
     1
290
     0
176
     1
290
     0
176
     1
 90
       50
176
     1
 40
0.0
176
     1
 40
1.0
176
     1
 90
        0
176
     1
 62
    18
420
        0
176
     1
 90
       50
176
     1
 90
        3
176
     1
 62
     5
420
      255
176
     1
290
     0
176
     1
 90
       50
176
     1
 90
       50
176
     1
 90
       50
176
     1
290
     0
176
     1
 90
       50
176
     1
 62
   256
176
     0
 40
1.0
176
     0
 90
        2
176
     1
  1
strokes_ogs.tif
176
     1
290
     0
176
     1
 40
1.0
176
     1
 40
1.0
176
     1
  0
VISUALSTYLE
  5
36
102
{ACAD_REACTORS
330
2A
102
}
330
2A
100
AcDbVisualStyle
  2
Brighten
 70
    12
177
     3
291
     1
 70
    58
 90
        2
176
     1
 90
        2
176
     1
 90
        0
176
     1
 90
        0
176
     1
 40
0.6
176
     1
 40
30.0
176
     1
 62
     7
420
 16777215
176
     1
 90
        1
176
     1
 90
        4
176
     1
 62
     7
176
     1
 62
   257
176
     1
 90
        1
176
     1
 90
        1
176
     1
 40
1.0
176
     1
 90
        8
176
     1
 62
     7
176
     1
 40
1.0
176
     1
 90
        1
176
     1
 90
        6
176
     1
 90
        2
176
     1
 62
     7
176
     1
 90
        5
176
     1
 90
        0
176
     1
 90
        0
176
     1
290
     0
176
     1
 90
        1
176
     1
 40
50.0
176
     1
 90
        0
176
     1
290
     0
176
     1
290
     1
176
     1
290
     1
176
     1
290
     0
176
     1
290
     0
176
     1
290
     0
176
     1
290
     0
176
     1
290
     0
176
     1
290
     0
176
     1
 90
       50
176
     1
 40
0.0
176
     1
 40
1.0
176
     1
 90
        0
176
     1
 62
    18
420
        0
176
     1
 90
       50
176
     1
 90
        3
176
     1
 62
     5
420
      255
176
     1
290
     0
176
     1
 90
       50
176
     1
 90
       50
176
     1
 90
       50
176
     1
290
     0
176
     1
 90
       50
176
     1
 62
   256
176
     0
 40
1.0
176
     0
 90
        2
176
     1
  1
strokes_ogs.tif
176
     1
290
     0
176
     1
 40
1.0
176
     1
 40
1.0
176
     1
  0
VISUALSTYLE
  5
3A
102
{ACAD_REACTORS
330
2A
102
}
330
2A
100
AcDbVisualStyle
  2
ColorChange
 70
    16
177
     3
291
     1
 70
    58
 90
        2
176
     1
 90
        2
176
     1
 90
        3
176
     1
 90
        0
176
     1
 40
0.6
176
     1
 40
30.0
176
     1
 62
     8
420
  8421504
176
     1
 90
        1
176
     1
 90
        4
176
     1
 62
     7
176
     1
 62
   257
176
     1
 90
        1
176
     1
 90
        1
176
     1
 40
1.0
176
     1
 90
        8
176
     1
 62
     8
420
  8421504
176
     1
 40
1.0
176
     1
 90
        1
176
     1
 90
        6
176
     1
 90
        2
176
     1
 62
     7
176
     1
 90
        5
176
     1
 90
        0
176
     1
 90
        0
176
     1
290
     0
176
     1
 90
        1
176
     1
 40
0.0
176
     1
 90
        0
176
     1
290
     0
176
     1
290
     1
176
     1
290
     1
176
     1
290
     0
176
     1
290
     0
176
     1
290
     0
176
     1
290
     0
176
     1
290
     0
176
     1
290
     0
176
     1
 90
       50
176
     1
 40
0.0
176
     1
 40
1.0
176
     1
 90
        0
176
     1
 62
    18
420
        0
176
     1
 90
       50
176
     1
 90
        3
176
     1
 62
     5
420
      255
176
     1
290
     0
176
     1
 90
       50
176
     1
 90
       50
176
     1
 90
       50
176
     1
290
     0
176
     1
 90
       50
176
     1
 62
   256
176
     0
 40
1.0
176
     0
 90
        2
176
     1
  1
strokes_ogs.tif
176
     1
290
     0
176
     1
 40
1.0
176
     1
 40
1.0
176
     1
  0
VISUALSTYLE
  5
34
102
{ACAD_REACTORS
330
2A
102
}
330
2A
100
AcDbVisualStyle
  2
Conceptual
 70
     9
177
     3
291
     0
 70
    58
 90
        3
176
     1
 90
        2
176
     1
 90
        0
176
     1
 90
        0
176
     1
 40
0.6
176
     1
 40
30.0
176
     1
 62
     7
420
 16777215
176
     1
 90
        2
176
     1
 90
        2
176
     1
 62
     7
176
     1
 62
   257
176
     1
 90
        1
176
     1
 90
        1
176
     1
 40
179.0
176
     1
 90
        8
176
     1
 62
     7
176
     1
 40
1.0
176
     1
 90
        1
176
     1
 90
        6
176
     1
 90
        2
176
     1
 62
     7
176
     1
 90
        3
176
     1
 90
        0
176
     1
 90
        0
176
     1
290
     0
176
     1
 90
        1
176
     1
 40
0.0
176
     1
 90
        0
176
     1
290
     0
176
     1
290
     1
176
     1
290
     1
176
     1
290
     0
176
     1
290
     0
176
     1
290
     0
176
     1
290
     0
176
     1
290
     0
176
     1
290
     0
176
     1
 90
       50
176
     1
 40
0.0
176
     1
 40
1.0
176
     1
 90
        0
176
     1
 62
    18
420
        0
176
     1
 90
       50
176
     1
 90
        3
176
     1
 62
     5
420
      255
176
     1
290
     0
176
     1
 90
       50
176
     1
 90
       50
176
     1
 90
       50
176
     1
290
     0
176
     1
 90
       50
176
     1
 62
   256
176
     0
 40
1.0
176
     0
 90
        2
176
     1
  1
strokes_ogs.tif
176
     1
290
     0
176
     1
 40
1.0
176
     1
 40
1.0
176
     1
  0
VISUALSTYLE
  5
35
102
{ACAD_REACTORS
330
2A
102
}
330
2A
100
AcDbVisualStyle
  2
Dim
 70
    11
177
     3
291
     1
 70
    58
 90
        2
176
     1
 90
        2
176
     1
 90
        0
176
     1
 90
        0
176
     1
 40
0.6
176
     1
 40
30.0
176
     1
 62
     7
420
 16777215
176
     1
 90
        1
176
     1
 90
        4
176
     1
 62
     7
176
     1
 62
   257
176
     1
 90
        1
176
     1
 90
        1
176
     1
 40
1.0
176
     1
 90
        8
176
     1
 62
     7
176
     1
 40
1.0
176
     1
 90
        1
176
     1
 90
        6
176
     1
 90
        2
176
     1
 62
     7
176
     1
 90
        5
176
     1
 90
        0
176
     1
 90
        0
176
     1
290
     0
176
     1
 90
        1
176
     1
 40
-50.0
176
     1
 90
        0
176
     1
290
     0
176
     1
290
     1
176
     1
290
     1
176
     1
290
     0
176
     1
290
     0
176
     1
290
     0
176
     1
290
     0
176
     1
290
     0
176
     1
290
     0
176
     1
 90
       50
176
     1
 40
0.0
176
     1
 40
1.0
176
     1
 90
        0
176
     1
 62
    18
420
        0
176
     1
 90
       50
176
     1
 90
        3
176
     1
 62
     5
420
      255
176
     1
290
     0
176
     1
 90
       50
176
     1
 90
       50
176
     1
 90
       50
176
     1
290
     0
176
     1
 90
       50
176
     1
 62
   256
176
     0
 40
1.0
176
     0
 90
        2
176
     1
  1
strokes_ogs.tif
176
     1
290
     0
176
     1
 40
1.0
176
     1
 40
1.0
176
     1
  0
VISUALSTYLE
  5
3D
102
{ACAD_REACTORS
330
2A
102
}
330
2A
100
AcDbVisualStyle
  2
EdgeColorOff
 70
    22
177
     3
291
     1
 70
    58
 90
        2
176
     0
 90
        2
176
     0
 90
        0
176
     0
 90
        0
176
     0
 40
0.6
176
     0
 40
30.0
176
     0
 62
     7
420
 16777215
176
     0
 90
        1
176
     0
 90
        4
176
     0
 62
     7
176
     0
 62
   257
176
     0
 90
        1
176
     0
 90
        1
176
     0
 40
1.0
176
     0
 90
        8
176
     2
 62
     7
176
     0
 40
1.0
176
     0
 90
        1
176
     0
 90
        6
176
     0
 90
        2
176
     0
 62
     7
176
     0
 90
        5
176
     0
 90
        0
176
     0
 90
        0
176
     0
290
     0
176
     0
 90
        1
176
     0
 40
0.0
176
     0
 90
        0
176
     0
290
     0
176
     0
290
     1
176
     0
290
     1
176
     0
290
     0
176
     0
290
     0
176
     0
290
     0
176
     0
290
     0
176
     0
290
     0
176
     0
290
     0
176
     0
 90
       50
176
     0
 40
0.0
176
     0
 40
1.0
176
     0
 90
        0
176
     0
 62
    18
420
        0
176
     0
 90
       50
176
     0
 90
        3
176
     0
 62
     5
420
      255
176
     0
290
     0
176
     0
 90
       50
176
     0
 90
       50
176
     0
 90
       50
176
     0
290
     0
176
     0
 90
       50
176
     0
 62
   256
176
     0
 40
1.0
176
     0
 90
        2
176
     0
  1
strokes_ogs.tif
176
     0
290
     0
176
     0
 40
1.0
176
     0
 40
1.0
176
     0
  0
VISUALSTYLE
  5
39
102
{ACAD_REACTORS
330
2A
102
}
330
2A
100
AcDbVisualStyle
  2
Facepattern
 70
    15
177
     3
291
     1
 70
    58
 90
        2
176
     1
 90
        2
176
     1
 90
        0
176
     1
 90
        0
176
     1
 40
0.6
176
     1
 40
30.0
176
     1
 62
     7
420
 16777215
176
     1
 90
        1
176
     1
 90
        4
176
     1
 62
     7
176
     1
 62
   257
176
     1
 90
        1
176
     1
 90
        1
176
     1
 40
1.0
176
     1
 90
        8
176
     1
 62
     7
176
     1
 40
1.0
176
     1
 90
        1
176
     1
 90
        6
176
     1
 90
        2
176
     1
 62
     7
176
     1
 90
        5
176
     1
 90
        0
176
     1
 90
        0
176
     1
290
     0
176
     1
 90
        1
176
     1
 40
0.0
176
     1
 90
        0
176
     1
290
     0
176
     1
290
     1
176
     1
290
     1
176
     1
290
     0
176
     1
290
     0
176
     1
290
     0
176
     1
290
     0
176
     1
290
     0
176
     1
290
     0
176
     1
 90
       50
176
     1
 40
0.0
176
     1
 40
1.0
176
     1
 90
        0
176
     1
 62
    18
420
        0
176
     1
 90
       50
176
     1
 90
        3
176
     1
 62
     5
420
      255
176
     1
290
     0
176
     1
 90
       50
176
     1
 90
       50
176
     1
 90
       50
176
     1
290
     0
176
     1
 90
       50
176
     1
 62
   256
176
     0
 40
1.0
176
     0
 90
        2
176
     1
  1
strokes_ogs.tif
176
     1
290
     0
176
     1
 40
1.0
176
     1
 40
1.0
176
     1
  0
VISUALSTYLE
  5
2B
102
{ACAD_REACTORS
330
2A
102
}
330
2A
100
AcDbVisualStyle
  2
Flat
 70
     0
177
     3
291
     1
 70
    58
 90
        2
176
     1
 90
        1
176
     1
 90
        1
176
     1
 90
        2
176
     1
 40
0.6
176
     1
 40
30.0
176
     1
 62
     7
420
 16777215
176
     1
 90
        0
176
     1
 90
        0
176
     1
 62
     7
176
     1
 62
   257
176
     1
 90
        1
176
     1
 90
        1
176
     1
 40
1.0
176
     1
 90
        8
176
     1
 62
     7
176
     1
 40
1.0
176
     1
 90
        1
176
     1
 90
        6
176
     1
 90
        2
176
     1
 62
     7
176
     1
 90
        5
176
     1
 90
        0
176
     1
 90
        0
176
     1
290
     0
176
     1
 90
       13
176
     1
 40
0.0
176
     1
 90
        0
176
     1
290
     0
176
     1
290
     1
176
     1
290
     1
176
     1
290
     0
176
     1
290
     0
176
     1
290
     0
176
     1
290
     0
176
     1
290
     0
176
     1
290
     0
176
     1
 90
       50
176
     1
 40
0.0
176
     1
 40
1.0
176
     1
 90
        0
176
     1
 62
    18
420
        0
176
     1
 90
       50
176
     1
 90
        3
176
     1
 62
     5
420
      255
176
     1
290
     0
176
     1
 90
       50
176
     1
 90
       50
176
     1
 90
       50
176
     1
290
     0
176
     1
 90
       50
176
     1
 62
   256
176
     0
 40
1.0
176
     0
 90
        2
176
     1
  1
strokes_ogs.tif
176
     1
290
     0
176
     1
 40
1.0
176
     1
 40
1.0
176
     1
  0
VISUALSTYLE
  5
2C
102
{ACAD_REACTORS
330
2A
102
}
330
2A
100
AcDbVisualStyle
  2
FlatWithEdges
 70
     1
177
     3
291
     1
 70
    58
 90
        2
176
     1
 90
        1
176
     1
 90
        1
176
     1
 90
        2
176
     1
 40
0.6
176
     1
 40
30.0
176
     1
 62
     7
420
 16777215
176
     1
 90
        1
176
     1
 90
        0
176
     1
 62
     7
176
     1
 62
   257
176
     1
 90
        1
176
     1
 90
        1
176
     1
 40
1.0
176
     1
 90
        0
176
     1
 62
   257
176
     1
 40
1.0
176
     1
 90
        1
176
     1
 90
        6
176
     1
 90
        2
176
     1
 62
     7
176
     1
 90
        5
176
     1
 90
        0
176
     1
 90
        0
176
     1
290
     0
176
     1
 90
       13
176
     1
 40
0.0
176
     1
 90
        0
176
     1
290
     0
176
     1
290
     1
176
     1
290
     1
176
     1
290
     0
176
     1
290
     0
176
     1
290
     0
176
     1
290
     0
176
     1
290
     0
176
     1
290
     0
176
     1
 90
       50
176
     1
 40
0.0
176
     1
 40
1.0
176
     1
 90
        0
176
     1
 62
    18
420
        0
176
     1
 90
       50
176
     1
 90
        3
176
     1
 62
     5
420
      255
176
     1
290
     0
176
     1
 90
       50
176
     1
 90
       50
176
     1
 90
       50
176
     1
290
     0
176
     1
 90
       50
176
     1
 62
   256
176
     0
 40
1.0
176
     0
 90
        2
176
     1
  1
strokes_ogs.tif
176
     1
290
     0
176
     1
 40
1.0
176
     1
 40
1.0
176
     1
  0
VISUALSTYLE
  5
2D
102
{ACAD_REACTORS
330
2A
102
}
330
2A
100
AcDbVisualStyle
  2
Gouraud
 70
     2
177
     3
291
     1
 70
    58
 90
        2
176
     1
 90
        2
176
     1
 90
        1
176
     1
 90
        2
176
     1
 40
0.6
176
     1
 40
30.0
176
     1
 62
     7
420
 16777215
176
     1
 90
        0
176
     1
 90
        0
176
     1
 62
     7
176
     1
 62
   257
176
     1
 90
        1
176
     1
 90
        1
176
     1
 40
1.0
176
     1
 90
        0
176
     1
 62
     7
176
     1
 40
1.0
176
     1
 90
        1
176
     1
 90
        6
176
     1
 90
        2
176
     1
 62
     7
176
     1
 90
        5
176
     1
 90
        0
176
     1
 90
        0
176
     1
290
     0
176
     1
 90
       13
176
     1
 40
0.0
176
     1
 90
        0
176
     1
290
     0
176
     1
290
     1
176
     1
290
     1
176
     1
290
     0
176
     1
290
     0
176
     1
290
     0
176
     1
290
     0
176
     1
290
     0
176
     1
290
     0
176
     1
 90
       50
176
     1
 40
0.0
176
     1
 40
1.0
176
     1
 90
        0
176
     1
 62
    18
420
        0
176
     1
 90
       50
176
     1
 90
        3
176
     1
 62
     5
420
      255
176
     1
290
     0
176
     1
 90
       50
176
     1
 90
       50
176
     1
 90
       50
176
     1
290
     0
176
     1
 90
       50
176
     1
 62
   256
176
     0
 40
1.0
176
     0
 90
        2
176
     1
  1
strokes_ogs.tif
176
     1
290
     0
176
     1
 40
1.0
176
     1
 40
1.0
176
     1
  0
VISUALSTYLE
  5
2E
102
{ACAD_REACTORS
330
2A
102
}
330
2A
100
AcDbVisualStyle
  2
GouraudWithEdges
 70
     3
177
     3
291
     1
 70
    58
 90
        2
176
     1
 90
        2
176
     1
 90
        1
176
     1
 90
        2
176
     1
 40
0.6
176
     1
 40
30.0
176
     1
 62
     7
420
 16777215
176
     1
 90
        1
176
     1
 90
        0
176
     1
 62
     7
176
     1
 62
   257
176
     1
 90
        1
176
     1
 90
        1
176
     1
 40
1.0
176
     1
 90
        0
176
     1
 62
   257
176
     1
 40
1.0
176
     1
 90
        1
176
     1
 90
        6
176
     1
 90
        2
176
     1
 62
     7
176
     1
 90
        5
176
     1
 90
        0
176
     1
 90
        0
176
     1
290
     0
176
     1
 90
       13
176
     1
 40
0.0
176
     1
 90
        0
176
     1
290
     0
176
     1
290
     1
176
     1
290
     1
176
     1
290
     0
176
     1
290
     0
176
     1
290
     0
176
     1
290
     0
176
     1
290
     0
176
     1
290
     0
176
     1
 90
       50
176
     1
 40
0.0
176
     1
 40
1.0
176
     1
 90
        0
176
     1
 62
    18
420
        0
176
     1
 90
       50
176
     1
 90
        3
176
     1
 62
     5
420
      255
176
     1
290
     0
176
     1
 90
       50
176
     1
 90
       50
176
     1
 90
       50
176
     1
290
     0
176
     1
 90
       50
176
     1
 62
   256
176
     0
 40
1.0
176
     0
 90
        2
176
     1
  1
strokes_ogs.tif
176
     1
290
     0
176
     1
 40
1.0
176
     1
 40
1.0
176
     1
  0
VISUALSTYLE
  5
31
102
{ACAD_REACTORS
330
2A
102
}
330
2A
100
AcDbVisualStyle
  2
Hidden
 70
     6
177
     3
291
     0
 70
    58
 90
        1
176
     1
 90
        2
176
     1
 90
        2
176
     1
 90
        0
176
     1
 40
0.6
176
     1
 40
30.0
176
     1
 62
     7
420
 16777215
176
     1
 90
        2
176
     1
 90
        2
176
     1
 62
     7
176
     1
 62
   257
176
     1
 90
        2
176
     1
 90
        1
176
     1
 40
40.0
176
     1
 90
        0
176
     1
 62
   257
176
     1
 40
1.0
176
     1
 90
        1
176
     1
 90
        6
176
     1
 90
        2
176
     1
 62
     7
176
     1
 90
        3
176
     1
 90
        0
176
     1
 90
        0
176
     1
290
     0
176
     1
 90
        1
176
     1
 40
0.0
176
     1
 90
        0
176
     1
290
     0
176
     1
290
     1
176
     1
290
     1
176
     1
290
     0
176
     1
290
     0
176
     1
290
     0
176
     1
290
     0
176
     1
290
     0
176
     1
290
     0
176
     1
 90
       50
176
     1
 40
0.0
176
     1
 40
1.0
176
     1
 90
        0
176
     1
 62
    18
420
        0
176
     1
 90
       50
176
     1
 90
        3
176
     1
 62
     5
420
      255
176
     1
290
     0
176
     1
 90
       50
176
     1
 90
       50
176
     1
 90
       50
176
     1
290
     0
176
     1
 90
       50
176
     1
 62
   256
176
     0
 40
1.0
176
     0
 90
        2
176
     1
  1
strokes_ogs.tif
176
     1
290
     0
176
     1
 40
1.0
176
     1
 40
1.0
176
     1
  0
VISUALSTYLE
  5
3B
102
{ACAD_REACTORS
330
2A
102
}
330
2A
100
AcDbVisualStyle
  2
JitterOff
 70
    20
177
     3
291
     1
 70
    58
 90
        2
176
     0
 90
        2
176
     0
 90
        0
176
     0
 90
        0
176
     0
 40
0.6
176
     0
 40
30.0
176
     0
 62
     7
420
 16777215
176
     0
 90
        1
176
     0
 90
        4
176
     0
 62
     7
176
     0
 62
   257
176
     0
 90
        1
176
     0
 90
        1
176
     0
 40
1.0
176
     0
 90
       10
176
     2
 62
     7
176
     0
 40
1.0
176
     0
 90
        1
176
     0
 90
        6
176
     0
 90
        2
176
     0
 62
     7
176
     0
 90
        5
176
     0
 90
        0
176
     0
 90
        0
176
     0
290
     0
176
     0
 90
        1
176
     0
 40
0.0
176
     0
 90
        0
176
     0
290
     0
176
     0
290
     1
176
     0
290
     1
176
     0
290
     0
176
     0
290
     0
176
     0
290
     0
176
     0
290
     0
176
     0
290
     0
176
     0
290
     0
176
     0
 90
       50
176
     0
 40
0.0
176
     0
 40
1.0
176
     0
 90
        0
176
     0
 62
    18
420
        0
176
     0
 90
       50
176
     0
 90
        3
176
     0
 62
     5
420
      255
176
     0
290
     0
176
     0
 90
       50
176
     0
 90
       50
176
     0
 90
       50
176
     0
290
     0
176
     0
 90
       50
176
     0
 62
   256
176
     0
 40
1.0
176
     0
 90
        2
176
     0
  1
strokes_ogs.tif
176
     0
290
     0
176
     0
 40
1.0
176
     0
 40
1.0
176
     0
  0
VISUALSTYLE
  5
38
102
{ACAD_REACTORS
330
2A
102
}
330
2A
100
AcDbVisualStyle
  2
Linepattern
 70
    14
177
     3
291
     1
 70
    58
 90
        2
176
     1
 90
        2
176
     1
 90
        0
176
     1
 90
        0
176
     1
 40
0.6
176
     1
 40
30.0
176
     1
 62
     7
420
 16777215
176
     1
 90
        1
176
     1
 90
        4
176
     1
 62
     7
176
     1
 62
   257
176
     1
 90
        7
176
     1
 90
        7
176
     1
 40
1.0
176
     1
 90
        8
176
     1
 62
     7
176
     1
 40
1.0
176
     1
 90
        1
176
     1
 90
        6
176
     1
 90
        2
176
     1
 62
     7
176
     1
 90
        5
176
     1
 90
        0
176
     1
 90
        0
176
     1
290
     0
176
     1
 90
        1
176
     1
 40
0.0
176
     1
 90
        0
176
     1
290
     0
176
     1
290
     1
176
     1
290
     1
176
     1
290
     0
176
     1
290
     0
176
     1
290
     0
176
     1
290
     0
176
     1
290
     0
176
     1
290
     0
176
     1
 90
       50
176
     1
 40
0.0
176
     1
 40
1.0
176
     1
 90
        0
176
     1
 62
    18
420
        0
176
     1
 90
       50
176
     1
 90
        3
176
     1
 62
     5
420
      255
176
     1
290
     0
176
     1
 90
       50
176
     1
 90
       50
176
     1
 90
       50
176
     1
290
     0
176
     1
 90
       50
176
     1
 62
   256
176
     0
 40
1.0
176
     0
 90
        2
176
     1
  1
strokes_ogs.tif
176
     1
290
     0
176
     1
 40
1.0
176
     1
 40
1.0
176
     1
  0
VISUALSTYLE
  5
3C
102
{ACAD_REACTORS
330
2A
102
}
330
2A
100
AcDbVisualStyle
  2
OverhangOff
 70
    21
177
     3
291
     1
 70
    58
 90
        2
176
     0
 90
        2
176
     0
 90
        0
176
     0
 90
        0
176
     0
 40
0.6
176
     0
 40
30.0
176
     0
 62
     7
420
 16777215
176
     0
 90
        1
176
     0
 90
        4
176
     0
 62
     7
176
     0
 62
   257
176
     0
 90
        1
176
     0
 90
        1
176
     0
 40
1.0
176
     0
 90
        9
176
     2
 62
     7
176
     0
 40
1.0
176
     0
 90
        1
176
     0
 90
        6
176
     0
 90
        2
176
     0
 62
     7
176
     0
 90
        5
176
     0
 90
        0
176
     0
 90
        0
176
     0
290
     0
176
     0
 90
        1
176
     0
 40
0.0
176
     0
 90
        0
176
     0
290
     0
176
     0
290
     1
176
     0
290
     1
176
     0
290
     0
176
     0
290
     0
176
     0
290
     0
176
     0
290
     0
176
     0
290
     0
176
     0
290
     0
176
     0
 90
       50
176
     0
 40
0.0
176
     0
 40
1.0
176
     0
 90
        0
176
     0
 62
    18
420
        0
176
     0
 90
       50
176
     0
 90
        3
176
     0
 62
     5
420
      255
176
     0
290
     0
176
     0
 90
       50
176
     0
 90
       50
176
     0
 90
       50
176
     0
290
     0
176
     0
 90
       50
176
     0
 62
   256
176
     0
 40
1.0
176
     0
 90
        2
176
     0
  1
strokes_ogs.tif
176
     0
290
     0
176
     0
 40
1.0
176
     0
 40
1.0
176
     0
  0
VISUALSTYLE
  5
33
102
{ACAD_REACTORS
330
2A
102
}
330
2A
100
AcDbVisualStyle
  2
Realistic
 70
     8
177
     3
291
     0
 70
    58
 90
        2
176
     1
 90
        3
176
     1
 90
        0
176
     1
 90
        2
176
     1
 40
0.6
176
     1
 40
30.0
176
     1
 62
     7
420
 16777215
176
     1
 90
        0
176
     1
 90
        0
176
     1
 62
     7
176
     1
 62
   257
176
     1
 90
        1
176
     1
 90
        1
176
     1
 40
1.0
176
     1
 90
        8
176
     1
 62
   257
176
     1
 40
1.0
176
     1
 90
        1
176
     1
 90
        6
176
     1
 90
        2
176
     1
 62
     7
176
     1
 90
        3
176
     1
 90
        0
176
     1
 90
        0
176
     1
290
     0
176
     1
 90
       13
176
     1
 40
0.0
176
     1
 90
        0
176
     1
290
     0
176
     1
290
     1
176
     1
290
     1
176
     1
290
     0
176
     1
290
     0
176
     1
290
     0
176
     1
290
     0
176
     1
290
     0
176
     1
290
     0
176
     1
 90
       50
176
     1
 40
0.0
176
     1
 40
1.0
176
     1
 90
        0
176
     1
 62
    18
420
        0
176
     1
 90
       50
176
     1
 90
        3
176
     1
 62
     5
420
      255
176
     1
290
     0
176
     1
 90
       50
176
     1
 90
       50
176
     1
 90
       50
176
     1
290
     0
176
     1
 90
       50
176
     1
 62
   256
176
     0
 40
1.0
176
     0
 90
        2
176
     1
  1
strokes_ogs.tif
176
     1
290
     0
176
     1
 40
1.0
176
     1
 40
1.0
176
     1
  0
VISUALSTYLE
  5
42
102
{ACAD_REACTORS
330
2A
102
}
330
2A
100
AcDbVisualStyle
  2
Shaded
 70
    27
177
     3
291
     0
 70
    58
 90
        2
176
     1
 90
        2
176
     1
 90
        1
176
     1
 90
        2
176
     1
 40
0.6
176
     1
 40
30.0
176
     1
 62
     7
420
 16777215
176
     1
 90
        0
176
     1
 90
        4
176
     1
 62
     7
176
     1
 62
   257
176
     1
 90
        1
176
     1
 90
        1
176
     1
 40
1.0
176
     1
 90
        8
176
     1
 62
   257
176
     1
 40
1.0
176
     1
 90
        1
176
     1
 90
        6
176
     1
 90
        2
176
     1
 62
     8
420
  7895160
176
     1
 90
        3
176
     1
 90
        0
176
     1
 90
        0
176
     1
290
     0
176
     1
 90
        5
176
     1
 40
0.0
176
     1
 90
        0
176
     1
290
     0
176
     1
290
     1
176
     1
290
     1
176
     1
290
     0
176
     1
290
     0
176
     1
290
     0
176
     1
290
     0
176
     1
290
     0
176
     1
290
     0
176
     1
 90
       50
176
     1
 40
0.0
176
     1
 40
1.0
176
     1
 90
        0
176
     1
 62
    18
420
        0
176
     1
 90
       50
176
     1
 90
        3
176
     1
 62
     5
420
      255
176
     1
290
     0
176
     1
 90
       50
176
     1
 90
       50
176
     1
 90
       50
176
     1
290
     0
176
     1
 90
       50
176
     1
 62
   256
176
     0
 40
1.0
176
     0
 90
        2
176
     1
  1
strokes_ogs.tif
176
     1
290
     0
176
     1
 40
1.0
176
     1
 40
1.0
176
     1
  0
VISUALSTYLE
  5
41
102
{ACAD_REACTORS
330
2A
102
}
330
2A
100
AcDbVisualStyle
  2
Shaded with edges
 70
    26
177
     3
291
     0
 70
    58
 90
        2
176
     1
 90
        2
176
     1
 90
        1
176
     1
 90
        2
176
     1
 40
0.6
176
     1
 40
30.0
176
     1
 62
     7
420
 16777215
176
     1
 90
        1
176
     1
 90
       10
176
     1
 62
     7
176
     1
 62
   257
176
     1
 90
        2
176
     1
 90
        1
176
     1
 40
1.0
176
     1
 90
        8
176
     1
 62
   257
176
     1
 40
1.0
176
     1
 90
        1
176
     1
 90
        6
176
     1
 90
        2
176
     1
 62
     7
176
     1
 90
        3
176
     1
 90
        0
176
     1
 90
        0
176
     1
290
     0
176
     1
 90
        5
176
     1
 40
0.0
176
     1
 90
        0
176
     1
290
     0
176
     1
290
     1
176
     1
290
     1
176
     1
290
     0
176
     1
290
     0
176
     1
290
     0
176
     1
290
     0
176
     1
290
     0
176
     1
290
     0
176
     1
 90
       50
176
     1
 40
0.0
176
     1
 40
1.0
176
     1
 90
        0
176
     1
 62
    18
420
        0
176
     1
 90
       50
176
     1
 90
        3
176
     1
 62
     5
420
      255
176
     1
290
     0
176
     1
 90
       50
176
     1
 90
       50
176
     1
 90
       50
176
     1
290
     0
176
     1
 90
       50
176
     1
 62
   256
176
     0
 40
1.0
176
     0
 90
        2
176
     1
  1
strokes_ogs.tif
176
     1
290
     0
176
     1
 40
1.0
176
     1
 40
1.0
176
     1
  0
VISUALSTYLE
  5
3E
102
{ACAD_REACTORS
330
2A
102
}
330
2A
100
AcDbVisualStyle
  2
Shades of Gray
 70
    23
177
     3
291
     0
 70
    58
 90
        2
176
     1
 90
        2
176
     1
 90
        3
176
     1
 90
        0
176
     1
 40
0.6
176
     1
 40
30.0
176
     1
 62
     7
420
 16777215
176
     1
 90
        2
176
     1
 90
        2
176
     1
 62
     7
176
     1
 62
     7
176
     1
 90
        1
176
     1
 90
        1
176
     1
 40
40.0
176
     1
 90
        8
176
     1
 62
     7
176
     1
 40
1.0
176
     1
 90
        1
176
     1
 90
        6
176
     1
 90
        2
176
     1
 62
     7
176
     1
 90
        3
176
     1
 90
        0
176
     1
 90
        0
176
     1
290
     0
176
     1
 90
        1
176
     1
 40
0.0
176
     1
 90
        0
176
     1
290
     0
176
     1
290
     1
176
     1
290
     1
176
     1
290
     0
176
     1
290
     0
176
     1
290
     0
176
     1
290
     0
176
     1
290
     0
176
     1
290
     0
176
     1
 90
       50
176
     1
 40
0.0
176
     1
 40
1.0
176
     1
 90
        0
176
     1
 62
    18
420
        0
176
     1
 90
       50
176
     1
 90
        3
176
     1
 62
     5
420
      255
176
     1
290
     0
176
     1
 90
       50
176
     1
 90
       50
176
     1
 90
       50
176
     1
290
     0
176
     1
 90
       50
176
     1
 62
   256
176
     0
 40
1.0
176
     0
 90
        2
176
     1
  1
strokes_ogs.tif
176
     1
290
     0
176
     1
 40
1.0
176
     1
 40
1.0
176
     1
  0
VISUALSTYLE
  5
3F
102
{ACAD_REACTORS
330
2A
102
}
330
2A
100
AcDbVisualStyle
  2
Sketchy
 70
    24
177
     3
291
     0
 70
    58
 90
        1
176
     1
 90
        2
176
     1
 90
        2
176
     1
 90
        0
176
     1
 40
0.6
176
     1
 40
30.0
176
     1
 62
     7
420
 16777215
176
     1
 90
        2
176
     1
 90
        2
176
     1
 62
     7
176
     1
 62
     7
176
     1
 90
        1
176
     1
 90
        1
176
     1
 40
40.0
176
     1
 90
       11
176
     1
 62
     7
176
     1
 40
1.0
176
     1
 90
        1
176
     1
 90
        6
176
     1
 90
        2
176
     1
 62
     7
176
     1
 90
        6
176
     1
 90
        0
176
     1
 90
        0
176
     1
290
     0
176
     1
 90
        1
176
     1
 40
0.0
176
     1
 90
        0
176
     1
290
     0
176
     1
290
     1
176
     1
290
     1
176
     1
290
     0
176
     1
290
     0
176
     1
290
     0
176
     1
290
     0
176
     1
290
     0
176
     1
290
     0
176
     1
 90
       50
176
     1
 40
0.0
176
     1
 40
1.0
176
     1
 90
        0
176
     1
 62
    18
420
        0
176
     1
 90
       50
176
     1
 90
        3
176
     1
 62
     5
420
      255
176
     1
290
     0
176
     1
 90
       50
176
     1
 90
       50
176
     1
 90
       50
176
     1
290
     0
176
     1
 90
       50
176
     1
 62
   256
176
     0
 40
1.0
176
     0
 90
        2
176
     1
  1
strokes_ogs.tif
176
     1
290
     0
176
     1
 40
1.0
176
     1
 40
1.0
176
     1
  0
VISUALSTYLE
  5
37
102
{ACAD_REACTORS
330
2A
102
}
330
2A
100
AcDbVisualStyle
  2
Thicken
 70
    13
177
     3
291
     1
 70
    58
 90
        2
176
     1
 90
        2
176
     1
 90
        0
176
     1
 90
        0
176
     1
 40
0.6
176
     1
 40
30.0
176
     1
 62
     7
420
 16777215
176
     1
 90
        1
176
     1
 90
        4
176
     1
 62
     7
176
     1
 62
   257
176
     1
 90
        1
176
     1
 90
        1
176
     1
 40
1.0
176
     1
 90
       12
176
     1
 62
     7
176
     1
 40
1.0
176
     1
 90
        1
176
     1
 90
        6
176
     1
 90
        2
176
     1
 62
     7
176
     1
 90
        5
176
     1
 90
        0
176
     1
 90
        0
176
     1
290
     0
176
     1
 90
        1
176
     1
 40
0.0
176
     1
 90
        0
176
     1
290
     0
176
     1
290
     1
176
     1
290
     1
176
     1
290
     0
176
     1
290
     0
176
     1
290
     0
176
     1
290
     0
176
     1
290
     0
176
     1
290
     0
176
     1
 90
       50
176
     1
 40
0.0
176
     1
 40
1.0
176
     1
 90
        0
176
     1
 62
    18
420
        0
176
     1
 90
       50
176
     1
 90
        3
176
     1
 62
     5
420
      255
176
     1
290
     0
176
     1
 90
       50
176
     1
 90
       50
176
     1
 90
       50
176
     1
290
     0
176
     1
 90
       50
176
     1
 62
   256
176
     0
 40
1.0
176
     0
 90
        2
176
     1
  1
strokes_ogs.tif
176
     1
290
     0
176
     1
 40
1.0
176
     1
 40
1.0
176
     1
  0
VISUALSTYLE
  5
30
102
{ACAD_REACTORS
330
2A
102
}
330
2A
100
AcDbVisualStyle
  2
Wireframe
 70
     5
177
     3
291
     0
 70
    58
 90
        0
176
     1
 90
        2
176
     1
 90
        0
176
     1
 90
        0
176
     1
 40
0.6
176
     1
 40
30.0
176
     1
 62
     7
420
 16777215
176
     1
 90
        1
176
     1
 90
        4
176
     1
 62
     7
176
     1
 62
   257
176
     1
 90
        1
176
     1
 90
        1
176
     1
 40
1.0
176
     1
 90
        0
176
     1
 62
   257
176
     1
 40
1.0
176
     1
 90
        1
176
     1
 90
        6
176
     1
 90
        2
176
     1
 62
     7
176
     1
 90
        3
176
     1
 90
        0
176
     1
 90
        0
176
     1
290
     0
176
     1
 90
        1
176
     1
 40
0.0
176
     1
 90
        0
176
     1
290
     0
176
     1
290
     1
176
     1
290
     1
176
     1
290
     0
176
     1
290
     0
176
     1
290
     0
176
     1
290
     0
176
     1
290
     0
176
     1
290
     0
176
     1
 90
       50
176
     1
 40
0.0
176
     1
 40
1.0
176
     1
 90
        0
176
     1
 62
    18
420
        0
176
     1
 90
       50
176
     1
 90
        3
176
     1
 62
     5
420
      255
176
     1
290
     0
176
     1
 90
       50
176
     1
 90
       50
176
     1
 90
       50
176
     1
290
     0
176
     1
 90
       50
176
     1
 62
   256
176
     0
 40
1.0
176
     0
 90
        2
176
     1
  1
strokes_ogs.tif
176
     1
290
     0
176
     1
 40
1.0
176
     1
 40
1.0
176
     1
  0
VISUALSTYLE
  5
40
102
{ACAD_REACTORS
330
2A
102
}
330
2A
100
AcDbVisualStyle
  2
X-Ray
 70
    25
177
     3
291
     0
 70
    58
 90
        2
176
     1
 90
        2
176
     1
 90
        1
176
     1
 90
        1
176
     1
 40
0.5
176
     1
 40
30.0
176
     1
 62
     7
420
 16777215
176
     1
 90
        1
176
     1
 90
        0
176
     1
 62
     7
176
     1
 62
   257
176
     1
 90
        1
176
     1
 90
        1
176
     1
 40
1.0
176
     1
 90
        8
176
     1
 62
     7
176
     1
 40
1.0
176
     1
 90
        1
176
     1
 90
        6
176
     1
 90
        2
176
     1
 62
     7
176
     1
 90
        3
176
     1
 90
        0
176
     1
 90
        0
176
     1
290
     0
176
     1
 90
       13
176
     1
 40
0.0
176
     1
 90
        0
176
     1
290
     0
176
     1
290
     1
176
     1
290
     1
176
     1
290
     0
176
     1
290
     0
176
     1
290
     0
176
     1
290
     0
176
     1
290
     0
176
     1
290
     0
176
     1
 90
       50
176
     1
 40
0.0
176
     1
 40
1.0
176
     1
 90
        0
176
     1
 62
    18
420
        0
176
     1
 90
       50
176
     1
 90
        3
176
     1
 62
     5
420
      255
176
     1
290
     0
176
     1
 90
       50
176
     1
 90
       50
176
     1
 90
       50
176
     1
290
     0
176
     1
 90
       50
176
     1
 62
   256
176
     0
 40
1.0
176
     0
 90
        2
176
     1
  1
strokes_ogs.tif
176
     1
290
     0
176
     1
 40
1.0
176
     1
 40
1.0
176
     1
  0
DICTIONARYVAR
  5
66
102
{ACAD_REACTORS
330
65
102
}
330
65
100
DictionaryVariables
280
     0
  1
1:1
  0
DICTIONARYVAR
  5
6B
102
{ACAD_REACTORS
330
65
102
}
330
65
100
DictionaryVariables
280
     0
  1
Standard
  0
DICTIONARYVAR
  5
6A
102
{ACAD_REACTORS
330
65
102
}
330
65
100
DictionaryVariables
280
     0
  1
Standard
  0
DICTIONARY
  5
67
330
5A
100
AcDbDictionary
280
     1
281
     1
  3
ACAD_ROUNDTRIP_2008_TABLESTYLE_CELLSTYLEMAP
360
68
  0
CELLSTYLEMAP
  5
68
102
{ACAD_REACTORS
330
67
102
}
330
67
100
AcDbCellStyleMap
 90
        3
300
CELLSTYLE
  1
TABLEFORMAT_BEGIN
 90
        5
170
     1
 91
        0
 92
    32768
 62
   257
 93
        1
300
CONTENTFORMAT
  1
CONTENTFORMAT_BEGIN
 90
        0
 91
        0
 92
        4
 93
        0
300

 40
0.0
140
1.0
 94
        5
 62
     0
340
11
144
0.25
309
CONTENTFORMAT_END
171
     1
301
MARGIN
  1
CELLMARGIN_BEGIN
 40
0.06
 40
0.06
 40
0.06
 40
0.06
 40
0.06
 40
0.06
309
CELLMARGIN_END
 94
        6
 95
        1
302
GRIDFORMAT
  1
GRIDFORMAT_BEGIN
 90
        0
 91
        1
 62
     0
 92
       -2
340
14
 93
        0
 40
0.045
309
GRIDFORMAT_END
 95
        2
302
GRIDFORMAT
  1
GRIDFORMAT_BEGIN
 90
        0
 91
        1
 62
     0
 92
       -2
340
14
 93
        0
 40
0.045
309
GRIDFORMAT_END
 95
        4
302
GRIDFORMAT
  1
GRIDFORMAT_BEGIN
 90
        0
 91
        1
 62
     0
 92
       -2
340
14
 93
        0
 40
0.045
309
GRIDFORMAT_END
 95
        8
302
GRIDFORMAT
  1
GRIDFORMAT_BEGIN
 90
        0
 91
        1
 62
     0
 92
       -2
340
14
 93
        0
 40
0.045
309
GRIDFORMAT_END
 95
       16
302
GRIDFORMAT
  1
GRIDFORMAT_BEGIN
 90
        0
 91
        1
 62
     0
 92
       -2
340
14
 93
        0
 40
0.045
309
GRIDFORMAT_END
 95
       32
302
GRIDFORMAT
  1
GRIDFORMAT_BEGIN
 90
        0
 91
        1
 62
     0
 92
       -2
340
14
 93
        0
 40
0.045
309
GRIDFORMAT_END
309
TABLEFORMAT_END
  1
CELLSTYLE_BEGIN
 90
        1
 91
        1
300
_TITLE
309
CELLSTYLE_END
300
CELLSTYLE
  1
TABLEFORMAT_BEGIN
 90
        5
170
     1
 91
        0
 92
        0
 62
   257
 93
        1
300
CONTENTFORMAT
  1
CONTENTFORMAT_BEGIN
 90
        0
 91
        0
 92
        4
 93
        0
300

 40
0.0
140
1.0
 94
        5
 62
     0
340
11
144
0.18
309
CONTENTFORMAT_END
171
     1
301
MARGIN
  1
CELLMARGIN_BEGIN
 40
0.06
 40
0.06
 40
0.06
 40
0.06
 40
0.06
 40
0.06
309
CELLMARGIN_END
 94
        6
 95
        1
302
GRIDFORMAT
  1
GRIDFORMAT_BEGIN
 90
        0
 91
        1
 62
     0
 92
       -2
340
14
 93
        0
 40
0.045
309
GRIDFORMAT_END
 95
        2
302
GRIDFORMAT
  1
GRIDFORMAT_BEGIN
 90
        0
 91
        1
 62
     0
 92
       -2
340
14
 93
        0
 40
0.045
309
GRIDFORMAT_END
 95
        4
302
GRIDFORMAT
  1
GRIDFORMAT_BEGIN
 90
        0
 91
        1
 62
     0
 92
       -2
340
14
 93
        0
 40
0.045
309
GRIDFORMAT_END
 95
        8
302
GRIDFORMAT
  1
GRIDFORMAT_BEGIN
 90
        0
 91
        1
 62
     0
 92
       -2
340
14
 93
        0
 40
0.045
309
GRIDFORMAT_END
 95
       16
302
GRIDFORMAT
  1
GRIDFORMAT_BEGIN
 90
        0
 91
        1
 62
     0
 92
       -2
340
14
 93
        0
 40
0.045
309
GRIDFORMAT_END
 95
       32
302
GRIDFORMAT
  1
GRIDFORMAT_BEGIN
 90
        0
 91
        1
 62
     0
 92
       -2
340
14
 93
        0
 40
0.045
309
GRIDFORMAT_END
309
TABLEFORMAT_END
  1
CELLSTYLE_BEGIN
 90
        2
 91
        1
300
_HEADER
309
CELLSTYLE_END
300
CELLSTYLE
  1
TABLEFORMAT_BEGIN
 90
        5
170
     1
 91
        0
 92
        0
 62
   257
 93
        1
300
CONTENTFORMAT
  1
CONTENTFORMAT_BEGIN
 90
        0
 91
        0
 92
        4
 93
        0
300

 40
0.0
140
1.0
 94
        2
 62
     0
340
11
144
0.18
309
CONTENTFORMAT_END
171
     1
301
MARGIN
  1
CELLMARGIN_BEGIN
 40
0.06
 40
0.06
 40
0.06
 40
0.06
 40
0.06
 40
0.06
309
CELLMARGIN_END
 94
        6
 95
        1
302
GRIDFORMAT
  1
GRIDFORMAT_BEGIN
 90
        0
 91
        1
 62
     0
 92
       -2
340
14
 93
        0
 40
0.045
309
GRIDFORMAT_END
 95
        2
302
GRIDFORMAT
  1
GRIDFORMAT_BEGIN
 90
        0
 91
        1
 62
     0
 92
       -2
340
14
 93
        0
 40
0.045
309
GRIDFORMAT_END
 95
        4
302
GRIDFORMAT
  1
GRIDFORMAT_BEGIN
 90
        0
 91
        1
 62
     0
 92
       -2
340
14
 93
        0
 40
0.045
309
GRIDFORMAT_END
 95
        8
302
GRIDFORMAT
  1
GRIDFORMAT_BEGIN
 90
        0
 91
        1
 62
     0
 92
       -2
340
14
 93
        0
 40
0.045
309
GRIDFORMAT_END
 95
       16
302
GRIDFORMAT
  1
GRIDFORMAT_BEGIN
 90
        0
 91
        1
 62
     0
 92
       -2
340
14
 93
        0
 40
0.045
309
GRIDFORMAT_END
 95
       32
302
GRIDFORMAT
  1
GRIDFORMAT_BEGIN
 90
        0
 91
        1
 62
     0
 92
       -2
340
14
 93
        0
 40
0.045
309
GRIDFORMAT_END
309
TABLEFORMAT_END
  1
CELLSTYLE_BEGIN
 90
        3
 91
        2
300
_DATA
309
CELLSTYLE_END
  0
ENDSEC
  0
EOF
