  0
SECTION
  2
HEADER
  9
$ACADVER
  1
AC1032
  9
$ACADMAINTVER
 90
       55
  9
$DWGCODEPAGE
  3
ANSI_1251
  9
$LASTSAVEDBY
  1
aveic
  9
$REQUIREDVERSIONS
160
                 0
  9
$INSBASE
 10
0.0
 20
0.0
 30
0.0
  9
$EXTMIN
 10
-7.21777
 20
-5.5591
 30
0.0
  9
$EXTMAX
 10
6.61931
 20
8.40542
 30
0.0
  9
$LIMMIN
 10
0.0
 20
0.0
  9
$LIMMAX
 10
12.0
 20
9.0
  9
$ORTHOMODE
 70
     0
  9
$REGENMODE
 70
     1
  9
$FILLMODE
 70
     1
  9
$QTEXTMODE
 70
     0
  9
$MIRRTEXT
 70
     1
  9
$LTSCALE
 40
1.0
  9
$ATTMODE
 70
     1
  9
$TEXTSIZE
 40
0.2
  9
$TRACEWID
 40
0.05
  9
$TEXTSTYLE
  7
Standard
  9
$CLAYER
  8
0
  9
$CELTYPE
  6
ByLayer
  9
$CECOLOR
 62
   256
  9
$CELTSCALE
 40
1.0
  9
$DISPSILH
 70
     0
  9
$DIMSCALE
 40
1.0
  9
$DIMASZ
 40
0.18
  9
$DIMEXO
 40
0.0625
  9
$DIMDLI
 40
0.38
  9
$DIMRND
 40
0.0
  9
$DIMDLE
 40
0.0
  9
$DIMEXE
 40
0.18
  9
$DIMTP
 40
0.0
  9
$DIMTM
 40
0.0
  9
$DIMTXT
 40
0.18
  9
$DIMCEN
 40
0.09
  9
$DIMTSZ
 40
0.0
  9
$DIMTOL
 70
     0
  9
$DIMLIM
 70
     0
  9
$DIMTIH
 70
     1
  9
$DIMTOH
 70
     1
  9
$DIMSE1
 70
     0
  9
$DIMSE2
 70
     0
  9
$DIMTAD
 70
     0
  9
$DIMZIN
 70
     0
  9
$DIMBLK
  1

  9
$DIMASO
 70
     1
  9
$DIMSHO
 70
     1
  9
$DIMPOST
  1

  9
$DIMAPOST
  1

  9
$DIMALT
 70
     0
  9
$DIMALTD
 70
     2
  9
$DIMALTF
 40
25.4
  9
$DIMLFAC
 40
1.0
  9
$DIMTOFL
 70
     0
  9
$DIMTVP
 40
0.0
  9
$DIMTIX
 70
     0
  9
$DIMSOXD
 70
     0
  9
$DIMSAH
 70
     0
  9
$DIMBLK1
  1

  9
$DIMBLK2
  1

  9
$DIMSTYLE
  2
Standard
  9
$DIMCLRD
 70
     0
  9
$DIMCLRE
 70
     0
  9
$DIMCLRT
 70
     0
  9
$DIMTFAC
 40
1.0
  9
$DIMGAP
 40
0.09
  9
$DIMJUST
 70
     0
  9
$DIMSD1
 70
     0
  9
$DIMSD2
 70
     0
  9
$DIMTOLJ
 70
     1
  9
$DIMTZIN
 70
     0
  9
$DIMALTZ
 70
     0
  9
$DIMALTTZ
 70
     0
  9
$DIMUPT
 70
     0
  9
$DIMDEC
 70
     4
  9
$DIMTDEC
 70
     4
  9
$DIMALTU
 70
     2
  9
$DIMALTTD
 70
     2
  9
$DIMTXSTY
  7
Standard
  9
$DIMAUNIT
 70
     0
  9
$DIMADEC
 70
     0
  9
$DIMALTRND
 40
0.0
  9
$DIMAZIN
 70
     0
  9
$DIMDSEP
 70
    46
  9
$DIMATFIT
 70
     3
  9
$DIMFRAC
 70
     0
  9
$DIMLDRBLK
  1

  9
$DIMLUNIT
 70
     2
  9
$DIMLWD
 70
    -2
  9
$DIMLWE
 70
    -2
  9
$DIMTMOVE
 70
     0
  9
$DIMFXL
 40
1.0
  9
$DIMFXLON
 70
     0
  9
$DIMJOGANG
 40
0.7853981633974483
  9
$DIMTFILL
 70
     0
  9
$DIMTFILLCLR
 70
     0
  9
$DIMARCSYM
 70
     0
  9
$DIMLTYPE
  6

  9
$DIMLTEX1
  6

  9
$DIMLTEX2
  6

  9
$DIMTXTDIRECTION
 70
     0
  9
$LUNITS
 70
     2
  9
$LUPREC
 70
     4
  9
$SKETCHINC
 40
0.1
  9
$FILLETRAD
 40
0.0
  9
$AUNITS
 70
     0
  9
$AUPREC
 70
     0
  9
$MENU
  1
.
  9
$ELEVATION
 40
0.0
  9
$PELEVATION
 40
0.0
  9
$THICKNESS
 40
0.0
  9
$LIMCHECK
 70
     0
  9
$CHAMFERA
 40
0.0
  9
$CHAMFERB
 40
0.0
  9
$CHAMFERC
 40
0.0
  9
$CHAMFERD
 40
0.0
  9
$SKPOLY
 70
     0
  9
$TDCREATE
 40
2461215.725447049
  9
$TDUCREATE
 40
2461215.600447049
  9
$TDUPDATE
 40
2461215.725447292
  9
$TDUUPDATE
 40
2461215.600447292
  9
$TDINDWG
 40
0.0000000116
  9
$TDUSRTIMER
 40
0.0000000116
  9
$USRTIMER
 70
     1
  9
$ANGBASE
 50
0.0
  9
$ANGDIR
 70
     0
  9
$PDMODE
 70
     0
  9
$PDSIZE
 40
0.0
  9
$PLINEWID
 40
0.0
  9
$SPLFRAME
 70
     0
  9
$SPLINETYPE
 70
     6
  9
$SPLINESEGS
 70
     8
  9
$HANDSEED
  5
79
  9
$SURFTAB1
 70
     6
  9
$SURFTAB2
 70
     6
  9
$SURFTYPE
 70
     6
  9
$SURFU
 70
     6
  9
$SURFV
 70
     6
  9
$UCSBASE
  2

  9
$UCSNAME
  2

  9
$UCSORG
 10
0.0
 20
0.0
 30
0.0
  9
$UCSXDIR
 10
1.0
 20
0.0
 30
0.0
  9
$UCSYDIR
 10
0.0
 20
1.0
 30
0.0
  9
$UCSORTHOREF
  2

  9
$UCSORTHOVIEW
 70
     0
  9
$UCSORGTOP
 10
0.0
 20
0.0
 30
0.0
  9
$UCSORGBOTTOM
 10
0.0
 20
0.0
 30
0.0
  9
$UCSORGLEFT
 10
0.0
 20
0.0
 30
0.0
  9
$UCSORGRIGHT
 10
0.0
 20
0.0
 30
0.0
  9
$UCSORGFRONT
 10
0.0
 20
0.0
 30
0.0
  9
$UCSORGBACK
 10
0.0
 20
0.0
 30
0.0
  9
$PUCSBASE
  2

  9
$PUCSNAME
  2

  9
$PUCSORG
 10
0.0
 20
0.0
 30
0.0
  9
$PUCSXDIR
 10
1.0
 20
0.0
 30
0.0
  9
$PUCSYDIR
 10
0.0
 20
1.0
 30
0.0
  9
$PUCSORTHOREF
  2

  9
$PUCSORTHOVIEW
 70
     0
  9
$PUCSORGTOP
 10
0.0
 20
0.0
 30
0.0
  9
$PUCSORGBOTTOM
 10
0.0
 20
0.0
 30
0.0
  9
$PUCSORGLEFT
 10
0.0
 20
0.0
 30
0.0
  9
$PUCSORGRIGHT
 10
0.0
 20
0.0
 30
0.0
  9
$PUCSORGFRONT
 10
0.0
 20
0.0
 30
0.0
  9
$PUCSORGBACK
 10
0.0
 20
0.0
 30
0.0
  9
$USERI1
 70
     0
  9
$USERI2
 70
     0
  9
$USERI3
 70
     0
  9
$USERI4
 70
     0
  9
$USERI5
 70
     0
  9
$USERR1
 40
0.0
  9
$USERR2
 40
0.0
  9
$USERR3
 40
0.0
  9
$USERR4
 40
0.0
  9
$USERR5
 40
0.0
  9
$WORLDVIEW
 70
     1
  9
$SHADEDGE
 70
     3
  9
$SHADEDIF
 70
    70
  9
$TILEMODE
 70
     1
  9
$MAXACTVP
 70
    64
  9
$PINSBASE
 10
0.0
 20
0.0
 30
0.0
  9
$PLIMCHECK
 70
     0
  9
$PEXTMIN
 10
1.000000000000000E+20
 20
1.000000000000000E+20
 30
1.000000000000000E+20
  9
$PEXTMAX
 10
-1.000000000000000E+20
 20
-1.000000000000000E+20
 30
-1.000000000000000E+20
  9
$PLIMMIN
 10
0.0
 20
0.0
  9
$PLIMMAX
 10
12.0
 20
9.0
  9
$UNITMODE
 70
     0
  9
$VISRETAIN
 70
     1
  9
$PLINEGEN
 70
     0
  9
$PSLTSCALE
 70
     1
  9
$TREEDEPTH
 70
  3020
  9
$CMLSTYLE
  2
Standard
  9
$CMLJUST
 70
     0
  9
$CMLSCALE
 40
1.0
  9
$PROXYGRAPHICS
 70
     1
  9
$MEASUREMENT
 70
     0
  9
$CELWEIGHT
370
    -1
  9
$ENDCAPS
280
     0
  9
$JOINSTYLE
280
     0
  9
$LWDISPLAY
290
     0
  9
$INSUNITS
 70
     5
  9
$HYPERLINKBASE
  1

  9
$STYLESHEET
  1

  9
$XEDIT
290
     1
  9
$CEPSNTYPE
380
     0
  9
$PSTYLEMODE
290
     1
  9
$FINGERPRINTGUID
  2
{70df56c4-c067-4ea4-9d00-7a333b971249}
  9
$VERSIONGUID
  2
{FAEB1C32-E019-11D5-929B-00C0DF256EC4}
  9
$EXTNAMES
290
     1
  9
$PSVPSCALE
 40
0.0
  9
$OLESTARTUP
290
     0
  9
$SORTENTS
280
   127
  9
$INDEXCTL
280
     0
  9
$HIDETEXT
280
     1
  9
$XCLIPFRAME
280
     2
  9
$HALOGAP
280
     0
  9
$OBSCOLOR
 70
   257
  9
$OBSLTYPE
280
     0
  9
$INTERSECTIONDISPLAY
280
     0
  9
$INTERSECTIONCOLOR
 70
   257
  9
$DIMASSOC
280
     2
  9
$PROJECTNAME
  1

  9
$CAMERADISPLAY
290
     0
  9
$LENSLENGTH
 40
50.0
  9
$CAMERAHEIGHT
 40
0.0
  9
$STEPSPERSEC
 40
2.0
  9
$STEPSIZE
 40
6.0
  9
$3DDWFPREC
 40
2.0
  9
$PSOLWIDTH
 40
0.25
  9
$PSOLHEIGHT
 40
4.0
  9
$LOFTANG1
 40
1.570796326794897
  9
$LOFTANG2
 40
1.570796326794897
  9
$LOFTMAG1
 40
0.0
  9
$LOFTMAG2
 40
0.0
  9
$LOFTPARAM
 70
     7
  9
$LOFTNORMALS
280
     1
  9
$LATITUDE
 40
37.795
  9
$LONGITUDE
 40
-122.394
  9
$NORTHDIRECTION
 40
0.0
  9
$TIMEZONE
 70
 -8000
  9
$LIGHTGLYPHDISPLAY
280
     1
  9
$TILEMODELIGHTSYNCH
280
     1
  9
$CMATERIAL
347
44
  9
$SOLIDHIST
280
     0
  9
$SHOWHIST
280
     1
  9
$DWFFRAME
280
     2
  9
$DGNFRAME
280
     2
  9
$REALWORLDSCALE
290
     1
  9
$INTERFERECOLOR
 62
   256
  9
$CSHADOW
280
     0
  9
$SHADOWPLANELOCATION
 40
0.0
  0
ENDSEC
  0
SECTION
  2
CLASSES
  0
CLASS
  1
ACDBDICTIONARYWDFLT
  2
AcDbDictionaryWithDefault
  3
ObjectDBX Classes
 90
        0
 91
        3
280
     0
281
     0
  0
CLASS
  1
VISUALSTYLE
  2
AcDbVisualStyle
  3
ObjectDBX Classes
 90
     4095
 91
        3
280
     0
281
     0
  0
CLASS
  1
MATERIAL
  2
AcDbMaterial
  3
ObjectDBX Classes
 90
     1153
 91
        3
280
     0
281
     0
  0
CLASS
  1
SCALE
  2
AcDbScale
  3
ObjectDBX Classes
 90
     1153
 91
        3
280
     0
281
     0
  0
CLASS
  1
TABLESTYLE
  2
AcDbTableStyle
  3
ObjectDBX Classes
 90
     4095
 91
        3
280
     0
281
     0
  0
CLASS
  1
MLEADERSTYLE
  2
AcDbMLeaderStyle
  3
ACDB_MLEADERSTYLE_CLASS
 90
     4095
 91
        3
280
     0
281
     0
  0
CLASS
  1
SUN
  2
AcDbSun
  3
SCENEOE
 90
     1153
 91
        3
280
     0
281
     0
  0
CLASS
  1
DICTIONARYVAR
  2
AcDbDictionaryVar
  3
ObjectDBX Classes
 90
        0
 91
        3
280
     0
281
     0
  0
CLASS
  1
CELLSTYLEMAP
  2
AcDbCellStyleMap
  3
ObjectDBX Classes
 90
     1152
 91
        3
280
     0
281
     0
  0
ENDSEC
  0
SECTION
  2
TABLES
  0
TABLE
  2
VPORT
  5
8
330
0
100
AcDbSymbolTable
 70
     1
  0
VPORT
  5
29
330
8
100
AcDbSymbolTableRecord
100
AcDbViewportTableRecord
  2
*Active
 70
     0
 10
0.0
 20
0.0
 11
1.0
 21
1.0
 12
10.42990654205607
 22
4.5
 13
0.0
 23
0.0
 14
0.5
 24
0.5
 15
0.5
 25
0.5
 16
0.0
 26
0.0
 36
1.0
 17
0.0
 27
0.0
 37
0.0
 40
9.0
 41
1.972972972850329
 42
50.0
 43
0.0
 44
0.0
 50
0.0
 51
0.0
 71
     0
 72
   100
 73
     1
 74
     3
 75
     0
 76
     0
 77
     0
 78
     0
281
     0
 65
     1
110
0.0
120
0.0
130
0.0
111
1.0
121
0.0
131
0.0
112
0.0
122
1.0
132
0.0
 79
     0
146
0.0
348
2F
 60
     3
 61
     5
292
     1
282
     1
141
0.0
142
0.0
 63
   250
361
5D
  0
ENDTAB
  0
TABLE
  2
LTYPE
  5
5
330
0
100
AcDbSymbolTable
 70
     1
  0
LTYPE
  5
14
330
5
100
AcDbSymbolTableRecord
100
AcDbLinetypeTableRecord
  2
ByBlock
 70
     0
  3

 72
    65
 73
     0
 40
0.0
  0
LTYPE
  5
15
330
5
100
AcDbSymbolTableRecord
100
AcDbLinetypeTableRecord
  2
ByLayer
 70
     0
  3

 72
    65
 73
     0
 40
0.0
  0
LTYPE
  5
16
330
5
100
AcDbSymbolTableRecord
100
AcDbLinetypeTableRecord
  2
Continuous
 70
     0
  3
Solid line
 72
    65
 73
     0
 40
0.0
  0
ENDTAB
  0
TABLE
  2
LAYER
  5
2
330
0
100
AcDbSymbolTable
 70
     2
  0
LAYER
  5
10
330
2
100
AcDbSymbolTableRecord
100
AcDbLayerTableRecord
  2
0
 70
     0
 62
     7
  6
Continuous
370
    -3
390
F
347
46
348
0
  0
LAYER
  5
5F
330
2
100
AcDbSymbolTableRecord
100
AcDbLayerTableRecord
  2
layer 1
 70
     0
 62
     7
  6
Continuous
370
    -3
390
F
347
46
348
0
  0
ENDTAB
  0
TABLE
  2
STYLE
  5
3
330
0
100
AcDbSymbolTable
 70
     1
  0
STYLE
  5
11
330
3
100
AcDbSymbolTableRecord
100
AcDbTextStyleTableRecord
  2
Standard
 70
     0
 40
0.0
 41
1.0
 50
0.0
 71
     0
 42
0.2
  3
txt
  4

  0
ENDTAB
  0
TABLE
  2
VIEW
  5
6
330
0
100
AcDbSymbolTable
 70
     0
  0
ENDTAB
  0
TABLE
  2
UCS
  5
7
330
0
100
AcDbSymbolTable
 70
     0
  0
ENDTAB
  0
TABLE
  2
APPID
  5
9
330
0
100
AcDbSymbolTable
 70
     2
  0
APPID
  5
12
330
9
100
AcDbSymbolTableRecord
100
AcDbRegAppTableRecord
  2
ACAD
 70
     0
  0
APPID
  5
5E
330
9
100
AcDbSymbolTableRecord
100
AcDbRegAppTableRecord
  2
ODA
 70
     0
  0
ENDTAB
  0
TABLE
  2
DIMSTYLE
  5
A
330
0
100
AcDbSymbolTable
 70
     1
100
AcDbDimStyleTable
  0
DIMSTYLE
105
27
330
A
100
AcDbSymbolTableRecord
100
AcDbDimStyleTableRecord
  2
Standard
 70
     0
178
     0
340
11
  0
ENDTAB
  0
TABLE
  2
BLOCK_RECORD
  5
1
330
0
100
AcDbSymbolTable
 70
     1
  0
BLOCK_RECORD
  5
1F
330
1
100
AcDbSymbolTableRecord
100
AcDbBlockTableRecord
  2
*Model_Space
340
22
 70
     0
280
     1
281
     0
  0
BLOCK_RECORD
  5
1B
330
1
100
AcDbSymbolTableRecord
100
AcDbBlockTableRecord
  2
*Paper_Space
340
1E
 70
     0
280
     1
281
     0
  0
BLOCK_RECORD
  5
23
330
1
100
AcDbSymbolTableRecord
100
AcDbBlockTableRecord
  2
*Paper_Space0
340
26
 70
     0
280
     1
281
     0
  0
ENDTAB
  0
ENDSEC
  0
SECTION
  2
BLOCKS
  0
BLOCK
  5
20
330
1F
100
AcDbEntity
  8
0
100
AcDbBlockBegin
  2
*Model_Space
 70
     0
 10
0.0
 20
0.0
 30
0.0
  3
*Model_Space
  1

  0
ENDBLK
  5
21
330
1F
100
AcDbEntity
  8
0
100
AcDbBlockEnd
  0
BLOCK
  5
1C
330
1B
100
AcDbEntity
 67
     1
  8
0
100
AcDbBlockBegin
  2
*Paper_Space
 70
     0
 10
0.0
 20
0.0
 30
0.0
  3
*Paper_Space
  1

  0
ENDBLK
  5
1D
330
1B
100
AcDbEntity
 67
     1
  8
0
100
AcDbBlockEnd
  0
BLOCK
  5
24
330
23
100
AcDbEntity
  8
0
100
AcDbBlockBegin
  2
*Paper_Space0
 70
     0
 10
0.0
 20
0.0
 30
0.0
  3
*Paper_Space0
  1

  0
ENDBLK
  5
25
330
23
100
AcDbEntity
  8
0
100
AcDbBlockEnd
  0
ENDSEC
  0
SECTION
  2
ENTITIES
  0
SPLINE
  5
60
330
1F
100
AcDbEntity
  8
layer 1
100
AcDbSpline
210
0.0
220
0.0
230
1.0
 70
    11
 71
     3
 72
   146
 73
   142
 74
     0
 42
0.0000000001
 43
0.0000000001
 40
0.0
 40
0.0
 40
0.0
 40
0.0
 40
0.0212765957446809
 40
0.0212765957446809
 40
0.0212765957446809
 40
0.0425531914893617
 40
0.0425531914893617
 40
0.0425531914893617
 40
0.0638297872340425
 40
0.0638297872340425
 40
0.0638297872340425
 40
0.0851063829787234
 40
0.0851063829787234
 40
0.0851063829787234
 40
0.1063829787234043
 40
0.1063829787234043
 40
0.1063829787234043
 40
0.1276595744680851
 40
0.1276595744680851
 40
0.1276595744680851
 40
0.148936170212766
 40
0.148936170212766
 40
0.148936170212766
 40
0.1702127659574468
 40
0.1702127659574468
 40
0.1702127659574468
 40
0.1914893617021277
 40
0.1914893617021277
 40
0.1914893617021277
 40
0.2127659574468085
 40
0.2127659574468085
 40
0.2127659574468085
 40
0.2340425531914894
 40
0.2340425531914894
 40
0.2340425531914894
 40
0.2553191489361702
 40
0.2553191489361702
 40
0.2553191489361702
 40
0.2765957446808511
 40
0.2765957446808511
 40
0.2765957446808511
 40
0.2978723404255319
 40
0.2978723404255319
 40
0.2978723404255319
 40
0.3191489361702128
 40
0.3191489361702128
 40
0.3191489361702128
 40
0.3404255319148936
 40
0.3404255319148936
 40
0.3404255319148936
 40
0.3617021276595744
 40
0.3617021276595744
 40
0.3617021276595744
 40
0.3829787234042553
 40
0.3829787234042553
 40
0.3829787234042553
 40
0.4042553191489361
 40
0.4042553191489361
 40
0.4042553191489361
 40
0.425531914893617
 40
0.425531914893617
 40
0.425531914893617
 40
0.4468085106382979
 40
0.4468085106382979
 40
0.4468085106382979
 40
0.4680851063829787
 40
0.4680851063829787
 40
0.4680851063829787
 40
0.4893617021276596
 40
0.4893617021276596
 40
0.4893617021276596
 40
0.5106382978723404
 40
0.5106382978723404
 40
0.5106382978723404
 40
0.5319148936170213
 40
0.5319148936170213
 40
0.5319148936170213
 40
0.5531914893617021
 40
0.5531914893617021
 40
0.5531914893617021
 40
0.5744680851063829
 40
0.5744680851063829
 40
0.5744680851063829
 40
0.5957446808510638
 40
0.5957446808510638
 40
0.5957446808510638
 40
0.6170212765957447
 40
0.6170212765957447
 40
0.6170212765957447
 40
0.6382978723404256
 40
0.6382978723404256
 40
0.6382978723404256
 40
0.6595744680851063
 40
0.6595744680851063
 40
0.6595744680851063
 40
0.6808510638297872
 40
0.6808510638297872
 40
0.6808510638297872
 40
0.7021276595744681
 40
0.7021276595744681
 40
0.7021276595744681
 40
0.7234042553191489
 40
0.7234042553191489
 40
0.7234042553191489
 40
0.7446808510638298
 40
0.7446808510638298
 40
0.7446808510638298
 40
0.7659574468085106
 40
0.7659574468085106
 40
0.7659574468085106
 40
0.7872340425531915
 40
0.7872340425531915
 40
0.7872340425531915
 40
0.8085106382978723
 40
0.8085106382978723
 40
0.8085106382978723
 40
0.8297872340425532
 40
0.8297872340425532
 40
0.8297872340425532
 40
0.851063829787234
 40
0.851063829787234
 40
0.851063829787234
 40
0.8723404255319148
 40
0.8723404255319148
 40
0.8723404255319148
 40
0.8936170212765957
 40
0.8936170212765957
 40
0.8936170212765957
 40
0.9148936170212766
 40
0.9148936170212766
 40
0.9148936170212766
 40
0.9361702127659575
 40
0.9361702127659575
 40
0.9361702127659575
 40
0.9574468085106382
 40
0.9574468085106382
 40
0.9574468085106382
 40
0.9787234042553191
 40
0.9787234042553191
 40
0.9787234042553191
 40
1.0
 40
1.0
 40
1.0
 40
1.0
 10
-1.70115
 20
6.51193
 30
0.0
 10
-2.00138
 20
6.58187
 30
0.0
 10
-2.312
 20
6.56308
 30
0.0
 10
-2.5874
 20
6.41502
 30
0.0
 10
-2.68672
 20
6.36162
 30
0.0
 10
-2.84787
 20
6.24311
 30
0.0
 10
-2.91343
 20
6.15844
 30
0.0
 10
-3.15847
 20
5.84196
 30
0.0
 10
-3.24871
 20
5.64093
 30
0.0
 10
-3.24871
 20
5.20105
 30
0.0
 10
-3.24871
 20
4.82104
 30
0.0
 10
-3.03539
 20
4.43729
 30
0.0
 10
-2.88369
 20
4.20056
 30
0.0
 10
-2.88369
 20
4.20056
 30
0.0
 10
-2.03423
 20
3.17473
 30
0.0
 10
-2.03423
 20
3.17473
 30
0.0
 10
-1.9977
 20
3.13104
 30
0.0
 10
-1.9943
 20
3.11791
 30
0.0
 10
-1.95184
 20
3.07506
 30
0.0
 10
-1.95184
 20
3.07506
 30
0.0
 10
-0.95467
 20
1.99667
 30
0.0
 10
-0.95467
 20
1.99667
 30
0.0
 10
-0.81478
 20
2.07069
 30
0.0
 10
-0.74519
 20
2.17874
 30
0.0
 10
-0.51771
 20
2.17874
 30
0.0
 10
-0.51771
 20
2.17874
 30
0.0
 10
-0.81133
 20
2.99572
 30
0.0
 10
-0.81133
 20
2.99572
 30
0.0
 10
-0.88629
 20
3.24016
 30
0.0
 10
-0.99108
 20
3.61328
 30
0.0
 10
-0.99108
 20
3.92658
 30
0.0
 10
-0.91515
 20
3.8173
 30
0.0
 10
-0.62612
 20
2.94969
 30
0.0
 10
-0.5792
 20
2.8091
 30
0.0
 10
-0.5792
 20
2.8091
 30
0.0
 10
-0.45811
 20
2.4386
 30
0.0
 10
-0.45811
 20
2.4386
 30
0.0
 10
-0.45655
 20
2.43546
 30
0.0
 10
-0.45286
 20
2.42947
 30
0.0
 10
-0.45155
 20
2.42696
 30
0.0
 10
-0.45024
 20
2.42447
 30
0.0
 10
-0.44742
 20
2.41907
 30
0.0
 10
-0.44488
 20
2.41542
 30
0.0
 10
-0.44488
 20
2.41542
 30
0.0
 10
-0.40838
 20
3.10719
 30
0.0
 10
-0.40838
 20
3.10719
 30
0.0
 10
-0.39648
 20
3.32761
 30
0.0
 10
-0.43194
 20
3.62307
 30
0.0
 10
-0.4035
 20
3.83057
 30
0.0
 10
-0.4035
 20
3.83057
 30
0.0
 10
-0.33761
 20
5.03915
 30
0.0
 10
-0.33761
 20
5.03915
 30
0.0
 10
-0.33077
 20
5.13824
 30
0.0
 10
-0.35986
 20
5.13842
 30
0.0
 10
-0.29923
 20
5.18284
 30
0.0
 10
-0.29923
 20
5.18284
 30
0.0
 10
-0.25229
 20
4.53792
 30
0.0
 10
-0.25229
 20
4.53792
 30
0.0
 10
-0.22156
 20
4.33441
 30
0.0
 10
-0.22135
 20
3.32881
 30
0.0
 10
-0.19767
 20
3.17242
 30
0.0
 10
-0.17308
 20
3.00997
 30
0.0
 10
-0.20369
 20
2.80873
 30
0.0
 10
-0.18331
 20
2.65879
 30
0.0
 10
-0.17165
 20
2.57294
 30
0.0
 10
-0.18598
 20
2.56175
 30
0.0
 10
-0.13537
 20
2.52466
 30
0.0
 10
-0.12728
 20
2.62188
 30
0.0
 10
0.04812
 20
3.08763
 30
0.0
 10
0.09357
 20
3.20606
 30
0.0
 10
0.09357
 20
3.20606
 30
0.0
 10
0.34952
 20
3.86045
 30
0.0
 10
0.34952
 20
3.86045
 30
0.0
 10
0.35086
 20
3.86291
 30
0.0
 10
0.35368
 20
3.86831
 30
0.0
 10
0.35621
 20
3.87196
 30
0.0
 10
0.34889
 20
3.54338
 30
0.0
 10
0.17782
 20
3.03163
 30
0.0
 10
0.05705
 20
2.73279
 30
0.0
 10
0.0208
 20
2.64308
 30
0.0
 10
-0.00165
 20
2.57
 30
0.0
 10
-0.03922
 20
2.48313
 30
0.0
 10
-0.2498
 20
1.99633
 30
0.0
 10
-0.12055
 20
2.29461
 30
0.0
 10
0.22077
 20
2.06151
 30
0.0
 10
0.27997
 20
2.02108
 30
0.0
 10
0.25574
 20
2.01584
 30
0.0
 10
0.33801
 20
1.99667
 30
0.0
 10
0.35908
 20
2.07561
 30
0.0
 10
0.43371
 20
2.11944
 30
0.0
 10
0.48847
 20
2.17392
 30
0.0
 10
0.48847
 20
2.17392
 30
0.0
 10
1.46953
 20
3.23201
 30
0.0
 10
1.46953
 20
3.23201
 30
0.0
 10
1.52862
 20
3.30607
 30
0.0
 10
1.57998
 20
3.34713
 30
0.0
 10
1.63339
 20
3.41408
 30
0.0
 10
1.68913
 20
3.48395
 30
0.0
 10
1.73493
 20
3.52122
 30
0.0
 10
1.78685
 20
3.58833
 30
0.0
 10
1.84163
 20
3.65913
 30
0.0
 10
1.88784
 20
3.70735
 30
0.0
 10
1.94438
 20
3.77674
 30
0.0
 10
2.23258
 20
4.13048
 30
0.0
 10
2.63204
 20
4.65523
 30
0.0
 10
2.63204
 20
5.14643
 30
0.0
 10
2.63204
 20
5.43916
 30
0.0
 10
2.62605
 20
5.62687
 30
0.0
 10
2.47405
 20
5.89876
 30
0.0
 10
2.21904
 20
6.35493
 30
0.0
 10
1.74144
 20
6.6247
 30
0.0
 10
1.219
 20
6.54127
 30
0.0
 10
1.16263
 20
6.53227
 30
0.0
 10
1.11907
 20
6.51632
 30
0.0
 10
1.06627
 20
6.51193
 30
0.0
 10
1.06627
 20
7.37631
 30
0.0
 10
0.52396
 20
7.55503
 30
0.0
 10
0.09704
 20
7.98239
 30
0.0
 10
0.0307
 20
8.0488
 30
0.0
 10
-0.00524
 20
8.05665
 30
0.0
 10
-0.11284
 20
8.17306
 30
0.0
 10
-0.11284
 20
8.17306
 30
0.0
 10
-0.29923
 20
8.40542
 30
0.0
 10
-0.29923
 20
8.40542
 30
0.0
 10
-0.35816
 20
8.36596
 30
0.0
 10
-0.37828
 20
8.32704
 30
0.0
 10
-0.43384
 20
8.26693
 30
0.0
 10
-0.43384
 20
8.26693
 30
0.0
 10
-0.49483
 20
8.20048
 30
0.0
 10
-0.49483
 20
8.20048
 30
0.0
 10
-0.53136
 20
8.16256
 30
0.0
 10
-0.55748
 20
8.13695
 30
0.0
 10
-0.59473
 20
8.1001
 30
0.0
 10
-0.59473
 20
8.1001
 30
0.0
 10
-1.15765
 20
7.62525
 30
0.0
 10
-1.15765
 20
7.62525
 30
0.0
 10
-1.37751
 20
7.44972
 30
0.0
 10
-1.5926
 20
7.18036
 30
0.0
 10
-1.66528
 20
6.89482
 30
0.0
 10
-1.70034
 20
6.75709
 30
0.0
 10
-1.70115
 20
6.68664
 30
0.0
 10
-1.70115
 20
6.51193
 30
0.0
  0
SPLINE
  5
61
330
1F
100
AcDbEntity
  8
layer 1
100
AcDbSpline
210
0.0
220
0.0
230
1.0
 70
    27
 71
     3
 72
    11
 73
     7
 74
     0
 42
0.0000000001
 43
0.0000000001
 40
0.0
 40
0.0
 40
0.0
 40
0.0
 40
0.5
 40
0.5
 40
0.5
 40
1.0
 40
1.0
 40
1.0
 40
1.0
 10
2.34074
 20
0.704
 30
0.0
 10
2.34074
 20
0.704
 30
0.0
 10
2.37988
 20
0.69398
 30
0.0
 10
2.37988
 20
0.69398
 30
0.0
 10
2.37988
 20
0.69398
 30
0.0
 10
2.34074
 20
0.704
 30
0.0
 10
2.34074
 20
0.704
 30
0.0
  0
SPLINE
  5
62
330
1F
100
AcDbEntity
  8
layer 1
100
AcDbSpline
210
0.0
220
0.0
230
1.0
 70
    11
 71
     3
 72
    35
 73
    31
 74
     0
 42
0.0000000001
 43
0.0000000001
 40
0.0
 40
0.0
 40
0.0
 40
0.0
 40
0.1
 40
0.1
 40
0.1
 40
0.2
 40
0.2
 40
0.2
 40
0.3
 40
0.3
 40
0.3
 40
0.4
 40
0.4
 40
0.4
 40
0.5
 40
0.5
 40
0.5
 40
0.6000000000000001
 40
0.6000000000000001
 40
0.6000000000000001
 40
0.7000000000000001
 40
0.7000000000000001
 40
0.7000000000000001
 40
0.8
 40
0.8
 40
0.8
 40
0.9
 40
0.9
 40
0.9
 40
1.0
 40
1.0
 40
1.0
 40
1.0
 10
2.81411
 20
2.16053
 30
0.0
 10
2.65274
 20
2.02027
 30
0.0
 10
2.38831
 20
1.91954
 30
0.0
 10
2.19287
 20
1.85324
 30
0.0
 10
1.98965
 20
1.78429
 30
0.0
 10
1.64316
 20
1.72357
 30
0.0
 10
1.37579
 20
1.72357
 30
0.0
 10
1.37579
 20
1.72357
 30
0.0
 10
1.43795
 20
1.77064
 30
0.0
 10
1.43795
 20
1.77064
 30
0.0
 10
1.4682
 20
1.78971
 30
0.0
 10
1.47944
 20
1.79393
 30
0.0
 10
1.50574
 20
1.8121
 30
0.0
 10
1.50574
 20
1.8121
 30
0.0
 10
1.89645
 20
2.07683
 30
0.0
 10
1.89645
 20
2.07683
 30
0.0
 10
2.00895
 20
2.15126
 30
0.0
 10
2.32213
 20
2.38988
 30
0.0
 10
2.43177
 20
2.41542
 30
0.0
 10
2.40371
 20
2.37352
 30
0.0
 10
2.37754
 20
2.34784
 30
0.0
 10
2.33309
 20
2.31383
 30
0.0
 10
2.27759
 20
2.27137
 30
0.0
 10
2.26503
 20
2.25829
 30
0.0
 10
2.2178
 20
2.21064
 30
0.0
 10
2.17093
 20
2.16334
 30
0.0
 10
2.03277
 20
2.05124
 30
0.0
 10
2.01302
 20
1.99667
 30
0.0
 10
2.046
 20
2.0125
 30
0.0
 10
2.75206
 20
2.15915
 30
0.0
 10
2.81411
 20
2.16053
 30
0.0
  0
SPLINE
  5
63
330
1F
100
AcDbEntity
  8
layer 1
100
AcDbSpline
210
0.0
220
0.0
230
1.0
 70
    27
 71
     3
 72
    11
 73
     7
 74
     0
 42
0.0000000001
 43
0.0000000001
 40
0.0
 40
0.0
 40
0.0
 40
0.0
 40
1.0
 40
1.0
 40
1.0
 40
2.713839221543258
 40
2.713839221543258
 40
2.713839221543258
 40
2.713839221543258
 10
2.34074
 20
0.704
 30
0.0
 10
2.34074
 20
0.704
 30
0.0
 10
2.43177
 20
2.41542
 30
0.0
 10
2.43177
 20
2.41542
 30
0.0
 10
2.43177
 20
2.41542
 30
0.0
 10
2.34074
 20
0.704
 30
0.0
 10
2.34074
 20
0.704
 30
0.0
  0
SPLINE
  5
64
330
1F
100
AcDbEntity
  8
layer 1
100
AcDbSpline
210
0.0
220
0.0
230
1.0
 70
    11
 71
     3
 72
   104
 73
   100
 74
     0
 42
0.0000000001
 43
0.0000000001
 40
0.0
 40
0.0
 40
0.0
 40
0.0
 40
0.0303030303030303
 40
0.0303030303030303
 40
0.0303030303030303
 40
0.0606060606060606
 40
0.0606060606060606
 40
0.0606060606060606
 40
0.0909090909090909
 40
0.0909090909090909
 40
0.0909090909090909
 40
0.1212121212121212
 40
0.1212121212121212
 40
0.1212121212121212
 40
0.1515151515151515
 40
0.1515151515151515
 40
0.1515151515151515
 40
0.1818181818181818
 40
0.1818181818181818
 40
0.1818181818181818
 40
0.2121212121212121
 40
0.2121212121212121
 40
0.2121212121212121
 40
0.2424242424242424
 40
0.2424242424242424
 40
0.2424242424242424
 40
0.2727272727272727
 40
0.2727272727272727
 40
0.2727272727272727
 40
0.303030303030303
 40
0.303030303030303
 40
0.303030303030303
 40
0.3333333333333334
 40
0.3333333333333334
 40
0.3333333333333334
 40
0.3636363636363636
 40
0.3636363636363636
 40
0.3636363636363636
 40
0.3939393939393939
 40
0.3939393939393939
 40
0.3939393939393939
 40
0.4242424242424243
 40
0.4242424242424243
 40
0.4242424242424243
 40
0.4545454545454546
 40
0.4545454545454546
 40
0.4545454545454546
 40
0.4848484848484849
 40
0.4848484848484849
 40
0.4848484848484849
 40
0.5151515151515151
 40
0.5151515151515151
 40
0.5151515151515151
 40
0.5454545454545454
 40
0.5454545454545454
 40
0.5454545454545454
 40
0.5757575757575758
 40
0.5757575757575758
 40
0.5757575757575758
 40
0.6060606060606061
 40
0.6060606060606061
 40
0.6060606060606061
 40
0.6363636363636364
 40
0.6363636363636364
 40
0.6363636363636364
 40
0.6666666666666667
 40
0.6666666666666667
 40
0.6666666666666667
 40
0.696969696969697
 40
0.696969696969697
 40
0.696969696969697
 40
0.7272727272727273
 40
0.7272727272727273
 40
0.7272727272727273
 40
0.7575757575757576
 40
0.7575757575757576
 40
0.7575757575757576
 40
0.7878787878787878
 40
0.7878787878787878
 40
0.7878787878787878
 40
0.8181818181818182
 40
0.8181818181818182
 40
0.8181818181818182
 40
0.8484848484848485
 40
0.8484848484848485
 40
0.8484848484848485
 40
0.8787878787878788
 40
0.8787878787878788
 40
0.8787878787878788
 40
0.9090909090909092
 40
0.9090909090909092
 40
0.9090909090909092
 40
0.9393939393939394
 40
0.9393939393939394
 40
0.9393939393939394
 40
0.9696969696969697
 40
0.9696969696969697
 40
0.9696969696969697
 40
1.0
 40
1.0
 40
1.0
 40
1.0
 10
2.34074
 20
0.704
 30
0.0
 10
2.15879
 20
0.70805
 30
0.0
 10
0.99934
 20
1.20797
 30
0.0
 10
0.73855
 20
1.21378
 30
0.0
 10
0.73855
 20
1.05663
 30
0.0
 10
0.67494
 20
1.00375
 30
0.0
 10
0.64752
 20
0.88606
 30
0.0
 10
0.64752
 20
0.88606
 30
0.0
 10
1.52667
 20
0.49075
 30
0.0
 10
1.52667
 20
0.49075
 30
0.0
 10
1.63221
 20
0.44517
 30
0.0
 10
1.72282
 20
0.39869
 30
0.0
 10
1.82833
 20
0.35545
 30
0.0
 10
2.19663
 20
0.20449
 30
0.0
 10
2.64724
 20
-0.02162
 30
0.0
 10
3.02491
 20
-0.17761
 30
0.0
 10
3.35695
 20
-0.31476
 30
0.0
 10
3.93944
 20
-0.63749
 30
0.0
 10
4.2536
 20
-0.66039
 30
0.0
 10
4.59649
 20
-0.68538
 30
0.0
 10
4.97165
 20
-0.61566
 30
0.0
 10
5.15577
 20
-0.30857
 30
0.0
 10
5.22209
 20
-0.19796
 30
0.0
 10
5.2356
 20
-0.12107
 30
0.0
 10
5.2356
 20
0.04856
 30
0.0
 10
5.36356
 20
0.10995
 30
0.0
 10
5.43003
 20
0.07238
 30
0.0
 10
5.67035
 20
0.25104
 30
0.0
 10
5.95033
 20
0.45918
 30
0.0
 10
6.07634
 20
0.70975
 30
0.0
 10
6.27807
 20
0.93599
 30
0.0
 10
6.34156
 20
1.0072
 30
0.0
 10
6.51812
 20
1.22318
 30
0.0
 10
6.61931
 20
1.25019
 30
0.0
 10
6.61931
 20
1.25019
 30
0.0
 10
6.61931
 20
1.30482
 30
0.0
 10
6.61931
 20
1.30482
 30
0.0
 10
6.25882
 20
1.40107
 30
0.0
 10
5.85137
 20
2.65211
 30
0.0
 10
4.99892
 20
2.65211
 30
0.0
 10
5.0225
 20
2.93558
 30
0.0
 10
4.99265
 20
3.23399
 30
0.0
 10
4.82457
 20
3.47914
 30
0.0
 10
4.67284
 20
3.70045
 30
0.0
 10
4.51383
 20
3.84083
 30
0.0
 10
4.27073
 20
3.96308
 30
0.0
 10
3.74598
 20
4.22698
 30
0.0
 10
3.14974
 20
4.09101
 30
0.0
 10
2.68395
 20
3.76543
 30
0.0
 10
2.57854
 20
3.69176
 30
0.0
 10
2.49273
 20
3.61969
 30
0.0
 10
2.3952
 20
3.5444
 30
0.0
 10
2.19358
 20
3.38875
 30
0.0
 10
1.96716
 20
3.12596
 30
0.0
 10
1.80616
 20
2.96821
 30
0.0
 10
1.80616
 20
2.96821
 30
0.0
 10
0.91851
 20
2.08981
 30
0.0
 10
0.91851
 20
2.08981
 30
0.0
 10
0.82455
 20
1.99116
 30
0.0
 10
0.62679
 20
1.82856
 30
0.0
 10
0.55648
 20
1.72357
 30
0.0
 10
0.66565
 20
1.56055
 30
0.0
 10
0.64634
 20
1.53034
 30
0.0
 10
0.70214
 20
1.41405
 30
0.0
 10
0.92045
 20
1.46492
 30
0.0
 10
1.19645
 20
1.45766
 30
0.0
 10
1.43307
 20
1.48422
 30
0.0
 10
1.59275
 20
1.50215
 30
0.0
 10
1.86405
 20
1.47757
 30
0.0
 10
2.03132
 20
1.4868
 30
0.0
 10
2.1034
 20
1.49078
 30
0.0
 10
2.13018
 20
1.51113
 30
0.0
 10
2.20991
 20
1.50316
 30
0.0
 10
2.5957
 20
1.46455
 30
0.0
 10
2.87354
 20
1.4857
 30
0.0
 10
3.34055
 20
1.43071
 30
0.0
 10
3.44255
 20
1.4187
 30
0.0
 10
3.61736
 20
1.39585
 30
0.0
 10
3.72445
 20
1.39585
 30
0.0
 10
3.72445
 20
1.39585
 30
0.0
 10
2.46552
 20
1.30748
 30
0.0
 10
2.46552
 20
1.30748
 30
0.0
 10
2.36441
 20
1.29612
 30
0.0
 10
1.94939
 20
1.29985
 30
0.0
 10
1.68258
 20
1.27112
 30
0.0
 10
1.62912
 20
1.26536
 30
0.0
 10
1.57766
 20
1.27125
 30
0.0
 10
1.52403
 20
1.26581
 30
0.0
 10
1.41821
 20
1.25508
 30
0.0
 10
1.34372
 20
1.23199
 30
0.0
 10
1.21193
 20
1.23199
 30
0.0
 10
1.21193
 20
1.23199
 30
0.0
 10
1.79199
 20
0.99275
 30
0.0
 10
1.79199
 20
0.99275
 30
0.0
 10
1.93816
 20
0.93347
 30
0.0
 10
2.06337
 20
0.85611
 30
0.0
 10
2.20127
 20
0.78301
 30
0.0
 10
2.20127
 20
0.78301
 30
0.0
 10
2.34074
 20
0.704
 30
0.0
 10
2.34074
 20
0.704
 30
0.0
  0
SPLINE
  5
65
330
1F
100
AcDbEntity
  8
layer 1
100
AcDbSpline
210
0.0
220
0.0
230
1.0
 70
    11
 71
     3
 72
    17
 73
    13
 74
     0
 42
0.0000000001
 43
0.0000000001
 40
0.0
 40
0.0
 40
0.0
 40
0.0
 40
0.25
 40
0.25
 40
0.25
 40
0.5
 40
0.5
 40
0.5
 40
0.75
 40
0.75
 40
0.75
 40
1.0
 40
1.0
 40
1.0
 40
1.0
 10
-3.10306
 20
2.48825
 30
0.0
 10
-2.94538
 20
2.45152
 30
0.0
 10
-2.36705
 20
2.10162
 30
0.0
 10
-2.18891
 20
1.98229
 30
0.0
 10
-2.18891
 20
1.98229
 30
0.0
 10
-1.90142
 20
1.77819
 30
0.0
 10
-1.90142
 20
1.77819
 30
0.0
 10
-2.30303
 20
1.87175
 30
0.0
 10
-2.54665
 20
2.02277
 30
0.0
 10
-2.84852
 20
2.25121
 30
0.0
 10
-2.84852
 20
2.25121
 30
0.0
 10
-3.10306
 20
2.48825
 30
0.0
 10
-3.10306
 20
2.48825
 30
0.0
  0
SPLINE
  5
66
330
1F
100
AcDbEntity
  8
layer 1
100
AcDbSpline
210
0.0
220
0.0
230
1.0
 70
    27
 71
     3
 72
    11
 73
     7
 74
     0
 42
0.0000000001
 43
0.0000000001
 40
0.0
 40
0.0
 40
0.0
 40
0.0
 40
1.0
 40
1.0
 40
1.0
 40
3.56513065571717
 40
3.56513065571717
 40
3.56513065571717
 40
3.56513065571717
 10
-5.63378
 20
2.907
 30
0.0
 10
-5.63378
 20
2.907
 30
0.0
 10
-3.10306
 20
2.48825
 30
0.0
 10
-3.10306
 20
2.48825
 30
0.0
 10
-3.10306
 20
2.48825
 30
0.0
 10
-5.63378
 20
2.907
 30
0.0
 10
-5.63378
 20
2.907
 30
0.0
  0
SPLINE
  5
67
330
1F
100
AcDbEntity
  8
layer 1
100
AcDbSpline
210
0.0
220
0.0
230
1.0
 70
    11
 71
     3
 72
   119
 73
   115
 74
     0
 42
0.0000000001
 43
0.0000000001
 40
0.0
 40
0.0
 40
0.0
 40
0.0
 40
0.0263157894736842
 40
0.0263157894736842
 40
0.0263157894736842
 40
0.0526315789473684
 40
0.0526315789473684
 40
0.0526315789473684
 40
0.0789473684210526
 40
0.0789473684210526
 40
0.0789473684210526
 40
0.1052631578947368
 40
0.1052631578947368
 40
0.1052631578947368
 40
0.131578947368421
 40
0.131578947368421
 40
0.131578947368421
 40
0.1578947368421053
 40
0.1578947368421053
 40
0.1578947368421053
 40
0.1842105263157895
 40
0.1842105263157895
 40
0.1842105263157895
 40
0.2105263157894737
 40
0.2105263157894737
 40
0.2105263157894737
 40
0.2368421052631579
 40
0.2368421052631579
 40
0.2368421052631579
 40
0.2631578947368421
 40
0.2631578947368421
 40
0.2631578947368421
 40
0.2894736842105263
 40
0.2894736842105263
 40
0.2894736842105263
 40
0.3157894736842105
 40
0.3157894736842105
 40
0.3157894736842105
 40
0.3421052631578947
 40
0.3421052631578947
 40
0.3421052631578947
 40
0.3684210526315789
 40
0.3684210526315789
 40
0.3684210526315789
 40
0.3947368421052632
 40
0.3947368421052632
 40
0.3947368421052632
 40
0.4210526315789473
 40
0.4210526315789473
 40
0.4210526315789473
 40
0.4473684210526315
 40
0.4473684210526315
 40
0.4473684210526315
 40
0.4736842105263158
 40
0.4736842105263158
 40
0.4736842105263158
 40
0.5
 40
0.5
 40
0.5
 40
0.5263157894736842
 40
0.5263157894736842
 40
0.5263157894736842
 40
0.5526315789473684
 40
0.5526315789473684
 40
0.5526315789473684
 40
0.5789473684210527
 40
0.5789473684210527
 40
0.5789473684210527
 40
0.6052631578947368
 40
0.6052631578947368
 40
0.6052631578947368
 40
0.631578947368421
 40
0.631578947368421
 40
0.631578947368421
 40
0.6578947368421052
 40
0.6578947368421052
 40
0.6578947368421052
 40
0.6842105263157894
 40
0.6842105263157894
 40
0.6842105263157894
 40
0.7105263157894737
 40
0.7105263157894737
 40
0.7105263157894737
 40
0.7368421052631579
 40
0.7368421052631579
 40
0.7368421052631579
 40
0.763157894736842
 40
0.763157894736842
 40
0.763157894736842
 40
0.7894736842105263
 40
0.7894736842105263
 40
0.7894736842105263
 40
0.8157894736842105
 40
0.8157894736842105
 40
0.8157894736842105
 40
0.8421052631578947
 40
0.8421052631578947
 40
0.8421052631578947
 40
0.8684210526315789
 40
0.8684210526315789
 40
0.8684210526315789
 40
0.894736842105263
 40
0.894736842105263
 40
0.894736842105263
 40
0.9210526315789473
 40
0.9210526315789473
 40
0.9210526315789473
 40
0.9473684210526315
 40
0.9473684210526315
 40
0.9473684210526315
 40
0.9736842105263157
 40
0.9736842105263157
 40
0.9736842105263157
 40
1.0
 40
1.0
 40
1.0
 40
1.0
 10
-5.63378
 20
2.907
 30
0.0
 10
-5.63378
 20
2.907
 30
0.0
 10
-5.63378
 20
2.65211
 30
0.0
 10
-5.63378
 20
2.65211
 30
0.0
 10
-6.12951
 20
2.65211
 30
0.0
 10
-6.4555
 20
2.21912
 30
0.0
 10
-6.72106
 20
1.8641
 30
0.0
 10
-6.84053
 20
1.7044
 30
0.0
 10
-6.9754
 20
1.47235
 30
0.0
 10
-7.12416
 20
1.35687
 30
0.0
 10
-7.17604
 20
1.31659
 30
0.0
 10
-7.19832
 20
1.32305
 30
0.0
 10
-7.21777
 20
1.25019
 30
0.0
 10
-7.09123
 20
1.21641
 30
0.0
 10
-6.84198
 20
0.89612
 30
0.0
 10
-6.74961
 20
0.7716
 30
0.0
 10
-6.62906
 20
0.60908
 30
0.0
 10
-6.44743
 20
0.36669
 30
0.0
 10
-6.30016
 20
0.2561
 30
0.0
 10
-6.07372
 20
0.08608
 30
0.0
 10
-5.97781
 20
0.10879
 30
0.0
 10
-5.85227
 20
0.04856
 30
0.0
 10
-5.85227
 20
-0.14356
 30
0.0
 10
-5.8404
 20
-0.31477
 30
0.0
 10
-5.65515
 20
-0.46438
 30
0.0
 10
-5.44241
 20
-0.63619
 30
0.0
 10
-5.27538
 20
-0.6615
 30
0.0
 10
-4.99655
 20
-0.6615
 30
0.0
 10
-4.69011
 20
-0.6615
 30
0.0
 10
-3.92391
 20
-0.27183
 30
0.0
 10
-3.57612
 20
-0.11561
 30
0.0
 10
-3.57612
 20
-0.11561
 30
0.0
 10
-2.66562
 20
0.28477
 30
0.0
 10
-2.66562
 20
0.28477
 30
0.0
 10
-2.30497
 20
0.44398
 30
0.0
 10
-1.62348
 20
0.71522
 30
0.0
 10
-1.3006
 20
0.88606
 30
0.0
 10
-1.32687
 20
0.99885
 30
0.0
 10
-1.39681
 20
1.05725
 30
0.0
 10
-1.40984
 20
1.21378
 30
0.0
 10
-1.7128
 20
1.21378
 30
0.0
 10
-2.85563
 20
0.70789
 30
0.0
 10
-3.03023
 20
0.704
 30
0.0
 10
-3.02696
 20
0.70684
 30
0.0
 10
-3.02143
 20
0.71505
 30
0.0
 10
-3.01986
 20
0.71182
 30
0.0
 10
-3.01986
 20
0.71182
 30
0.0
 10
-2.90863
 20
0.78267
 30
0.0
 10
-2.90863
 20
0.78267
 30
0.0
 10
-2.68751
 20
0.90387
 30
0.0
 10
-2.61454
 20
0.95031
 30
0.0
 10
-2.37197
 20
1.04711
 30
0.0
 10
-2.31353
 20
1.07042
 30
0.0
 10
-2.2908
 20
1.08529
 30
0.0
 10
-2.23444
 20
1.10984
 30
0.0
 10
-2.14486
 20
1.14886
 30
0.0
 10
-2.03371
 20
1.19145
 30
0.0
 10
-1.93783
 20
1.21378
 30
0.0
 10
-1.93783
 20
1.21378
 30
0.0
 10
-2.0658
 20
1.24967
 30
0.0
 10
-2.0658
 20
1.24967
 30
0.0
 10
-2.12572
 20
1.25351
 30
0.0
 10
-2.16079
 20
1.249
 30
0.0
 10
-2.22144
 20
1.25789
 30
0.0
 10
-2.30284
 20
1.26983
 30
0.0
 10
-2.44853
 20
1.28287
 30
0.0
 10
-2.52036
 20
1.2867
 30
0.0
 10
-2.71823
 20
1.29725
 30
0.0
 10
-2.97804
 20
1.28699
 30
0.0
 10
-3.16536
 20
1.31534
 30
0.0
 10
-3.16536
 20
1.31534
 30
0.0
 10
-3.81269
 20
1.34166
 30
0.0
 10
-3.81269
 20
1.34166
 30
0.0
 10
-4.04665
 20
1.34068
 30
0.0
 10
-4.33816
 20
1.37764
 30
0.0
 10
-4.45035
 20
1.37764
 30
0.0
 10
-4.45035
 20
1.37764
 30
0.0
 10
-4.45035
 20
1.39585
 30
0.0
 10
-4.45035
 20
1.39585
 30
0.0
 10
-4.3188
 20
1.39585
 30
0.0
 10
-4.21354
 20
1.42183
 30
0.0
 10
-4.08673
 20
1.43277
 30
0.0
 10
-3.96468
 20
1.4433
 30
0.0
 10
-3.8333
 20
1.46832
 30
0.0
 10
-3.70388
 20
1.46868
 30
0.0
 10
-3.57091
 20
1.46904
 30
0.0
 10
-3.46002
 20
1.48692
 30
0.0
 10
-3.30333
 20
1.48689
 30
0.0
 10
-3.16483
 20
1.48685
 30
0.0
 10
-3.02499
 20
1.4821
 30
0.0
 10
-2.8869
 20
1.4894
 30
0.0
 10
-2.72772
 20
1.49781
 30
0.0
 10
-2.3787
 20
1.51394
 30
0.0
 10
-2.13042
 20
1.47636
 30
0.0
 10
-2.06158
 20
1.46594
 30
0.0
 10
-2.00867
 20
1.46908
 30
0.0
 10
-1.93726
 20
1.46925
 30
0.0
 10
-1.93726
 20
1.46925
 30
0.0
 10
-1.35522
 20
1.41405
 30
0.0
 10
-1.35522
 20
1.41405
 30
0.0
 10
-1.27659
 20
1.57792
 30
0.0
 10
-1.35197
 20
1.50193
 30
0.0
 10
-1.19136
 20
1.74177
 30
0.0
 10
-1.3033
 20
1.81674
 30
0.0
 10
-2.65788
 20
3.22763
 30
0.0
 10
-2.89837
 20
3.43941
 30
0.0
 10
-3.2703
 20
3.76693
 30
0.0
 10
-3.7051
 20
4.10864
 30
0.0
 10
-4.28649
 20
4.10864
 30
0.0
 10
-4.80771
 20
4.10864
 30
0.0
 10
-5.29236
 20
3.80314
 30
0.0
 10
-5.4945
 20
3.40495
 30
0.0
 10
-5.56225
 20
3.27151
 30
0.0
 10
-5.63378
 20
3.09843
 30
0.0
 10
-5.63378
 20
2.907
 30
0.0
  0
SPLINE
  5
68
330
1F
100
AcDbEntity
  8
layer 1
100
AcDbSpline
210
0.0
220
0.0
230
1.0
 70
    27
 71
     3
 72
    11
 73
     7
 74
     0
 42
0.0000000001
 43
0.0000000001
 40
0.0
 40
0.0
 40
0.0
 40
0.0
 40
0.5
 40
0.5
 40
0.5
 40
1.0
 40
1.0
 40
1.0
 40
1.0
 10
1.86737
 20
-0.69792
 30
0.0
 10
1.86737
 20
-0.69792
 30
0.0
 10
1.90651
 20
-0.70793
 30
0.0
 10
1.90651
 20
-0.70793
 30
0.0
 10
1.90651
 20
-0.70793
 30
0.0
 10
1.86737
 20
-0.69792
 30
0.0
 10
1.86737
 20
-0.69792
 30
0.0
  0
SPLINE
  5
69
330
1F
100
AcDbEntity
  8
layer 1
100
AcDbSpline
210
0.0
220
0.0
230
1.0
 70
    27
 71
     3
 72
    11
 73
     7
 74
     0
 42
0.0000000001
 43
0.0000000001
 40
0.0
 40
0.0
 40
0.0
 40
0.0
 40
0.5
 40
0.5
 40
0.5
 40
1.0
 40
1.0
 40
1.0
 40
1.0
 10
0.13773
 20
-0.07889
 30
0.0
 10
0.13773
 20
-0.07889
 30
0.0
 10
0.15867
 20
-0.11439
 30
0.0
 10
0.15867
 20
-0.11439
 30
0.0
 10
0.15867
 20
-0.11439
 30
0.0
 10
0.13773
 20
-0.07889
 30
0.0
 10
0.13773
 20
-0.07889
 30
0.0
  0
SPLINE
  5
6A
330
1F
100
AcDbEntity
  8
layer 1
100
AcDbSpline
210
0.0
220
0.0
230
1.0
 70
    11
 71
     3
 72
   101
 73
    97
 74
     0
 42
0.0000000001
 43
0.0000000001
 40
0.0
 40
0.0
 40
0.0
 40
0.0
 40
0.03125
 40
0.03125
 40
0.03125
 40
0.0625
 40
0.0625
 40
0.0625
 40
0.09375
 40
0.09375
 40
0.09375
 40
0.125
 40
0.125
 40
0.125
 40
0.15625
 40
0.15625
 40
0.15625
 40
0.1875
 40
0.1875
 40
0.1875
 40
0.21875
 40
0.21875
 40
0.21875
 40
0.25
 40
0.25
 40
0.25
 40
0.28125
 40
0.28125
 40
0.28125
 40
0.3125
 40
0.3125
 40
0.3125
 40
0.34375
 40
0.34375
 40
0.34375
 40
0.375
 40
0.375
 40
0.375
 40
0.40625
 40
0.40625
 40
0.40625
 40
0.4375
 40
0.4375
 40
0.4375
 40
0.46875
 40
0.46875
 40
0.46875
 40
0.5
 40
0.5
 40
0.5
 40
0.53125
 40
0.53125
 40
0.53125
 40
0.5625
 40
0.5625
 40
0.5625
 40
0.59375
 40
0.59375
 40
0.59375
 40
0.625
 40
0.625
 40
0.625
 40
0.65625
 40
0.65625
 40
0.65625
 40
0.6875
 40
0.6875
 40
0.6875
 40
0.71875
 40
0.71875
 40
0.71875
 40
0.75
 40
0.75
 40
0.75
 40
0.78125
 40
0.78125
 40
0.78125
 40
0.8125
 40
0.8125
 40
0.8125
 40
0.84375
 40
0.84375
 40
0.84375
 40
0.875
 40
0.875
 40
0.875
 40
0.90625
 40
0.90625
 40
0.90625
 40
0.9375
 40
0.9375
 40
0.9375
 40
0.96875
 40
0.96875
 40
0.96875
 40
1.0
 40
1.0
 40
1.0
 40
1.0
 10
1.86737
 20
-0.69792
 30
0.0
 10
1.74927
 20
-0.68809
 30
0.0
 10
1.41987
 20
-0.54642
 30
0.0
 10
1.32088
 20
-0.49793
 30
0.0
 10
1.23029
 20
-0.45355
 30
0.0
 10
1.16648
 20
-0.41093
 30
0.0
 10
1.07219
 20
-0.36427
 30
0.0
 10
0.99228
 20
-0.32474
 30
0.0
 10
0.89738
 20
-0.26994
 30
0.0
 10
0.82959
 20
-0.22455
 30
0.0
 10
0.85177
 20
-0.30765
 30
0.0
 10
1.06902
 20
-0.57343
 30
0.0
 10
1.13189
 20
-0.66871
 30
0.0
 10
1.36873
 20
-1.02768
 30
0.0
 10
1.65704
 20
-1.38949
 30
0.0
 10
1.89353
 20
-1.78236
 30
0.0
 10
1.89353
 20
-1.78236
 30
0.0
 10
2.03123
 20
-2.027
 30
0.0
 10
2.03123
 20
-2.027
 30
0.0
 10
1.86305
 20
-1.91439
 30
0.0
 10
1.27628
 20
-1.18669
 30
0.0
 10
1.13942
 20
-1.00711
 30
0.0
 10
1.13942
 20
-1.00711
 30
0.0
 10
0.84779
 20
-0.6433
 30
0.0
 10
0.84779
 20
-0.6433
 30
0.0
 10
0.85199
 20
-0.69379
 30
0.0
 10
1.08448
 20
-1.42446
 30
0.0
 10
1.08448
 20
-1.62646
 30
0.0
 10
1.06303
 20
-1.60179
 30
0.0
 10
1.0778
 20
-1.62591
 30
0.0
 10
1.05595
 20
-1.58216
 30
0.0
 10
1.05595
 20
-1.58216
 30
0.0
 10
0.97473
 20
-1.39028
 30
0.0
 10
0.97473
 20
-1.39028
 30
0.0
 10
0.9398
 20
-1.31061
 30
0.0
 10
0.90574
 20
-1.23534
 30
0.0
 10
0.87117
 20
-1.14791
 30
0.0
 10
0.72014
 20
-0.76584
 30
0.0
 10
0.5422
 20
-0.30618
 30
0.0
 10
0.32005
 20
0.03061
 30
0.0
 10
0.27309
 20
0.1018
 30
0.0
 10
0.18821
 20
0.19613
 30
0.0
 10
0.17415
 20
0.24883
 30
0.0
 10
-0.02756
 20
0.23204
 30
0.0
 10
0.13773
 20
0.16225
 30
0.0
 10
0.13773
 20
-0.07889
 30
0.0
 10
0.09315
 20
-0.02761
 30
0.0
 10
0.0546
 20
0.08264
 30
0.0
 10
-0.00792
 20
0.176
 30
0.0
 10
-0.07814
 20
0.17016
 30
0.0
 10
-0.07962
 20
0.1578
 30
0.0
 10
-0.17178
 20
0.1578
 30
0.0
 10
-0.17178
 20
-0.59186
 30
0.0
 10
-0.15357
 20
-1.28936
 30
0.0
 10
-0.15357
 20
-2.04521
 30
0.0
 10
-0.15357
 20
-2.41913
 30
0.0
 10
-0.13678
 20
-2.77309
 30
0.0
 10
-0.06637
 20
-3.06861
 30
0.0
 10
0.04164
 20
-3.52196
 30
0.0
 10
0.1849
 20
-3.83357
 30
0.0
 10
0.55376
 20
-4.1235
 30
0.0
 10
0.91238
 20
-4.40538
 30
0.0
 10
1.41651
 20
-4.46469
 30
0.0
 10
1.87854
 20
-4.35043
 30
0.0
 10
2.4309
 20
-4.21383
 30
0.0
 10
2.90514
 20
-3.67579
 30
0.0
 10
2.90514
 20
-3.13761
 30
0.0
 10
3.2245
 20
-3.21201
 30
0.0
 10
3.48191
 20
-3.28465
 30
0.0
 10
3.86259
 20
-3.07549
 30
0.0
 10
4.49054
 20
-2.73046
 30
0.0
 10
4.71515
 20
-1.91942
 30
0.0
 10
4.25278
 20
-1.31661
 30
0.0
 10
4.22614
 20
-1.28188
 30
0.0
 10
4.2143
 20
-1.27313
 30
0.0
 10
4.18526
 20
-1.23848
 30
0.0
 10
3.97049
 20
-0.98221
 30
0.0
 10
3.85052
 20
-0.9626
 30
0.0
 10
3.56657
 20
-0.81938
 30
0.0
 10
3.56657
 20
-0.81938
 30
0.0
 10
2.55154
 20
-0.35968
 30
0.0
 10
2.55154
 20
-0.35968
 30
0.0
 10
2.46876
 20
-0.32551
 30
0.0
 10
2.42876
 20
-0.30525
 30
0.0
 10
2.35291
 20
-0.26699
 30
0.0
 10
2.25132
 20
-0.21575
 30
0.0
 10
0.68198
 20
0.53883
 30
0.0
 10
0.52007
 20
0.57655
 30
0.0
 10
0.47796
 20
0.49695
 30
0.0
 10
0.42308
 20
0.44895
 30
0.0
 10
0.37442
 20
0.37628
 30
0.0
 10
0.46005
 20
0.24839
 30
0.0
 10
0.55169
 20
0.13656
 30
0.0
 10
0.67101
 20
0.03564
 30
0.0
 10
0.93411
 20
-0.1869
 30
0.0
 10
1.7588
 20
-0.60355
 30
0.0
 10
1.86737
 20
-0.69792
 30
0.0
  0
SPLINE
  5
6B
330
1F
100
AcDbEntity
  8
layer 1
100
AcDbSpline
210
0.0
220
0.0
230
1.0
 70
    27
 71
     3
 72
    11
 73
     7
 74
     0
 42
0.0000000001
 43
0.0000000001
 40
0.0
 40
0.0
 40
0.0
 40
0.0
 40
1.0
 40
1.0
 40
1.0
 40
2.246195383798223
 40
2.246195383798223
 40
2.246195383798223
 40
2.246195383798223
 10
-1.39163
 20
-1.77211
 30
0.0
 10
-1.39163
 20
-1.77211
 30
0.0
 10
-2.61148
 20
-2.027
 30
0.0
 10
-2.61148
 20
-2.027
 30
0.0
 10
-2.61148
 20
-2.027
 30
0.0
 10
-1.39163
 20
-1.77211
 30
0.0
 10
-1.39163
 20
-1.77211
 30
0.0
  0
SPLINE
  5
6C
330
1F
100
AcDbEntity
  8
layer 1
100
AcDbSpline
210
0.0
220
0.0
230
1.0
 70
    11
 71
     3
 72
   116
 73
   112
 74
     0
 42
0.0000000001
 43
0.0000000001
 40
0.0
 40
0.0
 40
0.0
 40
0.0
 40
0.027027027027027
 40
0.027027027027027
 40
0.027027027027027
 40
0.0540540540540541
 40
0.0540540540540541
 40
0.0540540540540541
 40
0.0810810810810811
 40
0.0810810810810811
 40
0.0810810810810811
 40
0.1081081081081081
 40
0.1081081081081081
 40
0.1081081081081081
 40
0.1351351351351351
 40
0.1351351351351351
 40
0.1351351351351351
 40
0.1621621621621622
 40
0.1621621621621622
 40
0.1621621621621622
 40
0.1891891891891892
 40
0.1891891891891892
 40
0.1891891891891892
 40
0.2162162162162162
 40
0.2162162162162162
 40
0.2162162162162162
 40
0.2432432432432433
 40
0.2432432432432433
 40
0.2432432432432433
 40
0.2702702702702703
 40
0.2702702702702703
 40
0.2702702702702703
 40
0.2972972972972973
 40
0.2972972972972973
 40
0.2972972972972973
 40
0.3243243243243243
 40
0.3243243243243243
 40
0.3243243243243243
 40
0.3513513513513514
 40
0.3513513513513514
 40
0.3513513513513514
 40
0.3783783783783784
 40
0.3783783783783784
 40
0.3783783783783784
 40
0.4054054054054054
 40
0.4054054054054054
 40
0.4054054054054054
 40
0.4324324324324325
 40
0.4324324324324325
 40
0.4324324324324325
 40
0.4594594594594595
 40
0.4594594594594595
 40
0.4594594594594595
 40
0.4864864864864865
 40
0.4864864864864865
 40
0.4864864864864865
 40
0.5135135135135136
 40
0.5135135135135136
 40
0.5135135135135136
 40
0.5405405405405406
 40
0.5405405405405406
 40
0.5405405405405406
 40
0.5675675675675675
 40
0.5675675675675675
 40
0.5675675675675675
 40
0.5945945945945946
 40
0.5945945945945946
 40
0.5945945945945946
 40
0.6216216216216217
 40
0.6216216216216217
 40
0.6216216216216217
 40
0.6486486486486487
 40
0.6486486486486487
 40
0.6486486486486487
 40
0.6756756756756757
 40
0.6756756756756757
 40
0.6756756756756757
 40
0.7027027027027027
 40
0.7027027027027027
 40
0.7027027027027027
 40
0.7297297297297298
 40
0.7297297297297298
 40
0.7297297297297298
 40
0.7567567567567568
 40
0.7567567567567568
 40
0.7567567567567568
 40
0.7837837837837838
 40
0.7837837837837838
 40
0.7837837837837838
 40
0.8108108108108109
 40
0.8108108108108109
 40
0.8108108108108109
 40
0.8378378378378379
 40
0.8378378378378379
 40
0.8378378378378379
 40
0.8648648648648649
 40
0.8648648648648649
 40
0.8648648648648649
 40
0.8918918918918919
 40
0.8918918918918919
 40
0.8918918918918919
 40
0.918918918918919
 40
0.918918918918919
 40
0.918918918918919
 40
0.945945945945946
 40
0.945945945945946
 40
0.945945945945946
 40
0.972972972972973
 40
0.972972972972973
 40
0.972972972972973
 40
1.0
 40
1.0
 40
1.0
 40
1.0
 10
-1.39163
 20
-1.77211
 30
0.0
 10
-1.38479
 20
-1.6899
 30
0.0
 10
-1.33927
 20
-1.60819
 30
0.0
 10
-1.31167
 20
-1.52435
 30
0.0
 10
-1.31167
 20
-1.52435
 30
0.0
 10
-0.71799
 20
0.21242
 30
0.0
 10
-0.71799
 20
0.21242
 30
0.0
 10
-0.74863
 20
0.22761
 30
0.0
 10
-0.74998
 20
0.22916
 30
0.0
 10
-0.7726
 20
0.24883
 30
0.0
 10
-0.85073
 20
0.19651
 30
0.0
 10
-1.43707
 20
-0.64438
 30
0.0
 10
-1.52978
 20
-0.77824
 30
0.0
 10
-1.66751
 20
-0.97712
 30
0.0
 10
-2.41284
 20
-1.89399
 30
0.0
 10
-2.61148
 20
-2.027
 30
0.0
 10
-2.5969
 20
-1.9724
 30
0.0
 10
-2.57533
 20
-1.95543
 30
0.0
 10
-2.54375
 20
-1.91266
 30
0.0
 10
-2.51512
 20
-1.87388
 30
0.0
 10
-2.4993
 20
-1.84346
 30
0.0
 10
-2.47369
 20
-1.80066
 30
0.0
 10
-2.4236
 20
-1.71693
 30
0.0
 10
-2.38724
 20
-1.65327
 30
0.0
 10
-2.33472
 20
-1.5755
 30
0.0
 10
-2.23418
 20
-1.42662
 30
0.0
 10
-2.15058
 20
-1.28098
 30
0.0
 10
-2.0507
 20
-1.13125
 30
0.0
 10
-2.0507
 20
-1.13125
 30
0.0
 10
-1.48266
 20
-0.24275
 30
0.0
 10
-1.48266
 20
-0.24275
 30
0.0
 10
-1.74455
 20
-0.41811
 30
0.0
 10
-2.46508
 20
-0.87389
 30
0.0
 10
-2.75713
 20
-0.89819
 30
0.0
 10
-2.75713
 20
-0.89819
 30
0.0
 10
-1.84579
 20
-0.31659
 30
0.0
 10
-1.84579
 20
-0.31659
 30
0.0
 10
-1.6424
 20
-0.19491
 30
0.0
 10
-1.35262
 20
-0.02123
 30
0.0
 10
-1.19664
 20
0.16308
 30
0.0
 10
-0.98394
 20
0.41441
 30
0.0
 10
-1.04431
 20
0.41001
 30
0.0
 10
-1.11018
 20
0.49387
 30
0.0
 10
-1.14903
 20
0.54332
 30
0.0
 10
-1.1406
 20
0.54256
 30
0.0
 10
-1.19136
 20
0.57655
 30
0.0
 10
-1.28572
 20
0.55457
 30
0.0
 10
-1.31651
 20
0.52932
 30
0.0
 10
-1.39763
 20
0.49151
 30
0.0
 10
-1.47388
 20
0.45596
 30
0.0
 10
-1.52365
 20
0.438
 30
0.0
 10
-1.59798
 20
0.40056
 30
0.0
 10
-1.59798
 20
0.40056
 30
0.0
 10
-3.97089
 20
-0.72221
 30
0.0
 10
-3.97089
 20
-0.72221
 30
0.0
 10
-4.11411
 20
-0.791
 30
0.0
 10
-4.24261
 20
-0.83964
 30
0.0
 10
-4.38362
 20
-0.91031
 30
0.0
 10
-5.15743
 20
-1.2981
 30
0.0
 10
-5.35138
 20
-2.21649
 30
0.0
 10
-4.80184
 20
-2.81545
 30
0.0
 10
-4.78632
 20
-2.83237
 30
0.0
 10
-4.78222
 20
-2.83798
 30
0.0
 10
-4.76739
 20
-2.85383
 30
0.0
 10
-4.75691
 20
-2.86503
 30
0.0
 10
-4.74265
 20
-2.87956
 30
0.0
 10
-4.73138
 20
-2.89065
 30
0.0
 10
-4.72871
 20
-2.89327
 30
0.0
 10
-4.72485
 20
-2.89703
 30
0.0
 10
-4.72215
 20
-2.89963
 30
0.0
 10
-4.72215
 20
-2.89963
 30
0.0
 10
-4.65531
 20
-2.96023
 30
0.0
 10
-4.65531
 20
-2.96023
 30
0.0
 10
-4.60434
 20
-3.00317
 30
0.0
 10
-4.54114
 20
-3.0413
 30
0.0
 10
-4.47924
 20
-3.07547
 30
0.0
 10
-4.23724
 20
-3.20905
 30
0.0
 10
-3.795
 20
-3.27743
 30
0.0
 10
-3.5036
 20
-3.13761
 30
0.0
 10
-3.5036
 20
-3.69568
 30
0.0
 10
-3.02791
 20
-4.20998
 30
0.0
 10
-2.50627
 20
-4.34328
 30
0.0
 10
-1.57274
 20
-4.58185
 30
0.0
 10
-0.79092
 20
-4.0242
 30
0.0
 10
-0.60386
 20
-3.05146
 30
0.0
 10
-0.56821
 20
-2.86606
 30
0.0
 10
-0.56882
 20
-2.73569
 30
0.0
 10
-0.54358
 20
-2.56554
 30
0.0
 10
-0.51313
 20
-2.36027
 30
0.0
 10
-0.51696
 20
-1.08989
 30
0.0
 10
-0.51795
 20
-0.91616
 30
0.0
 10
-0.51795
 20
-0.91616
 30
0.0
 10
-0.49797
 20
0.13095
 30
0.0
 10
-0.49797
 20
0.13095
 30
0.0
 10
-0.50035
 20
0.15899
 30
0.0
 10
-0.60923
 20
0.1595
 30
0.0
 10
-0.68157
 20
0.19421
 30
0.0
 10
-0.68348
 20
0.10846
 30
0.0
 10
-0.71977
 20
0.00879
 30
0.0
 10
-0.7377
 20
-0.07739
 30
0.0
 10
-0.80449
 20
-0.39851
 30
0.0
 10
-0.85158
 20
-0.54457
 30
0.0
 10
-0.95679
 20
-0.85966
 30
0.0
 10
-0.98349
 20
-0.93961
 30
0.0
 10
-1.01556
 20
-1.01391
 30
0.0
 10
-1.04831
 20
-1.09586
 30
0.0
 10
-1.07876
 20
-1.17205
 30
0.0
 10
-1.10988
 20
-1.26099
 30
0.0
 10
-1.14863
 20
-1.34146
 30
0.0
 10
-1.18374
 20
-1.41437
 30
0.0
 10
-1.33109
 20
-1.72775
 30
0.0
 10
-1.39163
 20
-1.77211
 30
0.0
  0
SPLINE
  5
6D
330
1F
100
AcDbEntity
  8
layer 1
100
AcDbSpline
210
0.0
220
0.0
230
1.0
 70
    11
 71
     3
 72
    50
 73
    46
 74
     0
 42
0.0000000001
 43
0.0000000001
 40
0.0
 40
0.0
 40
0.0
 40
0.0
 40
0.0666666666666667
 40
0.0666666666666667
 40
0.0666666666666667
 40
0.1333333333333333
 40
0.1333333333333333
 40
0.1333333333333333
 40
0.2
 40
0.2
 40
0.2
 40
0.2666666666666667
 40
0.2666666666666667
 40
0.2666666666666667
 40
0.3333333333333333
 40
0.3333333333333333
 40
0.3333333333333333
 40
0.4
 40
0.4
 40
0.4
 40
0.4666666666666667
 40
0.4666666666666667
 40
0.4666666666666667
 40
0.5333333333333333
 40
0.5333333333333333
 40
0.5333333333333333
 40
0.6
 40
0.6
 40
0.6
 40
0.6666666666666666
 40
0.6666666666666666
 40
0.6666666666666666
 40
0.7333333333333333
 40
0.7333333333333333
 40
0.7333333333333333
 40
0.8
 40
0.8
 40
0.8
 40
0.8666666666666667
 40
0.8666666666666667
 40
0.8666666666666667
 40
0.9333333333333333
 40
0.9333333333333333
 40
0.9333333333333333
 40
1.0
 40
1.0
 40
1.0
 40
1.0
 10
2.39536
 20
3.92658
 30
0.0
 10
2.48447
 20
3.94734
 30
0.0
 10
2.57943
 20
4.02553
 30
0.0
 10
2.65006
 20
4.07242
 30
0.0
 10
2.73387
 20
4.12807
 30
0.0
 10
2.8196
 20
4.1765
 30
0.0
 10
2.90868
 20
4.23256
 30
0.0
 10
3.23291
 20
4.43662
 30
0.0
 10
3.38534
 20
4.52206
 30
0.0
 10
3.72181
 20
4.65748
 30
0.0
 10
3.72181
 20
4.65748
 30
0.0
 10
4.35786
 20
4.85894
 30
0.0
 10
4.35786
 20
4.85894
 30
0.0
 10
4.46346
 20
4.88399
 30
0.0
 10
4.59565
 20
4.90187
 30
0.0
 10
4.70761
 20
4.92794
 30
0.0
 10
4.68983
 20
5.00424
 30
0.0
 10
4.66611
 20
5.05695
 30
0.0
 10
4.62758
 20
5.12101
 30
0.0
 10
4.583
 20
5.19513
 30
0.0
 10
4.54677
 20
5.21498
 30
0.0
 10
4.50734
 20
5.27387
 30
0.0
 10
4.50734
 20
5.27387
 30
0.0
 10
4.63493
 20
5.65606
 30
0.0
 10
4.63493
 20
5.65606
 30
0.0
 10
4.67191
 20
5.79522
 30
0.0
 10
4.69246
 20
5.95002
 30
0.0
 10
4.72581
 20
6.09317
 30
0.0
 10
4.56038
 20
6.09317
 30
0.0
 10
4.45167
 20
6.08373
 30
0.0
 10
4.30767
 20
6.07435
 30
0.0
 10
4.1766
 20
6.06581
 30
0.0
 10
4.04497
 20
6.02035
 30
0.0
 10
3.92472
 20
6.02035
 30
0.0
 10
3.87813
 20
6.02035
 30
0.0
 10
3.69378
 20
6.1883
 30
0.0
 10
3.52417
 20
6.20241
 30
0.0
 10
3.50344
 20
5.95328
 30
0.0
 10
3.36142
 20
5.44634
 30
0.0
 10
3.25107
 20
5.21925
 30
0.0
 10
3.22626
 20
5.16818
 30
0.0
 10
3.21197
 20
5.12273
 30
0.0
 10
3.18482
 20
5.06703
 30
0.0
 10
2.94342
 20
4.57169
 30
0.0
 10
2.64965
 20
4.30632
 30
0.0
 10
2.39536
 20
3.92658
 30
0.0
  0
SPLINE
  5
6E
330
1F
100
AcDbEntity
  8
layer 1
100
AcDbSpline
210
0.0
220
0.0
230
1.0
 70
    11
 71
     3
 72
    35
 73
    31
 74
     0
 42
0.0000000001
 43
0.0000000001
 40
0.0
 40
0.0
 40
0.0
 40
0.0
 40
0.1
 40
0.1
 40
0.1
 40
0.2
 40
0.2
 40
0.2
 40
0.3
 40
0.3
 40
0.3
 40
0.4
 40
0.4
 40
0.4
 40
0.5
 40
0.5
 40
0.5
 40
0.6000000000000001
 40
0.6000000000000001
 40
0.6000000000000001
 40
0.7000000000000001
 40
0.7000000000000001
 40
0.7000000000000001
 40
0.8
 40
0.8
 40
0.8
 40
0.9
 40
0.9
 40
0.9
 40
1.0
 40
1.0
 40
1.0
 40
1.0
 10
-4.52318
 20
6.02035
 30
0.0
 10
-4.65207
 20
6.02035
 30
0.0
 10
-4.92908
 20
6.09317
 30
0.0
 10
-5.36069
 20
6.09317
 30
0.0
 10
-5.36069
 20
5.88407
 30
0.0
 10
-5.26769
 20
5.61114
 30
0.0
 10
-5.20829
 20
5.44447
 30
0.0
 10
-5.14877
 20
5.27749
 30
0.0
 10
-5.10212
 20
5.31447
 30
0.0
 10
-5.21906
 20
5.18698
 30
0.0
 10
-5.27017
 20
5.13127
 30
0.0
 10
-5.34189
 20
5.00863
 30
0.0
 10
-5.36069
 20
4.92794
 30
0.0
 10
-5.2742
 20
4.92602
 30
0.0
 10
-5.11573
 20
4.88621
 30
0.0
 10
-5.02238
 20
4.86571
 30
0.0
 10
-3.96317
 20
4.63315
 30
0.0
 10
-3.15066
 20
3.95873
 30
0.0
 10
-3.03023
 20
3.92658
 30
0.0
 10
-3.04457
 20
3.98027
 30
0.0
 10
-3.07444
 20
4.00124
 30
0.0
 10
-3.11069
 20
4.0464
 30
0.0
 10
-3.51389
 20
4.54875
 30
0.0
 10
-3.78358
 20
4.83914
 30
0.0
 10
-4.00415
 20
5.5016
 30
0.0
 10
-4.06076
 20
5.67162
 30
0.0
 10
-4.15904
 20
5.99796
 30
0.0
 10
-4.15904
 20
6.20241
 30
0.0
 10
-4.32379
 20
6.18871
 30
0.0
 10
-4.50931
 20
6.02035
 30
0.0
 10
-4.52318
 20
6.02035
 30
0.0
  0
SPLINE
  5
6F
330
1F
100
AcDbEntity
  8
layer 1
100
AcDbSpline
210
0.0
220
0.0
230
1.0
 70
    11
 71
     3
 72
    47
 73
    43
 74
     0
 42
0.0000000001
 43
0.0000000001
 40
0.0
 40
0.0
 40
0.0
 40
0.0
 40
0.0714285714285714
 40
0.0714285714285714
 40
0.0714285714285714
 40
0.1428571428571428
 40
0.1428571428571428
 40
0.1428571428571428
 40
0.2142857142857143
 40
0.2142857142857143
 40
0.2142857142857143
 40
0.2857142857142857
 40
0.2857142857142857
 40
0.2857142857142857
 40
0.3571428571428571
 40
0.3571428571428571
 40
0.3571428571428571
 40
0.4285714285714285
 40
0.4285714285714285
 40
0.4285714285714285
 40
0.5
 40
0.5
 40
0.5
 40
0.5714285714285714
 40
0.5714285714285714
 40
0.5714285714285714
 40
0.6428571428571428
 40
0.6428571428571428
 40
0.6428571428571428
 40
0.7142857142857142
 40
0.7142857142857142
 40
0.7142857142857142
 40
0.7857142857142857
 40
0.7857142857142857
 40
0.7857142857142857
 40
0.8571428571428571
 40
0.8571428571428571
 40
0.8571428571428571
 40
0.9285714285714285
 40
0.9285714285714285
 40
0.9285714285714285
 40
1.0
 40
1.0
 40
1.0
 40
1.0
 10
-1.17315
 20
-4.63056
 30
0.0
 10
-1.11073
 20
-4.64723
 30
0.0
 10
-0.98752
 20
-4.78264
 30
0.0
 10
-0.94413
 20
-4.8385
 30
0.0
 10
-0.86048
 20
-4.94619
 30
0.0
 10
-0.40328
 20
-5.51381
 30
0.0
 10
-0.33564
 20
-5.5591
 30
0.0
 10
-0.25107
 20
-5.53652
 30
0.0
 10
-0.16738
 20
-5.40938
 30
0.0
 10
-0.11481
 20
-5.34298
 30
0.0
 10
-0.11481
 20
-5.34298
 30
0.0
 10
0.28335
 20
-4.84901
 30
0.0
 10
0.28335
 20
-4.84901
 30
0.0
 10
0.34891
 20
-4.76388
 30
0.0
 10
0.4469
 20
-4.69444
 30
0.0
 10
0.50187
 20
-4.61235
 30
0.0
 10
0.50187
 20
-4.61235
 30
0.0
 10
0.31441
 20
-4.41747
 30
0.0
 10
0.31441
 20
-4.41747
 30
0.0
 10
0.24738
 20
-4.33768
 30
0.0
 10
0.22442
 20
-4.33708
 30
0.0
 10
0.13023
 20
-4.2011
 30
0.0
 10
0.08816
 20
-4.14037
 30
0.0
 10
0.05529
 20
-4.10205
 30
0.0
 10
0.01785
 20
-4.04039
 30
0.0
 10
-0.15507
 20
-3.75565
 30
0.0
 10
-0.11389
 20
-3.81517
 30
0.0
 10
-0.25697
 20
-3.53231
 30
0.0
 10
-0.2931
 20
-3.46087
 30
0.0
 10
-0.30498
 20
-3.40179
 30
0.0
 10
-0.33564
 20
-3.33788
 30
0.0
 10
-0.33564
 20
-3.33788
 30
0.0
 10
-0.59615
 20
-3.86027
 30
0.0
 10
-0.59615
 20
-3.86027
 30
0.0
 10
-0.63298
 20
-3.92611
 30
0.0
 10
-0.65767
 20
-3.97172
 30
0.0
 10
-0.6962
 20
-4.03332
 30
0.0
 10
-0.6962
 20
-4.03332
 30
0.0
 10
-1.05022
 20
-4.48039
 30
0.0
 10
-1.05022
 20
-4.48039
 30
0.0
 10
-1.09852
 20
-4.52813
 30
0.0
 10
-1.15441
 20
-4.56036
 30
0.0
 10
-1.17315
 20
-4.63056
 30
0.0
  0
ENDSEC
  0
SECTION
  2
OBJECTS
  0
DICTIONARY
  5
C
330
0
100
AcDbDictionary
281
     1
  3
ACAD_DETAILVIEWSTYLE
350
77
  3
ACAD_GROUP
350
D
  3
ACAD_LAYOUT
350
1A
  3
ACAD_MATERIAL
350
43
  3
ACAD_MLEADERSTYLE
350
5B
  3
ACAD_MLINESTYLE
350
17
  3
ACAD_PLOTSETTINGS
350
19
  3
ACAD_PLOTSTYLENAME
350
E
  3
ACAD_SCALELIST
350
47
  3
ACAD_SECTIONVIEWSTYLE
350
78
  3
ACAD_TABLESTYLE
350
59
  3
ACAD_VISUALSTYLE
350
2A
  3
ACDB_RECOMPOSE_DATA
350
74
  3
AcDbVariableDictionary
350
70
  0
SUN
  5
5D
330
29
100
AcDbSun
 90
        1
290
     0
 63
     7
421
 16777215
 40
1.0
291
     1
 91
  2455826
 92
 54000000
292
     0
 70
     2
 71
   256
280
     1
  0
DICTIONARY
  5
77
102
{ACAD_REACTORS
330
C
102
}
330
C
100
AcDbDictionary
281
     1
  0
DICTIONARY
  5
D
102
{ACAD_REACTORS
330
C
102
}
330
C
100
AcDbDictionary
281
     1
  0
DICTIONARY
  5
1A
102
{ACAD_REACTORS
330
C
102
}
330
C
100
AcDbDictionary
281
     1
  3
Layout1
350
1E
  3
Layout2
350
26
  3
Model
350
22
  0
DICTIONARY
  5
43
102
{ACAD_REACTORS
330
C
102
}
330
C
100
AcDbDictionary
281
     1
  3
ByBlock
350
45
  3
ByLayer
350
44
  3
Global
350
46
  0
DICTIONARY
  5
5B
102
{ACAD_REACTORS
330
C
102
}
330
C
100
AcDbDictionary
281
     1
  3
Standard
350
5C
  0
DICTIONARY
  5
17
102
{ACAD_REACTORS
330
C
102
}
330
C
100
AcDbDictionary
281
     1
  3
Standard
350
18
  0
DICTIONARY
  5
19
102
{ACAD_REACTORS
330
C
102
}
330
C
100
AcDbDictionary
281
     1
  0
ACDBDICTIONARYWDFLT
  5
E
102
{ACAD_REACTORS
330
C
102
}
330
C
100
AcDbDictionary
281
     1
  3
Normal
350
F
100
AcDbDictionaryWithDefault
340
F
  0
DICTIONARY
  5
47
102
{ACAD_REACTORS
330
C
102
}
330
C
100
AcDbDictionary
281
     1
  3
A0
350
48
  3
A1
350
49
  3
A2
350
4A
  3
A3
350
4B
  3
A4
350
4C
  3
A5
350
4D
  3
A6
350
4E
  3
A7
350
4F
  3
A8
350
50
  3
A9
350
51
  3
B1
350
52
  3
B2
350
53
  3
B3
350
54
  3
B4
350
55
  3
B5
350
56
  3
B6
350
57
  3
B7
350
58
  0
DICTIONARY
  5
78
102
{ACAD_REACTORS
330
C
102
}
330
C
100
AcDbDictionary
281
     1
  0
DICTIONARY
  5
59
102
{ACAD_REACTORS
330
C
102
}
330
C
100
AcDbDictionary
281
     1
  3
Standard
350
5A
  0
DICTIONARY
  5
2A
102
{ACAD_REACTORS
330
C
102
}
330
C
100
AcDbDictionary
281
     1
  3
2dWireframe
350
2F
  3
Basic
350
32
  3
Brighten
350
36
  3
ColorChange
350
3A
  3
Conceptual
350
34
  3
Dim
350
35
  3
EdgeColorOff
350
3D
  3
Facepattern
350
39
  3
Flat
350
2B
  3
FlatWithEdges
350
2C
  3
Gouraud
350
2D
  3
GouraudWithEdges
350
2E
  3
Hidden
350
31
  3
JitterOff
350
3B
  3
Linepattern
350
38
  3
OverhangOff
350
3C
  3
Realistic
350
33
  3
Shaded
350
42
  3
Shaded with edges
350
41
  3
Shades of Gray
350
3E
  3
Sketchy
350
3F
  3
Thicken
350
37
  3
Wireframe
350
30
  3
X-Ray
350
40
  0
XRECORD
  5
74
102
{ACAD_REACTORS
330
C
102
}
330
C
100
AcDbXrecord
280
     1
 90
        1
330
5A
  0
DICTIONARY
  5
70
102
{ACAD_REACTORS
330
C
102
}
330
C
100
AcDbDictionary
281
     1
  3
CANNOSCALE
350
71
  3
CMLEADERSTYLE
350
76
  3
CTABLESTYLE
350
75
  0
LAYOUT
  5
1E
102
{ACAD_REACTORS
330
1A
102
}
330
1A
100
AcDbPlotSettings
  1

  2
none_device
  4

  6

 40
0.0
 41
0.0
 42
0.0
 43
0.0
 44
0.0
 45
0.0
 46
0.0
 47
0.0
 48
0.0
 49
0.0
140
0.0
141
0.0
142
1.0
143
1.0
 70
   688
 72
     0
 73
     0
 74
     5
  7

 75
    16
 76
     0
 77
     2
 78
   300
147
1.0
148
0.0
149
0.0
100
AcDbLayout
  1
Layout1
 70
     1
 71
     1
 10
0.0
 20
0.0
 11
12.0
 21
9.0
 12
0.0
 22
0.0
 32
0.0
 14
1.000000000000000E+20
 24
1.000000000000000E+20
 34
1.000000000000000E+20
 15
-1.000000000000000E+20
 25
-1.000000000000000E+20
 35
-1.000000000000000E+20
146
0.0
 13
0.0
 23
0.0
 33
0.0
 16
1.0
 26
0.0
 36
0.0
 17
0.0
 27
1.0
 37
0.0
 76
     0
330
1B
  0
LAYOUT
  5
26
102
{ACAD_REACTORS
330
1A
102
}
330
1A
100
AcDbPlotSettings
  1

  2
none_device
  4

  6

 40
0.0
 41
0.0
 42
0.0
 43
0.0
 44
0.0
 45
0.0
 46
0.0
 47
0.0
 48
0.0
 49
0.0
140
0.0
141
0.0
142
1.0
143
1.0
 70
   688
 72
     0
 73
     0
 74
     5
  7

 75
    16
 76
     0
 77
     2
 78
   300
147
1.0
148
0.0
149
0.0
100
AcDbLayout
  1
Layout2
 70
     1
 71
     2
 10
0.0
 20
0.0
 11
0.0
 21
0.0
 12
0.0
 22
0.0
 32
0.0
 14
0.0
 24
0.0
 34
0.0
 15
0.0
 25
0.0
 35
0.0
146
0.0
 13
0.0
 23
0.0
 33
0.0
 16
1.0
 26
0.0
 36
0.0
 17
0.0
 27
1.0
 37
0.0
 76
     0
330
23
  0
LAYOUT
  5
22
102
{ACAD_REACTORS
330
1A
102
}
330
1A
100
AcDbPlotSettings
  1

  2
none_device
  4
Letter_(8.50_x_11.00_Inches)
  6

 40
6.35
 41
6.35
 42
6.35000508
 43
6.35000508
 44
215.9
 45
279.4
 46
0.0
 47
0.0
 48
0.0
 49
0.0
140
0.0
141
0.0
142
1.0
143
1.0
 70
  1712
 72
     0
 73
     0
 74
     0
  7

 75
     0
 76
     0
 77
     2
 78
   300
147
1.0
148
0.0
149
0.0
100
AcDbLayout
  1
Model
 70
     1
 71
     0
 10
0.0
 20
0.0
 11
12.0
 21
9.0
 12
0.0
 22
0.0
 32
0.0
 14
-7.21777
 24
-5.5591
 34
0.0
 15
6.61931
 25
8.40542
 35
0.0
146
0.0
 13
0.0
 23
0.0
 33
0.0
 16
1.0
 26
0.0
 36
0.0
 17
0.0
 27
1.0
 37
0.0
 76
     0
330
1F
331
29
  0
MATERIAL
  5
45
102
{ACAD_REACTORS
330
43
102
}
330
43
100
AcDbMaterial
  1
ByBlock
 72
     1
 94
      127
  0
MATERIAL
  5
44
102
{ACAD_REACTORS
330
43
102
}
330
43
100
AcDbMaterial
  1
ByLayer
 72
     1
 94
      127
  0
MATERIAL
  5
46
102
{ACAD_REACTORS
330
43
102
}
330
43
100
AcDbMaterial
  1
Global
 72
     1
 94
      127
  0
MLEADERSTYLE
  5
5C
102
{ACAD_REACTORS
330
5B
102
}
330
5B
100
AcDbMLeaderStyle
179
     2
170
     2
171
     1
172
     0
 90
        2
 40
0.0
 41
0.0
173
     1
 91
-1056964608
340
14
 92
       -2
290
     1
 42
0.09
291
     1
 43
0.36
  3
Standard
341
0
 44
0.18
300

342
11
174
     1
178
     6
175
     1
176
     0
 93
-1056964608
 45
0.18
292
     0
297
     0
 46
0.18
343
0
 94
-1056964608
 47
1.0
 49
1.0
140
1.0
293
     1
141
0.0
294
     1
177
     0
142
1.0
295
     0
296
     0
143
0.125
271
     0
272
     9
273
     9
298
     0
  0
MLINESTYLE
  5
18
102
{ACAD_REACTORS
330
17
102
}
330
17
100
AcDbMlineStyle
  2
Standard
 70
     0
  3

 62
   256
 51
90.0
 52
90.0
 71
     2
 49
0.5
 62
   256
  6
BYLAYER
 49
-0.5
 62
   256
  6
BYLAYER
  0
ACDBPLACEHOLDER
  5
F
102
{ACAD_REACTORS
330
E
102
}
330
E
  0
SCALE
  5
48
102
{ACAD_REACTORS
330
47
102
}
330
47
100
AcDbScale
 70
     0
300
1:1
140
1.0
141
1.0
290
     1
  0
SCALE
  5
49
102
{ACAD_REACTORS
330
47
102
}
330
47
100
AcDbScale
 70
     0
300
1/128" = 1'-0"
140
0.0078125
141
12.0
290
     0
  0
SCALE
  5
4A
102
{ACAD_REACTORS
330
47
102
}
330
47
100
AcDbScale
 70
     0
300
1/64" = 1'-0"
140
0.015625
141
12.0
290
     0
  0
SCALE
  5
4B
102
{ACAD_REACTORS
330
47
102
}
330
47
100
AcDbScale
 70
     0
300
1/32" = 1'-0"
140
0.03125
141
12.0
290
     0
  0
SCALE
  5
4C
102
{ACAD_REACTORS
330
47
102
}
330
47
100
AcDbScale
 70
     0
300
1/16" = 1'-0"
140
0.0625
141
12.0
290
     0
  0
SCALE
  5
4D
102
{ACAD_REACTORS
330
47
102
}
330
47
100
AcDbScale
 70
     0
300
3/32" = 1'-0"
140
0.09375
141
12.0
290
     0
  0
SCALE
  5
4E
102
{ACAD_REACTORS
330
47
102
}
330
47
100
AcDbScale
 70
     0
300
1/8" = 1'-0"
140
0.125
141
12.0
290
     0
  0
SCALE
  5
4F
102
{ACAD_REACTORS
330
47
102
}
330
47
100
AcDbScale
 70
     0
300
3/16" = 1'-0"
140
0.1875
141
12.0
290
     0
  0
SCALE
  5
50
102
{ACAD_REACTORS
330
47
102
}
330
47
100
AcDbScale
 70
     0
300
1/4" = 1'-0"
140
0.25
141
12.0
290
     0
  0
SCALE
  5
51
102
{ACAD_REACTORS
330
47
102
}
330
47
100
AcDbScale
 70
     0
300
3/8" = 1'-0"
140
0.375
141
12.0
290
     0
  0
SCALE
  5
52
102
{ACAD_REACTORS
330
47
102
}
330
47
100
AcDbScale
 70
     0
300
1/2" = 1'-0"
140
0.5
141
12.0
290
     0
  0
SCALE
  5
53
102
{ACAD_REACTORS
330
47
102
}
330
47
100
AcDbScale
 70
     0
300
3/4" = 1'-0"
140
0.75
141
12.0
290
     0
  0
SCALE
  5
54
102
{ACAD_REACTORS
330
47
102
}
330
47
100
AcDbScale
 70
     0
300
1" = 1'-0"
140
1.0
141
12.0
290
     0
  0
SCALE
  5
55
102
{ACAD_REACTORS
330
47
102
}
330
47
100
AcDbScale
 70
     0
300
1-1/2" = 1'-0"
140
1.5
141
12.0
290
     0
  0
SCALE
  5
56
102
{ACAD_REACTORS
330
47
102
}
330
47
100
AcDbScale
 70
     0
300
3" = 1'-0"
140
3.0
141
12.0
290
     0
  0
SCALE
  5
57
102
{ACAD_REACTORS
330
47
102
}
330
47
100
AcDbScale
 70
     0
300
6" = 1'-0"
140
6.0
141
12.0
290
     0
  0
SCALE
  5
58
102
{ACAD_REACTORS
330
47
102
}
330
47
100
AcDbScale
 70
     0
300
1'-0" = 1'-0"
140
12.0
141
12.0
290
     0
  0
TABLESTYLE
  5
5A
102
{ACAD_REACTORS
330
59
102
}
102
{ACAD_XDICTIONARY
360
72
102
}
330
59
100
AcDbTableStyle
  3
Standard
 70
     0
 71
     0
 40
0.06
 41
0.06
280
     0
281
     0
  7
Standard
140
0.18
170
     2
 62
     0
 63
   257
283
     0
 90
        4
 91
        0
  1

274
    -2
284
     1
 64
     0
275
    -2
285
     1
 65
     0
276
    -2
286
     1
 66
     0
277
    -2
287
     1
 67
     0
278
    -2
288
     1
 68
     0
279
    -2
289
     1
 69
     0
  7
Standard
140
0.25
170
     5
 62
     0
 63
   257
283
     0
 90
        4
 91
        0
  1

274
    -2
284
     1
 64
     0
275
    -2
285
     1
 65
     0
276
    -2
286
     1
 66
     0
277
    -2
287
     1
 67
     0
278
    -2
288
     1
 68
     0
279
    -2
289
     1
 69
     0
  7
Standard
140
0.18
170
     5
 62
     0
 63
   257
283
     0
 90
        4
 91
        0
  1

274
    -2
284
     1
 64
     0
275
    -2
285
     1
 65
     0
276
    -2
286
     1
 66
     0
277
    -2
287
     1
 67
     0
278
    -2
288
     1
 68
     0
279
    -2
289
     1
 69
     0
  0
VISUALSTYLE
  5
2F
102
{ACAD_REACTORS
330
2A
102
}
330
2A
100
AcDbVisualStyle
  2
2dWireframe
 70
     4
177
     3
291
     0
 70
    58
 90
        0
176
     1
 90
        2
176
     1
 90
        0
176
     1
 90
        0
176
     1
 40
0.6
176
     1
 40
30.0
176
     1
 62
     7
420
 16777215
176
     1
 90
        1
176
     1
 90
        4
176
     1
 62
     7
176
     1
 62
   257
176
     1
 90
        1
176
     1
 90
        1
176
     1
 40
1.0
176
     1
 90
        0
176
     1
 62
   257
176
     1
 40
1.0
176
     1
 90
        1
176
     1
 90
        6
176
     1
 90
        2
176
     1
 62
     7
176
     1
 90
        5
176
     1
 90
        0
176
     1
 90
        0
176
     1
290
     0
176
     1
 90
        1
176
     1
 40
0.0
176
     1
 90
        0
176
     1
290
     1
176
     1
290
     1
176
     1
290
     0
176
     1
290
     0
176
     1
290
     0
176
     1
290
     0
176
     1
290
     0
176
     1
290
     0
176
     1
290
     0
176
     1
 90
       50
176
     1
 40
0.0
176
     1
 40
1.0
176
     1
 90
        0
176
     1
 62
    18
420
        0
176
     1
 90
       50
176
     1
 90
        3
176
     1
 62
     5
420
      255
176
     1
290
     0
176
     1
 90
       50
176
     1
 90
       50
176
     1
 90
       50
176
     1
290
     0
176
     1
 90
       50
176
     1
 62
   256
176
     0
 40
1.0
176
     0
 90
        2
176
     1
  1
strokes_ogs.tif
176
     1
290
     0
176
     1
 40
1.0
176
     1
 40
1.0
176
     1
  0
VISUALSTYLE
  5
32
102
{ACAD_REACTORS
330
2A
102
}
330
2A
100
AcDbVisualStyle
  2
Basic
 70
     7
177
     3
291
     1
 70
    58
 90
        1
176
     1
 90
        0
176
     1
 90
        1
176
     1
 90
        0
176
     1
 40
0.6
176
     1
 40
30.0
176
     1
 62
     7
420
 16777215
176
     1
 90
        0
176
     1
 90
        4
176
     1
 62
     7
176
     1
 62
   257
176
     1
 90
        1
176
     1
 90
        1
176
     1
 40
1.0
176
     1
 90
        8
176
     1
 62
     7
176
     1
 40
1.0
176
     1
 90
        1
176
     1
 90
        6
176
     1
 90
        2
176
     1
 62
     7
176
     1
 90
        5
176
     1
 90
        0
176
     1
 90
        0
176
     1
290
     0
176
     1
 90
        1
176
     1
 40
0.0
176
     1
 90
        0
176
     1
290
     0
176
     1
290
     1
176
     1
290
     1
176
     1
290
     0
176
     1
290
     0
176
     1
290
     0
176
     1
290
     0
176
     1
290
     0
176
     1
290
     0
176
     1
 90
       50
176
     1
 40
0.0
176
     1
 40
1.0
176
     1
 90
        0
176
     1
 62
    18
420
        0
176
     1
 90
       50
176
     1
 90
        3
176
     1
 62
     5
420
      255
176
     1
290
     0
176
     1
 90
       50
176
     1
 90
       50
176
     1
 90
       50
176
     1
290
     0
176
     1
 90
       50
176
     1
 62
   256
176
     0
 40
1.0
176
     0
 90
        2
176
     1
  1
strokes_ogs.tif
176
     1
290
     0
176
     1
 40
1.0
176
     1
 40
1.0
176
     1
  0
VISUALSTYLE
  5
36
102
{ACAD_REACTORS
330
2A
102
}
330
2A
100
AcDbVisualStyle
  2
Brighten
 70
    12
177
     3
291
     1
 70
    58
 90
        2
176
     1
 90
        2
176
     1
 90
        0
176
     1
 90
        0
176
     1
 40
0.6
176
     1
 40
30.0
176
     1
 62
     7
420
 16777215
176
     1
 90
        1
176
     1
 90
        4
176
     1
 62
     7
176
     1
 62
   257
176
     1
 90
        1
176
     1
 90
        1
176
     1
 40
1.0
176
     1
 90
        8
176
     1
 62
     7
176
     1
 40
1.0
176
     1
 90
        1
176
     1
 90
        6
176
     1
 90
        2
176
     1
 62
     7
176
     1
 90
        5
176
     1
 90
        0
176
     1
 90
        0
176
     1
290
     0
176
     1
 90
        1
176
     1
 40
50.0
176
     1
 90
        0
176
     1
290
     0
176
     1
290
     1
176
     1
290
     1
176
     1
290
     0
176
     1
290
     0
176
     1
290
     0
176
     1
290
     0
176
     1
290
     0
176
     1
290
     0
176
     1
 90
       50
176
     1
 40
0.0
176
     1
 40
1.0
176
     1
 90
        0
176
     1
 62
    18
420
        0
176
     1
 90
       50
176
     1
 90
        3
176
     1
 62
     5
420
      255
176
     1
290
     0
176
     1
 90
       50
176
     1
 90
       50
176
     1
 90
       50
176
     1
290
     0
176
     1
 90
       50
176
     1
 62
   256
176
     0
 40
1.0
176
     0
 90
        2
176
     1
  1
strokes_ogs.tif
176
     1
290
     0
176
     1
 40
1.0
176
     1
 40
1.0
176
     1
  0
VISUALSTYLE
  5
3A
102
{ACAD_REACTORS
330
2A
102
}
330
2A
100
AcDbVisualStyle
  2
ColorChange
 70
    16
177
     3
291
     1
 70
    58
 90
        2
176
     1
 90
        2
176
     1
 90
        3
176
     1
 90
        0
176
     1
 40
0.6
176
     1
 40
30.0
176
     1
 62
     8
420
  8421504
176
     1
 90
        1
176
     1
 90
        4
176
     1
 62
     7
176
     1
 62
   257
176
     1
 90
        1
176
     1
 90
        1
176
     1
 40
1.0
176
     1
 90
        8
176
     1
 62
     8
420
  8421504
176
     1
 40
1.0
176
     1
 90
        1
176
     1
 90
        6
176
     1
 90
        2
176
     1
 62
     7
176
     1
 90
        5
176
     1
 90
        0
176
     1
 90
        0
176
     1
290
     0
176
     1
 90
        1
176
     1
 40
0.0
176
     1
 90
        0
176
     1
290
     0
176
     1
290
     1
176
     1
290
     1
176
     1
290
     0
176
     1
290
     0
176
     1
290
     0
176
     1
290
     0
176
     1
290
     0
176
     1
290
     0
176
     1
 90
       50
176
     1
 40
0.0
176
     1
 40
1.0
176
     1
 90
        0
176
     1
 62
    18
420
        0
176
     1
 90
       50
176
     1
 90
        3
176
     1
 62
     5
420
      255
176
     1
290
     0
176
     1
 90
       50
176
     1
 90
       50
176
     1
 90
       50
176
     1
290
     0
176
     1
 90
       50
176
     1
 62
   256
176
     0
 40
1.0
176
     0
 90
        2
176
     1
  1
strokes_ogs.tif
176
     1
290
     0
176
     1
 40
1.0
176
     1
 40
1.0
176
     1
  0
VISUALSTYLE
  5
34
102
{ACAD_REACTORS
330
2A
102
}
330
2A
100
AcDbVisualStyle
  2
Conceptual
 70
     9
177
     3
291
     0
 70
    58
 90
        3
176
     1
 90
        2
176
     1
 90
        0
176
     1
 90
        0
176
     1
 40
0.6
176
     1
 40
30.0
176
     1
 62
     7
420
 16777215
176
     1
 90
        2
176
     1
 90
        2
176
     1
 62
     7
176
     1
 62
   257
176
     1
 90
        1
176
     1
 90
        1
176
     1
 40
179.0
176
     1
 90
        8
176
     1
 62
     7
176
     1
 40
1.0
176
     1
 90
        1
176
     1
 90
        6
176
     1
 90
        2
176
     1
 62
     7
176
     1
 90
        3
176
     1
 90
        0
176
     1
 90
        0
176
     1
290
     0
176
     1
 90
        1
176
     1
 40
0.0
176
     1
 90
        0
176
     1
290
     0
176
     1
290
     1
176
     1
290
     1
176
     1
290
     0
176
     1
290
     0
176
     1
290
     0
176
     1
290
     0
176
     1
290
     0
176
     1
290
     0
176
     1
 90
       50
176
     1
 40
0.0
176
     1
 40
1.0
176
     1
 90
        0
176
     1
 62
    18
420
        0
176
     1
 90
       50
176
     1
 90
        3
176
     1
 62
     5
420
      255
176
     1
290
     0
176
     1
 90
       50
176
     1
 90
       50
176
     1
 90
       50
176
     1
290
     0
176
     1
 90
       50
176
     1
 62
   256
176
     0
 40
1.0
176
     0
 90
        2
176
     1
  1
strokes_ogs.tif
176
     1
290
     0
176
     1
 40
1.0
176
     1
 40
1.0
176
     1
  0
VISUALSTYLE
  5
35
102
{ACAD_REACTORS
330
2A
102
}
330
2A
100
AcDbVisualStyle
  2
Dim
 70
    11
177
     3
291
     1
 70
    58
 90
        2
176
     1
 90
        2
176
     1
 90
        0
176
     1
 90
        0
176
     1
 40
0.6
176
     1
 40
30.0
176
     1
 62
     7
420
 16777215
176
     1
 90
        1
176
     1
 90
        4
176
     1
 62
     7
176
     1
 62
   257
176
     1
 90
        1
176
     1
 90
        1
176
     1
 40
1.0
176
     1
 90
        8
176
     1
 62
     7
176
     1
 40
1.0
176
     1
 90
        1
176
     1
 90
        6
176
     1
 90
        2
176
     1
 62
     7
176
     1
 90
        5
176
     1
 90
        0
176
     1
 90
        0
176
     1
290
     0
176
     1
 90
        1
176
     1
 40
-50.0
176
     1
 90
        0
176
     1
290
     0
176
     1
290
     1
176
     1
290
     1
176
     1
290
     0
176
     1
290
     0
176
     1
290
     0
176
     1
290
     0
176
     1
290
     0
176
     1
290
     0
176
     1
 90
       50
176
     1
 40
0.0
176
     1
 40
1.0
176
     1
 90
        0
176
     1
 62
    18
420
        0
176
     1
 90
       50
176
     1
 90
        3
176
     1
 62
     5
420
      255
176
     1
290
     0
176
     1
 90
       50
176
     1
 90
       50
176
     1
 90
       50
176
     1
290
     0
176
     1
 90
       50
176
     1
 62
   256
176
     0
 40
1.0
176
     0
 90
        2
176
     1
  1
strokes_ogs.tif
176
     1
290
     0
176
     1
 40
1.0
176
     1
 40
1.0
176
     1
  0
VISUALSTYLE
  5
3D
102
{ACAD_REACTORS
330
2A
102
}
330
2A
100
AcDbVisualStyle
  2
EdgeColorOff
 70
    22
177
     3
291
     1
 70
    58
 90
        2
176
     0
 90
        2
176
     0
 90
        0
176
     0
 90
        0
176
     0
 40
0.6
176
     0
 40
30.0
176
     0
 62
     7
420
 16777215
176
     0
 90
        1
176
     0
 90
        4
176
     0
 62
     7
176
     0
 62
   257
176
     0
 90
        1
176
     0
 90
        1
176
     0
 40
1.0
176
     0
 90
        8
176
     2
 62
     7
176
     0
 40
1.0
176
     0
 90
        1
176
     0
 90
        6
176
     0
 90
        2
176
     0
 62
     7
176
     0
 90
        5
176
     0
 90
        0
176
     0
 90
        0
176
     0
290
     0
176
     0
 90
        1
176
     0
 40
0.0
176
     0
 90
        0
176
     0
290
     0
176
     0
290
     1
176
     0
290
     1
176
     0
290
     0
176
     0
290
     0
176
     0
290
     0
176
     0
290
     0
176
     0
290
     0
176
     0
290
     0
176
     0
 90
       50
176
     0
 40
0.0
176
     0
 40
1.0
176
     0
 90
        0
176
     0
 62
    18
420
        0
176
     0
 90
       50
176
     0
 90
        3
176
     0
 62
     5
420
      255
176
     0
290
     0
176
     0
 90
       50
176
     0
 90
       50
176
     0
 90
       50
176
     0
290
     0
176
     0
 90
       50
176
     0
 62
   256
176
     0
 40
1.0
176
     0
 90
        2
176
     0
  1
strokes_ogs.tif
176
     0
290
     0
176
     0
 40
1.0
176
     0
 40
1.0
176
     0
  0
VISUALSTYLE
  5
39
102
{ACAD_REACTORS
330
2A
102
}
330
2A
100
AcDbVisualStyle
  2
Facepattern
 70
    15
177
     3
291
     1
 70
    58
 90
        2
176
     1
 90
        2
176
     1
 90
        0
176
     1
 90
        0
176
     1
 40
0.6
176
     1
 40
30.0
176
     1
 62
     7
420
 16777215
176
     1
 90
        1
176
     1
 90
        4
176
     1
 62
     7
176
     1
 62
   257
176
     1
 90
        1
176
     1
 90
        1
176
     1
 40
1.0
176
     1
 90
        8
176
     1
 62
     7
176
     1
 40
1.0
176
     1
 90
        1
176
     1
 90
        6
176
     1
 90
        2
176
     1
 62
     7
176
     1
 90
        5
176
     1
 90
        0
176
     1
 90
        0
176
     1
290
     0
176
     1
 90
        1
176
     1
 40
0.0
176
     1
 90
        0
176
     1
290
     0
176
     1
290
     1
176
     1
290
     1
176
     1
290
     0
176
     1
290
     0
176
     1
290
     0
176
     1
290
     0
176
     1
290
     0
176
     1
290
     0
176
     1
 90
       50
176
     1
 40
0.0
176
     1
 40
1.0
176
     1
 90
        0
176
     1
 62
    18
420
        0
176
     1
 90
       50
176
     1
 90
        3
176
     1
 62
     5
420
      255
176
     1
290
     0
176
     1
 90
       50
176
     1
 90
       50
176
     1
 90
       50
176
     1
290
     0
176
     1
 90
       50
176
     1
 62
   256
176
     0
 40
1.0
176
     0
 90
        2
176
     1
  1
strokes_ogs.tif
176
     1
290
     0
176
     1
 40
1.0
176
     1
 40
1.0
176
     1
  0
VISUALSTYLE
  5
2B
102
{ACAD_REACTORS
330
2A
102
}
330
2A
100
AcDbVisualStyle
  2
Flat
 70
     0
177
     3
291
     1
 70
    58
 90
        2
176
     1
 90
        1
176
     1
 90
        1
176
     1
 90
        2
176
     1
 40
0.6
176
     1
 40
30.0
176
     1
 62
     7
420
 16777215
176
     1
 90
        0
176
     1
 90
        0
176
     1
 62
     7
176
     1
 62
   257
176
     1
 90
        1
176
     1
 90
        1
176
     1
 40
1.0
176
     1
 90
        8
176
     1
 62
     7
176
     1
 40
1.0
176
     1
 90
        1
176
     1
 90
        6
176
     1
 90
        2
176
     1
 62
     7
176
     1
 90
        5
176
     1
 90
        0
176
     1
 90
        0
176
     1
290
     0
176
     1
 90
       13
176
     1
 40
0.0
176
     1
 90
        0
176
     1
290
     0
176
     1
290
     1
176
     1
290
     1
176
     1
290
     0
176
     1
290
     0
176
     1
290
     0
176
     1
290
     0
176
     1
290
     0
176
     1
290
     0
176
     1
 90
       50
176
     1
 40
0.0
176
     1
 40
1.0
176
     1
 90
        0
176
     1
 62
    18
420
        0
176
     1
 90
       50
176
     1
 90
        3
176
     1
 62
     5
420
      255
176
     1
290
     0
176
     1
 90
       50
176
     1
 90
       50
176
     1
 90
       50
176
     1
290
     0
176
     1
 90
       50
176
     1
 62
   256
176
     0
 40
1.0
176
     0
 90
        2
176
     1
  1
strokes_ogs.tif
176
     1
290
     0
176
     1
 40
1.0
176
     1
 40
1.0
176
     1
  0
VISUALSTYLE
  5
2C
102
{ACAD_REACTORS
330
2A
102
}
330
2A
100
AcDbVisualStyle
  2
FlatWithEdges
 70
     1
177
     3
291
     1
 70
    58
 90
        2
176
     1
 90
        1
176
     1
 90
        1
176
     1
 90
        2
176
     1
 40
0.6
176
     1
 40
30.0
176
     1
 62
     7
420
 16777215
176
     1
 90
        1
176
     1
 90
        0
176
     1
 62
     7
176
     1
 62
   257
176
     1
 90
        1
176
     1
 90
        1
176
     1
 40
1.0
176
     1
 90
        0
176
     1
 62
   257
176
     1
 40
1.0
176
     1
 90
        1
176
     1
 90
        6
176
     1
 90
        2
176
     1
 62
     7
176
     1
 90
        5
176
     1
 90
        0
176
     1
 90
        0
176
     1
290
     0
176
     1
 90
       13
176
     1
 40
0.0
176
     1
 90
        0
176
     1
290
     0
176
     1
290
     1
176
     1
290
     1
176
     1
290
     0
176
     1
290
     0
176
     1
290
     0
176
     1
290
     0
176
     1
290
     0
176
     1
290
     0
176
     1
 90
       50
176
     1
 40
0.0
176
     1
 40
1.0
176
     1
 90
        0
176
     1
 62
    18
420
        0
176
     1
 90
       50
176
     1
 90
        3
176
     1
 62
     5
420
      255
176
     1
290
     0
176
     1
 90
       50
176
     1
 90
       50
176
     1
 90
       50
176
     1
290
     0
176
     1
 90
       50
176
     1
 62
   256
176
     0
 40
1.0
176
     0
 90
        2
176
     1
  1
strokes_ogs.tif
176
     1
290
     0
176
     1
 40
1.0
176
     1
 40
1.0
176
     1
  0
VISUALSTYLE
  5
2D
102
{ACAD_REACTORS
330
2A
102
}
330
2A
100
AcDbVisualStyle
  2
Gouraud
 70
     2
177
     3
291
     1
 70
    58
 90
        2
176
     1
 90
        2
176
     1
 90
        1
176
     1
 90
        2
176
     1
 40
0.6
176
     1
 40
30.0
176
     1
 62
     7
420
 16777215
176
     1
 90
        0
176
     1
 90
        0
176
     1
 62
     7
176
     1
 62
   257
176
     1
 90
        1
176
     1
 90
        1
176
     1
 40
1.0
176
     1
 90
        0
176
     1
 62
     7
176
     1
 40
1.0
176
     1
 90
        1
176
     1
 90
        6
176
     1
 90
        2
176
     1
 62
     7
176
     1
 90
        5
176
     1
 90
        0
176
     1
 90
        0
176
     1
290
     0
176
     1
 90
       13
176
     1
 40
0.0
176
     1
 90
        0
176
     1
290
     0
176
     1
290
     1
176
     1
290
     1
176
     1
290
     0
176
     1
290
     0
176
     1
290
     0
176
     1
290
     0
176
     1
290
     0
176
     1
290
     0
176
     1
 90
       50
176
     1
 40
0.0
176
     1
 40
1.0
176
     1
 90
        0
176
     1
 62
    18
420
        0
176
     1
 90
       50
176
     1
 90
        3
176
     1
 62
     5
420
      255
176
     1
290
     0
176
     1
 90
       50
176
     1
 90
       50
176
     1
 90
       50
176
     1
290
     0
176
     1
 90
       50
176
     1
 62
   256
176
     0
 40
1.0
176
     0
 90
        2
176
     1
  1
strokes_ogs.tif
176
     1
290
     0
176
     1
 40
1.0
176
     1
 40
1.0
176
     1
  0
VISUALSTYLE
  5
2E
102
{ACAD_REACTORS
330
2A
102
}
330
2A
100
AcDbVisualStyle
  2
GouraudWithEdges
 70
     3
177
     3
291
     1
 70
    58
 90
        2
176
     1
 90
        2
176
     1
 90
        1
176
     1
 90
        2
176
     1
 40
0.6
176
     1
 40
30.0
176
     1
 62
     7
420
 16777215
176
     1
 90
        1
176
     1
 90
        0
176
     1
 62
     7
176
     1
 62
   257
176
     1
 90
        1
176
     1
 90
        1
176
     1
 40
1.0
176
     1
 90
        0
176
     1
 62
   257
176
     1
 40
1.0
176
     1
 90
        1
176
     1
 90
        6
176
     1
 90
        2
176
     1
 62
     7
176
     1
 90
        5
176
     1
 90
        0
176
     1
 90
        0
176
     1
290
     0
176
     1
 90
       13
176
     1
 40
0.0
176
     1
 90
        0
176
     1
290
     0
176
     1
290
     1
176
     1
290
     1
176
     1
290
     0
176
     1
290
     0
176
     1
290
     0
176
     1
290
     0
176
     1
290
     0
176
     1
290
     0
176
     1
 90
       50
176
     1
 40
0.0
176
     1
 40
1.0
176
     1
 90
        0
176
     1
 62
    18
420
        0
176
     1
 90
       50
176
     1
 90
        3
176
     1
 62
     5
420
      255
176
     1
290
     0
176
     1
 90
       50
176
     1
 90
       50
176
     1
 90
       50
176
     1
290
     0
176
     1
 90
       50
176
     1
 62
   256
176
     0
 40
1.0
176
     0
 90
        2
176
     1
  1
strokes_ogs.tif
176
     1
290
     0
176
     1
 40
1.0
176
     1
 40
1.0
176
     1
  0
VISUALSTYLE
  5
31
102
{ACAD_REACTORS
330
2A
102
}
330
2A
100
AcDbVisualStyle
  2
Hidden
 70
     6
177
     3
291
     0
 70
    58
 90
        1
176
     1
 90
        2
176
     1
 90
        2
176
     1
 90
        0
176
     1
 40
0.6
176
     1
 40
30.0
176
     1
 62
     7
420
 16777215
176
     1
 90
        2
176
     1
 90
        2
176
     1
 62
     7
176
     1
 62
   257
176
     1
 90
        2
176
     1
 90
        1
176
     1
 40
40.0
176
     1
 90
        0
176
     1
 62
   257
176
     1
 40
1.0
176
     1
 90
        1
176
     1
 90
        6
176
     1
 90
        2
176
     1
 62
     7
176
     1
 90
        3
176
     1
 90
        0
176
     1
 90
        0
176
     1
290
     0
176
     1
 90
        1
176
     1
 40
0.0
176
     1
 90
        0
176
     1
290
     0
176
     1
290
     1
176
     1
290
     1
176
     1
290
     0
176
     1
290
     0
176
     1
290
     0
176
     1
290
     0
176
     1
290
     0
176
     1
290
     0
176
     1
 90
       50
176
     1
 40
0.0
176
     1
 40
1.0
176
     1
 90
        0
176
     1
 62
    18
420
        0
176
     1
 90
       50
176
     1
 90
        3
176
     1
 62
     5
420
      255
176
     1
290
     0
176
     1
 90
       50
176
     1
 90
       50
176
     1
 90
       50
176
     1
290
     0
176
     1
 90
       50
176
     1
 62
   256
176
     0
 40
1.0
176
     0
 90
        2
176
     1
  1
strokes_ogs.tif
176
     1
290
     0
176
     1
 40
1.0
176
     1
 40
1.0
176
     1
  0
VISUALSTYLE
  5
3B
102
{ACAD_REACTORS
330
2A
102
}
330
2A
100
AcDbVisualStyle
  2
JitterOff
 70
    20
177
     3
291
     1
 70
    58
 90
        2
176
     0
 90
        2
176
     0
 90
        0
176
     0
 90
        0
176
     0
 40
0.6
176
     0
 40
30.0
176
     0
 62
     7
420
 16777215
176
     0
 90
        1
176
     0
 90
        4
176
     0
 62
     7
176
     0
 62
   257
176
     0
 90
        1
176
     0
 90
        1
176
     0
 40
1.0
176
     0
 90
       10
176
     2
 62
     7
176
     0
 40
1.0
176
     0
 90
        1
176
     0
 90
        6
176
     0
 90
        2
176
     0
 62
     7
176
     0
 90
        5
176
     0
 90
        0
176
     0
 90
        0
176
     0
290
     0
176
     0
 90
        1
176
     0
 40
0.0
176
     0
 90
        0
176
     0
290
     0
176
     0
290
     1
176
     0
290
     1
176
     0
290
     0
176
     0
290
     0
176
     0
290
     0
176
     0
290
     0
176
     0
290
     0
176
     0
290
     0
176
     0
 90
       50
176
     0
 40
0.0
176
     0
 40
1.0
176
     0
 90
        0
176
     0
 62
    18
420
        0
176
     0
 90
       50
176
     0
 90
        3
176
     0
 62
     5
420
      255
176
     0
290
     0
176
     0
 90
       50
176
     0
 90
       50
176
     0
 90
       50
176
     0
290
     0
176
     0
 90
       50
176
     0
 62
   256
176
     0
 40
1.0
176
     0
 90
        2
176
     0
  1
strokes_ogs.tif
176
     0
290
     0
176
     0
 40
1.0
176
     0
 40
1.0
176
     0
  0
VISUALSTYLE
  5
38
102
{ACAD_REACTORS
330
2A
102
}
330
2A
100
AcDbVisualStyle
  2
Linepattern
 70
    14
177
     3
291
     1
 70
    58
 90
        2
176
     1
 90
        2
176
     1
 90
        0
176
     1
 90
        0
176
     1
 40
0.6
176
     1
 40
30.0
176
     1
 62
     7
420
 16777215
176
     1
 90
        1
176
     1
 90
        4
176
     1
 62
     7
176
     1
 62
   257
176
     1
 90
        7
176
     1
 90
        7
176
     1
 40
1.0
176
     1
 90
        8
176
     1
 62
     7
176
     1
 40
1.0
176
     1
 90
        1
176
     1
 90
        6
176
     1
 90
        2
176
     1
 62
     7
176
     1
 90
        5
176
     1
 90
        0
176
     1
 90
        0
176
     1
290
     0
176
     1
 90
        1
176
     1
 40
0.0
176
     1
 90
        0
176
     1
290
     0
176
     1
290
     1
176
     1
290
     1
176
     1
290
     0
176
     1
290
     0
176
     1
290
     0
176
     1
290
     0
176
     1
290
     0
176
     1
290
     0
176
     1
 90
       50
176
     1
 40
0.0
176
     1
 40
1.0
176
     1
 90
        0
176
     1
 62
    18
420
        0
176
     1
 90
       50
176
     1
 90
        3
176
     1
 62
     5
420
      255
176
     1
290
     0
176
     1
 90
       50
176
     1
 90
       50
176
     1
 90
       50
176
     1
290
     0
176
     1
 90
       50
176
     1
 62
   256
176
     0
 40
1.0
176
     0
 90
        2
176
     1
  1
strokes_ogs.tif
176
     1
290
     0
176
     1
 40
1.0
176
     1
 40
1.0
176
     1
  0
VISUALSTYLE
  5
3C
102
{ACAD_REACTORS
330
2A
102
}
330
2A
100
AcDbVisualStyle
  2
OverhangOff
 70
    21
177
     3
291
     1
 70
    58
 90
        2
176
     0
 90
        2
176
     0
 90
        0
176
     0
 90
        0
176
     0
 40
0.6
176
     0
 40
30.0
176
     0
 62
     7
420
 16777215
176
     0
 90
        1
176
     0
 90
        4
176
     0
 62
     7
176
     0
 62
   257
176
     0
 90
        1
176
     0
 90
        1
176
     0
 40
1.0
176
     0
 90
        9
176
     2
 62
     7
176
     0
 40
1.0
176
     0
 90
        1
176
     0
 90
        6
176
     0
 90
        2
176
     0
 62
     7
176
     0
 90
        5
176
     0
 90
        0
176
     0
 90
        0
176
     0
290
     0
176
     0
 90
        1
176
     0
 40
0.0
176
     0
 90
        0
176
     0
290
     0
176
     0
290
     1
176
     0
290
     1
176
     0
290
     0
176
     0
290
     0
176
     0
290
     0
176
     0
290
     0
176
     0
290
     0
176
     0
290
     0
176
     0
 90
       50
176
     0
 40
0.0
176
     0
 40
1.0
176
     0
 90
        0
176
     0
 62
    18
420
        0
176
     0
 90
       50
176
     0
 90
        3
176
     0
 62
     5
420
      255
176
     0
290
     0
176
     0
 90
       50
176
     0
 90
       50
176
     0
 90
       50
176
     0
290
     0
176
     0
 90
       50
176
     0
 62
   256
176
     0
 40
1.0
176
     0
 90
        2
176
     0
  1
strokes_ogs.tif
176
     0
290
     0
176
     0
 40
1.0
176
     0
 40
1.0
176
     0
  0
VISUALSTYLE
  5
33
102
{ACAD_REACTORS
330
2A
102
}
330
2A
100
AcDbVisualStyle
  2
Realistic
 70
     8
177
     3
291
     0
 70
    58
 90
        2
176
     1
 90
        3
176
     1
 90
        0
176
     1
 90
        2
176
     1
 40
0.6
176
     1
 40
30.0
176
     1
 62
     7
420
 16777215
176
     1
 90
        0
176
     1
 90
        0
176
     1
 62
     7
176
     1
 62
   257
176
     1
 90
        1
176
     1
 90
        1
176
     1
 40
1.0
176
     1
 90
        8
176
     1
 62
   257
176
     1
 40
1.0
176
     1
 90
        1
176
     1
 90
        6
176
     1
 90
        2
176
     1
 62
     7
176
     1
 90
        3
176
     1
 90
        0
176
     1
 90
        0
176
     1
290
     0
176
     1
 90
       13
176
     1
 40
0.0
176
     1
 90
        0
176
     1
290
     0
176
     1
290
     1
176
     1
290
     1
176
     1
290
     0
176
     1
290
     0
176
     1
290
     0
176
     1
290
     0
176
     1
290
     0
176
     1
290
     0
176
     1
 90
       50
176
     1
 40
0.0
176
     1
 40
1.0
176
     1
 90
        0
176
     1
 62
    18
420
        0
176
     1
 90
       50
176
     1
 90
        3
176
     1
 62
     5
420
      255
176
     1
290
     0
176
     1
 90
       50
176
     1
 90
       50
176
     1
 90
       50
176
     1
290
     0
176
     1
 90
       50
176
     1
 62
   256
176
     0
 40
1.0
176
     0
 90
        2
176
     1
  1
strokes_ogs.tif
176
     1
290
     0
176
     1
 40
1.0
176
     1
 40
1.0
176
     1
  0
VISUALSTYLE
  5
42
102
{ACAD_REACTORS
330
2A
102
}
330
2A
100
AcDbVisualStyle
  2
Shaded
 70
    27
177
     3
291
     0
 70
    58
 90
        2
176
     1
 90
        2
176
     1
 90
        1
176
     1
 90
        2
176
     1
 40
0.6
176
     1
 40
30.0
176
     1
 62
     7
420
 16777215
176
     1
 90
        0
176
     1
 90
        4
176
     1
 62
     7
176
     1
 62
   257
176
     1
 90
        1
176
     1
 90
        1
176
     1
 40
1.0
176
     1
 90
        8
176
     1
 62
   257
176
     1
 40
1.0
176
     1
 90
        1
176
     1
 90
        6
176
     1
 90
        2
176
     1
 62
     8
420
  7895160
176
     1
 90
        3
176
     1
 90
        0
176
     1
 90
        0
176
     1
290
     0
176
     1
 90
        5
176
     1
 40
0.0
176
     1
 90
        0
176
     1
290
     0
176
     1
290
     1
176
     1
290
     1
176
     1
290
     0
176
     1
290
     0
176
     1
290
     0
176
     1
290
     0
176
     1
290
     0
176
     1
290
     0
176
     1
 90
       50
176
     1
 40
0.0
176
     1
 40
1.0
176
     1
 90
        0
176
     1
 62
    18
420
        0
176
     1
 90
       50
176
     1
 90
        3
176
     1
 62
     5
420
      255
176
     1
290
     0
176
     1
 90
       50
176
     1
 90
       50
176
     1
 90
       50
176
     1
290
     0
176
     1
 90
       50
176
     1
 62
   256
176
     0
 40
1.0
176
     0
 90
        2
176
     1
  1
strokes_ogs.tif
176
     1
290
     0
176
     1
 40
1.0
176
     1
 40
1.0
176
     1
  0
VISUALSTYLE
  5
41
102
{ACAD_REACTORS
330
2A
102
}
330
2A
100
AcDbVisualStyle
  2
Shaded with edges
 70
    26
177
     3
291
     0
 70
    58
 90
        2
176
     1
 90
        2
176
     1
 90
        1
176
     1
 90
        2
176
     1
 40
0.6
176
     1
 40
30.0
176
     1
 62
     7
420
 16777215
176
     1
 90
        1
176
     1
 90
       10
176
     1
 62
     7
176
     1
 62
   257
176
     1
 90
        2
176
     1
 90
        1
176
     1
 40
1.0
176
     1
 90
        8
176
     1
 62
   257
176
     1
 40
1.0
176
     1
 90
        1
176
     1
 90
        6
176
     1
 90
        2
176
     1
 62
     7
176
     1
 90
        3
176
     1
 90
        0
176
     1
 90
        0
176
     1
290
     0
176
     1
 90
        5
176
     1
 40
0.0
176
     1
 90
        0
176
     1
290
     0
176
     1
290
     1
176
     1
290
     1
176
     1
290
     0
176
     1
290
     0
176
     1
290
     0
176
     1
290
     0
176
     1
290
     0
176
     1
290
     0
176
     1
 90
       50
176
     1
 40
0.0
176
     1
 40
1.0
176
     1
 90
        0
176
     1
 62
    18
420
        0
176
     1
 90
       50
176
     1
 90
        3
176
     1
 62
     5
420
      255
176
     1
290
     0
176
     1
 90
       50
176
     1
 90
       50
176
     1
 90
       50
176
     1
290
     0
176
     1
 90
       50
176
     1
 62
   256
176
     0
 40
1.0
176
     0
 90
        2
176
     1
  1
strokes_ogs.tif
176
     1
290
     0
176
     1
 40
1.0
176
     1
 40
1.0
176
     1
  0
VISUALSTYLE
  5
3E
102
{ACAD_REACTORS
330
2A
102
}
330
2A
100
AcDbVisualStyle
  2
Shades of Gray
 70
    23
177
     3
291
     0
 70
    58
 90
        2
176
     1
 90
        2
176
     1
 90
        3
176
     1
 90
        0
176
     1
 40
0.6
176
     1
 40
30.0
176
     1
 62
     7
420
 16777215
176
     1
 90
        2
176
     1
 90
        2
176
     1
 62
     7
176
     1
 62
     7
176
     1
 90
        1
176
     1
 90
        1
176
     1
 40
40.0
176
     1
 90
        8
176
     1
 62
     7
176
     1
 40
1.0
176
     1
 90
        1
176
     1
 90
        6
176
     1
 90
        2
176
     1
 62
     7
176
     1
 90
        3
176
     1
 90
        0
176
     1
 90
        0
176
     1
290
     0
176
     1
 90
        1
176
     1
 40
0.0
176
     1
 90
        0
176
     1
290
     0
176
     1
290
     1
176
     1
290
     1
176
     1
290
     0
176
     1
290
     0
176
     1
290
     0
176
     1
290
     0
176
     1
290
     0
176
     1
290
     0
176
     1
 90
       50
176
     1
 40
0.0
176
     1
 40
1.0
176
     1
 90
        0
176
     1
 62
    18
420
        0
176
     1
 90
       50
176
     1
 90
        3
176
     1
 62
     5
420
      255
176
     1
290
     0
176
     1
 90
       50
176
     1
 90
       50
176
     1
 90
       50
176
     1
290
     0
176
     1
 90
       50
176
     1
 62
   256
176
     0
 40
1.0
176
     0
 90
        2
176
     1
  1
strokes_ogs.tif
176
     1
290
     0
176
     1
 40
1.0
176
     1
 40
1.0
176
     1
  0
VISUALSTYLE
  5
3F
102
{ACAD_REACTORS
330
2A
102
}
330
2A
100
AcDbVisualStyle
  2
Sketchy
 70
    24
177
     3
291
     0
 70
    58
 90
        1
176
     1
 90
        2
176
     1
 90
        2
176
     1
 90
        0
176
     1
 40
0.6
176
     1
 40
30.0
176
     1
 62
     7
420
 16777215
176
     1
 90
        2
176
     1
 90
        2
176
     1
 62
     7
176
     1
 62
     7
176
     1
 90
        1
176
     1
 90
        1
176
     1
 40
40.0
176
     1
 90
       11
176
     1
 62
     7
176
     1
 40
1.0
176
     1
 90
        1
176
     1
 90
        6
176
     1
 90
        2
176
     1
 62
     7
176
     1
 90
        6
176
     1
 90
        0
176
     1
 90
        0
176
     1
290
     0
176
     1
 90
        1
176
     1
 40
0.0
176
     1
 90
        0
176
     1
290
     0
176
     1
290
     1
176
     1
290
     1
176
     1
290
     0
176
     1
290
     0
176
     1
290
     0
176
     1
290
     0
176
     1
290
     0
176
     1
290
     0
176
     1
 90
       50
176
     1
 40
0.0
176
     1
 40
1.0
176
     1
 90
        0
176
     1
 62
    18
420
        0
176
     1
 90
       50
176
     1
 90
        3
176
     1
 62
     5
420
      255
176
     1
290
     0
176
     1
 90
       50
176
     1
 90
       50
176
     1
 90
       50
176
     1
290
     0
176
     1
 90
       50
176
     1
 62
   256
176
     0
 40
1.0
176
     0
 90
        2
176
     1
  1
strokes_ogs.tif
176
     1
290
     0
176
     1
 40
1.0
176
     1
 40
1.0
176
     1
  0
VISUALSTYLE
  5
37
102
{ACAD_REACTORS
330
2A
102
}
330
2A
100
AcDbVisualStyle
  2
Thicken
 70
    13
177
     3
291
     1
 70
    58
 90
        2
176
     1
 90
        2
176
     1
 90
        0
176
     1
 90
        0
176
     1
 40
0.6
176
     1
 40
30.0
176
     1
 62
     7
420
 16777215
176
     1
 90
        1
176
     1
 90
        4
176
     1
 62
     7
176
     1
 62
   257
176
     1
 90
        1
176
     1
 90
        1
176
     1
 40
1.0
176
     1
 90
       12
176
     1
 62
     7
176
     1
 40
1.0
176
     1
 90
        1
176
     1
 90
        6
176
     1
 90
        2
176
     1
 62
     7
176
     1
 90
        5
176
     1
 90
        0
176
     1
 90
        0
176
     1
290
     0
176
     1
 90
        1
176
     1
 40
0.0
176
     1
 90
        0
176
     1
290
     0
176
     1
290
     1
176
     1
290
     1
176
     1
290
     0
176
     1
290
     0
176
     1
290
     0
176
     1
290
     0
176
     1
290
     0
176
     1
290
     0
176
     1
 90
       50
176
     1
 40
0.0
176
     1
 40
1.0
176
     1
 90
        0
176
     1
 62
    18
420
        0
176
     1
 90
       50
176
     1
 90
        3
176
     1
 62
     5
420
      255
176
     1
290
     0
176
     1
 90
       50
176
     1
 90
       50
176
     1
 90
       50
176
     1
290
     0
176
     1
 90
       50
176
     1
 62
   256
176
     0
 40
1.0
176
     0
 90
        2
176
     1
  1
strokes_ogs.tif
176
     1
290
     0
176
     1
 40
1.0
176
     1
 40
1.0
176
     1
  0
VISUALSTYLE
  5
30
102
{ACAD_REACTORS
330
2A
102
}
330
2A
100
AcDbVisualStyle
  2
Wireframe
 70
     5
177
     3
291
     0
 70
    58
 90
        0
176
     1
 90
        2
176
     1
 90
        0
176
     1
 90
        0
176
     1
 40
0.6
176
     1
 40
30.0
176
     1
 62
     7
420
 16777215
176
     1
 90
        1
176
     1
 90
        4
176
     1
 62
     7
176
     1
 62
   257
176
     1
 90
        1
176
     1
 90
        1
176
     1
 40
1.0
176
     1
 90
        0
176
     1
 62
   257
176
     1
 40
1.0
176
     1
 90
        1
176
     1
 90
        6
176
     1
 90
        2
176
     1
 62
     7
176
     1
 90
        3
176
     1
 90
        0
176
     1
 90
        0
176
     1
290
     0
176
     1
 90
        1
176
     1
 40
0.0
176
     1
 90
        0
176
     1
290
     0
176
     1
290
     1
176
     1
290
     1
176
     1
290
     0
176
     1
290
     0
176
     1
290
     0
176
     1
290
     0
176
     1
290
     0
176
     1
290
     0
176
     1
 90
       50
176
     1
 40
0.0
176
     1
 40
1.0
176
     1
 90
        0
176
     1
 62
    18
420
        0
176
     1
 90
       50
176
     1
 90
        3
176
     1
 62
     5
420
      255
176
     1
290
     0
176
     1
 90
       50
176
     1
 90
       50
176
     1
 90
       50
176
     1
290
     0
176
     1
 90
       50
176
     1
 62
   256
176
     0
 40
1.0
176
     0
 90
        2
176
     1
  1
strokes_ogs.tif
176
     1
290
     0
176
     1
 40
1.0
176
     1
 40
1.0
176
     1
  0
VISUALSTYLE
  5
40
102
{ACAD_REACTORS
330
2A
102
}
330
2A
100
AcDbVisualStyle
  2
X-Ray
 70
    25
177
     3
291
     0
 70
    58
 90
        2
176
     1
 90
        2
176
     1
 90
        1
176
     1
 90
        1
176
     1
 40
0.5
176
     1
 40
30.0
176
     1
 62
     7
420
 16777215
176
     1
 90
        1
176
     1
 90
        0
176
     1
 62
     7
176
     1
 62
   257
176
     1
 90
        1
176
     1
 90
        1
176
     1
 40
1.0
176
     1
 90
        8
176
     1
 62
     7
176
     1
 40
1.0
176
     1
 90
        1
176
     1
 90
        6
176
     1
 90
        2
176
     1
 62
     7
176
     1
 90
        3
176
     1
 90
        0
176
     1
 90
        0
176
     1
290
     0
176
     1
 90
       13
176
     1
 40
0.0
176
     1
 90
        0
176
     1
290
     0
176
     1
290
     1
176
     1
290
     1
176
     1
290
     0
176
     1
290
     0
176
     1
290
     0
176
     1
290
     0
176
     1
290
     0
176
     1
290
     0
176
     1
 90
       50
176
     1
 40
0.0
176
     1
 40
1.0
176
     1
 90
        0
176
     1
 62
    18
420
        0
176
     1
 90
       50
176
     1
 90
        3
176
     1
 62
     5
420
      255
176
     1
290
     0
176
     1
 90
       50
176
     1
 90
       50
176
     1
 90
       50
176
     1
290
     0
176
     1
 90
       50
176
     1
 62
   256
176
     0
 40
1.0
176
     0
 90
        2
176
     1
  1
strokes_ogs.tif
176
     1
290
     0
176
     1
 40
1.0
176
     1
 40
1.0
176
     1
  0
DICTIONARYVAR
  5
71
102
{ACAD_REACTORS
330
70
102
}
330
70
100
DictionaryVariables
280
     0
  1
1:1
  0
DICTIONARYVAR
  5
76
102
{ACAD_REACTORS
330
70
102
}
330
70
100
DictionaryVariables
280
     0
  1
Standard
  0
DICTIONARYVAR
  5
75
102
{ACAD_REACTORS
330
70
102
}
330
70
100
DictionaryVariables
280
     0
  1
Standard
  0
DICTIONARY
  5
72
330
5A
100
AcDbDictionary
280
     1
281
     1
  3
ACAD_ROUNDTRIP_2008_TABLESTYLE_CELLSTYLEMAP
360
73
  0
CELLSTYLEMAP
  5
73
102
{ACAD_REACTORS
330
72
102
}
330
72
100
AcDbCellStyleMap
 90
        3
300
CELLSTYLE
  1
TABLEFORMAT_BEGIN
 90
        5
170
     1
 91
        0
 92
    32768
 62
   257
 93
        1
300
CONTENTFORMAT
  1
CONTENTFORMAT_BEGIN
 90
        0
 91
        0
 92
        4
 93
        0
300

 40
0.0
140
1.0
 94
        5
 62
     0
340
11
144
0.25
309
CONTENTFORMAT_END
171
     1
301
MARGIN
  1
CELLMARGIN_BEGIN
 40
0.06
 40
0.06
 40
0.06
 40
0.06
 40
0.06
 40
0.06
309
CELLMARGIN_END
 94
        6
 95
        1
302
GRIDFORMAT
  1
GRIDFORMAT_BEGIN
 90
        0
 91
        1
 62
     0
 92
       -2
340
14
 93
        0
 40
0.045
309
GRIDFORMAT_END
 95
        2
302
GRIDFORMAT
  1
GRIDFORMAT_BEGIN
 90
        0
 91
        1
 62
     0
 92
       -2
340
14
 93
        0
 40
0.045
309
GRIDFORMAT_END
 95
        4
302
GRIDFORMAT
  1
GRIDFORMAT_BEGIN
 90
        0
 91
        1
 62
     0
 92
       -2
340
14
 93
        0
 40
0.045
309
GRIDFORMAT_END
 95
        8
302
GRIDFORMAT
  1
GRIDFORMAT_BEGIN
 90
        0
 91
        1
 62
     0
 92
       -2
340
14
 93
        0
 40
0.045
309
GRIDFORMAT_END
 95
       16
302
GRIDFORMAT
  1
GRIDFORMAT_BEGIN
 90
        0
 91
        1
 62
     0
 92
       -2
340
14
 93
        0
 40
0.045
309
GRIDFORMAT_END
 95
       32
302
GRIDFORMAT
  1
GRIDFORMAT_BEGIN
 90
        0
 91
        1
 62
     0
 92
       -2
340
14
 93
        0
 40
0.045
309
GRIDFORMAT_END
309
TABLEFORMAT_END
  1
CELLSTYLE_BEGIN
 90
        1
 91
        1
300
_TITLE
309
CELLSTYLE_END
300
CELLSTYLE
  1
TABLEFORMAT_BEGIN
 90
        5
170
     1
 91
        0
 92
        0
 62
   257
 93
        1
300
CONTENTFORMAT
  1
CONTENTFORMAT_BEGIN
 90
        0
 91
        0
 92
        4
 93
        0
300

 40
0.0
140
1.0
 94
        5
 62
     0
340
11
144
0.18
309
CONTENTFORMAT_END
171
     1
301
MARGIN
  1
CELLMARGIN_BEGIN
 40
0.06
 40
0.06
 40
0.06
 40
0.06
 40
0.06
 40
0.06
309
CELLMARGIN_END
 94
        6
 95
        1
302
GRIDFORMAT
  1
GRIDFORMAT_BEGIN
 90
        0
 91
        1
 62
     0
 92
       -2
340
14
 93
        0
 40
0.045
309
GRIDFORMAT_END
 95
        2
302
GRIDFORMAT
  1
GRIDFORMAT_BEGIN
 90
        0
 91
        1
 62
     0
 92
       -2
340
14
 93
        0
 40
0.045
309
GRIDFORMAT_END
 95
        4
302
GRIDFORMAT
  1
GRIDFORMAT_BEGIN
 90
        0
 91
        1
 62
     0
 92
       -2
340
14
 93
        0
 40
0.045
309
GRIDFORMAT_END
 95
        8
302
GRIDFORMAT
  1
GRIDFORMAT_BEGIN
 90
        0
 91
        1
 62
     0
 92
       -2
340
14
 93
        0
 40
0.045
309
GRIDFORMAT_END
 95
       16
302
GRIDFORMAT
  1
GRIDFORMAT_BEGIN
 90
        0
 91
        1
 62
     0
 92
       -2
340
14
 93
        0
 40
0.045
309
GRIDFORMAT_END
 95
       32
302
GRIDFORMAT
  1
GRIDFORMAT_BEGIN
 90
        0
 91
        1
 62
     0
 92
       -2
340
14
 93
        0
 40
0.045
309
GRIDFORMAT_END
309
TABLEFORMAT_END
  1
CELLSTYLE_BEGIN
 90
        2
 91
        1
300
_HEADER
309
CELLSTYLE_END
300
CELLSTYLE
  1
TABLEFORMAT_BEGIN
 90
        5
170
     1
 91
        0
 92
        0
 62
   257
 93
        1
300
CONTENTFORMAT
  1
CONTENTFORMAT_BEGIN
 90
        0
 91
        0
 92
        4
 93
        0
300

 40
0.0
140
1.0
 94
        2
 62
     0
340
11
144
0.18
309
CONTENTFORMAT_END
171
     1
301
MARGIN
  1
CELLMARGIN_BEGIN
 40
0.06
 40
0.06
 40
0.06
 40
0.06
 40
0.06
 40
0.06
309
CELLMARGIN_END
 94
        6
 95
        1
302
GRIDFORMAT
  1
GRIDFORMAT_BEGIN
 90
        0
 91
        1
 62
     0
 92
       -2
340
14
 93
        0
 40
0.045
309
GRIDFORMAT_END
 95
        2
302
GRIDFORMAT
  1
GRIDFORMAT_BEGIN
 90
        0
 91
        1
 62
     0
 92
       -2
340
14
 93
        0
 40
0.045
309
GRIDFORMAT_END
 95
        4
302
GRIDFORMAT
  1
GRIDFORMAT_BEGIN
 90
        0
 91
        1
 62
     0
 92
       -2
340
14
 93
        0
 40
0.045
309
GRIDFORMAT_END
 95
        8
302
GRIDFORMAT
  1
GRIDFORMAT_BEGIN
 90
        0
 91
        1
 62
     0
 92
       -2
340
14
 93
        0
 40
0.045
309
GRIDFORMAT_END
 95
       16
302
GRIDFORMAT
  1
GRIDFORMAT_BEGIN
 90
        0
 91
        1
 62
     0
 92
       -2
340
14
 93
        0
 40
0.045
309
GRIDFORMAT_END
 95
       32
302
GRIDFORMAT
  1
GRIDFORMAT_BEGIN
 90
        0
 91
        1
 62
     0
 92
       -2
340
14
 93
        0
 40
0.045
309
GRIDFORMAT_END
309
TABLEFORMAT_END
  1
CELLSTYLE_BEGIN
 90
        3
 91
        2
300
_DATA
309
CELLSTYLE_END
  0
ENDSEC
  0
EOF
