  0
SECTION
  2
HEADER
  9
$ACADVER
  1
AC1032
  9
$ACADMAINTVER
 90
       55
  9
$DWGCODEPAGE
  3
ANSI_1251
  9
$LASTSAVEDBY
  1
aveic
  9
$REQUIREDVERSIONS
160
                 0
  9
$INSBASE
 10
0.0
 20
0.0
 30
0.0
  9
$EXTMIN
 10
-7.77111
 20
-6.67738
 30
0.0
  9
$EXTMAX
 10
73.19296
 20
11.10113
 30
0.0
  9
$LIMMIN
 10
0.0
 20
0.0
  9
$LIMMAX
 10
12.0
 20
9.0
  9
$ORTHOMODE
 70
     0
  9
$REGENMODE
 70
     1
  9
$FILLMODE
 70
     1
  9
$QTEXTMODE
 70
     0
  9
$MIRRTEXT
 70
     1
  9
$LTSCALE
 40
1.0
  9
$ATTMODE
 70
     1
  9
$TEXTSIZE
 40
0.2
  9
$TRACEWID
 40
0.05
  9
$TEXTSTYLE
  7
Standard
  9
$CLAYER
  8
0
  9
$CELTYPE
  6
ByLayer
  9
$CECOLOR
 62
   256
  9
$CELTSCALE
 40
1.0
  9
$DISPSILH
 70
     0
  9
$DIMSCALE
 40
1.0
  9
$DIMASZ
 40
0.18
  9
$DIMEXO
 40
0.0625
  9
$DIMDLI
 40
0.38
  9
$DIMRND
 40
0.0
  9
$DIMDLE
 40
0.0
  9
$DIMEXE
 40
0.18
  9
$DIMTP
 40
0.0
  9
$DIMTM
 40
0.0
  9
$DIMTXT
 40
0.18
  9
$DIMCEN
 40
0.09
  9
$DIMTSZ
 40
0.0
  9
$DIMTOL
 70
     0
  9
$DIMLIM
 70
     0
  9
$DIMTIH
 70
     1
  9
$DIMTOH
 70
     1
  9
$DIMSE1
 70
     0
  9
$DIMSE2
 70
     0
  9
$DIMTAD
 70
     0
  9
$DIMZIN
 70
     0
  9
$DIMBLK
  1

  9
$DIMASO
 70
     1
  9
$DIMSHO
 70
     1
  9
$DIMPOST
  1

  9
$DIMAPOST
  1

  9
$DIMALT
 70
     0
  9
$DIMALTD
 70
     2
  9
$DIMALTF
 40
25.4
  9
$DIMLFAC
 40
1.0
  9
$DIMTOFL
 70
     0
  9
$DIMTVP
 40
0.0
  9
$DIMTIX
 70
     0
  9
$DIMSOXD
 70
     0
  9
$DIMSAH
 70
     0
  9
$DIMBLK1
  1

  9
$DIMBLK2
  1

  9
$DIMSTYLE
  2
Standard
  9
$DIMCLRD
 70
     0
  9
$DIMCLRE
 70
     0
  9
$DIMCLRT
 70
     0
  9
$DIMTFAC
 40
1.0
  9
$DIMGAP
 40
0.09
  9
$DIMJUST
 70
     0
  9
$DIMSD1
 70
     0
  9
$DIMSD2
 70
     0
  9
$DIMTOLJ
 70
     1
  9
$DIMTZIN
 70
     0
  9
$DIMALTZ
 70
     0
  9
$DIMALTTZ
 70
     0
  9
$DIMUPT
 70
     0
  9
$DIMDEC
 70
     4
  9
$DIMTDEC
 70
     4
  9
$DIMALTU
 70
     2
  9
$DIMALTTD
 70
     2
  9
$DIMTXSTY
  7
Standard
  9
$DIMAUNIT
 70
     0
  9
$DIMADEC
 70
     0
  9
$DIMALTRND
 40
0.0
  9
$DIMAZIN
 70
     0
  9
$DIMDSEP
 70
    46
  9
$DIMATFIT
 70
     3
  9
$DIMFRAC
 70
     0
  9
$DIMLDRBLK
  1

  9
$DIMLUNIT
 70
     2
  9
$DIMLWD
 70
    -2
  9
$DIMLWE
 70
    -2
  9
$DIMTMOVE
 70
     0
  9
$DIMFXL
 40
1.0
  9
$DIMFXLON
 70
     0
  9
$DIMJOGANG
 40
0.7853981633974483
  9
$DIMTFILL
 70
     0
  9
$DIMTFILLCLR
 70
     0
  9
$DIMARCSYM
 70
     0
  9
$DIMLTYPE
  6

  9
$DIMLTEX1
  6

  9
$DIMLTEX2
  6

  9
$DIMTXTDIRECTION
 70
     0
  9
$LUNITS
 70
     2
  9
$LUPREC
 70
     4
  9
$SKETCHINC
 40
0.1
  9
$FILLETRAD
 40
0.0
  9
$AUNITS
 70
     0
  9
$AUPREC
 70
     0
  9
$MENU
  1
.
  9
$ELEVATION
 40
0.0
  9
$PELEVATION
 40
0.0
  9
$THICKNESS
 40
0.0
  9
$LIMCHECK
 70
     0
  9
$CHAMFERA
 40
0.0
  9
$CHAMFERB
 40
0.0
  9
$CHAMFERC
 40
0.0
  9
$CHAMFERD
 40
0.0
  9
$SKPOLY
 70
     0
  9
$TDCREATE
 40
2461208.712234734
  9
$TDUCREATE
 40
2461208.587234734
  9
$TDUPDATE
 40
2461208.712234931
  9
$TDUUPDATE
 40
2461208.587234931
  9
$TDINDWG
 40
0.0000000116
  9
$TDUSRTIMER
 40
0.0000000116
  9
$USRTIMER
 70
     1
  9
$ANGBASE
 50
0.0
  9
$ANGDIR
 70
     0
  9
$PDMODE
 70
     0
  9
$PDSIZE
 40
0.0
  9
$PLINEWID
 40
0.0
  9
$SPLFRAME
 70
     0
  9
$SPLINETYPE
 70
     6
  9
$SPLINESEGS
 70
     8
  9
$HANDSEED
  5
89
  9
$SURFTAB1
 70
     6
  9
$SURFTAB2
 70
     6
  9
$SURFTYPE
 70
     6
  9
$SURFU
 70
     6
  9
$SURFV
 70
     6
  9
$UCSBASE
  2

  9
$UCSNAME
  2

  9
$UCSORG
 10
0.0
 20
0.0
 30
0.0
  9
$UCSXDIR
 10
1.0
 20
0.0
 30
0.0
  9
$UCSYDIR
 10
0.0
 20
1.0
 30
0.0
  9
$UCSORTHOREF
  2

  9
$UCSORTHOVIEW
 70
     0
  9
$UCSORGTOP
 10
0.0
 20
0.0
 30
0.0
  9
$UCSORGBOTTOM
 10
0.0
 20
0.0
 30
0.0
  9
$UCSORGLEFT
 10
0.0
 20
0.0
 30
0.0
  9
$UCSORGRIGHT
 10
0.0
 20
0.0
 30
0.0
  9
$UCSORGFRONT
 10
0.0
 20
0.0
 30
0.0
  9
$UCSORGBACK
 10
0.0
 20
0.0
 30
0.0
  9
$PUCSBASE
  2

  9
$PUCSNAME
  2

  9
$PUCSORG
 10
0.0
 20
0.0
 30
0.0
  9
$PUCSXDIR
 10
1.0
 20
0.0
 30
0.0
  9
$PUCSYDIR
 10
0.0
 20
1.0
 30
0.0
  9
$PUCSORTHOREF
  2

  9
$PUCSORTHOVIEW
 70
     0
  9
$PUCSORGTOP
 10
0.0
 20
0.0
 30
0.0
  9
$PUCSORGBOTTOM
 10
0.0
 20
0.0
 30
0.0
  9
$PUCSORGLEFT
 10
0.0
 20
0.0
 30
0.0
  9
$PUCSORGRIGHT
 10
0.0
 20
0.0
 30
0.0
  9
$PUCSORGFRONT
 10
0.0
 20
0.0
 30
0.0
  9
$PUCSORGBACK
 10
0.0
 20
0.0
 30
0.0
  9
$USERI1
 70
     0
  9
$USERI2
 70
     0
  9
$USERI3
 70
     0
  9
$USERI4
 70
     0
  9
$USERI5
 70
     0
  9
$USERR1
 40
0.0
  9
$USERR2
 40
0.0
  9
$USERR3
 40
0.0
  9
$USERR4
 40
0.0
  9
$USERR5
 40
0.0
  9
$WORLDVIEW
 70
     1
  9
$SHADEDGE
 70
     3
  9
$SHADEDIF
 70
    70
  9
$TILEMODE
 70
     1
  9
$MAXACTVP
 70
    64
  9
$PINSBASE
 10
0.0
 20
0.0
 30
0.0
  9
$PLIMCHECK
 70
     0
  9
$PEXTMIN
 10
1.000000000000000E+20
 20
1.000000000000000E+20
 30
1.000000000000000E+20
  9
$PEXTMAX
 10
-1.000000000000000E+20
 20
-1.000000000000000E+20
 30
-1.000000000000000E+20
  9
$PLIMMIN
 10
0.0
 20
0.0
  9
$PLIMMAX
 10
12.0
 20
9.0
  9
$UNITMODE
 70
     0
  9
$VISRETAIN
 70
     1
  9
$PLINEGEN
 70
     0
  9
$PSLTSCALE
 70
     1
  9
$TREEDEPTH
 70
  3020
  9
$CMLSTYLE
  2
Standard
  9
$CMLJUST
 70
     0
  9
$CMLSCALE
 40
1.0
  9
$PROXYGRAPHICS
 70
     1
  9
$MEASUREMENT
 70
     0
  9
$CELWEIGHT
370
    -1
  9
$ENDCAPS
280
     0
  9
$JOINSTYLE
280
     0
  9
$LWDISPLAY
290
     0
  9
$INSUNITS
 70
     5
  9
$HYPERLINKBASE
  1

  9
$STYLESHEET
  1

  9
$XEDIT
290
     1
  9
$CEPSNTYPE
380
     0
  9
$PSTYLEMODE
290
     1
  9
$FINGERPRINTGUID
  2
{9b82bd0f-2d54-4e81-873c-974b3256d75f}
  9
$VERSIONGUID
  2
{FAEB1C32-E019-11D5-929B-00C0DF256EC4}
  9
$EXTNAMES
290
     1
  9
$PSVPSCALE
 40
0.0
  9
$OLESTARTUP
290
     0
  9
$SORTENTS
280
   127
  9
$INDEXCTL
280
     0
  9
$HIDETEXT
280
     1
  9
$XCLIPFRAME
280
     2
  9
$HALOGAP
280
     0
  9
$OBSCOLOR
 70
   257
  9
$OBSLTYPE
280
     0
  9
$INTERSECTIONDISPLAY
280
     0
  9
$INTERSECTIONCOLOR
 70
   257
  9
$DIMASSOC
280
     2
  9
$PROJECTNAME
  1

  9
$CAMERADISPLAY
290
     0
  9
$LENSLENGTH
 40
50.0
  9
$CAMERAHEIGHT
 40
0.0
  9
$STEPSPERSEC
 40
2.0
  9
$STEPSIZE
 40
6.0
  9
$3DDWFPREC
 40
2.0
  9
$PSOLWIDTH
 40
0.25
  9
$PSOLHEIGHT
 40
4.0
  9
$LOFTANG1
 40
1.570796326794897
  9
$LOFTANG2
 40
1.570796326794897
  9
$LOFTMAG1
 40
0.0
  9
$LOFTMAG2
 40
0.0
  9
$LOFTPARAM
 70
     7
  9
$LOFTNORMALS
280
     1
  9
$LATITUDE
 40
37.795
  9
$LONGITUDE
 40
-122.394
  9
$NORTHDIRECTION
 40
0.0
  9
$TIMEZONE
 70
 -8000
  9
$LIGHTGLYPHDISPLAY
280
     1
  9
$TILEMODELIGHTSYNCH
280
     1
  9
$CMATERIAL
347
44
  9
$SOLIDHIST
280
     0
  9
$SHOWHIST
280
     1
  9
$DWFFRAME
280
     2
  9
$DGNFRAME
280
     2
  9
$REALWORLDSCALE
290
     1
  9
$INTERFERECOLOR
 62
   256
  9
$CSHADOW
280
     0
  9
$SHADOWPLANELOCATION
 40
0.0
  0
ENDSEC
  0
SECTION
  2
CLASSES
  0
CLASS
  1
ACDBDICTIONARYWDFLT
  2
AcDbDictionaryWithDefault
  3
ObjectDBX Classes
 90
        0
 91
        3
280
     0
281
     0
  0
CLASS
  1
VISUALSTYLE
  2
AcDbVisualStyle
  3
ObjectDBX Classes
 90
     4095
 91
        3
280
     0
281
     0
  0
CLASS
  1
MATERIAL
  2
AcDbMaterial
  3
ObjectDBX Classes
 90
     1153
 91
        3
280
     0
281
     0
  0
CLASS
  1
SCALE
  2
AcDbScale
  3
ObjectDBX Classes
 90
     1153
 91
        3
280
     0
281
     0
  0
CLASS
  1
TABLESTYLE
  2
AcDbTableStyle
  3
ObjectDBX Classes
 90
     4095
 91
        3
280
     0
281
     0
  0
CLASS
  1
MLEADERSTYLE
  2
AcDbMLeaderStyle
  3
ACDB_MLEADERSTYLE_CLASS
 90
     4095
 91
        3
280
     0
281
     0
  0
CLASS
  1
SUN
  2
AcDbSun
  3
SCENEOE
 90
     1153
 91
        3
280
     0
281
     0
  0
CLASS
  1
DICTIONARYVAR
  2
AcDbDictionaryVar
  3
ObjectDBX Classes
 90
        0
 91
        3
280
     0
281
     0
  0
CLASS
  1
CELLSTYLEMAP
  2
AcDbCellStyleMap
  3
ObjectDBX Classes
 90
     1152
 91
        3
280
     0
281
     0
  0
ENDSEC
  0
SECTION
  2
TABLES
  0
TABLE
  2
VPORT
  5
8
330
0
100
AcDbSymbolTable
 70
     1
  0
VPORT
  5
29
330
8
100
AcDbSymbolTableRecord
100
AcDbViewportTableRecord
  2
*Active
 70
     0
 10
0.0
 20
0.0
 11
1.0
 21
1.0
 12
10.42990654205607
 22
4.5
 13
0.0
 23
0.0
 14
0.5
 24
0.5
 15
0.5
 25
0.5
 16
0.0
 26
0.0
 36
1.0
 17
0.0
 27
0.0
 37
0.0
 40
9.0
 41
1.972972972850329
 42
50.0
 43
0.0
 44
0.0
 50
0.0
 51
0.0
 71
     0
 72
   100
 73
     1
 74
     3
 75
     0
 76
     0
 77
     0
 78
     0
281
     0
 65
     1
110
0.0
120
0.0
130
0.0
111
1.0
121
0.0
131
0.0
112
0.0
122
1.0
132
0.0
 79
     0
146
0.0
348
2F
 60
     3
 61
     5
292
     1
282
     1
141
0.0
142
0.0
 63
   250
361
5D
  0
ENDTAB
  0
TABLE
  2
LTYPE
  5
5
330
0
100
AcDbSymbolTable
 70
     1
  0
LTYPE
  5
14
330
5
100
AcDbSymbolTableRecord
100
AcDbLinetypeTableRecord
  2
ByBlock
 70
     0
  3

 72
    65
 73
     0
 40
0.0
  0
LTYPE
  5
15
330
5
100
AcDbSymbolTableRecord
100
AcDbLinetypeTableRecord
  2
ByLayer
 70
     0
  3

 72
    65
 73
     0
 40
0.0
  0
LTYPE
  5
16
330
5
100
AcDbSymbolTableRecord
100
AcDbLinetypeTableRecord
  2
Continuous
 70
     0
  3
Solid line
 72
    65
 73
     0
 40
0.0
  0
ENDTAB
  0
TABLE
  2
LAYER
  5
2
330
0
100
AcDbSymbolTable
 70
     2
  0
LAYER
  5
10
330
2
100
AcDbSymbolTableRecord
100
AcDbLayerTableRecord
  2
0
 70
     0
 62
     7
  6
Continuous
370
    -3
390
F
347
46
348
0
  0
LAYER
  5
5F
330
2
100
AcDbSymbolTableRecord
100
AcDbLayerTableRecord
  2
layer 1
 70
     0
 62
     7
  6
Continuous
370
    -3
390
F
347
46
348
0
  0
ENDTAB
  0
TABLE
  2
STYLE
  5
3
330
0
100
AcDbSymbolTable
 70
     1
  0
STYLE
  5
11
330
3
100
AcDbSymbolTableRecord
100
AcDbTextStyleTableRecord
  2
Standard
 70
     0
 40
0.0
 41
1.0
 50
0.0
 71
     0
 42
0.2
  3
txt
  4

  0
ENDTAB
  0
TABLE
  2
VIEW
  5
6
330
0
100
AcDbSymbolTable
 70
     0
  0
ENDTAB
  0
TABLE
  2
UCS
  5
7
330
0
100
AcDbSymbolTable
 70
     0
  0
ENDTAB
  0
TABLE
  2
APPID
  5
9
330
0
100
AcDbSymbolTable
 70
     2
  0
APPID
  5
12
330
9
100
AcDbSymbolTableRecord
100
AcDbRegAppTableRecord
  2
ACAD
 70
     0
  0
APPID
  5
5E
330
9
100
AcDbSymbolTableRecord
100
AcDbRegAppTableRecord
  2
ODA
 70
     0
  0
ENDTAB
  0
TABLE
  2
DIMSTYLE
  5
A
330
0
100
AcDbSymbolTable
 70
     1
100
AcDbDimStyleTable
  0
DIMSTYLE
105
27
330
A
100
AcDbSymbolTableRecord
100
AcDbDimStyleTableRecord
  2
Standard
 70
     0
178
     0
340
11
  0
ENDTAB
  0
TABLE
  2
BLOCK_RECORD
  5
1
330
0
100
AcDbSymbolTable
 70
     1
  0
BLOCK_RECORD
  5
1F
330
1
100
AcDbSymbolTableRecord
100
AcDbBlockTableRecord
  2
*Model_Space
340
22
 70
     0
280
     1
281
     0
  0
BLOCK_RECORD
  5
1B
330
1
100
AcDbSymbolTableRecord
100
AcDbBlockTableRecord
  2
*Paper_Space
340
1E
 70
     0
280
     1
281
     0
  0
BLOCK_RECORD
  5
23
330
1
100
AcDbSymbolTableRecord
100
AcDbBlockTableRecord
  2
*Paper_Space0
340
26
 70
     0
280
     1
281
     0
  0
ENDTAB
  0
ENDSEC
  0
SECTION
  2
BLOCKS
  0
BLOCK
  5
20
330
1F
100
AcDbEntity
  8
0
100
AcDbBlockBegin
  2
*Model_Space
 70
     0
 10
0.0
 20
0.0
 30
0.0
  3
*Model_Space
  1

  0
ENDBLK
  5
21
330
1F
100
AcDbEntity
  8
0
100
AcDbBlockEnd
  0
BLOCK
  5
1C
330
1B
100
AcDbEntity
 67
     1
  8
0
100
AcDbBlockBegin
  2
*Paper_Space
 70
     0
 10
0.0
 20
0.0
 30
0.0
  3
*Paper_Space
  1

  0
ENDBLK
  5
1D
330
1B
100
AcDbEntity
 67
     1
  8
0
100
AcDbBlockEnd
  0
BLOCK
  5
24
330
23
100
AcDbEntity
  8
0
100
AcDbBlockBegin
  2
*Paper_Space0
 70
     0
 10
0.0
 20
0.0
 30
0.0
  3
*Paper_Space0
  1

  0
ENDBLK
  5
25
330
23
100
AcDbEntity
  8
0
100
AcDbBlockEnd
  0
ENDSEC
  0
SECTION
  2
ENTITIES
  0
SPLINE
  5
60
330
1F
100
AcDbEntity
  8
layer 1
100
AcDbSpline
210
0.0
220
0.0
230
1.0
 70
    11
 71
     3
 72
    53
 73
    49
 74
     0
 42
0.0000000001
 43
0.0000000001
 40
0.0
 40
0.0
 40
0.0
 40
0.0
 40
0.0625
 40
0.0625
 40
0.0625
 40
0.125
 40
0.125
 40
0.125
 40
0.1875
 40
0.1875
 40
0.1875
 40
0.25
 40
0.25
 40
0.25
 40
0.3125
 40
0.3125
 40
0.3125
 40
0.375
 40
0.375
 40
0.375
 40
0.4375
 40
0.4375
 40
0.4375
 40
0.5
 40
0.5
 40
0.5
 40
0.5625
 40
0.5625
 40
0.5625
 40
0.625
 40
0.625
 40
0.625
 40
0.6875
 40
0.6875
 40
0.6875
 40
0.75
 40
0.75
 40
0.75
 40
0.8125
 40
0.8125
 40
0.8125
 40
0.875
 40
0.875
 40
0.875
 40
0.9375
 40
0.9375
 40
0.9375
 40
1.0
 40
1.0
 40
1.0
 40
1.0
 10
63.47166
 20
1.23763
 30
0.0
 10
63.61986
 20
1.18548
 30
0.0
 10
63.88409
 20
0.89317
 30
0.0
 10
64.01176
 20
0.77692
 30
0.0
 10
64.01176
 20
0.77692
 30
0.0
 10
64.57468
 20
0.31621
 30
0.0
 10
64.57468
 20
0.31621
 30
0.0
 10
64.79724
 20
0.112
 30
0.0
 10
65.08523
 20
-0.02705
 30
0.0
 10
65.32984
 20
-0.3061
 30
0.0
 10
65.87502
 20
-0.92802
 30
0.0
 10
65.49735
 20
-0.53951
 30
0.0
 10
66.01205
 20
-0.9623
 30
0.0
 10
66.01765
 20
-0.96689
 30
0.0
 10
66.0259
 20
-0.97336
 30
0.0
 10
66.03144
 20
-0.97804
 30
0.0
 10
66.03696
 20
-0.9827
 30
0.0
 10
66.04487
 20
-0.98952
 30
0.0
 10
66.05031
 20
-0.99427
 30
0.0
 10
66.05031
 20
-0.99427
 30
0.0
 10
66.41945
 20
-1.31654
 30
0.0
 10
66.41945
 20
-1.31654
 30
0.0
 10
66.23214
 20
-1.25956
 30
0.0
 10
66.39998
 20
-1.32772
 30
0.0
 10
66.2824
 20
-1.26636
 30
0.0
 10
66.2824
 20
-1.26636
 30
0.0
 10
65.96637
 20
-1.04865
 30
0.0
 10
65.96637
 20
-1.04865
 30
0.0
 10
65.82498
 20
-0.97898
 30
0.0
 10
65.66502
 20
-0.87984
 30
0.0
 10
65.53714
 20
-0.80522
 30
0.0
 10
65.53714
 20
-0.80522
 30
0.0
 10
64.86555
 20
-0.27886
 30
0.0
 10
64.86555
 20
-0.27886
 30
0.0
 10
64.81387
 20
-0.22844
 30
0.0
 10
64.82216
 20
-0.24425
 30
0.0
 10
64.76809
 20
-0.19764
 30
0.0
 10
64.76809
 20
-0.19764
 30
0.0
 10
63.90716
 20
0.63414
 30
0.0
 10
63.90716
 20
0.63414
 30
0.0
 10
63.90248
 20
0.63967
 30
0.0
 10
63.89595
 20
0.64775
 30
0.0
 10
63.89153
 20
0.6536
 30
0.0
 10
63.86403
 20
0.68996
 30
0.0
 10
63.87893
 20
0.67744
 30
0.0
 10
63.85103
 20
0.72045
 30
0.0
 10
63.85103
 20
0.72045
 30
0.0
 10
63.47166
 20
1.23763
 30
0.0
 10
63.47166
 20
1.23763
 30
0.0
  0
SPLINE
  5
61
330
1F
100
AcDbEntity
  8
layer 1
100
AcDbSpline
210
0.0
220
0.0
230
1.0
 70
    11
 71
     3
 72
    23
 73
    19
 74
     0
 42
0.0000000001
 43
0.0000000001
 40
0.0
 40
0.0
 40
0.0
 40
0.0
 40
0.1666666666666667
 40
0.1666666666666667
 40
0.1666666666666667
 40
0.3333333333333333
 40
0.3333333333333333
 40
0.3333333333333333
 40
0.5
 40
0.5
 40
0.5
 40
0.6666666666666666
 40
0.6666666666666666
 40
0.6666666666666666
 40
0.8333333333333333
 40
0.8333333333333333
 40
0.8333333333333333
 40
1.0
 40
1.0
 40
1.0
 40
1.0
 10
65.53222
 20
-0.07734
 30
0.0
 10
65.53222
 20
-0.07734
 30
0.0
 10
65.80213
 20
-0.21826
 30
0.0
 10
65.80213
 20
-0.21826
 30
0.0
 10
66.90302
 20
-0.79781
 30
0.0
 10
67.77992
 20
-1.12558
 30
0.0
 10
68.95718
 20
-1.52517
 30
0.0
 10
68.74565
 20
-1.54246
 30
0.0
 10
68.1495
 20
-1.44009
 30
0.0
 10
67.92988
 20
-1.37871
 30
0.0
 10
67.59338
 20
-1.28465
 30
0.0
 10
67.3493
 20
-1.13785
 30
0.0
 10
67.05267
 20
-1.02046
 30
0.0
 10
66.75259
 20
-0.90171
 30
0.0
 10
66.07428
 20
-0.48807
 30
0.0
 10
65.78262
 20
-0.27973
 30
0.0
 10
65.78262
 20
-0.27973
 30
0.0
 10
65.53222
 20
-0.07734
 30
0.0
 10
65.53222
 20
-0.07734
 30
0.0
  0
SPLINE
  5
62
330
1F
100
AcDbEntity
  8
layer 1
100
AcDbSpline
210
0.0
220
0.0
230
1.0
 70
    11
 71
     3
 72
    26
 73
    22
 74
     0
 42
0.0000000001
 43
0.0000000001
 40
0.0
 40
0.0
 40
0.0
 40
0.0
 40
0.1428571428571428
 40
0.1428571428571428
 40
0.1428571428571428
 40
0.2857142857142857
 40
0.2857142857142857
 40
0.2857142857142857
 40
0.4285714285714285
 40
0.4285714285714285
 40
0.4285714285714285
 40
0.5714285714285714
 40
0.5714285714285714
 40
0.5714285714285714
 40
0.7142857142857142
 40
0.7142857142857142
 40
0.7142857142857142
 40
0.8571428571428571
 40
0.8571428571428571
 40
0.8571428571428571
 40
1.0
 40
1.0
 40
1.0
 40
1.0
 10
62.64508
 20
3.04106
 30
0.0
 10
62.64508
 20
3.04106
 30
0.0
 10
62.78394
 20
2.89074
 30
0.0
 10
62.78394
 20
2.89074
 30
0.0
 10
63.00704
 20
2.51246
 30
0.0
 10
62.79986
 20
2.7727
 30
0.0
 10
63.21129
 20
2.19375
 30
0.0
 10
63.21129
 20
2.19375
 30
0.0
 10
63.75965
 20
1.4169
 30
0.0
 10
63.75965
 20
1.4169
 30
0.0
 10
63.72531
 20
1.43392
 30
0.0
 10
63.72111
 20
1.43373
 30
0.0
 10
63.68013
 20
1.45825
 30
0.0
 10
63.58765
 20
1.51359
 30
0.0
 10
63.23571
 20
1.94993
 30
0.0
 10
63.10426
 20
2.09068
 30
0.0
 10
63.10426
 20
2.09068
 30
0.0
 10
62.81775
 20
2.47524
 30
0.0
 10
62.81775
 20
2.47524
 30
0.0
 10
62.73349
 20
2.60226
 30
0.0
 10
62.6771
 20
2.87344
 30
0.0
 10
62.64508
 20
3.04106
 30
0.0
  0
SPLINE
  5
63
330
1F
100
AcDbEntity
  8
layer 1
100
AcDbSpline
210
0.0
220
0.0
230
1.0
 70
    11
 71
     3
 72
    50
 73
    46
 74
     0
 42
0.0000000001
 43
0.0000000001
 40
0.0
 40
0.0
 40
0.0
 40
0.0
 40
0.0666666666666667
 40
0.0666666666666667
 40
0.0666666666666667
 40
0.1333333333333333
 40
0.1333333333333333
 40
0.1333333333333333
 40
0.2
 40
0.2
 40
0.2
 40
0.2666666666666667
 40
0.2666666666666667
 40
0.2666666666666667
 40
0.3333333333333333
 40
0.3333333333333333
 40
0.3333333333333333
 40
0.4
 40
0.4
 40
0.4
 40
0.4666666666666667
 40
0.4666666666666667
 40
0.4666666666666667
 40
0.5333333333333333
 40
0.5333333333333333
 40
0.5333333333333333
 40
0.6
 40
0.6
 40
0.6
 40
0.6666666666666666
 40
0.6666666666666666
 40
0.6666666666666666
 40
0.7333333333333333
 40
0.7333333333333333
 40
0.7333333333333333
 40
0.8
 40
0.8
 40
0.8
 40
0.8666666666666667
 40
0.8666666666666667
 40
0.8666666666666667
 40
0.9333333333333333
 40
0.9333333333333333
 40
0.9333333333333333
 40
1.0
 40
1.0
 40
1.0
 40
1.0
 10
63.65182
 20
3.87044
 30
0.0
 10
63.75728
 20
3.81299
 30
0.0
 10
63.66304
 20
3.86949
 30
0.0
 10
63.73108
 20
3.81236
 30
0.0
 10
63.98591
 20
3.59838
 30
0.0
 10
63.8573
 20
3.71015
 30
0.0
 10
64.02955
 20
3.4714
 30
0.0
 10
64.09492
 20
3.38079
 30
0.0
 10
64.09992
 20
3.3992
 30
0.0
 10
64.16306
 20
3.32466
 30
0.0
 10
64.21942
 20
3.25813
 30
0.0
 10
64.20356
 20
3.25579
 30
0.0
 10
64.2712
 20
3.18338
 30
0.0
 10
64.50633
 20
2.93163
 30
0.0
 10
64.82424
 20
2.40127
 30
0.0
 10
65.03534
 20
2.11381
 30
0.0
 10
65.03534
 20
2.11381
 30
0.0
 10
65.32896
 20
1.69751
 30
0.0
 10
65.32896
 20
1.69751
 30
0.0
 10
65.40482
 20
1.59777
 30
0.0
 10
65.38505
 20
1.68109
 30
0.0
 10
65.46206
 20
1.49788
 30
0.0
 10
65.46206
 20
1.49788
 30
0.0
 10
65.1761
 20
1.80351
 30
0.0
 10
65.1761
 20
1.80351
 30
0.0
 10
65.1411
 20
1.84947
 30
0.0
 10
65.14753
 20
1.83231
 30
0.0
 10
65.11014
 20
1.87547
 30
0.0
 10
65.11014
 20
1.87547
 30
0.0
 10
64.97755
 20
2.02477
 30
0.0
 10
64.97755
 20
2.02477
 30
0.0
 10
64.95474
 20
2.04912
 30
0.0
 10
64.9758
 20
2.01849
 30
0.0
 10
64.92996
 20
2.08107
 30
0.0
 10
64.9013
 20
2.12019
 30
0.0
 10
64.90814
 20
2.12482
 30
0.0
 10
64.87355
 20
2.16676
 30
0.0
 10
64.87355
 20
2.16676
 30
0.0
 10
64.19515
 20
3.04196
 30
0.0
 10
64.19515
 20
3.04196
 30
0.0
 10
64.14507
 20
3.09986
 30
0.0
 10
64.11646
 20
3.12285
 30
0.0
 10
64.06765
 20
3.19641
 30
0.0
 10
64.06765
 20
3.19641
 30
0.0
 10
63.65182
 20
3.87044
 30
0.0
 10
63.65182
 20
3.87044
 30
0.0
  0
SPLINE
  5
64
330
1F
100
AcDbEntity
  8
layer 1
100
AcDbSpline
210
0.0
220
0.0
230
1.0
 70
    11
 71
     3
 72
    74
 73
    70
 74
     0
 42
0.0000000001
 43
0.0000000001
 40
0.0
 40
0.0
 40
0.0
 40
0.0
 40
0.0434782608695652
 40
0.0434782608695652
 40
0.0434782608695652
 40
0.0869565217391304
 40
0.0869565217391304
 40
0.0869565217391304
 40
0.1304347826086956
 40
0.1304347826086956
 40
0.1304347826086956
 40
0.1739130434782609
 40
0.1739130434782609
 40
0.1739130434782609
 40
0.2173913043478261
 40
0.2173913043478261
 40
0.2173913043478261
 40
0.2608695652173913
 40
0.2608695652173913
 40
0.2608695652173913
 40
0.3043478260869565
 40
0.3043478260869565
 40
0.3043478260869565
 40
0.3478260869565217
 40
0.3478260869565217
 40
0.3478260869565217
 40
0.3913043478260869
 40
0.3913043478260869
 40
0.3913043478260869
 40
0.4347826086956522
 40
0.4347826086956522
 40
0.4347826086956522
 40
0.4782608695652174
 40
0.4782608695652174
 40
0.4782608695652174
 40
0.5217391304347826
 40
0.5217391304347826
 40
0.5217391304347826
 40
0.5652173913043478
 40
0.5652173913043478
 40
0.5652173913043478
 40
0.6086956521739131
 40
0.6086956521739131
 40
0.6086956521739131
 40
0.6521739130434783
 40
0.6521739130434783
 40
0.6521739130434783
 40
0.6956521739130435
 40
0.6956521739130435
 40
0.6956521739130435
 40
0.7391304347826086
 40
0.7391304347826086
 40
0.7391304347826086
 40
0.7826086956521738
 40
0.7826086956521738
 40
0.7826086956521738
 40
0.8260869565217391
 40
0.8260869565217391
 40
0.8260869565217391
 40
0.8695652173913043
 40
0.8695652173913043
 40
0.8695652173913043
 40
0.9130434782608695
 40
0.9130434782608695
 40
0.9130434782608695
 40
0.9565217391304348
 40
0.9565217391304348
 40
0.9565217391304348
 40
1.0
 40
1.0
 40
1.0
 40
1.0
 10
65.6223
 20
2.2859
 30
0.0
 10
65.6223
 20
2.2859
 30
0.0
 10
65.73483
 20
2.06402
 30
0.0
 10
65.73483
 20
2.06402
 30
0.0
 10
65.72068
 20
2.09337
 30
0.0
 10
65.53824
 20
2.35805
 30
0.0
 10
65.45075
 20
2.40467
 30
0.0
 10
65.51812
 20
2.15014
 30
0.0
 10
65.57688
 20
2.1207
 30
0.0
 10
65.72043
 20
1.94914
 30
0.0
 10
65.74485
 20
1.91996
 30
0.0
 10
65.75701
 20
1.90282
 30
0.0
 10
65.78163
 20
1.87082
 30
0.0
 10
65.78163
 20
1.87082
 30
0.0
 10
65.8547
 20
1.76866
 30
0.0
 10
65.8547
 20
1.76866
 30
0.0
 10
65.85849
 20
1.76138
 30
0.0
 10
65.86302
 20
1.75179
 30
0.0
 10
65.86635
 20
1.74442
 30
0.0
 10
65.89144
 20
1.68892
 30
0.0
 10
65.878
 20
1.72554
 30
0.0
 10
65.89313
 20
1.66243
 30
0.0
 10
65.80269
 20
1.70827
 30
0.0
 10
65.86034
 20
1.67541
 30
0.0
 10
65.79108
 20
1.74293
 30
0.0
 10
65.79108
 20
1.74293
 30
0.0
 10
65.72375
 20
1.81623
 30
0.0
 10
65.72375
 20
1.81623
 30
0.0
 10
65.71883
 20
1.82181
 30
0.0
 10
65.71191
 20
1.82955
 30
0.0
 10
65.70703
 20
1.83524
 30
0.0
 10
65.70703
 20
1.83524
 30
0.0
 10
65.36332
 20
2.3043
 30
0.0
 10
65.36332
 20
2.3043
 30
0.0
 10
65.20136
 20
2.53093
 30
0.0
 10
65.02018
 20
2.72056
 30
0.0
 10
64.8851
 20
2.99166
 30
0.0
 10
64.79354
 20
3.17539
 30
0.0
 10
64.64032
 20
3.30754
 30
0.0
 10
64.59174
 20
3.51048
 30
0.0
 10
64.59174
 20
3.51048
 30
0.0
 10
64.73534
 20
3.3954
 30
0.0
 10
64.73534
 20
3.3954
 30
0.0
 10
64.79755
 20
3.31134
 30
0.0
 10
64.72107
 20
3.35503
 30
0.0
 10
64.8343
 20
3.25562
 30
0.0
 10
64.95872
 20
3.14638
 30
0.0
 10
64.9653
 20
3.20327
 30
0.0
 10
65.08449
 20
3.04746
 30
0.0
 10
65.18843
 20
2.91159
 30
0.0
 10
65.35984
 20
2.81186
 30
0.0
 10
65.45902
 20
2.71496
 30
0.0
 10
65.51988
 20
2.6555
 30
0.0
 10
65.50565
 20
2.64532
 30
0.0
 10
65.56897
 20
2.5802
 30
0.0
 10
65.64829
 20
2.49863
 30
0.0
 10
65.74339
 20
2.46347
 30
0.0
 10
65.83219
 20
2.38231
 30
0.0
 10
66.01612
 20
2.21422
 30
0.0
 10
65.79378
 20
2.33303
 30
0.0
 10
66.16925
 20
2.05148
 30
0.0
 10
66.16925
 20
2.05148
 30
0.0
 10
66.58964
 20
1.68956
 30
0.0
 10
66.58964
 20
1.68956
 30
0.0
 10
66.34187
 20
1.78631
 30
0.0
 10
65.98927
 20
2.04715
 30
0.0
 10
65.7942
 20
2.20062
 30
0.0
 10
65.67638
 20
2.29331
 30
0.0
 10
65.81093
 20
2.23487
 30
0.0
 10
65.6223
 20
2.2859
 30
0.0
  0
SPLINE
  5
65
330
1F
100
AcDbEntity
  8
layer 1
100
AcDbSpline
210
0.0
220
0.0
230
1.0
 70
    11
 71
     3
 72
    23
 73
    19
 74
     0
 42
0.0000000001
 43
0.0000000001
 40
0.0
 40
0.0
 40
0.0
 40
0.0
 40
0.1666666666666667
 40
0.1666666666666667
 40
0.1666666666666667
 40
0.3333333333333333
 40
0.3333333333333333
 40
0.3333333333333333
 40
0.5
 40
0.5
 40
0.5
 40
0.6666666666666666
 40
0.6666666666666666
 40
0.6666666666666666
 40
0.8333333333333333
 40
0.8333333333333333
 40
0.8333333333333333
 40
1.0
 40
1.0
 40
1.0
 40
1.0
 10
62.44761
 20
2.11304
 30
0.0
 10
62.51621
 20
2.0403
 30
0.0
 10
62.5485
 20
1.93572
 30
0.0
 10
62.57847
 20
1.84162
 30
0.0
 10
62.57847
 20
1.84162
 30
0.0
 10
62.90232
 20
1.10727
 30
0.0
 10
62.90232
 20
1.10727
 30
0.0
 10
62.97329
 20
0.96539
 30
0.0
 10
63.0483
 20
0.79026
 30
0.0
 10
63.14689
 20
0.64712
 30
0.0
 10
63.25643
 20
0.48807
 30
0.0
 10
63.31446
 20
0.31903
 30
0.0
 10
63.40286
 20
0.16108
 30
0.0
 10
63.16084
 20
0.29608
 30
0.0
 10
63.05906
 20
0.53483
 30
0.0
 10
62.87713
 20
0.73662
 30
0.0
 10
62.58913
 20
1.05607
 30
0.0
 10
62.44857
 20
1.67084
 30
0.0
 10
62.44761
 20
2.11304
 30
0.0
  0
SPLINE
  5
66
330
1F
100
AcDbEntity
  8
layer 1
100
AcDbSpline
210
0.0
220
0.0
230
1.0
 70
    11
 71
     3
 72
    17
 73
    13
 74
     0
 42
0.0000000001
 43
0.0000000001
 40
0.0
 40
0.0
 40
0.0
 40
0.0
 40
0.25
 40
0.25
 40
0.25
 40
0.5
 40
0.5
 40
0.5
 40
0.75
 40
0.75
 40
0.75
 40
1.0
 40
1.0
 40
1.0
 40
1.0
 10
71.93509
 20
2.52945
 30
0.0
 10
71.9887
 20
2.73719
 30
0.0
 10
72.2539
 20
2.9517
 30
0.0
 10
72.427
 20
3.17274
 30
0.0
 10
72.52187
 20
3.29389
 30
0.0
 10
72.54224
 20
3.33693
 30
0.0
 10
72.64137
 20
3.38838
 30
0.0
 10
72.60203
 20
3.20263
 30
0.0
 10
72.50138
 20
3.00651
 30
0.0
 10
72.36846
 20
2.87926
 30
0.0
 10
72.2121
 20
2.72955
 30
0.0
 10
72.09439
 20
2.58278
 30
0.0
 10
71.93509
 20
2.52945
 30
0.0
  0
SPLINE
  5
67
330
1F
100
AcDbEntity
  8
layer 1
100
AcDbSpline
210
0.0
220
0.0
230
1.0
 70
    11
 71
     3
 72
    11
 73
     7
 74
     0
 42
0.0000000001
 43
0.0000000001
 40
0.0
 40
0.0
 40
0.0
 40
0.0
 40
0.5
 40
0.5
 40
0.5
 40
1.0
 40
1.0
 40
1.0
 40
1.0
 10
72.19599
 20
3.61703
 30
0.0
 10
72.19599
 20
3.61703
 30
0.0
 10
72.00418
 20
3.52673
 30
0.0
 10
72.00418
 20
3.52673
 30
0.0
 10
72.12722
 20
3.53591
 30
0.0
 10
72.09857
 20
3.59085
 30
0.0
 10
72.19599
 20
3.61703
 30
0.0
  0
SPLINE
  5
68
330
1F
100
AcDbEntity
  8
layer 1
100
AcDbSpline
210
0.0
220
0.0
230
1.0
 70
    11
 71
     3
 72
   110
 73
   106
 74
     0
 42
0.0000000001
 43
0.0000000001
 40
0.0
 40
0.0
 40
0.0
 40
0.0
 40
0.0285714285714286
 40
0.0285714285714286
 40
0.0285714285714286
 40
0.0571428571428571
 40
0.0571428571428571
 40
0.0571428571428571
 40
0.0857142857142857
 40
0.0857142857142857
 40
0.0857142857142857
 40
0.1142857142857143
 40
0.1142857142857143
 40
0.1142857142857143
 40
0.1428571428571428
 40
0.1428571428571428
 40
0.1428571428571428
 40
0.1714285714285714
 40
0.1714285714285714
 40
0.1714285714285714
 40
0.2
 40
0.2
 40
0.2
 40
0.2285714285714286
 40
0.2285714285714286
 40
0.2285714285714286
 40
0.2571428571428571
 40
0.2571428571428571
 40
0.2571428571428571
 40
0.2857142857142857
 40
0.2857142857142857
 40
0.2857142857142857
 40
0.3142857142857143
 40
0.3142857142857143
 40
0.3142857142857143
 40
0.3428571428571429
 40
0.3428571428571429
 40
0.3428571428571429
 40
0.3714285714285714
 40
0.3714285714285714
 40
0.3714285714285714
 40
0.4
 40
0.4
 40
0.4
 40
0.4285714285714285
 40
0.4285714285714285
 40
0.4285714285714285
 40
0.4571428571428571
 40
0.4571428571428571
 40
0.4571428571428571
 40
0.4857142857142857
 40
0.4857142857142857
 40
0.4857142857142857
 40
0.5142857142857142
 40
0.5142857142857142
 40
0.5142857142857142
 40
0.5428571428571428
 40
0.5428571428571428
 40
0.5428571428571428
 40
0.5714285714285714
 40
0.5714285714285714
 40
0.5714285714285714
 40
0.6
 40
0.6
 40
0.6
 40
0.6285714285714286
 40
0.6285714285714286
 40
0.6285714285714286
 40
0.6571428571428571
 40
0.6571428571428571
 40
0.6571428571428571
 40
0.6857142857142857
 40
0.6857142857142857
 40
0.6857142857142857
 40
0.7142857142857143
 40
0.7142857142857143
 40
0.7142857142857143
 40
0.7428571428571429
 40
0.7428571428571429
 40
0.7428571428571429
 40
0.7714285714285714
 40
0.7714285714285714
 40
0.7714285714285714
 40
0.7999999999999999
 40
0.7999999999999999
 40
0.7999999999999999
 40
0.8285714285714285
 40
0.8285714285714285
 40
0.8285714285714285
 40
0.8571428571428571
 40
0.8571428571428571
 40
0.8571428571428571
 40
0.8857142857142857
 40
0.8857142857142857
 40
0.8857142857142857
 40
0.9142857142857143
 40
0.9142857142857143
 40
0.9142857142857143
 40
0.9428571428571428
 40
0.9428571428571428
 40
0.9428571428571428
 40
0.9714285714285714
 40
0.9714285714285714
 40
0.9714285714285714
 40
1.0
 40
1.0
 40
1.0
 40
1.0
 10
69.84157
 20
3.27579
 30
0.0
 10
69.7672
 20
3.19179
 30
0.0
 10
69.75085
 20
3.258
 30
0.0
 10
69.76336
 20
3.08188
 30
0.0
 10
69.78208
 20
2.81812
 30
0.0
 10
70.02522
 20
2.78635
 30
0.0
 10
70.40501
 20
2.6341
 30
0.0
 10
69.72535
 20
2.67189
 30
0.0
 10
69.77752
 20
2.74959
 30
0.0
 10
69.45332
 20
3.04003
 30
0.0
 10
69.3462
 20
3.136
 30
0.0
 10
69.3115
 20
3.18263
 30
0.0
 10
69.14508
 20
3.21848
 30
0.0
 10
69.20481
 20
3.28937
 30
0.0
 10
69.26662
 20
3.28916
 30
0.0
 10
69.30915
 20
3.32379
 30
0.0
 10
69.00736
 20
3.35174
 30
0.0
 10
69.04179
 20
3.28994
 30
0.0
 10
69.18224
 20
3.38072
 30
0.0
 10
69.18224
 20
3.38072
 30
0.0
 10
68.96095
 20
3.40348
 30
0.0
 10
68.96095
 20
3.40348
 30
0.0
 10
69.18471
 20
3.48549
 30
0.0
 10
69.45906
 20
3.44815
 30
0.0
 10
69.62806
 20
3.55236
 30
0.0
 10
69.33586
 20
3.58264
 30
0.0
 10
68.34894
 20
3.36899
 30
0.0
 10
68.01948
 20
3.27153
 30
0.0
 10
67.40722
 20
3.09041
 30
0.0
 10
66.90607
 20
3.31873
 30
0.0
 10
66.31687
 20
3.39506
 30
0.0
 10
66.49278
 20
3.27167
 30
0.0
 10
66.55867
 20
3.35593
 30
0.0
 10
66.69925
 20
3.18252
 30
0.0
 10
66.55117
 20
3.19901
 30
0.0
 10
65.65474
 20
3.42855
 30
0.0
 10
65.51802
 20
3.55399
 30
0.0
 10
65.51646
 20
3.55542
 30
0.0
 10
65.38226
 20
3.56661
 30
0.0
 10
65.56969
 20
3.63479
 30
0.0
 10
65.56969
 20
3.63479
 30
0.0
 10
65.39344
 20
3.69571
 30
0.0
 10
65.39344
 20
3.69571
 30
0.0
 10
65.58216
 20
3.72903
 30
0.0
 10
65.59666
 20
3.67549
 30
0.0
 10
65.80292
 20
3.67214
 30
0.0
 10
65.70144
 20
3.75311
 30
0.0
 10
65.33087
 20
3.87772
 30
0.0
 10
65.19732
 20
3.93749
 30
0.0
 10
65.09436
 20
3.98357
 30
0.0
 10
65.0301
 20
4.04817
 30
0.0
 10
64.94279
 20
4.10206
 30
0.0
 10
63.9737
 20
4.70021
 30
0.0
 10
64.48484
 20
4.43837
 30
0.0
 10
63.93242
 20
4.85858
 30
0.0
 10
63.93242
 20
4.85858
 30
0.0
 10
63.77208
 20
5.0567
 30
0.0
 10
63.77208
 20
5.0567
 30
0.0
 10
63.76738
 20
5.06626
 30
0.0
 10
63.76303
 20
5.07653
 30
0.0
 10
63.75885
 20
5.08554
 30
0.0
 10
63.75445
 20
5.09501
 30
0.0
 10
63.74934
 20
5.10824
 30
0.0
 10
63.7458
 20
5.11618
 30
0.0
 10
63.74218
 20
5.12431
 30
0.0
 10
63.73657
 20
5.137
 30
0.0
 10
63.73291
 20
5.14777
 30
0.0
 10
63.73291
 20
5.14777
 30
0.0
 10
64.35174
 20
4.64387
 30
0.0
 10
64.35174
 20
4.64387
 30
0.0
 10
64.41446
 20
4.59707
 30
0.0
 10
64.35967
 20
4.63846
 30
0.0
 10
64.41093
 20
4.59766
 30
0.0
 10
64.46765
 20
4.55253
 30
0.0
 10
64.47521
 20
4.54768
 30
0.0
 10
64.53214
 20
4.50519
 30
0.0
 10
64.58404
 20
4.46645
 30
0.0
 10
64.59556
 20
4.45302
 30
0.0
 10
64.64908
 20
4.41194
 30
0.0
 10
64.95835
 20
4.17451
 30
0.0
 10
65.30085
 20
4.01979
 30
0.0
 10
65.70681
 20
3.8497
 30
0.0
 10
67.64683
 20
3.03684
 30
0.0
 10
68.91927
 20
4.01249
 30
0.0
 10
69.85807
 20
3.62357
 30
0.0
 10
70.50524
 20
3.35546
 30
0.0
 10
71.41376
 20
3.25122
 30
0.0
 10
72.04505
 20
3.62716
 30
0.0
 10
72.05165
 20
3.63109
 30
0.0
 10
72.06086
 20
3.6359
 30
0.0
 10
72.06743
 20
3.63986
 30
0.0
 10
72.29264
 20
3.7757
 30
0.0
 10
72.53033
 20
4.10509
 30
0.0
 10
72.64312
 20
4.36744
 30
0.0
 10
72.72702
 20
4.56258
 30
0.0
 10
72.77043
 20
4.86918
 30
0.0
 10
72.83259
 20
4.98872
 30
0.0
 10
72.94393
 20
4.31868
 30
0.0
 10
72.70353
 20
3.77766
 30
0.0
 10
72.13334
 20
3.50063
 30
0.0
 10
72.13334
 20
3.50063
 30
0.0
 10
71.94645
 20
3.40131
 30
0.0
 10
71.94645
 20
3.40131
 30
0.0
 10
71.53709
 20
3.16728
 30
0.0
 10
70.23026
 20
3.02543
 30
0.0
 10
69.84157
 20
3.27579
 30
0.0
  0
SPLINE
  5
69
330
1F
100
AcDbEntity
  8
layer 1
100
AcDbSpline
210
0.0
220
0.0
230
1.0
 70
    11
 71
     3
 72
    14
 73
    10
 74
     0
 42
0.0000000001
 43
0.0000000001
 40
0.0
 40
0.0
 40
0.0
 40
0.0
 40
0.3333333333333333
 40
0.3333333333333333
 40
0.3333333333333333
 40
0.6666666666666666
 40
0.6666666666666666
 40
0.6666666666666666
 40
1.0
 40
1.0
 40
1.0
 40
1.0
 10
65.60824
 20
3.68968
 30
0.0
 10
65.47244
 20
3.69724
 30
0.0
 10
65.59558
 20
3.5886
 30
0.0
 10
65.60623
 20
3.65523
 30
0.0
 10
65.60624
 20
3.65531
 30
0.0
 10
65.60723
 20
3.65926
 30
0.0
 10
65.60725
 20
3.65947
 30
0.0
 10
65.60762
 20
3.66384
 30
0.0
 10
65.68454
 20
3.68544
 30
0.0
 10
65.60824
 20
3.68968
 30
0.0
  0
SPLINE
  5
6A
330
1F
100
AcDbEntity
  8
layer 1
100
AcDbSpline
210
0.0
220
0.0
230
1.0
 70
    11
 71
     3
 72
    11
 73
     7
 74
     0
 42
0.0000000001
 43
0.0000000001
 40
0.0
 40
0.0
 40
0.0
 40
0.0
 40
0.5
 40
0.5
 40
0.5
 40
1.0
 40
1.0
 40
1.0
 40
1.0
 10
66.31018
 20
3.41052
 30
0.0
 10
66.27122
 20
3.42452
 30
0.0
 10
66.18605
 20
3.40274
 30
0.0
 10
66.27246
 20
3.40751
 30
0.0
 10
66.27541
 20
3.40767
 30
0.0
 10
66.3483
 20
3.39683
 30
0.0
 10
66.31018
 20
3.41052
 30
0.0
  0
SPLINE
  5
6B
330
1F
100
AcDbEntity
  8
layer 1
100
AcDbSpline
210
0.0
220
0.0
230
1.0
 70
    11
 71
     3
 72
    14
 73
    10
 74
     0
 42
0.0000000001
 43
0.0000000001
 40
0.0
 40
0.0
 40
0.0
 40
0.0
 40
0.3333333333333333
 40
0.3333333333333333
 40
0.3333333333333333
 40
0.6666666666666666
 40
0.6666666666666666
 40
0.6666666666666666
 40
1.0
 40
1.0
 40
1.0
 40
1.0
 10
69.4879
 20
3.32346
 30
0.0
 10
69.46225
 20
3.33832
 30
0.0
 10
69.49081
 20
3.34498
 30
0.0
 10
69.41145
 20
3.34615
 30
0.0
 10
69.3489
 20
3.34707
 30
0.0
 10
69.31972
 20
3.32892
 30
0.0
 10
69.30915
 20
3.32379
 30
0.0
 10
69.40506
 20
3.28824
 30
0.0
 10
69.36594
 20
3.28291
 30
0.0
 10
69.4879
 20
3.32346
 30
0.0
  0
SPLINE
  5
6C
330
1F
100
AcDbEntity
  8
layer 1
100
AcDbSpline
210
0.0
220
0.0
230
1.0
 70
    11
 71
     3
 72
   143
 73
   139
 74
     0
 42
0.0000000001
 43
0.0000000001
 40
0.0
 40
0.0
 40
0.0
 40
0.0
 40
0.0217391304347826
 40
0.0217391304347826
 40
0.0217391304347826
 40
0.0434782608695652
 40
0.0434782608695652
 40
0.0434782608695652
 40
0.0652173913043478
 40
0.0652173913043478
 40
0.0652173913043478
 40
0.0869565217391304
 40
0.0869565217391304
 40
0.0869565217391304
 40
0.108695652173913
 40
0.108695652173913
 40
0.108695652173913
 40
0.1304347826086956
 40
0.1304347826086956
 40
0.1304347826086956
 40
0.1521739130434783
 40
0.1521739130434783
 40
0.1521739130434783
 40
0.1739130434782609
 40
0.1739130434782609
 40
0.1739130434782609
 40
0.1956521739130435
 40
0.1956521739130435
 40
0.1956521739130435
 40
0.2173913043478261
 40
0.2173913043478261
 40
0.2173913043478261
 40
0.2391304347826087
 40
0.2391304347826087
 40
0.2391304347826087
 40
0.2608695652173913
 40
0.2608695652173913
 40
0.2608695652173913
 40
0.2826086956521739
 40
0.2826086956521739
 40
0.2826086956521739
 40
0.3043478260869565
 40
0.3043478260869565
 40
0.3043478260869565
 40
0.3260869565217391
 40
0.3260869565217391
 40
0.3260869565217391
 40
0.3478260869565217
 40
0.3478260869565217
 40
0.3478260869565217
 40
0.3695652173913043
 40
0.3695652173913043
 40
0.3695652173913043
 40
0.3913043478260869
 40
0.3913043478260869
 40
0.3913043478260869
 40
0.4130434782608696
 40
0.4130434782608696
 40
0.4130434782608696
 40
0.4347826086956522
 40
0.4347826086956522
 40
0.4347826086956522
 40
0.4565217391304348
 40
0.4565217391304348
 40
0.4565217391304348
 40
0.4782608695652174
 40
0.4782608695652174
 40
0.4782608695652174
 40
0.5
 40
0.5
 40
0.5
 40
0.5217391304347826
 40
0.5217391304347826
 40
0.5217391304347826
 40
0.5434782608695652
 40
0.5434782608695652
 40
0.5434782608695652
 40
0.5652173913043478
 40
0.5652173913043478
 40
0.5652173913043478
 40
0.5869565217391304
 40
0.5869565217391304
 40
0.5869565217391304
 40
0.6086956521739131
 40
0.6086956521739131
 40
0.6086956521739131
 40
0.6304347826086957
 40
0.6304347826086957
 40
0.6304347826086957
 40
0.6521739130434783
 40
0.6521739130434783
 40
0.6521739130434783
 40
0.6739130434782609
 40
0.6739130434782609
 40
0.6739130434782609
 40
0.6956521739130435
 40
0.6956521739130435
 40
0.6956521739130435
 40
0.717391304347826
 40
0.717391304347826
 40
0.717391304347826
 40
0.7391304347826086
 40
0.7391304347826086
 40
0.7391304347826086
 40
0.7608695652173912
 40
0.7608695652173912
 40
0.7608695652173912
 40
0.7826086956521738
 40
0.7826086956521738
 40
0.7826086956521738
 40
0.8043478260869565
 40
0.8043478260869565
 40
0.8043478260869565
 40
0.8260869565217391
 40
0.8260869565217391
 40
0.8260869565217391
 40
0.8478260869565217
 40
0.8478260869565217
 40
0.8478260869565217
 40
0.8695652173913043
 40
0.8695652173913043
 40
0.8695652173913043
 40
0.8913043478260869
 40
0.8913043478260869
 40
0.8913043478260869
 40
0.9130434782608695
 40
0.9130434782608695
 40
0.9130434782608695
 40
0.9347826086956521
 40
0.9347826086956521
 40
0.9347826086956521
 40
0.9565217391304348
 40
0.9565217391304348
 40
0.9565217391304348
 40
0.9782608695652174
 40
0.9782608695652174
 40
0.9782608695652174
 40
1.0
 40
1.0
 40
1.0
 40
1.0
 10
65.60824
 20
5.01679
 30
0.0
 10
65.6543
 20
4.88954
 30
0.0
 10
65.61695
 20
5.00066
 30
0.0
 10
65.71217
 20
4.87378
 30
0.0
 10
65.74888
 20
4.82486
 30
0.0
 10
65.77445
 20
4.77611
 30
0.0
 10
65.81725
 20
4.73191
 30
0.0
 10
66.00502
 20
4.53803
 30
0.0
 10
66.49628
 20
4.31124
 30
0.0
 10
66.87824
 20
4.31124
 30
0.0
 10
66.87824
 20
4.31124
 30
0.0
 10
67.33685
 20
4.31124
 30
0.0
 10
67.33685
 20
4.31124
 30
0.0
 10
67.51416
 20
4.31124
 30
0.0
 10
67.49481
 20
4.34296
 30
0.0
 10
67.65435
 20
4.34651
 30
0.0
 10
67.65435
 20
4.34651
 30
0.0
 10
67.65435
 20
4.45235
 30
0.0
 10
67.65435
 20
4.45235
 30
0.0
 10
67.51585
 20
4.48462
 30
0.0
 10
67.42084
 20
4.50255
 30
0.0
 10
67.40741
 20
4.66401
 30
0.0
 10
67.8757
 20
4.55491
 30
0.0
 10
67.59215
 20
4.61719
 30
0.0
 10
67.86561
 20
4.48719
 30
0.0
 10
68.14852
 20
4.35268
 30
0.0
 10
68.09503
 20
4.41707
 30
0.0
 10
68.39519
 20
4.41707
 30
0.0
 10
68.35836
 20
4.55499
 30
0.0
 10
68.33193
 20
4.55092
 30
0.0
 10
68.17302
 20
4.61826
 30
0.0
 10
68.16763
 20
4.62054
 30
0.0
 10
68.15581
 20
4.62393
 30
0.0
 10
68.14824
 20
4.62874
 30
0.0
 10
68.27623
 20
4.65856
 30
0.0
 10
68.38993
 20
4.70077
 30
0.0
 10
68.52416
 20
4.7467
 30
0.0
 10
68.75703
 20
4.8264
 30
0.0
 10
68.7721
 20
4.84761
 30
0.0
 10
68.78324
 20
4.98151
 30
0.0
 10
68.64669
 20
4.99288
 30
0.0
 10
68.62494
 20
5.0319
 30
0.0
 10
68.48647
 20
5.0728
 30
0.0
 10
68.35904
 20
5.11045
 30
0.0
 10
68.30123
 20
5.12055
 30
0.0
 10
68.18841
 20
5.16279
 30
0.0
 10
68.11329
 20
5.19092
 30
0.0
 10
67.99691
 20
5.2327
 30
0.0
 10
67.91269
 20
5.27513
 30
0.0
 10
67.80237
 20
5.33069
 30
0.0
 10
67.78683
 20
5.36259
 30
0.0
 10
67.66508
 20
5.41557
 30
0.0
 10
67.40707
 20
5.52786
 30
0.0
 10
66.80648
 20
5.7929
 30
0.0
 10
66.49019
 20
5.7929
 30
0.0
 10
66.49019
 20
5.7929
 30
0.0
 10
66.49019
 20
5.82818
 30
0.0
 10
66.49019
 20
5.82818
 30
0.0
 10
66.63385
 20
5.82818
 30
0.0
 10
66.93911
 20
5.87236
 30
0.0
 10
67.06422
 20
5.88914
 30
0.0
 10
67.06422
 20
5.88914
 30
0.0
 10
68.88907
 20
5.96929
 30
0.0
 10
68.88907
 20
5.96929
 30
0.0
 10
69.78306
 20
5.96929
 30
0.0
 10
70.78789
 20
5.94572
 30
0.0
 10
71.62126
 20
5.66759
 30
0.0
 10
71.62126
 20
5.66759
 30
0.0
 10
71.74657
 20
5.61651
 30
0.0
 10
71.74657
 20
5.61651
 30
0.0
 10
71.50906
 20
5.59675
 30
0.0
 10
70.91921
 20
5.38639
 30
0.0
 10
70.72356
 20
5.29897
 30
0.0
 10
70.72356
 20
5.29897
 30
0.0
 10
70.02706
 20
5.00769
 30
0.0
 10
70.02706
 20
5.00769
 30
0.0
 10
69.8695
 20
4.9428
 30
0.0
 10
69.92132
 20
4.95271
 30
0.0
 10
69.8063
 20
4.87568
 30
0.0
 10
69.80934
 20
4.73884
 30
0.0
 10
69.83148
 20
4.75719
 30
0.0
 10
69.83148
 20
4.66401
 30
0.0
 10
69.83148
 20
4.33966
 30
0.0
 10
69.65805
 20
4.34651
 30
0.0
 10
70.19435
 20
4.34651
 30
0.0
 10
70.3276
 20
4.34651
 30
0.0
 10
70.40751
 20
4.43241
 30
0.0
 10
70.51185
 20
4.48763
 30
0.0
 10
70.51185
 20
4.48763
 30
0.0
 10
70.51676
 20
4.42979
 30
0.0
 10
70.51676
 20
4.42979
 30
0.0
 10
70.55916
 20
4.25596
 30
0.0
 10
70.73209
 20
4.31124
 30
0.0
 10
71.11157
 20
4.31124
 30
0.0
 10
71.3442
 20
4.31124
 30
0.0
 10
71.4538
 20
4.37539
 30
0.0
 10
71.60595
 20
4.45186
 30
0.0
 10
71.81679
 20
4.55784
 30
0.0
 10
71.83461
 20
4.55163
 30
0.0
 10
71.96071
 20
4.73338
 30
0.0
 10
72.1985
 20
5.07611
 30
0.0
 10
71.94659
 20
4.98151
 30
0.0
 10
71.21741
 20
4.98151
 30
0.0
 10
71.21741
 20
4.98151
 30
0.0
 10
71.26232
 20
5.00715
 30
0.0
 10
71.26232
 20
5.00715
 30
0.0
 10
71.54999
 20
5.14433
 30
0.0
 10
72.38157
 20
5.29894
 30
0.0
 10
72.38157
 20
4.98151
 30
0.0
 10
72.38157
 20
4.16337
 30
0.0
 10
71.71717
 20
3.74679
 30
0.0
 10
70.93518
 20
3.74679
 30
0.0
 10
70.43332
 20
3.74679
 30
0.0
 10
69.87644
 20
4.17013
 30
0.0
 10
69.27713
 20
4.17013
 30
0.0
 10
68.37251
 20
4.17013
 30
0.0
 10
67.7174
 20
3.59724
 30
0.0
 10
66.48975
 20
3.92275
 30
0.0
 10
66.23517
 20
3.99025
 30
0.0
 10
66.10239
 20
4.06078
 30
0.0
 10
65.87511
 20
4.15477
 30
0.0
 10
65.87511
 20
4.15477
 30
0.0
 10
65.33988
 20
4.46621
 30
0.0
 10
65.33988
 20
4.46621
 30
0.0
 10
64.36997
 20
5.19616
 30
0.0
 10
65.45081
 20
5.36957
 30
0.0
 10
65.85519
 20
5.36957
 30
0.0
 10
66.1929
 20
5.36957
 30
0.0
 10
66.72953
 20
5.20978
 30
0.0
 10
67.0449
 20
5.04233
 30
0.0
 10
67.0449
 20
5.04233
 30
0.0
 10
66.32728
 20
5.10915
 30
0.0
 10
66.32728
 20
5.10915
 30
0.0
 10
66.23697
 20
5.11709
 30
0.0
 10
66.14964
 20
5.09044
 30
0.0
 10
65.99745
 20
5.08714
 30
0.0
 10
65.74767
 20
5.08172
 30
0.0
 10
65.7724
 20
5.12672
 30
0.0
 10
65.60824
 20
5.01679
 30
0.0
  0
SPLINE
  5
6D
330
1F
100
AcDbEntity
  8
layer 1
100
AcDbSpline
210
0.0
220
0.0
230
1.0
 70
    11
 71
     3
 72
    20
 73
    16
 74
     0
 42
0.0000000001
 43
0.0000000001
 40
0.0
 40
0.0
 40
0.0
 40
0.0
 40
0.2
 40
0.2
 40
0.2
 40
0.4
 40
0.4
 40
0.4
 40
0.6000000000000001
 40
0.6000000000000001
 40
0.6000000000000001
 40
0.8
 40
0.8
 40
0.8
 40
1.0
 40
1.0
 40
1.0
 40
1.0
 10
53.89749
 20
4.98397
 30
0.0
 10
53.90718
 20
4.99617
 30
0.0
 10
53.91619
 20
5.00974
 30
0.0
 10
53.92638
 20
5.02069
 30
0.0
 10
54.06717
 20
5.17203
 30
0.0
 10
54.08024
 20
5.10671
 30
0.0
 10
54.19765
 20
5.1748
 30
0.0
 10
54.61984
 20
5.41962
 30
0.0
 10
54.42768
 20
5.27198
 30
0.0
 10
54.48888
 20
5.23031
 30
0.0
 10
54.46062
 20
5.16744
 30
0.0
 10
54.48928
 20
5.15574
 30
0.0
 10
54.25517
 20
5.07798
 30
0.0
 10
54.13691
 20
5.03871
 30
0.0
 10
54.01624
 20
5.00643
 30
0.0
 10
53.89749
 20
4.98397
 30
0.0
  0
SPLINE
  5
6E
330
1F
100
AcDbEntity
  8
layer 1
100
AcDbSpline
210
0.0
220
0.0
230
1.0
 70
    11
 71
     3
 72
    20
 73
    16
 74
     0
 42
0.0000000001
 43
0.0000000001
 40
0.0
 40
0.0
 40
0.0
 40
0.0
 40
0.2
 40
0.2
 40
0.2
 40
0.4
 40
0.4
 40
0.4
 40
0.6000000000000001
 40
0.6000000000000001
 40
0.6000000000000001
 40
0.8
 40
0.8
 40
0.8
 40
1.0
 40
1.0
 40
1.0
 40
1.0
 10
58.84641
 20
5.1942
 30
0.0
 10
58.98076
 20
5.2638
 30
0.0
 10
59.7924
 20
5.15863
 30
0.0
 10
60.06964
 20
5.16216
 30
0.0
 10
60.59102
 20
5.1688
 30
0.0
 10
61.17081
 20
5.29447
 30
0.0
 10
61.17781
 20
5.29419
 30
0.0
 10
61.27384
 20
5.29045
 30
0.0
 10
61.25756
 20
5.28193
 30
0.0
 10
61.30418
 20
5.25623
 30
0.0
 10
60.85116
 20
5.16454
 30
0.0
 10
60.55863
 20
5.06005
 30
0.0
 10
60.0693
 20
5.01932
 30
0.0
 10
59.7405
 20
4.99195
 30
0.0
 10
59.07371
 20
5.03759
 30
0.0
 10
58.84641
 20
5.1942
 30
0.0
  0
SPLINE
  5
6F
330
1F
100
AcDbEntity
  8
layer 1
100
AcDbSpline
210
0.0
220
0.0
230
1.0
 70
    11
 71
     3
 72
    35
 73
    31
 74
     0
 42
0.0000000001
 43
0.0000000001
 40
0.0
 40
0.0
 40
0.0
 40
0.0
 40
0.1
 40
0.1
 40
0.1
 40
0.2
 40
0.2
 40
0.2
 40
0.3
 40
0.3
 40
0.3
 40
0.4
 40
0.4
 40
0.4
 40
0.5
 40
0.5
 40
0.5
 40
0.6000000000000001
 40
0.6000000000000001
 40
0.6000000000000001
 40
0.7000000000000001
 40
0.7000000000000001
 40
0.7000000000000001
 40
0.8
 40
0.8
 40
0.8
 40
0.9
 40
0.9
 40
0.9
 40
1.0
 40
1.0
 40
1.0
 40
1.0
 10
55.90255
 20
5.6924
 30
0.0
 10
55.9131
 20
5.69491
 30
0.0
 10
55.94589
 20
5.70348
 30
0.0
 10
55.95695
 20
5.70664
 30
0.0
 10
56.56489
 20
5.88052
 30
0.0
 10
57.04631
 20
6.03837
 30
0.0
 10
57.78244
 20
5.87318
 30
0.0
 10
58.0699
 20
5.80868
 30
0.0
 10
58.94148
 20
5.54883
 30
0.0
 10
59.19094
 20
5.39848
 30
0.0
 10
59.26977
 20
5.35096
 30
0.0
 10
59.27972
 20
5.43712
 30
0.0
 10
59.19545
 20
5.3083
 30
0.0
 10
59.19545
 20
5.3083
 30
0.0
 10
59.18653
 20
5.27974
 30
0.0
 10
59.18653
 20
5.27974
 30
0.0
 10
59.18636
 20
5.28243
 30
0.0
 10
59.18897
 20
5.27308
 30
0.0
 10
59.18769
 20
5.27011
 30
0.0
 10
58.54051
 20
5.33991
 30
0.0
 10
57.86016
 20
6.07158
 30
0.0
 10
56.20307
 20
5.70379
 30
0.0
 10
56.20307
 20
5.70379
 30
0.0
 10
55.84388
 20
5.66426
 30
0.0
 10
55.84388
 20
5.66426
 30
0.0
 10
55.84032
 20
5.67372
 30
0.0
 10
55.82847
 20
5.6715
 30
0.0
 10
55.82188
 20
5.67676
 30
0.0
 10
55.82188
 20
5.67676
 30
0.0
 10
55.90255
 20
5.6924
 30
0.0
 10
55.90255
 20
5.6924
 30
0.0
  0
SPLINE
  5
70
330
1F
100
AcDbEntity
  8
layer 1
100
AcDbSpline
210
0.0
220
0.0
230
1.0
 70
    11
 71
     3
 72
    11
 73
     7
 74
     0
 42
0.0000000001
 43
0.0000000001
 40
0.0
 40
0.0
 40
0.0
 40
0.0
 40
0.5
 40
0.5
 40
0.5
 40
1.0
 40
1.0
 40
1.0
 40
1.0
 10
59.108
 20
5.34519
 30
0.0
 10
59.22986
 20
5.34019
 30
0.0
 10
59.06205
 20
5.35042
 30
0.0
 10
59.03906
 20
5.34948
 30
0.0
 10
59.03906
 20
5.34948
 30
0.0
 10
59.108
 20
5.34519
 30
0.0
 10
59.108
 20
5.34519
 30
0.0
  0
SPLINE
  5
71
330
1F
100
AcDbEntity
  8
layer 1
100
AcDbSpline
210
0.0
220
0.0
230
1.0
 70
    11
 71
     3
 72
    20
 73
    16
 74
     0
 42
0.0000000001
 43
0.0000000001
 40
0.0
 40
0.0
 40
0.0
 40
0.0
 40
0.2
 40
0.2
 40
0.2
 40
0.4
 40
0.4
 40
0.4
 40
0.6000000000000001
 40
0.6000000000000001
 40
0.6000000000000001
 40
0.8
 40
0.8
 40
0.8
 40
1.0
 40
1.0
 40
1.0
 40
1.0
 10
62.09131
 20
4.9522
 30
0.0
 10
61.88311
 20
5.02053
 30
0.0
 10
61.8786
 20
5.42024
 30
0.0
 10
61.95979
 20
5.62555
 30
0.0
 10
62.02966
 20
5.80224
 30
0.0
 10
62.19791
 20
6.11679
 30
0.0
 10
62.3744
 20
6.1632
 30
0.0
 10
62.19638
 20
5.65478
 30
0.0
 10
62.12052
 20
5.64167
 30
0.0
 10
62.14974
 20
5.00111
 30
0.0
 10
62.14184
 20
5.00683
 30
0.0
 10
62.13244
 20
5.01599
 30
0.0
 10
62.12812
 20
5.02084
 30
0.0
 10
62.12812
 20
5.02084
 30
0.0
 10
62.09131
 20
4.9522
 30
0.0
 10
62.09131
 20
4.9522
 30
0.0
  0
SPLINE
  5
72
330
1F
100
AcDbEntity
  8
layer 1
100
AcDbSpline
210
0.0
220
0.0
230
1.0
 70
    11
 71
     3
 72
    20
 73
    16
 74
     0
 42
0.0000000001
 43
0.0000000001
 40
0.0
 40
0.0
 40
0.0
 40
0.0
 40
0.2
 40
0.2
 40
0.2
 40
0.4
 40
0.4
 40
0.4
 40
0.6000000000000001
 40
0.6000000000000001
 40
0.6000000000000001
 40
0.8
 40
0.8
 40
0.8
 40
1.0
 40
1.0
 40
1.0
 40
1.0
 10
59.17393
 20
6.2456
 30
0.0
 10
60.91333
 20
6.62021
 30
0.0
 10
60.3699
 20
6.36294
 30
0.0
 10
61.06894
 20
6.19529
 30
0.0
 10
60.89396
 20
6.19883
 30
0.0
 10
60.71671
 20
6.2461
 30
0.0
 10
60.52131
 20
6.26641
 30
0.0
 10
60.24015
 20
6.29563
 30
0.0
 10
60.18417
 20
6.25198
 30
0.0
 10
59.93317
 20
6.24015
 30
0.0
 10
60.08374
 20
6.18671
 30
0.0
 10
60.09944
 20
6.26289
 30
0.0
 10
60.22605
 20
6.14568
 30
0.0
 10
60.03743
 20
6.07347
 30
0.0
 10
59.35056
 20
6.14888
 30
0.0
 10
59.17393
 20
6.2456
 30
0.0
  0
SPLINE
  5
73
330
1F
100
AcDbEntity
  8
layer 1
100
AcDbSpline
210
0.0
220
0.0
230
1.0
 70
    11
 71
     3
 72
    26
 73
    22
 74
     0
 42
0.0000000001
 43
0.0000000001
 40
0.0
 40
0.0
 40
0.0
 40
0.0
 40
0.1428571428571428
 40
0.1428571428571428
 40
0.1428571428571428
 40
0.2857142857142857
 40
0.2857142857142857
 40
0.2857142857142857
 40
0.4285714285714285
 40
0.4285714285714285
 40
0.4285714285714285
 40
0.5714285714285714
 40
0.5714285714285714
 40
0.5714285714285714
 40
0.7142857142857142
 40
0.7142857142857142
 40
0.7142857142857142
 40
0.8571428571428571
 40
0.8571428571428571
 40
0.8571428571428571
 40
1.0
 40
1.0
 40
1.0
 40
1.0
 10
67.5099
 20
6.46733
 30
0.0
 10
67.75745
 20
6.55262
 30
0.0
 10
68.66543
 20
6.69393
 30
0.0
 10
68.94997
 20
6.71815
 30
0.0
 10
69.54805
 20
6.76906
 30
0.0
 10
69.99575
 20
6.74592
 30
0.0
 10
70.54459
 20
6.67935
 30
0.0
 10
71.11483
 20
6.61019
 30
0.0
 10
72.65447
 20
6.3132
 30
0.0
 10
73.05167
 20
5.782
 30
0.0
 10
72.86021
 20
5.83926
 30
0.0
 10
72.65379
 20
5.95308
 30
0.0
 10
72.43758
 20
6.0213
 30
0.0
 10
72.20872
 20
6.09352
 30
0.0
 10
72.04411
 20
6.13085
 30
0.0
 10
71.82583
 20
6.1842
 30
0.0
 10
70.8134
 20
6.43167
 30
0.0
 10
70.0738
 20
6.47937
 30
0.0
 10
69.03018
 20
6.51171
 30
0.0
 10
68.51704
 20
6.52761
 30
0.0
 10
67.97679
 20
6.43799
 30
0.0
 10
67.5099
 20
6.46733
 30
0.0
  0
SPLINE
  5
74
330
1F
100
AcDbEntity
  8
layer 1
100
AcDbSpline
210
0.0
220
0.0
230
1.0
 70
    11
 71
     3
 72
    23
 73
    19
 74
     0
 42
0.0000000001
 43
0.0000000001
 40
0.0
 40
0.0
 40
0.0
 40
0.0
 40
0.1666666666666667
 40
0.1666666666666667
 40
0.1666666666666667
 40
0.3333333333333333
 40
0.3333333333333333
 40
0.3333333333333333
 40
0.5
 40
0.5
 40
0.5
 40
0.6666666666666666
 40
0.6666666666666666
 40
0.6666666666666666
 40
0.8333333333333333
 40
0.8333333333333333
 40
0.8333333333333333
 40
1.0
 40
1.0
 40
1.0
 40
1.0
 10
62.89649
 20
5.81532
 30
0.0
 10
63.48972
 20
6.02837
 30
0.0
 10
66.07324
 20
6.5527
 30
0.0
 10
66.72397
 20
6.58335
 30
0.0
 10
66.68152
 20
6.54453
 30
0.0
 10
66.70574
 20
6.55742
 30
0.0
 10
66.64095
 20
6.52519
 30
0.0
 10
66.64095
 20
6.52519
 30
0.0
 10
64.86779
 20
6.07003
 30
0.0
 10
64.86779
 20
6.07003
 30
0.0
 10
64.56597
 20
5.98026
 30
0.0
 10
64.25273
 20
5.87682
 30
0.0
 10
63.94833
 20
5.82592
 30
0.0
 10
63.94833
 20
5.82592
 30
0.0
 10
63.01237
 20
5.7725
 30
0.0
 10
63.01237
 20
5.7725
 30
0.0
 10
62.90488
 20
5.78036
 30
0.0
 10
62.95528
 20
5.77429
 30
0.0
 10
62.89649
 20
5.81532
 30
0.0
  0
SPLINE
  5
75
330
1F
100
AcDbEntity
  8
layer 1
100
AcDbSpline
210
0.0
220
0.0
230
1.0
 70
    11
 71
     3
 72
    23
 73
    19
 74
     0
 42
0.0000000001
 43
0.0000000001
 40
0.0
 40
0.0
 40
0.0
 40
0.0
 40
0.1666666666666667
 40
0.1666666666666667
 40
0.1666666666666667
 40
0.3333333333333333
 40
0.3333333333333333
 40
0.3333333333333333
 40
0.5
 40
0.5
 40
0.5
 40
0.6666666666666666
 40
0.6666666666666666
 40
0.6666666666666666
 40
0.8333333333333333
 40
0.8333333333333333
 40
0.8333333333333333
 40
1.0
 40
1.0
 40
1.0
 40
1.0
 10
61.15071
 20
6.4158
 30
0.0
 10
61.15071
 20
6.4158
 30
0.0
 10
61.62535
 20
6.07955
 30
0.0
 10
61.62535
 20
6.07955
 30
0.0
 10
61.0564
 20
6.19928
 30
0.0
 10
60.88863
 20
6.52431
 30
0.0
 10
60.23382
 20
6.57487
 30
0.0
 10
60.44076
 20
6.74549
 30
0.0
 10
60.78929
 20
6.64652
 30
0.0
 10
61.03408
 20
6.50982
 30
0.0
 10
61.13653
 20
6.4526
 30
0.0
 10
61.02455
 20
6.51828
 30
0.0
 10
61.11261
 20
6.44718
 30
0.0
 10
61.11812
 20
6.44273
 30
0.0
 10
61.12516
 20
6.43511
 30
0.0
 10
61.13078
 20
6.4308
 30
0.0
 10
61.1365
 20
6.4264
 30
0.0
 10
61.14477
 20
6.41998
 30
0.0
 10
61.15071
 20
6.4158
 30
0.0
  0
SPLINE
  5
76
330
1F
100
AcDbEntity
  8
layer 1
100
AcDbSpline
210
0.0
220
0.0
230
1.0
 70
    11
 71
     3
 72
    23
 73
    19
 74
     0
 42
0.0000000001
 43
0.0000000001
 40
0.0
 40
0.0
 40
0.0
 40
0.0
 40
0.1666666666666667
 40
0.1666666666666667
 40
0.1666666666666667
 40
0.3333333333333333
 40
0.3333333333333333
 40
0.3333333333333333
 40
0.5
 40
0.5
 40
0.5
 40
0.6666666666666666
 40
0.6666666666666666
 40
0.6666666666666666
 40
0.8333333333333333
 40
0.8333333333333333
 40
0.8333333333333333
 40
1.0
 40
1.0
 40
1.0
 40
1.0
 10
62.77462
 20
6.16834
 30
0.0
 10
62.81914
 20
6.37787
 30
0.0
 10
62.75243
 20
6.19418
 30
0.0
 10
62.86752
 20
6.3138
 30
0.0
 10
63.00399
 20
6.45566
 30
0.0
 10
62.98006
 20
6.47312
 30
0.0
 10
63.15129
 20
6.59565
 30
0.0
 10
63.50732
 20
6.85044
 30
0.0
 10
64.44845
 20
7.21949
 30
0.0
 10
64.76591
 20
7.23722
 30
0.0
 10
64.63518
 20
7.13819
 30
0.0
 10
64.70933
 20
7.16048
 30
0.0
 10
64.52311
 20
7.086
 30
0.0
 10
64.37744
 20
7.02773
 30
0.0
 10
64.38711
 20
7.01867
 30
0.0
 10
64.27465
 20
6.94704
 30
0.0
 10
64.04935
 20
6.80355
 30
0.0
 10
62.92645
 20
6.20068
 30
0.0
 10
62.77462
 20
6.16834
 30
0.0
  0
SPLINE
  5
77
330
1F
100
AcDbEntity
  8
layer 1
100
AcDbSpline
210
0.0
220
0.0
230
1.0
 70
    11
 71
     3
 72
    23
 73
    19
 74
     0
 42
0.0000000001
 43
0.0000000001
 40
0.0
 40
0.0
 40
0.0
 40
0.0
 40
0.1666666666666667
 40
0.1666666666666667
 40
0.1666666666666667
 40
0.3333333333333333
 40
0.3333333333333333
 40
0.3333333333333333
 40
0.5
 40
0.5
 40
0.5
 40
0.6666666666666666
 40
0.6666666666666666
 40
0.6666666666666666
 40
0.8333333333333333
 40
0.8333333333333333
 40
0.8333333333333333
 40
1.0
 40
1.0
 40
1.0
 40
1.0
 10
59.08469
 20
6.68375
 30
0.0
 10
59.16837
 20
6.6607
 30
0.0
 10
59.30541
 20
6.65425
 30
0.0
 10
59.39401
 20
6.59689
 30
0.0
 10
59.02722
 20
6.53824
 30
0.0
 10
58.44183
 20
6.55968
 30
0.0
 10
58.13638
 20
6.75094
 30
0.0
 10
57.88697
 20
6.90711
 30
0.0
 10
57.6051
 20
7.37866
 30
0.0
 10
57.52933
 20
7.59596
 30
0.0
 10
57.662
 20
7.54568
 30
0.0
 10
57.6293
 20
7.57952
 30
0.0
 10
57.71124
 20
7.42463
 30
0.0
 10
57.84669
 20
7.16859
 30
0.0
 10
58.01317
 20
7.04228
 30
0.0
 10
58.27193
 20
6.92433
 30
0.0
 10
58.59862
 20
6.77542
 30
0.0
 10
58.78295
 20
6.76684
 30
0.0
 10
59.08469
 20
6.68375
 30
0.0
  0
SPLINE
  5
78
330
1F
100
AcDbEntity
  8
layer 1
100
AcDbSpline
210
0.0
220
0.0
230
1.0
 70
    11
 71
     3
 72
    35
 73
    31
 74
     0
 42
0.0000000001
 43
0.0000000001
 40
0.0
 40
0.0
 40
0.0
 40
0.0
 40
0.1
 40
0.1
 40
0.1
 40
0.2
 40
0.2
 40
0.2
 40
0.3
 40
0.3
 40
0.3
 40
0.4
 40
0.4
 40
0.4
 40
0.5
 40
0.5
 40
0.5
 40
0.6000000000000001
 40
0.6000000000000001
 40
0.6000000000000001
 40
0.7000000000000001
 40
0.7000000000000001
 40
0.7000000000000001
 40
0.8
 40
0.8
 40
0.8
 40
0.9
 40
0.9
 40
0.9
 40
1.0
 40
1.0
 40
1.0
 40
1.0
 10
62.98337
 20
7.00555
 30
0.0
 10
62.9759
 20
7.22437
 30
0.0
 10
63.16778
 20
7.39138
 30
0.0
 10
63.31989
 20
7.51609
 30
0.0
 10
63.4723
 20
7.64104
 30
0.0
 10
63.58344
 20
7.81199
 30
0.0
 10
63.7417
 20
7.94373
 30
0.0
 10
64.01394
 20
8.17034
 30
0.0
 10
64.11719
 20
8.29162
 30
0.0
 10
64.47601
 20
8.4771
 30
0.0
 10
64.47601
 20
8.4771
 30
0.0
 10
64.75245
 20
8.61332
 30
0.0
 10
64.75245
 20
8.61332
 30
0.0
 10
64.75856
 20
8.62783
 30
0.0
 10
64.77442
 20
8.62215
 30
0.0
 10
64.78567
 20
8.62583
 30
0.0
 10
64.78567
 20
8.62583
 30
0.0
 10
64.4009
 20
8.30635
 30
0.0
 10
64.4009
 20
8.30635
 30
0.0
 10
64.02138
 20
8.05053
 30
0.0
 10
64.32663
 20
8.22373
 30
0.0
 10
64.05613
 20
8.01543
 30
0.0
 10
63.97005
 20
7.94915
 30
0.0
 10
63.90164
 20
7.89707
 30
0.0
 10
63.82487
 20
7.82284
 30
0.0
 10
63.82487
 20
7.82284
 30
0.0
 10
63.33502
 20
7.25787
 30
0.0
 10
63.33502
 20
7.25787
 30
0.0
 10
63.22435
 20
7.14706
 30
0.0
 10
63.17093
 20
7.08289
 30
0.0
 10
62.98337
 20
7.00555
 30
0.0
  0
SPLINE
  5
79
330
1F
100
AcDbEntity
  8
layer 1
100
AcDbSpline
210
0.0
220
0.0
230
1.0
 70
    11
 71
     3
 72
    23
 73
    19
 74
     0
 42
0.0000000001
 43
0.0000000001
 40
0.0
 40
0.0
 40
0.0
 40
0.0
 40
0.1666666666666667
 40
0.1666666666666667
 40
0.1666666666666667
 40
0.3333333333333333
 40
0.3333333333333333
 40
0.3333333333333333
 40
0.5
 40
0.5
 40
0.5
 40
0.6666666666666666
 40
0.6666666666666666
 40
0.6666666666666666
 40
0.8333333333333333
 40
0.8333333333333333
 40
0.8333333333333333
 40
1.0
 40
1.0
 40
1.0
 40
1.0
 10
58.19214
 20
7.58176
 30
0.0
 10
58.44842
 20
7.29932
 30
0.0
 10
58.31625
 20
7.36997
 30
0.0
 10
58.47493
 20
7.14201
 30
0.0
 10
58.35303
 20
7.20447
 30
0.0
 10
58.31836
 20
7.23337
 30
0.0
 10
58.22932
 20
7.30452
 30
0.0
 10
57.98412
 20
7.50047
 30
0.0
 10
57.74507
 20
7.73258
 30
0.0
 10
57.58067
 20
8.03199
 30
0.0
 10
57.58067
 20
8.03199
 30
0.0
 10
57.19358
 20
8.65707
 30
0.0
 10
57.19358
 20
8.65707
 30
0.0
 10
57.34553
 20
8.58929
 30
0.0
 10
57.50474
 20
8.46423
 30
0.0
 10
57.62219
 20
8.35558
 30
0.0
 10
57.74625
 20
8.24081
 30
0.0
 10
58.16742
 20
7.609
 30
0.0
 10
58.19214
 20
7.58176
 30
0.0
  0
SPLINE
  5
7A
330
1F
100
AcDbEntity
  8
layer 1
100
AcDbSpline
210
0.0
220
0.0
230
1.0
 70
    11
 71
     3
 72
    23
 73
    19
 74
     0
 42
0.0000000001
 43
0.0000000001
 40
0.0
 40
0.0
 40
0.0
 40
0.0
 40
0.1666666666666667
 40
0.1666666666666667
 40
0.1666666666666667
 40
0.3333333333333333
 40
0.3333333333333333
 40
0.3333333333333333
 40
0.5
 40
0.5
 40
0.5
 40
0.6666666666666666
 40
0.6666666666666666
 40
0.6666666666666666
 40
0.8333333333333333
 40
0.8333333333333333
 40
0.8333333333333333
 40
1.0
 40
1.0
 40
1.0
 40
1.0
 10
57.36111
 20
7.87513
 30
0.0
 10
57.23848
 20
7.96677
 30
0.0
 10
57.07815
 20
8.0394
 30
0.0
 10
56.99567
 20
8.11567
 30
0.0
 10
56.73646
 20
8.35539
 30
0.0
 10
56.74707
 20
8.39318
 30
0.0
 10
56.33139
 20
8.5814
 30
0.0
 10
56.26723
 20
8.61045
 30
0.0
 10
56.20292
 20
8.63738
 30
0.0
 10
56.14147
 20
8.66816
 30
0.0
 10
56.14147
 20
8.66816
 30
0.0
 10
55.95286
 20
8.7915
 30
0.0
 10
55.95286
 20
8.7915
 30
0.0
 10
56.34893
 20
8.74372
 30
0.0
 10
56.83328
 20
8.47636
 30
0.0
 10
57.13657
 20
8.26047
 30
0.0
 10
57.21581
 20
8.20406
 30
0.0
 10
57.34073
 20
7.95366
 30
0.0
 10
57.36111
 20
7.87513
 30
0.0
  0
SPLINE
  5
7B
330
1F
100
AcDbEntity
  8
layer 1
100
AcDbSpline
210
0.0
220
0.0
230
1.0
 70
    11
 71
     3
 72
    35
 73
    31
 74
     0
 42
0.0000000001
 43
0.0000000001
 40
0.0
 40
0.0
 40
0.0
 40
0.0
 40
0.1
 40
0.1
 40
0.1
 40
0.2
 40
0.2
 40
0.2
 40
0.3
 40
0.3
 40
0.3
 40
0.4
 40
0.4
 40
0.4
 40
0.5
 40
0.5
 40
0.5
 40
0.6000000000000001
 40
0.6000000000000001
 40
0.6000000000000001
 40
0.7000000000000001
 40
0.7000000000000001
 40
0.7000000000000001
 40
0.8
 40
0.8
 40
0.8
 40
0.9
 40
0.9
 40
0.9
 40
1.0
 40
1.0
 40
1.0
 40
1.0
 10
63.11125
 20
7.90975
 30
0.0
 10
63.1582
 20
8.13207
 30
0.0
 10
63.35581
 20
8.48517
 30
0.0
 10
63.47141
 20
8.5649
 30
0.0
 10
63.85954
 20
8.83258
 30
0.0
 10
64.4482
 20
9.14573
 30
0.0
 10
64.9201
 20
9.30971
 30
0.0
 10
64.9201
 20
9.30971
 30
0.0
 10
65.22454
 20
9.4239
 30
0.0
 10
65.22454
 20
9.4239
 30
0.0
 10
65.30023
 20
9.44818
 30
0.0
 10
65.33817
 20
9.45792
 30
0.0
 10
65.41867
 20
9.47566
 30
0.0
 10
65.41867
 20
9.47566
 30
0.0
 10
65.31995
 20
9.39745
 30
0.0
 10
65.31995
 20
9.39745
 30
0.0
 10
65.30476
 20
9.38777
 30
0.0
 10
65.26362
 20
9.36696
 30
0.0
 10
65.24685
 20
9.35914
 30
0.0
 10
65.24685
 20
9.35914
 30
0.0
 10
64.76336
 20
9.14038
 30
0.0
 10
64.76336
 20
9.14038
 30
0.0
 10
64.5055
 20
9.01134
 30
0.0
 10
63.80071
 20
8.49827
 30
0.0
 10
63.48539
 20
8.26685
 30
0.0
 10
63.23093
 20
8.08012
 30
0.0
 10
63.34001
 20
8.12155
 30
0.0
 10
63.2002
 20
7.98314
 30
0.0
 10
63.2002
 20
7.98314
 30
0.0
 10
63.11125
 20
7.90975
 30
0.0
 10
63.11125
 20
7.90975
 30
0.0
  0
SPLINE
  5
7C
330
1F
100
AcDbEntity
  8
layer 1
100
AcDbSpline
210
0.0
220
0.0
230
1.0
 70
    11
 71
     3
 72
    23
 73
    19
 74
     0
 42
0.0000000001
 43
0.0000000001
 40
0.0
 40
0.0
 40
0.0
 40
0.0
 40
0.1666666666666667
 40
0.1666666666666667
 40
0.1666666666666667
 40
0.3333333333333333
 40
0.3333333333333333
 40
0.3333333333333333
 40
0.5
 40
0.5
 40
0.5
 40
0.6666666666666666
 40
0.6666666666666666
 40
0.6666666666666666
 40
0.8333333333333333
 40
0.8333333333333333
 40
0.8333333333333333
 40
1.0
 40
1.0
 40
1.0
 40
1.0
 10
57.65998
 20
8.55701
 30
0.0
 10
57.47229
 20
8.61656
 30
0.0
 10
57.59957
 20
8.5953
 30
0.0
 10
57.48776
 20
8.71328
 30
0.0
 10
57.48776
 20
8.71328
 30
0.0
 10
56.02057
 20
9.3585
 30
0.0
 10
56.02057
 20
9.3585
 30
0.0
 10
55.91079
 20
9.39151
 30
0.0
 10
55.83089
 20
9.39762
 30
0.0
 10
55.74463
 20
9.47343
 30
0.0
 10
56.21933
 20
9.4514
 30
0.0
 10
56.75899
 20
9.36319
 30
0.0
 10
57.14516
 20
9.08019
 30
0.0
 10
57.22835
 20
9.01923
 30
0.0
 10
57.25799
 20
8.96929
 30
0.0
 10
57.32511
 20
8.9064
 30
0.0
 10
57.49113
 20
8.75084
 30
0.0
 10
57.47763
 20
8.83941
 30
0.0
 10
57.65998
 20
8.55701
 30
0.0
  0
SPLINE
  5
7D
330
1F
100
AcDbEntity
  8
layer 1
100
AcDbSpline
210
0.0
220
0.0
230
1.0
 70
    11
 71
     3
 72
    26
 73
    22
 74
     0
 42
0.0000000001
 43
0.0000000001
 40
0.0
 40
0.0
 40
0.0
 40
0.0
 40
0.1428571428571428
 40
0.1428571428571428
 40
0.1428571428571428
 40
0.2857142857142857
 40
0.2857142857142857
 40
0.2857142857142857
 40
0.4285714285714285
 40
0.4285714285714285
 40
0.4285714285714285
 40
0.5714285714285714
 40
0.5714285714285714
 40
0.5714285714285714
 40
0.7142857142857142
 40
0.7142857142857142
 40
0.7142857142857142
 40
0.8571428571428571
 40
0.8571428571428571
 40
0.8571428571428571
 40
1.0
 40
1.0
 40
1.0
 40
1.0
 10
71.78564
 20
9.00712
 30
0.0
 10
71.68109
 20
9.06506
 30
0.0
 10
71.61252
 20
9.09917
 30
0.0
 10
71.50424
 20
9.14346
 30
0.0
 10
71.31338
 20
9.22153
 30
0.0
 10
71.0901
 20
9.31824
 30
0.0
 10
70.8912
 20
9.37927
 30
0.0
 10
70.67541
 20
9.44549
 30
0.0
 10
70.45878
 20
9.5453
 30
0.0
 10
70.25844
 20
9.59784
 30
0.0
 10
70.02403
 20
9.6593
 30
0.0
 10
69.82766
 20
9.68898
 30
0.0
 10
69.60246
 20
9.76274
 30
0.0
 10
70.41903
 20
9.79386
 30
0.0
 10
70.94021
 20
9.63208
 30
0.0
 10
71.66073
 20
9.30968
 30
0.0
 10
71.88837
 20
9.20782
 30
0.0
 10
71.9557
 20
9.06446
 30
0.0
 10
72.09855
 20
8.84181
 30
0.0
 10
72.09855
 20
8.84181
 30
0.0
 10
71.78564
 20
9.00712
 30
0.0
 10
71.78564
 20
9.00712
 30
0.0
  0
SPLINE
  5
7E
330
1F
100
AcDbEntity
  8
layer 1
100
AcDbSpline
210
0.0
220
0.0
230
1.0
 70
    11
 71
     3
 72
   167
 73
   163
 74
     0
 42
0.0000000001
 43
0.0000000001
 40
0.0
 40
0.0
 40
0.0
 40
0.0
 40
0.0185185185185185
 40
0.0185185185185185
 40
0.0185185185185185
 40
0.037037037037037
 40
0.037037037037037
 40
0.037037037037037
 40
0.0555555555555556
 40
0.0555555555555556
 40
0.0555555555555556
 40
0.0740740740740741
 40
0.0740740740740741
 40
0.0740740740740741
 40
0.0925925925925926
 40
0.0925925925925926
 40
0.0925925925925926
 40
0.1111111111111111
 40
0.1111111111111111
 40
0.1111111111111111
 40
0.1296296296296296
 40
0.1296296296296296
 40
0.1296296296296296
 40
0.1481481481481481
 40
0.1481481481481481
 40
0.1481481481481481
 40
0.1666666666666667
 40
0.1666666666666667
 40
0.1666666666666667
 40
0.1851851851851852
 40
0.1851851851851852
 40
0.1851851851851852
 40
0.2037037037037037
 40
0.2037037037037037
 40
0.2037037037037037
 40
0.2222222222222222
 40
0.2222222222222222
 40
0.2222222222222222
 40
0.2407407407407407
 40
0.2407407407407407
 40
0.2407407407407407
 40
0.2592592592592592
 40
0.2592592592592592
 40
0.2592592592592592
 40
0.2777777777777778
 40
0.2777777777777778
 40
0.2777777777777778
 40
0.2962962962962963
 40
0.2962962962962963
 40
0.2962962962962963
 40
0.3148148148148148
 40
0.3148148148148148
 40
0.3148148148148148
 40
0.3333333333333333
 40
0.3333333333333333
 40
0.3333333333333333
 40
0.3518518518518519
 40
0.3518518518518519
 40
0.3518518518518519
 40
0.3703703703703703
 40
0.3703703703703703
 40
0.3703703703703703
 40
0.3888888888888888
 40
0.3888888888888888
 40
0.3888888888888888
 40
0.4074074074074074
 40
0.4074074074074074
 40
0.4074074074074074
 40
0.4259259259259259
 40
0.4259259259259259
 40
0.4259259259259259
 40
0.4444444444444444
 40
0.4444444444444444
 40
0.4444444444444444
 40
0.4629629629629629
 40
0.4629629629629629
 40
0.4629629629629629
 40
0.4814814814814815
 40
0.4814814814814815
 40
0.4814814814814815
 40
0.5
 40
0.5
 40
0.5
 40
0.5185185185185185
 40
0.5185185185185185
 40
0.5185185185185185
 40
0.537037037037037
 40
0.537037037037037
 40
0.537037037037037
 40
0.5555555555555556
 40
0.5555555555555556
 40
0.5555555555555556
 40
0.5740740740740741
 40
0.5740740740740741
 40
0.5740740740740741
 40
0.5925925925925926
 40
0.5925925925925926
 40
0.5925925925925926
 40
0.611111111111111
 40
0.611111111111111
 40
0.611111111111111
 40
0.6296296296296295
 40
0.6296296296296295
 40
0.6296296296296295
 40
0.6481481481481481
 40
0.6481481481481481
 40
0.6481481481481481
 40
0.6666666666666666
 40
0.6666666666666666
 40
0.6666666666666666
 40
0.6851851851851851
 40
0.6851851851851851
 40
0.6851851851851851
 40
0.7037037037037037
 40
0.7037037037037037
 40
0.7037037037037037
 40
0.7222222222222222
 40
0.7222222222222222
 40
0.7222222222222222
 40
0.7407407407407407
 40
0.7407407407407407
 40
0.7407407407407407
 40
0.7592592592592592
 40
0.7592592592592592
 40
0.7592592592592592
 40
0.7777777777777777
 40
0.7777777777777777
 40
0.7777777777777777
 40
0.7962962962962963
 40
0.7962962962962963
 40
0.7962962962962963
 40
0.8148148148148148
 40
0.8148148148148148
 40
0.8148148148148148
 40
0.8333333333333333
 40
0.8333333333333333
 40
0.8333333333333333
 40
0.8518518518518519
 40
0.8518518518518519
 40
0.8518518518518519
 40
0.8703703703703703
 40
0.8703703703703703
 40
0.8703703703703703
 40
0.8888888888888888
 40
0.8888888888888888
 40
0.8888888888888888
 40
0.9074074074074073
 40
0.9074074074074073
 40
0.9074074074074073
 40
0.9259259259259258
 40
0.9259259259259258
 40
0.9259259259259258
 40
0.9444444444444444
 40
0.9444444444444444
 40
0.9444444444444444
 40
0.9629629629629629
 40
0.9629629629629629
 40
0.9629629629629629
 40
0.9814814814814814
 40
0.9814814814814814
 40
0.9814814814814814
 40
1.0
 40
1.0
 40
1.0
 40
1.0
 10
62.64491
 20
6.49846
 30
0.0
 10
62.48175
 20
6.42017
 30
0.0
 10
62.46653
 20
6.45377
 30
0.0
 10
62.27205
 20
6.41271
 30
0.0
 10
61.62174
 20
6.27539
 30
0.0
 10
62.0072
 20
6.1109
 30
0.0
 10
61.25793
 20
6.55787
 30
0.0
 10
60.91837
 20
6.76043
 30
0.0
 10
60.64385
 20
6.93557
 30
0.0
 10
60.17546
 20
6.85217
 30
0.0
 10
59.76755
 20
6.77954
 30
0.0
 10
59.54188
 20
6.69557
 30
0.0
 10
59.03125
 20
7.04758
 30
0.0
 10
57.99959
 20
7.75876
 30
0.0
 10
58.47711
 20
8.5924
 30
0.0
 10
56.58849
 20
9.64954
 30
0.0
 10
56.38224
 20
9.76498
 30
0.0
 10
56.13574
 20
9.86189
 30
0.0
 10
55.89367
 20
9.9425
 30
0.0
 10
55.55616
 20
10.0549
 30
0.0
 10
55.36951
 20
10.09679
 30
0.0
 10
54.95435
 20
10.09679
 30
0.0
 10
54.41449
 20
10.09679
 30
0.0
 10
53.3224
 20
9.80871
 30
0.0
 10
53.11991
 20
9.53235
 30
0.0
 10
54.56704
 20
8.76662
 30
0.0
 10
54.10769
 20
8.76244
 30
0.0
 10
54.10769
 20
8.43874
 30
0.0
 10
54.10769
 20
8.15099
 30
0.0
 10
54.51883
 20
8.54457
 30
0.0
 10
54.98963
 20
8.54457
 30
0.0
 10
55.78059
 20
8.54457
 30
0.0
 10
56.25486
 20
8.37797
 30
0.0
 10
56.8698
 20
7.92002
 30
0.0
 10
57.59521
 20
7.37979
 30
0.0
 10
57.39874
 20
6.99659
 30
0.0
 10
57.76617
 20
6.62917
 30
0.0
 10
58.12101
 20
6.27434
 30
0.0
 10
59.69466
 20
5.87296
 30
0.0
 10
60.18387
 20
5.76603
 30
0.0
 10
60.18387
 20
5.76603
 30
0.0
 10
60.89668
 20
5.63218
 30
0.0
 10
60.89668
 20
5.63218
 30
0.0
 10
60.93818
 20
5.62462
 30
0.0
 10
60.98526
 20
5.62128
 30
0.0
 10
61.01985
 20
5.61423
 30
0.0
 10
61.02994
 20
5.61217
 30
0.0
 10
61.0397
 20
5.61047
 30
0.0
 10
61.04912
 20
5.60822
 30
0.0
 10
61.05813
 20
5.60606
 30
0.0
 10
61.06873
 20
5.60261
 30
0.0
 10
61.07662
 20
5.60043
 30
0.0
 10
61.07662
 20
5.60043
 30
0.0
 10
61.12796
 20
5.58124
 30
0.0
 10
61.12796
 20
5.58124
 30
0.0
 10
59.8368
 20
5.28043
 30
0.0
 10
59.3172
 20
5.68911
 30
0.0
 10
58.26638
 20
6.07104
 30
0.0
 10
56.26679
 20
6.79779
 30
0.0
 10
55.14968
 20
6.79245
 30
0.0
 10
53.44408
 20
5.64512
 30
0.0
 10
53.2792
 20
5.5342
 30
0.0
 10
52.90655
 20
5.13857
 30
0.0
 10
52.74067
 20
4.97269
 30
0.0
 10
52.62728
 20
4.8593
 30
0.0
 10
52.45792
 20
4.75663
 30
0.0
 10
52.41435
 20
4.59346
 30
0.0
 10
52.84148
 20
4.59346
 30
0.0
 10
53.67572
 20
4.84015
 30
0.0
 10
53.9313
 20
4.73457
 30
0.0
 10
53.9313
 20
4.73457
 30
0.0
 10
53.82546
 20
4.06429
 30
0.0
 10
53.82546
 20
4.06429
 30
0.0
 10
53.82546
 20
3.98172
 30
0.0
 10
53.884
 20
3.92318
 30
0.0
 10
53.96658
 20
3.92318
 30
0.0
 10
54.52213
 20
3.92318
 30
0.0
 10
54.83537
 20
4.60933
 30
0.0
 10
55.6456
 20
4.88999
 30
0.0
 10
55.75385
 20
4.92749
 30
0.0
 10
55.87629
 20
4.9647
 30
0.0
 10
55.98246
 20
4.97647
 30
0.0
 10
56.10884
 20
4.99048
 30
0.0
 10
56.30238
 20
5.02111
 30
0.0
 10
56.39774
 20
5.0161
 30
0.0
 10
57.74908
 20
4.94508
 30
0.0
 10
58.627
 20
3.88735
 30
0.0
 10
60.70149
 20
4.56132
 30
0.0
 10
60.70149
 20
4.56132
 30
0.0
 10
61.37491
 20
4.87568
 30
0.0
 10
61.37491
 20
4.87568
 30
0.0
 10
61.4801
 20
4.48173
 30
0.0
 10
62.10617
 20
4.25728
 30
0.0
 10
62.29213
 20
4.34651
 30
0.0
 10
62.39782
 20
3.89287
 30
0.0
 10
62.63962
 20
3.89034
 30
0.0
 10
62.46383
 20
3.61224
 30
0.0
 10
62.32517
 20
3.39285
 30
0.0
 10
62.2627
 20
3.12602
 30
0.0
 10
62.10666
 20
2.90921
 30
0.0
 10
61.94145
 20
2.67965
 30
0.0
 10
61.77165
 20
2.57487
 30
0.0
 10
61.57772
 20
2.37981
 30
0.0
 10
61.29687
 20
2.09732
 30
0.0
 10
61.16324
 20
2.04974
 30
0.0
 10
61.16324
 20
1.59485
 30
0.0
 10
61.16324
 20
1.27272
 30
0.0
 10
61.48795
 20
0.86541
 30
0.0
 10
61.64895
 20
0.66944
 30
0.0
 10
62.28076
 20
-0.09958
 30
0.0
 10
62.59748
 20
-0.27248
 30
0.0
 10
63.35535
 20
-0.79916
 30
0.0
 10
63.43668
 20
-0.85568
 30
0.0
 10
63.4778
 20
-0.88452
 30
0.0
 10
63.56841
 20
-0.93887
 30
0.0
 10
63.71683
 20
-1.02789
 30
0.0
 10
63.87015
 20
-1.11785
 30
0.0
 10
64.02048
 20
-1.19236
 30
0.0
 10
64.02048
 20
-1.19236
 30
0.0
 10
64.93594
 20
-1.68801
 30
0.0
 10
64.93594
 20
-1.68801
 30
0.0
 10
65.70295
 20
-2.15056
 30
0.0
 10
67.01516
 20
-3.02654
 30
0.0
 10
67.86602
 20
-3.02654
 30
0.0
 10
68.68726
 20
-3.02654
 30
0.0
 10
69.60532
 20
-2.20204
 30
0.0
 10
69.9494
 20
-1.61743
 30
0.0
 10
70.11191
 20
-1.34132
 30
0.0
 10
71.31365
 20
-0.10382
 30
0.0
 10
71.86756
 20
0.80358
 30
0.0
 10
72.28926
 20
1.49439
 30
0.0
 10
72.73711
 20
2.53607
 30
0.0
 10
72.86083
 20
3.30281
 30
0.0
 10
72.88681
 20
3.4638
 30
0.0
 10
72.89037
 20
3.51682
 30
0.0
 10
72.92433
 20
3.66265
 30
0.0
 10
73.04915
 20
4.19862
 30
0.0
 10
73.05469
 20
4.28694
 30
0.0
 10
73.05173
 20
4.8758
 30
0.0
 10
73.0483
 20
5.5581
 30
0.0
 10
73.19296
 20
5.23411
 30
0.0
 10
73.19296
 20
5.61651
 30
0.0
 10
73.19296
 20
5.86501
 30
0.0
 10
73.08617
 20
5.84368
 30
0.0
 10
73.08528
 20
6.14384
 30
0.0
 10
73.08147
 20
7.43623
 30
0.0
 10
72.65048
 20
8.51001
 30
0.0
 10
71.88799
 20
9.49738
 30
0.0
 10
71.22898
 20
10.35076
 30
0.0
 10
69.44326
 20
11.08303
 30
0.0
 10
68.28872
 20
11.0844
 30
0.0
 10
67.75969
 20
11.08503
 30
0.0
 10
67.86094
 20
11.13976
 30
0.0
 10
67.1973
 20
11.04773
 30
0.0
 10
66.78922
 20
10.99115
 30
0.0
 10
66.49553
 20
10.90588
 30
0.0
 10
66.14164
 20
10.79811
 30
0.0
 10
64.89637
 20
10.41889
 30
0.0
 10
63.87401
 20
9.64484
 30
0.0
 10
63.21094
 20
8.54298
 30
0.0
 10
62.76523
 20
7.80231
 30
0.0
 10
62.64491
 20
7.41512
 30
0.0
 10
62.64491
 20
6.49846
 30
0.0
  0
SPLINE
  5
7F
330
1F
100
AcDbEntity
  8
layer 1
100
AcDbSpline
210
0.0
220
0.0
230
1.0
 70
    11
 71
     3
 72
   203
 73
   199
 74
     0
 42
0.0000000001
 43
0.0000000001
 40
0.0
 40
0.0
 40
0.0
 40
0.0
 40
0.0151515151515152
 40
0.0151515151515152
 40
0.0151515151515152
 40
0.0303030303030303
 40
0.0303030303030303
 40
0.0303030303030303
 40
0.0454545454545455
 40
0.0454545454545455
 40
0.0454545454545455
 40
0.0606060606060606
 40
0.0606060606060606
 40
0.0606060606060606
 40
0.0757575757575758
 40
0.0757575757575758
 40
0.0757575757575758
 40
0.0909090909090909
 40
0.0909090909090909
 40
0.0909090909090909
 40
0.1060606060606061
 40
0.1060606060606061
 40
0.1060606060606061
 40
0.1212121212121212
 40
0.1212121212121212
 40
0.1212121212121212
 40
0.1363636363636364
 40
0.1363636363636364
 40
0.1363636363636364
 40
0.1515151515151515
 40
0.1515151515151515
 40
0.1515151515151515
 40
0.1666666666666667
 40
0.1666666666666667
 40
0.1666666666666667
 40
0.1818181818181818
 40
0.1818181818181818
 40
0.1818181818181818
 40
0.196969696969697
 40
0.196969696969697
 40
0.196969696969697
 40
0.2121212121212121
 40
0.2121212121212121
 40
0.2121212121212121
 40
0.2272727272727273
 40
0.2272727272727273
 40
0.2272727272727273
 40
0.2424242424242424
 40
0.2424242424242424
 40
0.2424242424242424
 40
0.2575757575757576
 40
0.2575757575757576
 40
0.2575757575757576
 40
0.2727272727272727
 40
0.2727272727272727
 40
0.2727272727272727
 40
0.2878787878787879
 40
0.2878787878787879
 40
0.2878787878787879
 40
0.303030303030303
 40
0.303030303030303
 40
0.303030303030303
 40
0.3181818181818182
 40
0.3181818181818182
 40
0.3181818181818182
 40
0.3333333333333334
 40
0.3333333333333334
 40
0.3333333333333334
 40
0.3484848484848485
 40
0.3484848484848485
 40
0.3484848484848485
 40
0.3636363636363636
 40
0.3636363636363636
 40
0.3636363636363636
 40
0.3787878787878788
 40
0.3787878787878788
 40
0.3787878787878788
 40
0.3939393939393939
 40
0.3939393939393939
 40
0.3939393939393939
 40
0.4090909090909091
 40
0.4090909090909091
 40
0.4090909090909091
 40
0.4242424242424243
 40
0.4242424242424243
 40
0.4242424242424243
 40
0.4393939393939394
 40
0.4393939393939394
 40
0.4393939393939394
 40
0.4545454545454546
 40
0.4545454545454546
 40
0.4545454545454546
 40
0.4696969696969697
 40
0.4696969696969697
 40
0.4696969696969697
 40
0.4848484848484849
 40
0.4848484848484849
 40
0.4848484848484849
 40
0.5
 40
0.5
 40
0.5
 40
0.5151515151515151
 40
0.5151515151515151
 40
0.5151515151515151
 40
0.5303030303030303
 40
0.5303030303030303
 40
0.5303030303030303
 40
0.5454545454545454
 40
0.5454545454545454
 40
0.5454545454545454
 40
0.5606060606060607
 40
0.5606060606060607
 40
0.5606060606060607
 40
0.5757575757575758
 40
0.5757575757575758
 40
0.5757575757575758
 40
0.5909090909090909
 40
0.5909090909090909
 40
0.5909090909090909
 40
0.6060606060606061
 40
0.6060606060606061
 40
0.6060606060606061
 40
0.6212121212121212
 40
0.6212121212121212
 40
0.6212121212121212
 40
0.6363636363636364
 40
0.6363636363636364
 40
0.6363636363636364
 40
0.6515151515151515
 40
0.6515151515151515
 40
0.6515151515151515
 40
0.6666666666666667
 40
0.6666666666666667
 40
0.6666666666666667
 40
0.6818181818181819
 40
0.6818181818181819
 40
0.6818181818181819
 40
0.696969696969697
 40
0.696969696969697
 40
0.696969696969697
 40
0.7121212121212122
 40
0.7121212121212122
 40
0.7121212121212122
 40
0.7272727272727273
 40
0.7272727272727273
 40
0.7272727272727273
 40
0.7424242424242424
 40
0.7424242424242424
 40
0.7424242424242424
 40
0.7575757575757576
 40
0.7575757575757576
 40
0.7575757575757576
 40
0.7727272727272727
 40
0.7727272727272727
 40
0.7727272727272727
 40
0.7878787878787878
 40
0.7878787878787878
 40
0.7878787878787878
 40
0.8030303030303031
 40
0.8030303030303031
 40
0.8030303030303031
 40
0.8181818181818182
 40
0.8181818181818182
 40
0.8181818181818182
 40
0.8333333333333334
 40
0.8333333333333334
 40
0.8333333333333334
 40
0.8484848484848485
 40
0.8484848484848485
 40
0.8484848484848485
 40
0.8636363636363636
 40
0.8636363636363636
 40
0.8636363636363636
 40
0.8787878787878788
 40
0.8787878787878788
 40
0.8787878787878788
 40
0.8939393939393939
 40
0.8939393939393939
 40
0.8939393939393939
 40
0.9090909090909092
 40
0.9090909090909092
 40
0.9090909090909092
 40
0.9242424242424243
 40
0.9242424242424243
 40
0.9242424242424243
 40
0.9393939393939394
 40
0.9393939393939394
 40
0.9393939393939394
 40
0.9545454545454546
 40
0.9545454545454546
 40
0.9545454545454546
 40
0.9696969696969697
 40
0.9696969696969697
 40
0.9696969696969697
 40
0.9848484848484849
 40
0.9848484848484849
 40
0.9848484848484849
 40
1.0
 40
1.0
 40
1.0
 40
1.0
 10
3.20519
 20
7.13547
 30
0.0
 10
3.26251
 20
6.84749
 30
0.0
 10
3.22905
 20
6.34894
 30
0.0
 10
3.18088
 20
6.04608
 30
0.0
 10
3.09908
 20
5.53191
 30
0.0
 10
2.8213
 20
4.6758
 30
0.0
 10
2.59542
 20
4.33848
 30
0.0
 10
2.14883
 20
4.63753
 30
0.0
 10
2.39047
 20
4.66365
 30
0.0
 10
1.4066
 20
5.05466
 30
0.0
 10
1.21327
 20
5.1315
 30
0.0
 10
0.79285
 20
5.15582
 30
0.0
 10
0.6633
 20
5.26386
 30
0.0
 10
0.43136
 20
5.4573
 30
0.0
 10
0.41764
 20
5.55368
 30
0.0
 10
0.00615
 20
5.59533
 30
0.0
 10
-0.26127
 20
5.62241
 30
0.0
 10
-0.50456
 20
5.46435
 30
0.0
 10
-0.65772
 20
5.33384
 30
0.0
 10
-0.86426
 20
5.15783
 30
0.0
 10
-1.10221
 20
5.17584
 30
0.0
 10
-1.37651
 20
5.06486
 30
0.0
 10
-1.99452
 20
4.81482
 30
0.0
 10
-2.10047
 20
4.66657
 30
0.0
 10
-2.59042
 20
4.33848
 30
0.0
 10
-2.8709
 20
4.86857
 30
0.0
 10
-3.06515
 20
5.39949
 30
0.0
 10
-3.17526
 20
6.11724
 30
0.0
 10
-3.23651
 20
6.51646
 30
0.0
 10
-3.24383
 20
6.78904
 30
0.0
 10
-3.18515
 20
7.19099
 30
0.0
 10
-3.1453
 20
7.46393
 30
0.0
 10
-3.01344
 20
7.90624
 30
0.0
 10
-2.7668
 20
7.97209
 30
0.0
 10
-2.58089
 20
7.92245
 30
0.0
 10
-2.66798
 20
7.79661
 30
0.0
 10
-2.4493
 20
7.90154
 30
0.0
 10
-2.36609
 20
8.07496
 30
0.0
 10
-2.44254
 20
8.239
 30
0.0
 10
-2.52045
 20
8.35956
 30
0.0
 10
-2.5666
 20
8.43097
 30
0.0
 10
-2.6074
 20
8.46606
 30
0.0
 10
-2.66132
 20
8.53619
 30
0.0
 10
-2.66132
 20
8.53619
 30
0.0
 10
-3.44503
 20
9.33998
 30
0.0
 10
-3.44503
 20
9.33998
 30
0.0
 10
-3.77089
 20
9.60859
 30
0.0
 10
-4.64821
 20
10.11625
 30
0.0
 10
-5.16569
 20
10.15932
 30
0.0
 10
-5.15963
 20
9.88732
 30
0.0
 10
-4.96443
 20
9.68055
 30
0.0
 10
-4.86304
 20
9.43892
 30
0.0
 10
-4.23886
 20
7.95147
 30
0.0
 10
-5.04469
 20
5.96886
 30
0.0
 10
-3.75458
 20
3.28015
 30
0.0
 10
-4.35267
 20
2.87965
 30
0.0
 10
-4.44499
 20
1.60161
 30
0.0
 10
-4.49541
 20
1.55154
 30
0.0
 10
-4.52595
 20
1.52122
 30
0.0
 10
-4.59128
 20
1.56391
 30
0.0
 10
-4.63525
 20
1.58286
 30
0.0
 10
-5.05119
 20
1.7622
 30
0.0
 10
-5.67885
 20
1.93663
 30
0.0
 10
-6.09636
 20
1.7061
 30
0.0
 10
-6.47339
 20
1.49792
 30
0.0
 10
-6.96735
 20
0.25975
 30
0.0
 10
-7.16121
 20
-0.22767
 30
0.0
 10
-7.42001
 20
-0.87837
 30
0.0
 10
-7.25251
 20
-0.74681
 30
0.0
 10
-6.80302
 20
-1.07356
 30
0.0
 10
-6.51096
 20
-1.28588
 30
0.0
 10
-6.24226
 20
-1.56338
 30
0.0
 10
-5.9418
 20
-1.76457
 30
0.0
 10
-6.10332
 20
-2.06982
 30
0.0
 10
-6.19935
 20
-2.51333
 30
0.0
 10
-6.43163
 20
-2.75641
 30
0.0
 10
-6.43163
 20
-2.75641
 30
0.0
 10
-6.58926
 20
-2.95156
 30
0.0
 10
-6.58926
 20
-2.95156
 30
0.0
 10
-6.74076
 20
-3.21393
 30
0.0
 10
-6.82557
 20
-3.51325
 30
0.0
 10
-6.99357
 20
-3.78197
 30
0.0
 10
-7.11221
 20
-3.97174
 30
0.0
 10
-7.06757
 20
-4.12308
 30
0.0
 10
-7.16535
 20
-4.2452
 30
0.0
 10
-7.28645
 20
-4.39645
 30
0.0
 10
-7.33385
 20
-4.38542
 30
0.0
 10
-7.4474
 20
-4.59814
 30
0.0
 10
-7.65505
 20
-4.98716
 30
0.0
 10
-7.95235
 20
-5.612
 30
0.0
 10
-7.62607
 20
-5.98884
 30
0.0
 10
-7.54799
 20
-6.07901
 30
0.0
 10
-7.39405
 20
-6.18205
 30
0.0
 10
-7.2899
 20
-6.25239
 30
0.0
 10
-7.15225
 20
-6.34535
 30
0.0
 10
-7.04674
 20
-6.40751
 30
0.0
 10
-6.87969
 20
-6.47718
 30
0.0
 10
-5.91864
 20
-6.87799
 30
0.0
 10
-5.8829
 20
-6.71981
 30
0.0
 10
-5.6243
 20
-5.60985
 30
0.0
 10
-5.30177
 20
-5.76461
 30
0.0
 10
-4.81648
 20
-5.82061
 30
0.0
 10
-4.46816
 20
-5.90009
 30
0.0
 10
-4.06625
 20
-5.99179
 30
0.0
 10
-3.56202
 20
-6.04925
 30
0.0
 10
-3.12718
 20
-5.99031
 30
0.0
 10
-2.82035
 20
-5.94872
 30
0.0
 10
-2.73153
 20
-5.73504
 30
0.0
 10
-2.73153
 20
-5.39818
 30
0.0
 10
-2.73153
 20
-5.39818
 30
0.0
 10
-2.66097
 20
-5.39818
 30
0.0
 10
-2.66097
 20
-5.39818
 30
0.0
 10
-2.57991
 20
-5.62213
 30
0.0
 10
-2.04646
 20
-5.85423
 30
0.0
 10
-1.84488
 20
-5.95793
 30
0.0
 10
-1.27361
 20
-6.25183
 30
0.0
 10
-0.66107
 20
-6.41955
 30
0.0
 10
0.01976
 20
-6.42327
 30
0.0
 10
0.25279
 20
-6.42455
 30
0.0
 10
0.65078
 20
-6.38437
 30
0.0
 10
0.86273
 20
-6.34661
 30
0.0
 10
1.75337
 20
-6.18793
 30
0.0
 10
2.10649
 20
-5.87472
 30
0.0
 10
2.80708
 20
-5.50402
 30
0.0
 10
2.82871
 20
-5.76392
 30
0.0
 10
3.02393
 20
-5.92003
 30
0.0
 10
3.2606
 20
-5.96773
 30
0.0
 10
4.07481
 20
-6.1318
 30
0.0
 10
5.2431
 20
-5.64513
 30
0.0
 10
5.66458
 20
-5.64513
 30
0.0
 10
5.68148
 20
-5.84812
 30
0.0
 10
5.87492
 20
-6.46865
 30
0.0
 10
5.97723
 20
-6.56724
 30
0.0
 10
6.34767
 20
-6.92419
 30
0.0
 10
7.38458
 20
-6.24028
 30
0.0
 10
7.63039
 20
-5.95287
 30
0.0
 10
7.88242
 20
-5.65818
 30
0.0
 10
7.76427
 20
-5.35275
 30
0.0
 10
7.62539
 20
-4.9896
 30
0.0
 10
7.49794
 20
-4.65631
 30
0.0
 10
7.38836
 20
-4.43629
 30
0.0
 10
7.14368
 20
-4.23417
 30
0.0
 10
6.95808
 20
-4.08087
 30
0.0
 10
7.1581
 20
-4.07557
 30
0.0
 10
7.01953
 20
-3.79676
 30
0.0
 10
6.93262
 20
-3.6219
 30
0.0
 10
6.88433
 20
-3.58404
 30
0.0
 10
6.80347
 20
-3.37736
 30
0.0
 10
6.74002
 20
-3.21518
 30
0.0
 10
6.68968
 20
-3.10123
 30
0.0
 10
6.61799
 20
-2.96311
 30
0.0
 10
6.54711
 20
-2.82652
 30
0.0
 10
6.42798
 20
-2.72276
 30
0.0
 10
6.34084
 20
-2.60526
 30
0.0
 10
6.25941
 20
-2.49546
 30
0.0
 10
6.2133
 20
-2.28927
 30
0.0
 10
6.15892
 20
-2.15218
 30
0.0
 10
6.09631
 20
-1.99433
 30
0.0
 10
6.02249
 20
-1.86745
 30
0.0
 10
5.98208
 20
-1.69402
 30
0.0
 10
6.11417
 20
-1.65875
 30
0.0
 10
6.9361
 20
-0.98727
 30
0.0
 10
7.1053
 20
-0.87696
 30
0.0
 10
7.39872
 20
-0.68568
 30
0.0
 10
7.29802
 20
-0.47386
 30
0.0
 10
7.15822
 20
-0.20038
 30
0.0
 10
6.87881
 20
0.34623
 30
0.0
 10
6.61277
 20
1.36867
 30
0.0
 10
6.11821
 20
1.68766
 30
0.0
 10
5.65178
 20
1.9885
 30
0.0
 10
4.87399
 20
1.69527
 30
0.0
 10
4.5357
 20
1.51626
 30
0.0
 10
4.5357
 20
1.82129
 30
0.0
 10
4.40461
 20
2.28797
 30
0.0
 10
4.30974
 20
2.52503
 30
0.0
 10
4.19589
 20
2.80954
 30
0.0
 10
4.02172
 20
3.12824
 30
0.0
 10
3.79486
 20
3.28015
 30
0.0
 10
4.19677
 20
4.11777
 30
0.0
 10
4.45793
 20
4.96168
 30
0.0
 10
4.53876
 20
5.92292
 30
0.0
 10
4.61145
 20
6.78738
 30
0.0
 10
4.54545
 20
8.32564
 30
0.0
 10
4.76185
 20
9.0865
 30
0.0
 10
4.92501
 20
9.66018
 30
0.0
 10
5.34156
 20
10.17435
 30
0.0
 10
5.16484
 20
10.22401
 30
0.0
 10
4.88853
 20
10.30166
 30
0.0
 10
3.58454
 20
9.54288
 30
0.0
 10
3.23867
 20
9.19856
 30
0.0
 10
3.23867
 20
9.19856
 30
0.0
 10
3.0576
 20
9.02686
 30
0.0
 10
3.0576
 20
9.02686
 30
0.0
 10
2.36594
 20
8.36478
 30
0.0
 10
2.22495
 20
7.69169
 30
0.0
 10
2.6585
 20
7.90486
 30
0.0
 10
3.86113
 20
8.49613
 30
0.0
 10
2.92828
 20
8.52662
 30
0.0
 10
3.20519
 20
7.13547
 30
0.0
  0
ENDSEC
  0
SECTION
  2
OBJECTS
  0
DICTIONARY
  5
C
330
0
100
AcDbDictionary
281
     1
  3
ACAD_DETAILVIEWSTYLE
350
87
  3
ACAD_GROUP
350
D
  3
ACAD_LAYOUT
350
1A
  3
ACAD_MATERIAL
350
43
  3
ACAD_MLEADERSTYLE
350
5B
  3
ACAD_MLINESTYLE
350
17
  3
ACAD_PLOTSETTINGS
350
19
  3
ACAD_PLOTSTYLENAME
350
E
  3
ACAD_SCALELIST
350
47
  3
ACAD_SECTIONVIEWSTYLE
350
88
  3
ACAD_TABLESTYLE
350
59
  3
ACAD_VISUALSTYLE
350
2A
  3
ACDB_RECOMPOSE_DATA
350
84
  3
AcDbVariableDictionary
350
80
  0
SUN
  5
5D
330
29
100
AcDbSun
 90
        1
290
     0
 63
     7
421
 16777215
 40
1.0
291
     1
 91
  2455826
 92
 54000000
292
     0
 70
     2
 71
   256
280
     1
  0
DICTIONARY
  5
87
102
{ACAD_REACTORS
330
C
102
}
330
C
100
AcDbDictionary
281
     1
  0
DICTIONARY
  5
D
102
{ACAD_REACTORS
330
C
102
}
330
C
100
AcDbDictionary
281
     1
  0
DICTIONARY
  5
1A
102
{ACAD_REACTORS
330
C
102
}
330
C
100
AcDbDictionary
281
     1
  3
Layout1
350
1E
  3
Layout2
350
26
  3
Model
350
22
  0
DICTIONARY
  5
43
102
{ACAD_REACTORS
330
C
102
}
330
C
100
AcDbDictionary
281
     1
  3
ByBlock
350
45
  3
ByLayer
350
44
  3
Global
350
46
  0
DICTIONARY
  5
5B
102
{ACAD_REACTORS
330
C
102
}
330
C
100
AcDbDictionary
281
     1
  3
Standard
350
5C
  0
DICTIONARY
  5
17
102
{ACAD_REACTORS
330
C
102
}
330
C
100
AcDbDictionary
281
     1
  3
Standard
350
18
  0
DICTIONARY
  5
19
102
{ACAD_REACTORS
330
C
102
}
330
C
100
AcDbDictionary
281
     1
  0
ACDBDICTIONARYWDFLT
  5
E
102
{ACAD_REACTORS
330
C
102
}
330
C
100
AcDbDictionary
281
     1
  3
Normal
350
F
100
AcDbDictionaryWithDefault
340
F
  0
DICTIONARY
  5
47
102
{ACAD_REACTORS
330
C
102
}
330
C
100
AcDbDictionary
281
     1
  3
A0
350
48
  3
A1
350
49
  3
A2
350
4A
  3
A3
350
4B
  3
A4
350
4C
  3
A5
350
4D
  3
A6
350
4E
  3
A7
350
4F
  3
A8
350
50
  3
A9
350
51
  3
B1
350
52
  3
B2
350
53
  3
B3
350
54
  3
B4
350
55
  3
B5
350
56
  3
B6
350
57
  3
B7
350
58
  0
DICTIONARY
  5
88
102
{ACAD_REACTORS
330
C
102
}
330
C
100
AcDbDictionary
281
     1
  0
DICTIONARY
  5
59
102
{ACAD_REACTORS
330
C
102
}
330
C
100
AcDbDictionary
281
     1
  3
Standard
350
5A
  0
DICTIONARY
  5
2A
102
{ACAD_REACTORS
330
C
102
}
330
C
100
AcDbDictionary
281
     1
  3
2dWireframe
350
2F
  3
Basic
350
32
  3
Brighten
350
36
  3
ColorChange
350
3A
  3
Conceptual
350
34
  3
Dim
350
35
  3
EdgeColorOff
350
3D
  3
Facepattern
350
39
  3
Flat
350
2B
  3
FlatWithEdges
350
2C
  3
Gouraud
350
2D
  3
GouraudWithEdges
350
2E
  3
Hidden
350
31
  3
JitterOff
350
3B
  3
Linepattern
350
38
  3
OverhangOff
350
3C
  3
Realistic
350
33
  3
Shaded
350
42
  3
Shaded with edges
350
41
  3
Shades of Gray
350
3E
  3
Sketchy
350
3F
  3
Thicken
350
37
  3
Wireframe
350
30
  3
X-Ray
350
40
  0
XRECORD
  5
84
102
{ACAD_REACTORS
330
C
102
}
330
C
100
AcDbXrecord
280
     1
 90
        1
330
5A
  0
DICTIONARY
  5
80
102
{ACAD_REACTORS
330
C
102
}
330
C
100
AcDbDictionary
281
     1
  3
CANNOSCALE
350
81
  3
CMLEADERSTYLE
350
86
  3
CTABLESTYLE
350
85
  0
LAYOUT
  5
1E
102
{ACAD_REACTORS
330
1A
102
}
330
1A
100
AcDbPlotSettings
  1

  2
none_device
  4

  6

 40
0.0
 41
0.0
 42
0.0
 43
0.0
 44
0.0
 45
0.0
 46
0.0
 47
0.0
 48
0.0
 49
0.0
140
0.0
141
0.0
142
1.0
143
1.0
 70
   688
 72
     0
 73
     0
 74
     5
  7

 75
    16
 76
     0
 77
     2
 78
   300
147
1.0
148
0.0
149
0.0
100
AcDbLayout
  1
Layout1
 70
     1
 71
     1
 10
0.0
 20
0.0
 11
12.0
 21
9.0
 12
0.0
 22
0.0
 32
0.0
 14
1.000000000000000E+20
 24
1.000000000000000E+20
 34
1.000000000000000E+20
 15
-1.000000000000000E+20
 25
-1.000000000000000E+20
 35
-1.000000000000000E+20
146
0.0
 13
0.0
 23
0.0
 33
0.0
 16
1.0
 26
0.0
 36
0.0
 17
0.0
 27
1.0
 37
0.0
 76
     0
330
1B
  0
LAYOUT
  5
26
102
{ACAD_REACTORS
330
1A
102
}
330
1A
100
AcDbPlotSettings
  1

  2
none_device
  4

  6

 40
0.0
 41
0.0
 42
0.0
 43
0.0
 44
0.0
 45
0.0
 46
0.0
 47
0.0
 48
0.0
 49
0.0
140
0.0
141
0.0
142
1.0
143
1.0
 70
   688
 72
     0
 73
     0
 74
     5
  7

 75
    16
 76
     0
 77
     2
 78
   300
147
1.0
148
0.0
149
0.0
100
AcDbLayout
  1
Layout2
 70
     1
 71
     2
 10
0.0
 20
0.0
 11
0.0
 21
0.0
 12
0.0
 22
0.0
 32
0.0
 14
0.0
 24
0.0
 34
0.0
 15
0.0
 25
0.0
 35
0.0
146
0.0
 13
0.0
 23
0.0
 33
0.0
 16
1.0
 26
0.0
 36
0.0
 17
0.0
 27
1.0
 37
0.0
 76
     0
330
23
  0
LAYOUT
  5
22
102
{ACAD_REACTORS
330
1A
102
}
330
1A
100
AcDbPlotSettings
  1

  2
none_device
  4
Letter_(8.50_x_11.00_Inches)
  6

 40
6.35
 41
6.35
 42
6.35000508
 43
6.35000508
 44
215.9
 45
279.4
 46
0.0
 47
0.0
 48
0.0
 49
0.0
140
0.0
141
0.0
142
1.0
143
1.0
 70
  1712
 72
     0
 73
     0
 74
     0
  7

 75
     0
 76
     0
 77
     2
 78
   300
147
1.0
148
0.0
149
0.0
100
AcDbLayout
  1
Model
 70
     1
 71
     0
 10
0.0
 20
0.0
 11
12.0
 21
9.0
 12
0.0
 22
0.0
 32
0.0
 14
-7.77111
 24
-6.67738
 34
0.0
 15
73.19296
 25
11.10113
 35
0.0
146
0.0
 13
0.0
 23
0.0
 33
0.0
 16
1.0
 26
0.0
 36
0.0
 17
0.0
 27
1.0
 37
0.0
 76
     0
330
1F
331
29
  0
MATERIAL
  5
45
102
{ACAD_REACTORS
330
43
102
}
330
43
100
AcDbMaterial
  1
ByBlock
 72
     1
 94
      127
  0
MATERIAL
  5
44
102
{ACAD_REACTORS
330
43
102
}
330
43
100
AcDbMaterial
  1
ByLayer
 72
     1
 94
      127
  0
MATERIAL
  5
46
102
{ACAD_REACTORS
330
43
102
}
330
43
100
AcDbMaterial
  1
Global
 72
     1
 94
      127
  0
MLEADERSTYLE
  5
5C
102
{ACAD_REACTORS
330
5B
102
}
330
5B
100
AcDbMLeaderStyle
179
     2
170
     2
171
     1
172
     0
 90
        2
 40
0.0
 41
0.0
173
     1
 91
-1056964608
340
14
 92
       -2
290
     1
 42
0.09
291
     1
 43
0.36
  3
Standard
341
0
 44
0.18
300

342
11
174
     1
178
     6
175
     1
176
     0
 93
-1056964608
 45
0.18
292
     0
297
     0
 46
0.18
343
0
 94
-1056964608
 47
1.0
 49
1.0
140
1.0
293
     1
141
0.0
294
     1
177
     0
142
1.0
295
     0
296
     0
143
0.125
271
     0
272
     9
273
     9
298
     0
  0
MLINESTYLE
  5
18
102
{ACAD_REACTORS
330
17
102
}
330
17
100
AcDbMlineStyle
  2
Standard
 70
     0
  3

 62
   256
 51
90.0
 52
90.0
 71
     2
 49
0.5
 62
   256
  6
BYLAYER
 49
-0.5
 62
   256
  6
BYLAYER
  0
ACDBPLACEHOLDER
  5
F
102
{ACAD_REACTORS
330
E
102
}
330
E
  0
SCALE
  5
48
102
{ACAD_REACTORS
330
47
102
}
330
47
100
AcDbScale
 70
     0
300
1:1
140
1.0
141
1.0
290
     1
  0
SCALE
  5
49
102
{ACAD_REACTORS
330
47
102
}
330
47
100
AcDbScale
 70
     0
300
1/128" = 1'-0"
140
0.0078125
141
12.0
290
     0
  0
SCALE
  5
4A
102
{ACAD_REACTORS
330
47
102
}
330
47
100
AcDbScale
 70
     0
300
1/64" = 1'-0"
140
0.015625
141
12.0
290
     0
  0
SCALE
  5
4B
102
{ACAD_REACTORS
330
47
102
}
330
47
100
AcDbScale
 70
     0
300
1/32" = 1'-0"
140
0.03125
141
12.0
290
     0
  0
SCALE
  5
4C
102
{ACAD_REACTORS
330
47
102
}
330
47
100
AcDbScale
 70
     0
300
1/16" = 1'-0"
140
0.0625
141
12.0
290
     0
  0
SCALE
  5
4D
102
{ACAD_REACTORS
330
47
102
}
330
47
100
AcDbScale
 70
     0
300
3/32" = 1'-0"
140
0.09375
141
12.0
290
     0
  0
SCALE
  5
4E
102
{ACAD_REACTORS
330
47
102
}
330
47
100
AcDbScale
 70
     0
300
1/8" = 1'-0"
140
0.125
141
12.0
290
     0
  0
SCALE
  5
4F
102
{ACAD_REACTORS
330
47
102
}
330
47
100
AcDbScale
 70
     0
300
3/16" = 1'-0"
140
0.1875
141
12.0
290
     0
  0
SCALE
  5
50
102
{ACAD_REACTORS
330
47
102
}
330
47
100
AcDbScale
 70
     0
300
1/4" = 1'-0"
140
0.25
141
12.0
290
     0
  0
SCALE
  5
51
102
{ACAD_REACTORS
330
47
102
}
330
47
100
AcDbScale
 70
     0
300
3/8" = 1'-0"
140
0.375
141
12.0
290
     0
  0
SCALE
  5
52
102
{ACAD_REACTORS
330
47
102
}
330
47
100
AcDbScale
 70
     0
300
1/2" = 1'-0"
140
0.5
141
12.0
290
     0
  0
SCALE
  5
53
102
{ACAD_REACTORS
330
47
102
}
330
47
100
AcDbScale
 70
     0
300
3/4" = 1'-0"
140
0.75
141
12.0
290
     0
  0
SCALE
  5
54
102
{ACAD_REACTORS
330
47
102
}
330
47
100
AcDbScale
 70
     0
300
1" = 1'-0"
140
1.0
141
12.0
290
     0
  0
SCALE
  5
55
102
{ACAD_REACTORS
330
47
102
}
330
47
100
AcDbScale
 70
     0
300
1-1/2" = 1'-0"
140
1.5
141
12.0
290
     0
  0
SCALE
  5
56
102
{ACAD_REACTORS
330
47
102
}
330
47
100
AcDbScale
 70
     0
300
3" = 1'-0"
140
3.0
141
12.0
290
     0
  0
SCALE
  5
57
102
{ACAD_REACTORS
330
47
102
}
330
47
100
AcDbScale
 70
     0
300
6" = 1'-0"
140
6.0
141
12.0
290
     0
  0
SCALE
  5
58
102
{ACAD_REACTORS
330
47
102
}
330
47
100
AcDbScale
 70
     0
300
1'-0" = 1'-0"
140
12.0
141
12.0
290
     0
  0
TABLESTYLE
  5
5A
102
{ACAD_REACTORS
330
59
102
}
102
{ACAD_XDICTIONARY
360
82
102
}
330
59
100
AcDbTableStyle
  3
Standard
 70
     0
 71
     0
 40
0.06
 41
0.06
280
     0
281
     0
  7
Standard
140
0.18
170
     2
 62
     0
 63
   257
283
     0
 90
        4
 91
        0
  1

274
    -2
284
     1
 64
     0
275
    -2
285
     1
 65
     0
276
    -2
286
     1
 66
     0
277
    -2
287
     1
 67
     0
278
    -2
288
     1
 68
     0
279
    -2
289
     1
 69
     0
  7
Standard
140
0.25
170
     5
 62
     0
 63
   257
283
     0
 90
        4
 91
        0
  1

274
    -2
284
     1
 64
     0
275
    -2
285
     1
 65
     0
276
    -2
286
     1
 66
     0
277
    -2
287
     1
 67
     0
278
    -2
288
     1
 68
     0
279
    -2
289
     1
 69
     0
  7
Standard
140
0.18
170
     5
 62
     0
 63
   257
283
     0
 90
        4
 91
        0
  1

274
    -2
284
     1
 64
     0
275
    -2
285
     1
 65
     0
276
    -2
286
     1
 66
     0
277
    -2
287
     1
 67
     0
278
    -2
288
     1
 68
     0
279
    -2
289
     1
 69
     0
  0
VISUALSTYLE
  5
2F
102
{ACAD_REACTORS
330
2A
102
}
330
2A
100
AcDbVisualStyle
  2
2dWireframe
 70
     4
177
     3
291
     0
 70
    58
 90
        0
176
     1
 90
        2
176
     1
 90
        0
176
     1
 90
        0
176
     1
 40
0.6
176
     1
 40
30.0
176
     1
 62
     7
420
 16777215
176
     1
 90
        1
176
     1
 90
        4
176
     1
 62
     7
176
     1
 62
   257
176
     1
 90
        1
176
     1
 90
        1
176
     1
 40
1.0
176
     1
 90
        0
176
     1
 62
   257
176
     1
 40
1.0
176
     1
 90
        1
176
     1
 90
        6
176
     1
 90
        2
176
     1
 62
     7
176
     1
 90
        5
176
     1
 90
        0
176
     1
 90
        0
176
     1
290
     0
176
     1
 90
        1
176
     1
 40
0.0
176
     1
 90
        0
176
     1
290
     1
176
     1
290
     1
176
     1
290
     0
176
     1
290
     0
176
     1
290
     0
176
     1
290
     0
176
     1
290
     0
176
     1
290
     0
176
     1
290
     0
176
     1
 90
       50
176
     1
 40
0.0
176
     1
 40
1.0
176
     1
 90
        0
176
     1
 62
    18
420
        0
176
     1
 90
       50
176
     1
 90
        3
176
     1
 62
     5
420
      255
176
     1
290
     0
176
     1
 90
       50
176
     1
 90
       50
176
     1
 90
       50
176
     1
290
     0
176
     1
 90
       50
176
     1
 62
   256
176
     0
 40
1.0
176
     0
 90
        2
176
     1
  1
strokes_ogs.tif
176
     1
290
     0
176
     1
 40
1.0
176
     1
 40
1.0
176
     1
  0
VISUALSTYLE
  5
32
102
{ACAD_REACTORS
330
2A
102
}
330
2A
100
AcDbVisualStyle
  2
Basic
 70
     7
177
     3
291
     1
 70
    58
 90
        1
176
     1
 90
        0
176
     1
 90
        1
176
     1
 90
        0
176
     1
 40
0.6
176
     1
 40
30.0
176
     1
 62
     7
420
 16777215
176
     1
 90
        0
176
     1
 90
        4
176
     1
 62
     7
176
     1
 62
   257
176
     1
 90
        1
176
     1
 90
        1
176
     1
 40
1.0
176
     1
 90
        8
176
     1
 62
     7
176
     1
 40
1.0
176
     1
 90
        1
176
     1
 90
        6
176
     1
 90
        2
176
     1
 62
     7
176
     1
 90
        5
176
     1
 90
        0
176
     1
 90
        0
176
     1
290
     0
176
     1
 90
        1
176
     1
 40
0.0
176
     1
 90
        0
176
     1
290
     0
176
     1
290
     1
176
     1
290
     1
176
     1
290
     0
176
     1
290
     0
176
     1
290
     0
176
     1
290
     0
176
     1
290
     0
176
     1
290
     0
176
     1
 90
       50
176
     1
 40
0.0
176
     1
 40
1.0
176
     1
 90
        0
176
     1
 62
    18
420
        0
176
     1
 90
       50
176
     1
 90
        3
176
     1
 62
     5
420
      255
176
     1
290
     0
176
     1
 90
       50
176
     1
 90
       50
176
     1
 90
       50
176
     1
290
     0
176
     1
 90
       50
176
     1
 62
   256
176
     0
 40
1.0
176
     0
 90
        2
176
     1
  1
strokes_ogs.tif
176
     1
290
     0
176
     1
 40
1.0
176
     1
 40
1.0
176
     1
  0
VISUALSTYLE
  5
36
102
{ACAD_REACTORS
330
2A
102
}
330
2A
100
AcDbVisualStyle
  2
Brighten
 70
    12
177
     3
291
     1
 70
    58
 90
        2
176
     1
 90
        2
176
     1
 90
        0
176
     1
 90
        0
176
     1
 40
0.6
176
     1
 40
30.0
176
     1
 62
     7
420
 16777215
176
     1
 90
        1
176
     1
 90
        4
176
     1
 62
     7
176
     1
 62
   257
176
     1
 90
        1
176
     1
 90
        1
176
     1
 40
1.0
176
     1
 90
        8
176
     1
 62
     7
176
     1
 40
1.0
176
     1
 90
        1
176
     1
 90
        6
176
     1
 90
        2
176
     1
 62
     7
176
     1
 90
        5
176
     1
 90
        0
176
     1
 90
        0
176
     1
290
     0
176
     1
 90
        1
176
     1
 40
50.0
176
     1
 90
        0
176
     1
290
     0
176
     1
290
     1
176
     1
290
     1
176
     1
290
     0
176
     1
290
     0
176
     1
290
     0
176
     1
290
     0
176
     1
290
     0
176
     1
290
     0
176
     1
 90
       50
176
     1
 40
0.0
176
     1
 40
1.0
176
     1
 90
        0
176
     1
 62
    18
420
        0
176
     1
 90
       50
176
     1
 90
        3
176
     1
 62
     5
420
      255
176
     1
290
     0
176
     1
 90
       50
176
     1
 90
       50
176
     1
 90
       50
176
     1
290
     0
176
     1
 90
       50
176
     1
 62
   256
176
     0
 40
1.0
176
     0
 90
        2
176
     1
  1
strokes_ogs.tif
176
     1
290
     0
176
     1
 40
1.0
176
     1
 40
1.0
176
     1
  0
VISUALSTYLE
  5
3A
102
{ACAD_REACTORS
330
2A
102
}
330
2A
100
AcDbVisualStyle
  2
ColorChange
 70
    16
177
     3
291
     1
 70
    58
 90
        2
176
     1
 90
        2
176
     1
 90
        3
176
     1
 90
        0
176
     1
 40
0.6
176
     1
 40
30.0
176
     1
 62
     8
420
  8421504
176
     1
 90
        1
176
     1
 90
        4
176
     1
 62
     7
176
     1
 62
   257
176
     1
 90
        1
176
     1
 90
        1
176
     1
 40
1.0
176
     1
 90
        8
176
     1
 62
     8
420
  8421504
176
     1
 40
1.0
176
     1
 90
        1
176
     1
 90
        6
176
     1
 90
        2
176
     1
 62
     7
176
     1
 90
        5
176
     1
 90
        0
176
     1
 90
        0
176
     1
290
     0
176
     1
 90
        1
176
     1
 40
0.0
176
     1
 90
        0
176
     1
290
     0
176
     1
290
     1
176
     1
290
     1
176
     1
290
     0
176
     1
290
     0
176
     1
290
     0
176
     1
290
     0
176
     1
290
     0
176
     1
290
     0
176
     1
 90
       50
176
     1
 40
0.0
176
     1
 40
1.0
176
     1
 90
        0
176
     1
 62
    18
420
        0
176
     1
 90
       50
176
     1
 90
        3
176
     1
 62
     5
420
      255
176
     1
290
     0
176
     1
 90
       50
176
     1
 90
       50
176
     1
 90
       50
176
     1
290
     0
176
     1
 90
       50
176
     1
 62
   256
176
     0
 40
1.0
176
     0
 90
        2
176
     1
  1
strokes_ogs.tif
176
     1
290
     0
176
     1
 40
1.0
176
     1
 40
1.0
176
     1
  0
VISUALSTYLE
  5
34
102
{ACAD_REACTORS
330
2A
102
}
330
2A
100
AcDbVisualStyle
  2
Conceptual
 70
     9
177
     3
291
     0
 70
    58
 90
        3
176
     1
 90
        2
176
     1
 90
        0
176
     1
 90
        0
176
     1
 40
0.6
176
     1
 40
30.0
176
     1
 62
     7
420
 16777215
176
     1
 90
        2
176
     1
 90
        2
176
     1
 62
     7
176
     1
 62
   257
176
     1
 90
        1
176
     1
 90
        1
176
     1
 40
179.0
176
     1
 90
        8
176
     1
 62
     7
176
     1
 40
1.0
176
     1
 90
        1
176
     1
 90
        6
176
     1
 90
        2
176
     1
 62
     7
176
     1
 90
        3
176
     1
 90
        0
176
     1
 90
        0
176
     1
290
     0
176
     1
 90
        1
176
     1
 40
0.0
176
     1
 90
        0
176
     1
290
     0
176
     1
290
     1
176
     1
290
     1
176
     1
290
     0
176
     1
290
     0
176
     1
290
     0
176
     1
290
     0
176
     1
290
     0
176
     1
290
     0
176
     1
 90
       50
176
     1
 40
0.0
176
     1
 40
1.0
176
     1
 90
        0
176
     1
 62
    18
420
        0
176
     1
 90
       50
176
     1
 90
        3
176
     1
 62
     5
420
      255
176
     1
290
     0
176
     1
 90
       50
176
     1
 90
       50
176
     1
 90
       50
176
     1
290
     0
176
     1
 90
       50
176
     1
 62
   256
176
     0
 40
1.0
176
     0
 90
        2
176
     1
  1
strokes_ogs.tif
176
     1
290
     0
176
     1
 40
1.0
176
     1
 40
1.0
176
     1
  0
VISUALSTYLE
  5
35
102
{ACAD_REACTORS
330
2A
102
}
330
2A
100
AcDbVisualStyle
  2
Dim
 70
    11
177
     3
291
     1
 70
    58
 90
        2
176
     1
 90
        2
176
     1
 90
        0
176
     1
 90
        0
176
     1
 40
0.6
176
     1
 40
30.0
176
     1
 62
     7
420
 16777215
176
     1
 90
        1
176
     1
 90
        4
176
     1
 62
     7
176
     1
 62
   257
176
     1
 90
        1
176
     1
 90
        1
176
     1
 40
1.0
176
     1
 90
        8
176
     1
 62
     7
176
     1
 40
1.0
176
     1
 90
        1
176
     1
 90
        6
176
     1
 90
        2
176
     1
 62
     7
176
     1
 90
        5
176
     1
 90
        0
176
     1
 90
        0
176
     1
290
     0
176
     1
 90
        1
176
     1
 40
-50.0
176
     1
 90
        0
176
     1
290
     0
176
     1
290
     1
176
     1
290
     1
176
     1
290
     0
176
     1
290
     0
176
     1
290
     0
176
     1
290
     0
176
     1
290
     0
176
     1
290
     0
176
     1
 90
       50
176
     1
 40
0.0
176
     1
 40
1.0
176
     1
 90
        0
176
     1
 62
    18
420
        0
176
     1
 90
       50
176
     1
 90
        3
176
     1
 62
     5
420
      255
176
     1
290
     0
176
     1
 90
       50
176
     1
 90
       50
176
     1
 90
       50
176
     1
290
     0
176
     1
 90
       50
176
     1
 62
   256
176
     0
 40
1.0
176
     0
 90
        2
176
     1
  1
strokes_ogs.tif
176
     1
290
     0
176
     1
 40
1.0
176
     1
 40
1.0
176
     1
  0
VISUALSTYLE
  5
3D
102
{ACAD_REACTORS
330
2A
102
}
330
2A
100
AcDbVisualStyle
  2
EdgeColorOff
 70
    22
177
     3
291
     1
 70
    58
 90
        2
176
     0
 90
        2
176
     0
 90
        0
176
     0
 90
        0
176
     0
 40
0.6
176
     0
 40
30.0
176
     0
 62
     7
420
 16777215
176
     0
 90
        1
176
     0
 90
        4
176
     0
 62
     7
176
     0
 62
   257
176
     0
 90
        1
176
     0
 90
        1
176
     0
 40
1.0
176
     0
 90
        8
176
     2
 62
     7
176
     0
 40
1.0
176
     0
 90
        1
176
     0
 90
        6
176
     0
 90
        2
176
     0
 62
     7
176
     0
 90
        5
176
     0
 90
        0
176
     0
 90
        0
176
     0
290
     0
176
     0
 90
        1
176
     0
 40
0.0
176
     0
 90
        0
176
     0
290
     0
176
     0
290
     1
176
     0
290
     1
176
     0
290
     0
176
     0
290
     0
176
     0
290
     0
176
     0
290
     0
176
     0
290
     0
176
     0
290
     0
176
     0
 90
       50
176
     0
 40
0.0
176
     0
 40
1.0
176
     0
 90
        0
176
     0
 62
    18
420
        0
176
     0
 90
       50
176
     0
 90
        3
176
     0
 62
     5
420
      255
176
     0
290
     0
176
     0
 90
       50
176
     0
 90
       50
176
     0
 90
       50
176
     0
290
     0
176
     0
 90
       50
176
     0
 62
   256
176
     0
 40
1.0
176
     0
 90
        2
176
     0
  1
strokes_ogs.tif
176
     0
290
     0
176
     0
 40
1.0
176
     0
 40
1.0
176
     0
  0
VISUALSTYLE
  5
39
102
{ACAD_REACTORS
330
2A
102
}
330
2A
100
AcDbVisualStyle
  2
Facepattern
 70
    15
177
     3
291
     1
 70
    58
 90
        2
176
     1
 90
        2
176
     1
 90
        0
176
     1
 90
        0
176
     1
 40
0.6
176
     1
 40
30.0
176
     1
 62
     7
420
 16777215
176
     1
 90
        1
176
     1
 90
        4
176
     1
 62
     7
176
     1
 62
   257
176
     1
 90
        1
176
     1
 90
        1
176
     1
 40
1.0
176
     1
 90
        8
176
     1
 62
     7
176
     1
 40
1.0
176
     1
 90
        1
176
     1
 90
        6
176
     1
 90
        2
176
     1
 62
     7
176
     1
 90
        5
176
     1
 90
        0
176
     1
 90
        0
176
     1
290
     0
176
     1
 90
        1
176
     1
 40
0.0
176
     1
 90
        0
176
     1
290
     0
176
     1
290
     1
176
     1
290
     1
176
     1
290
     0
176
     1
290
     0
176
     1
290
     0
176
     1
290
     0
176
     1
290
     0
176
     1
290
     0
176
     1
 90
       50
176
     1
 40
0.0
176
     1
 40
1.0
176
     1
 90
        0
176
     1
 62
    18
420
        0
176
     1
 90
       50
176
     1
 90
        3
176
     1
 62
     5
420
      255
176
     1
290
     0
176
     1
 90
       50
176
     1
 90
       50
176
     1
 90
       50
176
     1
290
     0
176
     1
 90
       50
176
     1
 62
   256
176
     0
 40
1.0
176
     0
 90
        2
176
     1
  1
strokes_ogs.tif
176
     1
290
     0
176
     1
 40
1.0
176
     1
 40
1.0
176
     1
  0
VISUALSTYLE
  5
2B
102
{ACAD_REACTORS
330
2A
102
}
330
2A
100
AcDbVisualStyle
  2
Flat
 70
     0
177
     3
291
     1
 70
    58
 90
        2
176
     1
 90
        1
176
     1
 90
        1
176
     1
 90
        2
176
     1
 40
0.6
176
     1
 40
30.0
176
     1
 62
     7
420
 16777215
176
     1
 90
        0
176
     1
 90
        0
176
     1
 62
     7
176
     1
 62
   257
176
     1
 90
        1
176
     1
 90
        1
176
     1
 40
1.0
176
     1
 90
        8
176
     1
 62
     7
176
     1
 40
1.0
176
     1
 90
        1
176
     1
 90
        6
176
     1
 90
        2
176
     1
 62
     7
176
     1
 90
        5
176
     1
 90
        0
176
     1
 90
        0
176
     1
290
     0
176
     1
 90
       13
176
     1
 40
0.0
176
     1
 90
        0
176
     1
290
     0
176
     1
290
     1
176
     1
290
     1
176
     1
290
     0
176
     1
290
     0
176
     1
290
     0
176
     1
290
     0
176
     1
290
     0
176
     1
290
     0
176
     1
 90
       50
176
     1
 40
0.0
176
     1
 40
1.0
176
     1
 90
        0
176
     1
 62
    18
420
        0
176
     1
 90
       50
176
     1
 90
        3
176
     1
 62
     5
420
      255
176
     1
290
     0
176
     1
 90
       50
176
     1
 90
       50
176
     1
 90
       50
176
     1
290
     0
176
     1
 90
       50
176
     1
 62
   256
176
     0
 40
1.0
176
     0
 90
        2
176
     1
  1
strokes_ogs.tif
176
     1
290
     0
176
     1
 40
1.0
176
     1
 40
1.0
176
     1
  0
VISUALSTYLE
  5
2C
102
{ACAD_REACTORS
330
2A
102
}
330
2A
100
AcDbVisualStyle
  2
FlatWithEdges
 70
     1
177
     3
291
     1
 70
    58
 90
        2
176
     1
 90
        1
176
     1
 90
        1
176
     1
 90
        2
176
     1
 40
0.6
176
     1
 40
30.0
176
     1
 62
     7
420
 16777215
176
     1
 90
        1
176
     1
 90
        0
176
     1
 62
     7
176
     1
 62
   257
176
     1
 90
        1
176
     1
 90
        1
176
     1
 40
1.0
176
     1
 90
        0
176
     1
 62
   257
176
     1
 40
1.0
176
     1
 90
        1
176
     1
 90
        6
176
     1
 90
        2
176
     1
 62
     7
176
     1
 90
        5
176
     1
 90
        0
176
     1
 90
        0
176
     1
290
     0
176
     1
 90
       13
176
     1
 40
0.0
176
     1
 90
        0
176
     1
290
     0
176
     1
290
     1
176
     1
290
     1
176
     1
290
     0
176
     1
290
     0
176
     1
290
     0
176
     1
290
     0
176
     1
290
     0
176
     1
290
     0
176
     1
 90
       50
176
     1
 40
0.0
176
     1
 40
1.0
176
     1
 90
        0
176
     1
 62
    18
420
        0
176
     1
 90
       50
176
     1
 90
        3
176
     1
 62
     5
420
      255
176
     1
290
     0
176
     1
 90
       50
176
     1
 90
       50
176
     1
 90
       50
176
     1
290
     0
176
     1
 90
       50
176
     1
 62
   256
176
     0
 40
1.0
176
     0
 90
        2
176
     1
  1
strokes_ogs.tif
176
     1
290
     0
176
     1
 40
1.0
176
     1
 40
1.0
176
     1
  0
VISUALSTYLE
  5
2D
102
{ACAD_REACTORS
330
2A
102
}
330
2A
100
AcDbVisualStyle
  2
Gouraud
 70
     2
177
     3
291
     1
 70
    58
 90
        2
176
     1
 90
        2
176
     1
 90
        1
176
     1
 90
        2
176
     1
 40
0.6
176
     1
 40
30.0
176
     1
 62
     7
420
 16777215
176
     1
 90
        0
176
     1
 90
        0
176
     1
 62
     7
176
     1
 62
   257
176
     1
 90
        1
176
     1
 90
        1
176
     1
 40
1.0
176
     1
 90
        0
176
     1
 62
     7
176
     1
 40
1.0
176
     1
 90
        1
176
     1
 90
        6
176
     1
 90
        2
176
     1
 62
     7
176
     1
 90
        5
176
     1
 90
        0
176
     1
 90
        0
176
     1
290
     0
176
     1
 90
       13
176
     1
 40
0.0
176
     1
 90
        0
176
     1
290
     0
176
     1
290
     1
176
     1
290
     1
176
     1
290
     0
176
     1
290
     0
176
     1
290
     0
176
     1
290
     0
176
     1
290
     0
176
     1
290
     0
176
     1
 90
       50
176
     1
 40
0.0
176
     1
 40
1.0
176
     1
 90
        0
176
     1
 62
    18
420
        0
176
     1
 90
       50
176
     1
 90
        3
176
     1
 62
     5
420
      255
176
     1
290
     0
176
     1
 90
       50
176
     1
 90
       50
176
     1
 90
       50
176
     1
290
     0
176
     1
 90
       50
176
     1
 62
   256
176
     0
 40
1.0
176
     0
 90
        2
176
     1
  1
strokes_ogs.tif
176
     1
290
     0
176
     1
 40
1.0
176
     1
 40
1.0
176
     1
  0
VISUALSTYLE
  5
2E
102
{ACAD_REACTORS
330
2A
102
}
330
2A
100
AcDbVisualStyle
  2
GouraudWithEdges
 70
     3
177
     3
291
     1
 70
    58
 90
        2
176
     1
 90
        2
176
     1
 90
        1
176
     1
 90
        2
176
     1
 40
0.6
176
     1
 40
30.0
176
     1
 62
     7
420
 16777215
176
     1
 90
        1
176
     1
 90
        0
176
     1
 62
     7
176
     1
 62
   257
176
     1
 90
        1
176
     1
 90
        1
176
     1
 40
1.0
176
     1
 90
        0
176
     1
 62
   257
176
     1
 40
1.0
176
     1
 90
        1
176
     1
 90
        6
176
     1
 90
        2
176
     1
 62
     7
176
     1
 90
        5
176
     1
 90
        0
176
     1
 90
        0
176
     1
290
     0
176
     1
 90
       13
176
     1
 40
0.0
176
     1
 90
        0
176
     1
290
     0
176
     1
290
     1
176
     1
290
     1
176
     1
290
     0
176
     1
290
     0
176
     1
290
     0
176
     1
290
     0
176
     1
290
     0
176
     1
290
     0
176
     1
 90
       50
176
     1
 40
0.0
176
     1
 40
1.0
176
     1
 90
        0
176
     1
 62
    18
420
        0
176
     1
 90
       50
176
     1
 90
        3
176
     1
 62
     5
420
      255
176
     1
290
     0
176
     1
 90
       50
176
     1
 90
       50
176
     1
 90
       50
176
     1
290
     0
176
     1
 90
       50
176
     1
 62
   256
176
     0
 40
1.0
176
     0
 90
        2
176
     1
  1
strokes_ogs.tif
176
     1
290
     0
176
     1
 40
1.0
176
     1
 40
1.0
176
     1
  0
VISUALSTYLE
  5
31
102
{ACAD_REACTORS
330
2A
102
}
330
2A
100
AcDbVisualStyle
  2
Hidden
 70
     6
177
     3
291
     0
 70
    58
 90
        1
176
     1
 90
        2
176
     1
 90
        2
176
     1
 90
        0
176
     1
 40
0.6
176
     1
 40
30.0
176
     1
 62
     7
420
 16777215
176
     1
 90
        2
176
     1
 90
        2
176
     1
 62
     7
176
     1
 62
   257
176
     1
 90
        2
176
     1
 90
        1
176
     1
 40
40.0
176
     1
 90
        0
176
     1
 62
   257
176
     1
 40
1.0
176
     1
 90
        1
176
     1
 90
        6
176
     1
 90
        2
176
     1
 62
     7
176
     1
 90
        3
176
     1
 90
        0
176
     1
 90
        0
176
     1
290
     0
176
     1
 90
        1
176
     1
 40
0.0
176
     1
 90
        0
176
     1
290
     0
176
     1
290
     1
176
     1
290
     1
176
     1
290
     0
176
     1
290
     0
176
     1
290
     0
176
     1
290
     0
176
     1
290
     0
176
     1
290
     0
176
     1
 90
       50
176
     1
 40
0.0
176
     1
 40
1.0
176
     1
 90
        0
176
     1
 62
    18
420
        0
176
     1
 90
       50
176
     1
 90
        3
176
     1
 62
     5
420
      255
176
     1
290
     0
176
     1
 90
       50
176
     1
 90
       50
176
     1
 90
       50
176
     1
290
     0
176
     1
 90
       50
176
     1
 62
   256
176
     0
 40
1.0
176
     0
 90
        2
176
     1
  1
strokes_ogs.tif
176
     1
290
     0
176
     1
 40
1.0
176
     1
 40
1.0
176
     1
  0
VISUALSTYLE
  5
3B
102
{ACAD_REACTORS
330
2A
102
}
330
2A
100
AcDbVisualStyle
  2
JitterOff
 70
    20
177
     3
291
     1
 70
    58
 90
        2
176
     0
 90
        2
176
     0
 90
        0
176
     0
 90
        0
176
     0
 40
0.6
176
     0
 40
30.0
176
     0
 62
     7
420
 16777215
176
     0
 90
        1
176
     0
 90
        4
176
     0
 62
     7
176
     0
 62
   257
176
     0
 90
        1
176
     0
 90
        1
176
     0
 40
1.0
176
     0
 90
       10
176
     2
 62
     7
176
     0
 40
1.0
176
     0
 90
        1
176
     0
 90
        6
176
     0
 90
        2
176
     0
 62
     7
176
     0
 90
        5
176
     0
 90
        0
176
     0
 90
        0
176
     0
290
     0
176
     0
 90
        1
176
     0
 40
0.0
176
     0
 90
        0
176
     0
290
     0
176
     0
290
     1
176
     0
290
     1
176
     0
290
     0
176
     0
290
     0
176
     0
290
     0
176
     0
290
     0
176
     0
290
     0
176
     0
290
     0
176
     0
 90
       50
176
     0
 40
0.0
176
     0
 40
1.0
176
     0
 90
        0
176
     0
 62
    18
420
        0
176
     0
 90
       50
176
     0
 90
        3
176
     0
 62
     5
420
      255
176
     0
290
     0
176
     0
 90
       50
176
     0
 90
       50
176
     0
 90
       50
176
     0
290
     0
176
     0
 90
       50
176
     0
 62
   256
176
     0
 40
1.0
176
     0
 90
        2
176
     0
  1
strokes_ogs.tif
176
     0
290
     0
176
     0
 40
1.0
176
     0
 40
1.0
176
     0
  0
VISUALSTYLE
  5
38
102
{ACAD_REACTORS
330
2A
102
}
330
2A
100
AcDbVisualStyle
  2
Linepattern
 70
    14
177
     3
291
     1
 70
    58
 90
        2
176
     1
 90
        2
176
     1
 90
        0
176
     1
 90
        0
176
     1
 40
0.6
176
     1
 40
30.0
176
     1
 62
     7
420
 16777215
176
     1
 90
        1
176
     1
 90
        4
176
     1
 62
     7
176
     1
 62
   257
176
     1
 90
        7
176
     1
 90
        7
176
     1
 40
1.0
176
     1
 90
        8
176
     1
 62
     7
176
     1
 40
1.0
176
     1
 90
        1
176
     1
 90
        6
176
     1
 90
        2
176
     1
 62
     7
176
     1
 90
        5
176
     1
 90
        0
176
     1
 90
        0
176
     1
290
     0
176
     1
 90
        1
176
     1
 40
0.0
176
     1
 90
        0
176
     1
290
     0
176
     1
290
     1
176
     1
290
     1
176
     1
290
     0
176
     1
290
     0
176
     1
290
     0
176
     1
290
     0
176
     1
290
     0
176
     1
290
     0
176
     1
 90
       50
176
     1
 40
0.0
176
     1
 40
1.0
176
     1
 90
        0
176
     1
 62
    18
420
        0
176
     1
 90
       50
176
     1
 90
        3
176
     1
 62
     5
420
      255
176
     1
290
     0
176
     1
 90
       50
176
     1
 90
       50
176
     1
 90
       50
176
     1
290
     0
176
     1
 90
       50
176
     1
 62
   256
176
     0
 40
1.0
176
     0
 90
        2
176
     1
  1
strokes_ogs.tif
176
     1
290
     0
176
     1
 40
1.0
176
     1
 40
1.0
176
     1
  0
VISUALSTYLE
  5
3C
102
{ACAD_REACTORS
330
2A
102
}
330
2A
100
AcDbVisualStyle
  2
OverhangOff
 70
    21
177
     3
291
     1
 70
    58
 90
        2
176
     0
 90
        2
176
     0
 90
        0
176
     0
 90
        0
176
     0
 40
0.6
176
     0
 40
30.0
176
     0
 62
     7
420
 16777215
176
     0
 90
        1
176
     0
 90
        4
176
     0
 62
     7
176
     0
 62
   257
176
     0
 90
        1
176
     0
 90
        1
176
     0
 40
1.0
176
     0
 90
        9
176
     2
 62
     7
176
     0
 40
1.0
176
     0
 90
        1
176
     0
 90
        6
176
     0
 90
        2
176
     0
 62
     7
176
     0
 90
        5
176
     0
 90
        0
176
     0
 90
        0
176
     0
290
     0
176
     0
 90
        1
176
     0
 40
0.0
176
     0
 90
        0
176
     0
290
     0
176
     0
290
     1
176
     0
290
     1
176
     0
290
     0
176
     0
290
     0
176
     0
290
     0
176
     0
290
     0
176
     0
290
     0
176
     0
290
     0
176
     0
 90
       50
176
     0
 40
0.0
176
     0
 40
1.0
176
     0
 90
        0
176
     0
 62
    18
420
        0
176
     0
 90
       50
176
     0
 90
        3
176
     0
 62
     5
420
      255
176
     0
290
     0
176
     0
 90
       50
176
     0
 90
       50
176
     0
 90
       50
176
     0
290
     0
176
     0
 90
       50
176
     0
 62
   256
176
     0
 40
1.0
176
     0
 90
        2
176
     0
  1
strokes_ogs.tif
176
     0
290
     0
176
     0
 40
1.0
176
     0
 40
1.0
176
     0
  0
VISUALSTYLE
  5
33
102
{ACAD_REACTORS
330
2A
102
}
330
2A
100
AcDbVisualStyle
  2
Realistic
 70
     8
177
     3
291
     0
 70
    58
 90
        2
176
     1
 90
        3
176
     1
 90
        0
176
     1
 90
        2
176
     1
 40
0.6
176
     1
 40
30.0
176
     1
 62
     7
420
 16777215
176
     1
 90
        0
176
     1
 90
        0
176
     1
 62
     7
176
     1
 62
   257
176
     1
 90
        1
176
     1
 90
        1
176
     1
 40
1.0
176
     1
 90
        8
176
     1
 62
   257
176
     1
 40
1.0
176
     1
 90
        1
176
     1
 90
        6
176
     1
 90
        2
176
     1
 62
     7
176
     1
 90
        3
176
     1
 90
        0
176
     1
 90
        0
176
     1
290
     0
176
     1
 90
       13
176
     1
 40
0.0
176
     1
 90
        0
176
     1
290
     0
176
     1
290
     1
176
     1
290
     1
176
     1
290
     0
176
     1
290
     0
176
     1
290
     0
176
     1
290
     0
176
     1
290
     0
176
     1
290
     0
176
     1
 90
       50
176
     1
 40
0.0
176
     1
 40
1.0
176
     1
 90
        0
176
     1
 62
    18
420
        0
176
     1
 90
       50
176
     1
 90
        3
176
     1
 62
     5
420
      255
176
     1
290
     0
176
     1
 90
       50
176
     1
 90
       50
176
     1
 90
       50
176
     1
290
     0
176
     1
 90
       50
176
     1
 62
   256
176
     0
 40
1.0
176
     0
 90
        2
176
     1
  1
strokes_ogs.tif
176
     1
290
     0
176
     1
 40
1.0
176
     1
 40
1.0
176
     1
  0
VISUALSTYLE
  5
42
102
{ACAD_REACTORS
330
2A
102
}
330
2A
100
AcDbVisualStyle
  2
Shaded
 70
    27
177
     3
291
     0
 70
    58
 90
        2
176
     1
 90
        2
176
     1
 90
        1
176
     1
 90
        2
176
     1
 40
0.6
176
     1
 40
30.0
176
     1
 62
     7
420
 16777215
176
     1
 90
        0
176
     1
 90
        4
176
     1
 62
     7
176
     1
 62
   257
176
     1
 90
        1
176
     1
 90
        1
176
     1
 40
1.0
176
     1
 90
        8
176
     1
 62
   257
176
     1
 40
1.0
176
     1
 90
        1
176
     1
 90
        6
176
     1
 90
        2
176
     1
 62
     8
420
  7895160
176
     1
 90
        3
176
     1
 90
        0
176
     1
 90
        0
176
     1
290
     0
176
     1
 90
        5
176
     1
 40
0.0
176
     1
 90
        0
176
     1
290
     0
176
     1
290
     1
176
     1
290
     1
176
     1
290
     0
176
     1
290
     0
176
     1
290
     0
176
     1
290
     0
176
     1
290
     0
176
     1
290
     0
176
     1
 90
       50
176
     1
 40
0.0
176
     1
 40
1.0
176
     1
 90
        0
176
     1
 62
    18
420
        0
176
     1
 90
       50
176
     1
 90
        3
176
     1
 62
     5
420
      255
176
     1
290
     0
176
     1
 90
       50
176
     1
 90
       50
176
     1
 90
       50
176
     1
290
     0
176
     1
 90
       50
176
     1
 62
   256
176
     0
 40
1.0
176
     0
 90
        2
176
     1
  1
strokes_ogs.tif
176
     1
290
     0
176
     1
 40
1.0
176
     1
 40
1.0
176
     1
  0
VISUALSTYLE
  5
41
102
{ACAD_REACTORS
330
2A
102
}
330
2A
100
AcDbVisualStyle
  2
Shaded with edges
 70
    26
177
     3
291
     0
 70
    58
 90
        2
176
     1
 90
        2
176
     1
 90
        1
176
     1
 90
        2
176
     1
 40
0.6
176
     1
 40
30.0
176
     1
 62
     7
420
 16777215
176
     1
 90
        1
176
     1
 90
       10
176
     1
 62
     7
176
     1
 62
   257
176
     1
 90
        2
176
     1
 90
        1
176
     1
 40
1.0
176
     1
 90
        8
176
     1
 62
   257
176
     1
 40
1.0
176
     1
 90
        1
176
     1
 90
        6
176
     1
 90
        2
176
     1
 62
     7
176
     1
 90
        3
176
     1
 90
        0
176
     1
 90
        0
176
     1
290
     0
176
     1
 90
        5
176
     1
 40
0.0
176
     1
 90
        0
176
     1
290
     0
176
     1
290
     1
176
     1
290
     1
176
     1
290
     0
176
     1
290
     0
176
     1
290
     0
176
     1
290
     0
176
     1
290
     0
176
     1
290
     0
176
     1
 90
       50
176
     1
 40
0.0
176
     1
 40
1.0
176
     1
 90
        0
176
     1
 62
    18
420
        0
176
     1
 90
       50
176
     1
 90
        3
176
     1
 62
     5
420
      255
176
     1
290
     0
176
     1
 90
       50
176
     1
 90
       50
176
     1
 90
       50
176
     1
290
     0
176
     1
 90
       50
176
     1
 62
   256
176
     0
 40
1.0
176
     0
 90
        2
176
     1
  1
strokes_ogs.tif
176
     1
290
     0
176
     1
 40
1.0
176
     1
 40
1.0
176
     1
  0
VISUALSTYLE
  5
3E
102
{ACAD_REACTORS
330
2A
102
}
330
2A
100
AcDbVisualStyle
  2
Shades of Gray
 70
    23
177
     3
291
     0
 70
    58
 90
        2
176
     1
 90
        2
176
     1
 90
        3
176
     1
 90
        0
176
     1
 40
0.6
176
     1
 40
30.0
176
     1
 62
     7
420
 16777215
176
     1
 90
        2
176
     1
 90
        2
176
     1
 62
     7
176
     1
 62
     7
176
     1
 90
        1
176
     1
 90
        1
176
     1
 40
40.0
176
     1
 90
        8
176
     1
 62
     7
176
     1
 40
1.0
176
     1
 90
        1
176
     1
 90
        6
176
     1
 90
        2
176
     1
 62
     7
176
     1
 90
        3
176
     1
 90
        0
176
     1
 90
        0
176
     1
290
     0
176
     1
 90
        1
176
     1
 40
0.0
176
     1
 90
        0
176
     1
290
     0
176
     1
290
     1
176
     1
290
     1
176
     1
290
     0
176
     1
290
     0
176
     1
290
     0
176
     1
290
     0
176
     1
290
     0
176
     1
290
     0
176
     1
 90
       50
176
     1
 40
0.0
176
     1
 40
1.0
176
     1
 90
        0
176
     1
 62
    18
420
        0
176
     1
 90
       50
176
     1
 90
        3
176
     1
 62
     5
420
      255
176
     1
290
     0
176
     1
 90
       50
176
     1
 90
       50
176
     1
 90
       50
176
     1
290
     0
176
     1
 90
       50
176
     1
 62
   256
176
     0
 40
1.0
176
     0
 90
        2
176
     1
  1
strokes_ogs.tif
176
     1
290
     0
176
     1
 40
1.0
176
     1
 40
1.0
176
     1
  0
VISUALSTYLE
  5
3F
102
{ACAD_REACTORS
330
2A
102
}
330
2A
100
AcDbVisualStyle
  2
Sketchy
 70
    24
177
     3
291
     0
 70
    58
 90
        1
176
     1
 90
        2
176
     1
 90
        2
176
     1
 90
        0
176
     1
 40
0.6
176
     1
 40
30.0
176
     1
 62
     7
420
 16777215
176
     1
 90
        2
176
     1
 90
        2
176
     1
 62
     7
176
     1
 62
     7
176
     1
 90
        1
176
     1
 90
        1
176
     1
 40
40.0
176
     1
 90
       11
176
     1
 62
     7
176
     1
 40
1.0
176
     1
 90
        1
176
     1
 90
        6
176
     1
 90
        2
176
     1
 62
     7
176
     1
 90
        6
176
     1
 90
        0
176
     1
 90
        0
176
     1
290
     0
176
     1
 90
        1
176
     1
 40
0.0
176
     1
 90
        0
176
     1
290
     0
176
     1
290
     1
176
     1
290
     1
176
     1
290
     0
176
     1
290
     0
176
     1
290
     0
176
     1
290
     0
176
     1
290
     0
176
     1
290
     0
176
     1
 90
       50
176
     1
 40
0.0
176
     1
 40
1.0
176
     1
 90
        0
176
     1
 62
    18
420
        0
176
     1
 90
       50
176
     1
 90
        3
176
     1
 62
     5
420
      255
176
     1
290
     0
176
     1
 90
       50
176
     1
 90
       50
176
     1
 90
       50
176
     1
290
     0
176
     1
 90
       50
176
     1
 62
   256
176
     0
 40
1.0
176
     0
 90
        2
176
     1
  1
strokes_ogs.tif
176
     1
290
     0
176
     1
 40
1.0
176
     1
 40
1.0
176
     1
  0
VISUALSTYLE
  5
37
102
{ACAD_REACTORS
330
2A
102
}
330
2A
100
AcDbVisualStyle
  2
Thicken
 70
    13
177
     3
291
     1
 70
    58
 90
        2
176
     1
 90
        2
176
     1
 90
        0
176
     1
 90
        0
176
     1
 40
0.6
176
     1
 40
30.0
176
     1
 62
     7
420
 16777215
176
     1
 90
        1
176
     1
 90
        4
176
     1
 62
     7
176
     1
 62
   257
176
     1
 90
        1
176
     1
 90
        1
176
     1
 40
1.0
176
     1
 90
       12
176
     1
 62
     7
176
     1
 40
1.0
176
     1
 90
        1
176
     1
 90
        6
176
     1
 90
        2
176
     1
 62
     7
176
     1
 90
        5
176
     1
 90
        0
176
     1
 90
        0
176
     1
290
     0
176
     1
 90
        1
176
     1
 40
0.0
176
     1
 90
        0
176
     1
290
     0
176
     1
290
     1
176
     1
290
     1
176
     1
290
     0
176
     1
290
     0
176
     1
290
     0
176
     1
290
     0
176
     1
290
     0
176
     1
290
     0
176
     1
 90
       50
176
     1
 40
0.0
176
     1
 40
1.0
176
     1
 90
        0
176
     1
 62
    18
420
        0
176
     1
 90
       50
176
     1
 90
        3
176
     1
 62
     5
420
      255
176
     1
290
     0
176
     1
 90
       50
176
     1
 90
       50
176
     1
 90
       50
176
     1
290
     0
176
     1
 90
       50
176
     1
 62
   256
176
     0
 40
1.0
176
     0
 90
        2
176
     1
  1
strokes_ogs.tif
176
     1
290
     0
176
     1
 40
1.0
176
     1
 40
1.0
176
     1
  0
VISUALSTYLE
  5
30
102
{ACAD_REACTORS
330
2A
102
}
330
2A
100
AcDbVisualStyle
  2
Wireframe
 70
     5
177
     3
291
     0
 70
    58
 90
        0
176
     1
 90
        2
176
     1
 90
        0
176
     1
 90
        0
176
     1
 40
0.6
176
     1
 40
30.0
176
     1
 62
     7
420
 16777215
176
     1
 90
        1
176
     1
 90
        4
176
     1
 62
     7
176
     1
 62
   257
176
     1
 90
        1
176
     1
 90
        1
176
     1
 40
1.0
176
     1
 90
        0
176
     1
 62
   257
176
     1
 40
1.0
176
     1
 90
        1
176
     1
 90
        6
176
     1
 90
        2
176
     1
 62
     7
176
     1
 90
        3
176
     1
 90
        0
176
     1
 90
        0
176
     1
290
     0
176
     1
 90
        1
176
     1
 40
0.0
176
     1
 90
        0
176
     1
290
     0
176
     1
290
     1
176
     1
290
     1
176
     1
290
     0
176
     1
290
     0
176
     1
290
     0
176
     1
290
     0
176
     1
290
     0
176
     1
290
     0
176
     1
 90
       50
176
     1
 40
0.0
176
     1
 40
1.0
176
     1
 90
        0
176
     1
 62
    18
420
        0
176
     1
 90
       50
176
     1
 90
        3
176
     1
 62
     5
420
      255
176
     1
290
     0
176
     1
 90
       50
176
     1
 90
       50
176
     1
 90
       50
176
     1
290
     0
176
     1
 90
       50
176
     1
 62
   256
176
     0
 40
1.0
176
     0
 90
        2
176
     1
  1
strokes_ogs.tif
176
     1
290
     0
176
     1
 40
1.0
176
     1
 40
1.0
176
     1
  0
VISUALSTYLE
  5
40
102
{ACAD_REACTORS
330
2A
102
}
330
2A
100
AcDbVisualStyle
  2
X-Ray
 70
    25
177
     3
291
     0
 70
    58
 90
        2
176
     1
 90
        2
176
     1
 90
        1
176
     1
 90
        1
176
     1
 40
0.5
176
     1
 40
30.0
176
     1
 62
     7
420
 16777215
176
     1
 90
        1
176
     1
 90
        0
176
     1
 62
     7
176
     1
 62
   257
176
     1
 90
        1
176
     1
 90
        1
176
     1
 40
1.0
176
     1
 90
        8
176
     1
 62
     7
176
     1
 40
1.0
176
     1
 90
        1
176
     1
 90
        6
176
     1
 90
        2
176
     1
 62
     7
176
     1
 90
        3
176
     1
 90
        0
176
     1
 90
        0
176
     1
290
     0
176
     1
 90
       13
176
     1
 40
0.0
176
     1
 90
        0
176
     1
290
     0
176
     1
290
     1
176
     1
290
     1
176
     1
290
     0
176
     1
290
     0
176
     1
290
     0
176
     1
290
     0
176
     1
290
     0
176
     1
290
     0
176
     1
 90
       50
176
     1
 40
0.0
176
     1
 40
1.0
176
     1
 90
        0
176
     1
 62
    18
420
        0
176
     1
 90
       50
176
     1
 90
        3
176
     1
 62
     5
420
      255
176
     1
290
     0
176
     1
 90
       50
176
     1
 90
       50
176
     1
 90
       50
176
     1
290
     0
176
     1
 90
       50
176
     1
 62
   256
176
     0
 40
1.0
176
     0
 90
        2
176
     1
  1
strokes_ogs.tif
176
     1
290
     0
176
     1
 40
1.0
176
     1
 40
1.0
176
     1
  0
DICTIONARYVAR
  5
81
102
{ACAD_REACTORS
330
80
102
}
330
80
100
DictionaryVariables
280
     0
  1
1:1
  0
DICTIONARYVAR
  5
86
102
{ACAD_REACTORS
330
80
102
}
330
80
100
DictionaryVariables
280
     0
  1
Standard
  0
DICTIONARYVAR
  5
85
102
{ACAD_REACTORS
330
80
102
}
330
80
100
DictionaryVariables
280
     0
  1
Standard
  0
DICTIONARY
  5
82
330
5A
100
AcDbDictionary
280
     1
281
     1
  3
ACAD_ROUNDTRIP_2008_TABLESTYLE_CELLSTYLEMAP
360
83
  0
CELLSTYLEMAP
  5
83
102
{ACAD_REACTORS
330
82
102
}
330
82
100
AcDbCellStyleMap
 90
        3
300
CELLSTYLE
  1
TABLEFORMAT_BEGIN
 90
        5
170
     1
 91
        0
 92
    32768
 62
   257
 93
        1
300
CONTENTFORMAT
  1
CONTENTFORMAT_BEGIN
 90
        0
 91
        0
 92
        4
 93
        0
300

 40
0.0
140
1.0
 94
        5
 62
     0
340
11
144
0.25
309
CONTENTFORMAT_END
171
     1
301
MARGIN
  1
CELLMARGIN_BEGIN
 40
0.06
 40
0.06
 40
0.06
 40
0.06
 40
0.06
 40
0.06
309
CELLMARGIN_END
 94
        6
 95
        1
302
GRIDFORMAT
  1
GRIDFORMAT_BEGIN
 90
        0
 91
        1
 62
     0
 92
       -2
340
14
 93
        0
 40
0.045
309
GRIDFORMAT_END
 95
        2
302
GRIDFORMAT
  1
GRIDFORMAT_BEGIN
 90
        0
 91
        1
 62
     0
 92
       -2
340
14
 93
        0
 40
0.045
309
GRIDFORMAT_END
 95
        4
302
GRIDFORMAT
  1
GRIDFORMAT_BEGIN
 90
        0
 91
        1
 62
     0
 92
       -2
340
14
 93
        0
 40
0.045
309
GRIDFORMAT_END
 95
        8
302
GRIDFORMAT
  1
GRIDFORMAT_BEGIN
 90
        0
 91
        1
 62
     0
 92
       -2
340
14
 93
        0
 40
0.045
309
GRIDFORMAT_END
 95
       16
302
GRIDFORMAT
  1
GRIDFORMAT_BEGIN
 90
        0
 91
        1
 62
     0
 92
       -2
340
14
 93
        0
 40
0.045
309
GRIDFORMAT_END
 95
       32
302
GRIDFORMAT
  1
GRIDFORMAT_BEGIN
 90
        0
 91
        1
 62
     0
 92
       -2
340
14
 93
        0
 40
0.045
309
GRIDFORMAT_END
309
TABLEFORMAT_END
  1
CELLSTYLE_BEGIN
 90
        1
 91
        1
300
_TITLE
309
CELLSTYLE_END
300
CELLSTYLE
  1
TABLEFORMAT_BEGIN
 90
        5
170
     1
 91
        0
 92
        0
 62
   257
 93
        1
300
CONTENTFORMAT
  1
CONTENTFORMAT_BEGIN
 90
        0
 91
        0
 92
        4
 93
        0
300

 40
0.0
140
1.0
 94
        5
 62
     0
340
11
144
0.18
309
CONTENTFORMAT_END
171
     1
301
MARGIN
  1
CELLMARGIN_BEGIN
 40
0.06
 40
0.06
 40
0.06
 40
0.06
 40
0.06
 40
0.06
309
CELLMARGIN_END
 94
        6
 95
        1
302
GRIDFORMAT
  1
GRIDFORMAT_BEGIN
 90
        0
 91
        1
 62
     0
 92
       -2
340
14
 93
        0
 40
0.045
309
GRIDFORMAT_END
 95
        2
302
GRIDFORMAT
  1
GRIDFORMAT_BEGIN
 90
        0
 91
        1
 62
     0
 92
       -2
340
14
 93
        0
 40
0.045
309
GRIDFORMAT_END
 95
        4
302
GRIDFORMAT
  1
GRIDFORMAT_BEGIN
 90
        0
 91
        1
 62
     0
 92
       -2
340
14
 93
        0
 40
0.045
309
GRIDFORMAT_END
 95
        8
302
GRIDFORMAT
  1
GRIDFORMAT_BEGIN
 90
        0
 91
        1
 62
     0
 92
       -2
340
14
 93
        0
 40
0.045
309
GRIDFORMAT_END
 95
       16
302
GRIDFORMAT
  1
GRIDFORMAT_BEGIN
 90
        0
 91
        1
 62
     0
 92
       -2
340
14
 93
        0
 40
0.045
309
GRIDFORMAT_END
 95
       32
302
GRIDFORMAT
  1
GRIDFORMAT_BEGIN
 90
        0
 91
        1
 62
     0
 92
       -2
340
14
 93
        0
 40
0.045
309
GRIDFORMAT_END
309
TABLEFORMAT_END
  1
CELLSTYLE_BEGIN
 90
        2
 91
        1
300
_HEADER
309
CELLSTYLE_END
300
CELLSTYLE
  1
TABLEFORMAT_BEGIN
 90
        5
170
     1
 91
        0
 92
        0
 62
   257
 93
        1
300
CONTENTFORMAT
  1
CONTENTFORMAT_BEGIN
 90
        0
 91
        0
 92
        4
 93
        0
300

 40
0.0
140
1.0
 94
        2
 62
     0
340
11
144
0.18
309
CONTENTFORMAT_END
171
     1
301
MARGIN
  1
CELLMARGIN_BEGIN
 40
0.06
 40
0.06
 40
0.06
 40
0.06
 40
0.06
 40
0.06
309
CELLMARGIN_END
 94
        6
 95
        1
302
GRIDFORMAT
  1
GRIDFORMAT_BEGIN
 90
        0
 91
        1
 62
     0
 92
       -2
340
14
 93
        0
 40
0.045
309
GRIDFORMAT_END
 95
        2
302
GRIDFORMAT
  1
GRIDFORMAT_BEGIN
 90
        0
 91
        1
 62
     0
 92
       -2
340
14
 93
        0
 40
0.045
309
GRIDFORMAT_END
 95
        4
302
GRIDFORMAT
  1
GRIDFORMAT_BEGIN
 90
        0
 91
        1
 62
     0
 92
       -2
340
14
 93
        0
 40
0.045
309
GRIDFORMAT_END
 95
        8
302
GRIDFORMAT
  1
GRIDFORMAT_BEGIN
 90
        0
 91
        1
 62
     0
 92
       -2
340
14
 93
        0
 40
0.045
309
GRIDFORMAT_END
 95
       16
302
GRIDFORMAT
  1
GRIDFORMAT_BEGIN
 90
        0
 91
        1
 62
     0
 92
       -2
340
14
 93
        0
 40
0.045
309
GRIDFORMAT_END
 95
       32
302
GRIDFORMAT
  1
GRIDFORMAT_BEGIN
 90
        0
 91
        1
 62
     0
 92
       -2
340
14
 93
        0
 40
0.045
309
GRIDFORMAT_END
309
TABLEFORMAT_END
  1
CELLSTYLE_BEGIN
 90
        3
 91
        2
300
_DATA
309
CELLSTYLE_END
  0
ENDSEC
  0
EOF
