<svg xmlns="http://www.w3.org/2000/svg" viewBox="0 0 100 100" fill="#2E2A28" fill-rule="evenodd"><title>Заряды — три черты</title><path d="M69.58 5.99 69.88 5.88 71.99 5.89 72.74 6.36 73.19 6.18 76.66 6.18 78.01 6.47 80.72 6.49 80.94 6.63 80.94 6.93 80.27 7.32 78.77 7.42 78.31 7.97 76.30 8.13 76.19 8.28 76.37 8.73 76.31 8.89 75.61 9.34 75.45 9.64 75.17 9.34 75.00 9.35 74.77 9.64 75.00 9.97 76.51 10.11 77.11 10.39 78.01 10.41 78.61 10.70 82.53 10.71 82.98 10.90 83.28 10.83 83.58 11.21 83.89 10.82 84.79 11.06 85.04 11.30 85.10 11.45 84.94 11.60 84.41 11.75 85.37 12.05 84.49 12.28 84.48 12.50 84.79 12.77 85.84 12.83 86.30 13.01 86.75 12.82 87.65 12.82 88.10 13.09 88.70 13.18 89.30 13.55 88.86 13.71 88.40 13.46 88.10 13.49 88.25 13.88 88.70 14.16 86.60 14.66 86.17 14.91 85.99 15.46 85.54 15.54 85.24 15.79 83.73 15.49 83.56 15.36 83.90 15.06 83.69 14.76 83.28 14.38 82.68 14.36 82.31 14.76 82.38 15.18 81.75 15.36 82.08 15.65 82.03 15.81 81.78 16.03 81.17 15.92 81.16 16.11 81.48 16.39 82.53 16.45 83.13 16.76 84.04 16.47 84.19 16.57 84.02 16.87 83.73 17.01 82.68 17.07 82.23 17.33 81.48 17.38 79.37 18.13 78.77 17.98 78.05 18.37 77.86 19.36 78.46 19.26 79.02 19.58 78.11 19.88 78.46 20.48 78.14 20.78 78.72 21.08 78.44 21.39 78.61 21.53 79.62 21.69 79.32 21.99 79.37 22.29 79.22 22.44 78.31 22.47 77.86 22.66 77.26 22.47 75.30 22.47 74.55 22.77 73.80 22.48 72.29 22.47 71.96 22.74 71.99 22.91 72.41 23.19 72.27 23.49 71.99 23.66 71.23 23.70 70.78 23.96 70.33 23.94 69.88 23.70 69.13 23.94 68.77 23.64 68.56 23.19 68.22 23.07 65.66 23.08 65.06 23.35 63.70 23.50 63.40 23.82 62.65 23.95 62.05 23.71 60.24 23.72 60.06 23.80 60.24 23.95 61.60 23.98 61.82 24.10 61.75 24.19 60.39 24.28 59.94 24.56 59.19 24.61 58.73 24.86 54.82 24.89 54.07 25.18 52.11 25.19 51.36 25.48 49.55 25.51 49.10 25.76 48.04 25.81 47.59 26.06 46.84 26.11 46.39 26.37 45.33 26.41 44.73 26.69 43.83 26.71 42.47 27.27 40.81 27.32 40.36 27.57 39.31 27.62 38.86 27.87 37.80 27.92 37.35 28.17 35.99 28.22 34.64 28.77 33.58 28.82 32.98 29.10 31.63 29.11 30.87 29.40 29.67 29.42 29.22 29.68 28.46 29.73 27.11 30.28 25.45 30.33 24.85 30.61 22.44 30.60 21.99 30.35 20.63 30.30 20.18 30.05 18.22 29.70 17.47 29.35 15.96 28.16 15.57 27.41 15.80 26.81 15.75 26.51 14.76 26.32 14.28 25.60 12.35 24.52 12.04 24.25 11.84 23.80 11.45 23.61 11.33 23.34 11.50 22.89 11.27 22.59 10.84 22.40 10.73 22.14 11.14 21.62 11.75 21.52 11.86 21.08 10.84 20.33 10.65 19.58 9.93 18.37 10.36 18.07 10.54 17.70 11.45 17.59 11.56 17.17 10.84 16.47 10.24 16.38 9.26 15.66 9.34 15.35 9.64 15.43 10.39 15.09 10.84 14.35 11.45 13.77 12.05 13.47 12.65 13.38 13.25 12.87 15.36 12.02 15.81 12.20 16.87 12.25 17.32 12.49 17.92 12.22 19.43 12.21 20.03 11.92 20.93 11.95 21.08 12.11 20.48 12.49 19.61 12.65 20.63 12.79 21.23 12.52 21.99 12.70 22.44 12.53 23.49 12.48 24.10 12.21 27.86 12.21 28.46 11.93 29.22 11.88 29.67 11.62 31.33 11.57 32.38 11.02 33.73 10.97 34.19 10.72 35.24 10.67 35.69 10.42 36.90 10.40 37.35 10.22 37.95 10.40 39.01 10.40 39.61 10.12 41.11 10.09 41.72 9.82 43.37 9.77 43.83 9.52 44.88 9.47 45.33 9.22 46.39 9.17 46.84 8.91 47.59 8.87 48.04 8.61 49.10 8.56 49.55 8.31 51.20 8.26 51.81 7.99 53.31 7.96 53.77 7.71 55.12 7.66 55.72 7.39 56.93 7.36 57.38 7.11 58.13 7.06 58.58 6.81 59.94 6.76 60.54 6.48 63.10 6.48 64.01 6.78 64.76 6.50 65.66 6.50 66.11 6.66 66.57 6.48 67.47 6.46 68.07 6.18 69.28 6.16 69.58 5.99Z M72.74 9.59 72.89 9.76 73.30 9.64 72.74 9.59Z M83.89 11.35 83.89 11.51 84.19 11.52 83.89 11.35Z M73.95 18.28 73.78 18.52 73.95 18.80 74.25 18.78 74.50 18.52 74.40 18.28 73.95 18.28Z M76.36 18.50 76.03 18.67 76.20 18.81 76.73 18.67 76.66 18.39 76.36 18.50Z M64.91 38.19 66.27 38.18 66.87 38.45 70.33 38.46 70.93 38.64 71.39 38.46 72.44 38.46 73.19 38.76 73.95 38.57 75.15 39.03 75.90 39.08 76.36 39.33 77.41 39.38 77.86 39.63 78.92 39.68 79.37 39.93 80.12 39.98 80.57 40.23 81.48 40.33 81.81 40.66 81.78 41.03 81.33 40.88 80.12 40.88 79.52 41.16 77.59 41.27 77.65 41.42 78.01 41.46 78.46 41.74 79.07 41.58 79.37 41.74 80.12 41.79 80.72 42.07 82.23 42.09 82.83 42.38 84.34 42.39 84.94 42.68 86.75 42.69 87.20 42.95 87.95 43.00 88.40 43.25 89.36 43.37 89.61 43.67 89.46 43.86 88.25 43.88 87.80 43.64 87.35 43.59 86.75 43.88 85.84 43.90 85.24 44.18 84.41 44.28 84.15 44.58 84.21 44.73 85.09 44.85 85.84 45.57 86.30 45.78 86.36 46.08 85.09 46.34 84.49 46.80 84.04 46.62 83.43 46.61 82.83 46.91 81.78 46.96 81.65 47.14 81.78 47.38 82.68 47.31 83.18 47.59 83.13 47.76 82.38 47.83 81.81 48.19 81.96 48.64 81.17 48.75 80.27 49.21 79.82 49.04 79.22 49.30 78.61 49.03 77.28 49.10 77.21 49.25 77.71 49.47 78.16 49.43 78.77 49.70 79.07 50.19 80.87 50.30 80.96 50.60 80.72 50.85 80.27 50.83 79.97 50.63 79.37 50.65 79.23 50.90 79.37 51.08 81.33 51.14 81.78 51.40 82.91 51.51 82.87 51.81 82.33 52.11 81.93 52.61 80.42 52.61 79.97 52.45 79.22 52.93 77.26 52.98 76.81 53.53 75.30 53.55 74.70 53.83 73.95 53.58 73.19 54.13 72.44 53.96 71.84 54.15 70.18 54.17 69.73 54.45 68.52 54.48 67.17 55.04 66.27 55.06 65.66 55.34 64.61 55.38 64.16 55.64 62.80 55.69 62.35 55.94 61.30 55.99 60.84 56.24 59.04 56.26 58.28 56.56 56.63 56.57 56.02 56.84 54.67 56.89 54.07 57.16 52.11 57.16 51.36 56.90 51.01 57.38 50.75 57.46 50.15 57.44 49.55 57.19 49.10 57.44 48.34 57.49 47.89 57.75 47.14 57.79 46.69 58.05 45.33 58.09 44.88 58.35 43.52 58.39 43.07 58.65 42.02 58.70 41.57 58.95 40.51 59.00 40.06 59.25 38.70 59.30 37.35 59.85 36.60 59.90 35.99 60.18 34.79 60.20 34.19 60.48 32.23 60.48 31.63 60.22 30.27 60.20 29.67 60.77 29.07 60.80 28.61 61.06 28.16 61.10 26.96 61.69 22.44 61.69 18.67 60.73 17.81 59.94 16.31 59.19 16.41 58.73 16.29 58.43 14.76 57.71 13.45 56.63 13.59 55.87 13.33 55.57 13.36 55.42 14.12 54.97 13.63 54.22 13.25 53.88 11.75 53.19 11.20 52.71 10.33 52.26 10.35 52.11 10.84 52.04 11.45 52.21 11.90 51.75 12.65 52.04 13.10 52.01 13.28 51.81 12.80 51.29 12.35 51.30 12.33 50.60 11.75 50.46 11.65 50.30 11.74 50.00 12.35 49.88 12.49 49.55 12.04 49.25 11.52 48.19 10.20 46.84 10.11 46.54 10.24 46.32 11.60 46.31 12.20 46.59 13.70 46.01 15.36 45.97 16.42 45.41 18.22 45.39 18.83 45.11 20.03 45.09 20.63 44.81 21.69 44.76 22.14 44.51 23.80 44.46 24.25 44.21 25.15 44.20 25.60 44.38 28.01 43.89 28.46 43.90 28.70 44.13 29.07 44.18 29.67 43.91 31.17 43.89 31.93 43.36 32.58 43.22 32.83 42.75 33.28 42.41 33.51 42.47 33.79 42.92 34.19 42.98 35.39 42.40 36.45 42.35 36.90 42.10 37.65 42.05 38.10 41.80 39.76 41.75 40.21 41.50 41.42 41.47 42.02 41.20 43.07 41.15 43.52 40.89 44.28 40.85 44.73 40.59 46.23 40.57 46.84 40.29 48.49 40.25 48.95 39.99 50.60 39.94 51.05 39.69 52.41 39.64 53.01 39.37 54.82 39.35 55.42 39.07 58.28 39.06 59.04 38.77 60.84 38.78 61.45 38.49 61.69 38.70 61.45 39.07 60.24 39.07 60.04 39.16 60.04 39.31 61.75 39.33 61.94 39.16 61.98 38.70 62.20 38.49 64.31 38.48 64.91 38.19Z M62.80 38.83 62.89 39.01 63.10 39.03 64.01 39.02 64.21 38.86 62.80 38.83Z M58.89 39.45 58.97 39.61 59.19 39.63 59.61 39.61 59.76 39.46 58.89 39.45Z M55.27 39.69 54.82 39.96 54.07 39.99 53.61 40.28 53.01 40.10 52.71 40.25 51.66 40.29 51.20 40.55 50.15 40.60 49.70 40.85 48.34 40.90 47.59 41.45 46.84 41.50 46.23 41.80 46.02 42.17 46.39 42.35 46.84 42.10 47.89 42.06 48.95 41.50 49.70 41.45 50.15 41.20 51.20 41.15 51.81 40.88 53.01 40.85 53.46 40.57 54.52 40.55 54.97 40.28 56.02 40.25 56.48 39.96 57.18 39.91 57.26 39.76 55.27 39.69Z M80.72 52.08 80.59 52.26 80.72 52.33 81.09 52.26 81.06 52.11 80.72 52.08Z M64.61 54.18 64.41 54.52 64.61 54.72 65.21 54.68 65.47 54.37 65.36 54.19 64.61 54.18Z M66.27 54.19 66.14 54.37 66.59 54.37 66.57 54.22 66.27 54.19Z M63.86 54.31 63.55 54.47 62.56 54.52 62.51 54.67 63.86 54.71 64.08 54.52 64.01 54.32 63.86 54.31Z M31.48 60.53 31.70 60.54 31.64 60.69 31.44 60.69 31.48 60.53Z M59.64 69.67 60.21 69.88 60.57 70.63 61.45 71.02 61.90 70.77 63.55 70.72 64.16 70.45 68.22 70.44 68.98 70.14 71.54 70.14 72.14 70.41 72.59 70.43 73.04 70.17 73.80 70.12 74.40 69.86 74.85 70.11 75.90 70.15 76.51 70.44 77.41 70.43 78.16 70.14 78.92 70.44 82.23 70.45 83.43 71.03 84.04 70.76 84.64 71.03 85.24 70.45 86.45 70.45 86.70 70.78 86.30 71.23 86.45 71.30 87.35 71.36 87.80 71.61 88.25 71.64 88.46 71.54 88.70 71.09 89.16 71.06 89.61 71.53 90.07 71.39 90.23 71.54 90.19 71.84 90.36 71.93 91.87 71.96 92.47 72.26 93.07 72.24 93.52 72.05 94.43 72.30 94.73 72.53 95.48 72.56 95.93 72.84 96.39 72.91 96.51 73.04 96.39 73.10 95.18 73.15 94.73 72.95 94.28 73.15 93.67 73.15 92.17 72.55 91.11 72.55 90.81 72.59 90.21 73.04 90.81 73.42 91.72 73.65 92.02 73.21 92.32 73.21 93.22 73.74 93.86 73.95 92.62 74.11 92.48 74.40 92.62 74.62 93.22 74.72 93.67 74.96 94.58 74.98 95.18 75.26 96.18 75.30 97.44 75.83 98.04 75.92 98.34 76.13 98.95 76.22 99.35 76.66 99.25 76.97 98.80 76.79 98.34 76.98 97.89 76.79 97.44 76.98 97.14 76.90 96.84 77.33 96.54 77.38 95.18 77.37 94.73 77.18 94.43 77.28 92.92 76.78 92.17 76.78 91.72 77.03 91.27 77.08 90.81 76.83 90.36 76.78 90.06 77.11 90.21 77.33 91.11 77.42 92.02 77.94 92.62 78.04 93.07 78.28 93.67 78.28 94.13 78.09 94.58 78.28 95.63 78.33 96.69 78.88 97.44 78.69 98.34 79.26 98.45 79.52 98.36 79.67 98.04 79.58 97.53 79.82 97.40 79.97 97.44 80.29 96.99 80.40 95.48 80.39 94.88 80.10 94.13 80.30 93.67 80.11 90.66 80.09 89.91 79.80 87.50 79.82 87.19 79.97 88.55 80.07 89.01 80.36 89.76 80.41 90.36 80.69 92.17 80.71 93.52 81.26 94.73 81.35 95.33 81.66 95.63 82.10 96.08 81.92 96.33 82.08 96.32 82.38 96.08 82.64 95.63 82.62 95.18 83.10 92.92 83.13 92.60 83.28 92.92 83.58 92.77 83.67 92.32 83.68 92.02 83.52 91.57 83.73 90.21 83.86 90.36 83.97 92.17 84.02 92.62 84.28 93.22 84.37 93.85 84.79 93.52 85.18 92.17 85.23 91.72 85.43 90.81 85.33 90.51 85.43 89.76 85.27 89.59 85.39 89.91 85.58 90.03 85.84 89.76 86.12 89.01 86.08 88.70 85.55 88.40 85.33 87.80 85.66 88.19 85.99 88.40 86.70 90.36 87.39 90.51 87.50 90.36 87.59 89.01 87.60 88.40 87.08 87.80 86.79 86.90 86.73 86.45 86.87 86.30 87.27 87.65 87.39 87.79 87.50 87.65 87.58 80.72 87.63 80.12 87.33 79.30 87.20 79.52 87.07 80.42 87.03 80.87 86.77 81.48 86.66 81.55 86.30 81.33 86.15 80.12 86.14 79.67 86.32 79.22 86.14 78.16 86.10 77.71 85.84 74.10 85.83 73.81 85.99 73.95 86.39 75.30 86.45 75.75 86.63 76.20 86.44 77.71 86.45 77.96 86.75 77.71 87.02 73.19 87.03 72.74 86.85 72.44 86.93 71.69 86.74 71.08 87.02 70.48 87.03 70.03 86.85 68.83 87.07 68.37 87.32 66.42 87.34 64.91 86.85 64.61 86.92 63.86 86.74 62.35 87.32 61.30 87.37 60.69 87.64 58.73 87.64 57.98 87.94 52.41 87.94 51.96 87.77 51.36 87.94 49.40 87.94 47.89 88.52 46.23 88.57 45.63 88.84 43.52 88.87 43.07 89.12 41.42 89.17 40.81 89.45 39.31 89.47 38.86 89.72 37.80 89.77 37.20 90.05 35.99 90.07 35.39 90.35 34.04 90.36 33.28 90.65 32.08 90.67 31.63 90.93 31.02 91.03 30.57 91.45 29.67 91.86 29.22 91.77 28.92 91.30 28.01 91.26 27.71 91.33 27.11 91.83 25.75 91.87 25.30 92.12 24.85 92.11 24.73 92.02 25.30 91.63 26.55 91.11 25.75 90.99 24.70 91.54 23.95 91.58 22.59 92.13 21.69 92.23 20.50 92.92 21.08 93.17 20.93 93.33 19.28 93.37 18.67 93.18 18.37 93.34 17.47 93.43 16.87 93.94 15.21 93.96 13.55 93.11 12.65 93.02 11.60 92.47 10.54 92.53 10.24 92.95 8.43 91.80 7.98 91.10 7.14 90.81 6.94 90.36 6.23 89.61 6.19 89.31 6.33 88.90 7.08 88.83 7.27 88.70 7.22 88.55 6.93 88.28 5.87 88.22 5.57 88.07 5.38 87.80 5.42 87.44 4.52 86.98 4.23 86.45 3.22 85.39 3.31 84.64 1.41 82.68 1.51 82.26 2.44 82.08 1.67 80.72 1.70 80.27 2.13 79.97 1.77 79.07 1.92 78.46 1.20 78.23 0.90 77.74 0.60 77.63 0.47 77.41 0.75 76.93 1.51 76.73 1.79 76.20 2.11 75.97 2.56 76.17 4.22 76.17 5.27 75.88 5.87 76.17 6.48 76.17 7.68 75.88 10.99 75.87 11.60 75.58 13.40 75.56 14.16 75.29 14.47 75.45 14.16 75.73 14.23 75.90 14.61 76.16 15.21 75.88 16.57 75.84 17.02 75.58 18.37 75.54 18.83 75.28 20.33 75.26 20.93 74.98 21.99 74.93 22.38 74.70 23.19 74.63 24.55 74.08 25.15 74.35 25.60 74.33 26.36 73.78 27.11 73.80 27.41 74.28 27.71 74.36 29.37 74.36 30.87 73.81 31.17 74.02 32.08 74.06 32.68 73.78 34.04 73.73 34.49 73.48 36.45 73.43 36.90 73.18 37.65 73.13 38.10 72.87 39.16 72.83 39.61 72.57 40.96 72.53 41.42 72.27 42.47 72.23 42.92 71.97 43.98 71.92 44.43 71.67 45.78 71.62 46.23 71.37 46.99 71.32 47.44 71.07 50.15 71.05 50.75 71.22 51.20 71.05 52.41 71.02 53.16 70.74 55.57 70.92 56.48 70.66 57.38 70.17 58.43 70.12 59.64 69.67Z M58.28 70.78 57.76 71.08 57.65 71.23 57.83 71.30 58.13 71.31 58.73 71.01 59.99 70.93 59.79 70.78 58.28 70.78Z M91.42 74.08 91.11 74.25 91.72 74.56 92.04 74.25 91.87 74.08 91.42 74.08Z M79.67 79.34 79.97 79.45 80.83 79.37 80.42 79.22 79.67 79.34Z"/></svg>
